<svg xmlns="http://www.w3.org/2000/svg" viewBox="0 0 600 154.24"><defs><style>.cls-1{fill:#2162a3;}</style></defs><g id="Ebene_2" data-name="Ebene 2"><g id="Ebene_2-2" data-name="Ebene 2"><path class="cls-1" d="M341.51,0h13.6c2.76.45,5.55.44,8.33.7A48.07,48.07,0,0,1,377.8,4.76c14,6,25.44,15.13,33.54,28.13A55.41,55.41,0,0,1,418.74,51c.28,1.39.59,2.85-1.24,3.53-11.81.17-23.62.05-35.42.07A2.38,2.38,0,0,1,379.72,53c-6.26-12.25-16.94-17-30-17.77a18.89,18.89,0,0,0-6.05,0c-19.77.7-36.42,16.25-38.21,35.66a20.34,20.34,0,0,0,0,2.34,19.38,19.38,0,0,0,0,6.58c.64,19.68,13.88,36.56,35.56,39.15a45,45,0,0,0,21.17-2.63,33.56,33.56,0,0,0,19.59-18.43c1.07-2.37.59-3-2.15-3-10.79,0-21.58,0-32.37,0-5.21,0-5.4-.2-5.41-5.45,0-8.75,0-17.5,0-26.26,0-1.33-.37-2.9,1.26-3.74a19.64,19.64,0,0,1,3.51-.13h65.11a21.39,21.39,0,0,0,7.1-1.2,8.24,8.24,0,0,0,.56-.62,21.78,21.78,0,0,0,1.18-7.11q0-20.68,0-41.39c0-1.06-.26-2.2.51-3.15a3.77,3.77,0,0,1,2.48-.46q34.11,0,68.23,0a6.86,6.86,0,0,1,1.86.16,1.65,1.65,0,0,1,.72.56,3.71,3.71,0,0,1,.3,1.83q0,15.23,0,30.44a4.11,4.11,0,0,1-.15,1.16,1.63,1.63,0,0,1-.53.71,6.6,6.6,0,0,1-3,.29c-8.65,0-17.31,0-26,0a17.36,17.36,0,0,0-7,1.33,3.18,3.18,0,0,0-.87,2.54q0,5.56,0,11.12a2.9,2.9,0,0,0,.94,2.5,19.25,19.25,0,0,0,7.07,1.26H490.8a8.78,8.78,0,0,1,3,.22,1.59,1.59,0,0,1,.62.64,6.43,6.43,0,0,1,.22,2.31q0,14.44,0,28.89a5.56,5.56,0,0,1-.29,2.52c-1.05,1.31-2.56,1-3.91,1-9.73.07-19.46,0-29.19.05-1.39,0-2.86-.17-3.83,1.19a26.69,26.69,0,0,0-.51,14.69,2.33,2.33,0,0,0,.84,1.36c1.19.8,2.54.64,3.85.64,9.55,0,19.11,0,28.67,0,1.35,0,2.83-.28,4,.83a3.35,3.35,0,0,1,.39,2q0,15.57,0,31.12a5,5,0,0,1-.13,1.16,2.11,2.11,0,0,1-2.08,1.22c-1.17.1-2.34.09-3.52.09H425.87c-6.16,0-6.2,0-6.2-6.08q0-19.09,0-38.19a41.28,41.28,0,0,1,.67-6.75c-5.07,27.52-34.85,56.27-69.95,55.76-2.76.1-5.53-.19-8.28.18A66.48,66.48,0,0,1,302.94,143a69.6,69.6,0,0,1-27.44-35.55c-.15-.45-.28-.9-.4-1.35-.22-.83-.3-1.69-.4-2.2a26.48,26.48,0,0,1,.38,5.15q0,17.11,0,34.23a34.49,34.49,0,0,1-.11,3.52,2.38,2.38,0,0,1-2.4,2.38c-.86.08-1.72.1-2.58.11q-13,0-26,0c-5.1,0-5.35-.24-5.35-5.27q0-32.58,0-65.17a6.86,6.86,0,0,0-.32-3.18A7.3,7.3,0,0,0,236,78.55a107.9,107.9,0,0,0-12,28.13,152.54,152.54,0,0,0-5.23,32.54c-.12,2.25-.4,4.5-.47,6.77-.09,2.55-.7,3.17-3.27,3.25-5.24.15-10.48,0-15.71.06-4,0-8,.07-12,0-2.86-.09-3.45-.67-3.56-3.48a157.48,157.48,0,0,0-5.29-35.14A133.56,133.56,0,0,0,164.93,77.8a6.09,6.09,0,0,0-1.24-1.75,4.41,4.41,0,0,0-.25,2.5q0,32.48,0,64.94c0,5.69-.11,5.8-5.77,5.81q-12.78,0-25.56,0c-4.87,0-5.13-.27-5.14-5.24q0-63,0-125.9c0-3.28-.09-6.57,0-9.85.12-2.65,1.08-3.44,3.75-3.14a65.09,65.09,0,0,1,35.48,15.66c13.18,11.25,22.32,25.36,29.47,40.93,1.47,3.19,3,6.38,4.32,9.62.26.61.42,1.55,1.23,1.54s.91-1,1.17-1.58a157.74,157.74,0,0,1,16.8-31.6c8.59-12.19,18.94-22.41,32.55-29a62.36,62.36,0,0,1,19.52-5.59c2.5-.31,3.65.43,3.68,2.69.16,13.83.2,27.66,0,41.49a1.94,1.94,0,0,1-.2.89,79.85,79.85,0,0,1,13.08-23.65A71.09,71.09,0,0,1,325.37,1.9C330.15.58,335.06.66,339.92.23,340.45.19,341,.38,341.51,0Z"/><path class="cls-1" d="M533.74,148.11H500.13c-.56-.69-.29-1.5-.29-2.26q0-68.7,0-137.41c0-.75-.26-1.57.28-2.26C508,7.9,514.92,11.74,521.64,16A167.49,167.49,0,0,1,550.75,39.8a76.87,76.87,0,0,1,14.11,18.63c.09.19.32.32.91.88V6.19c.43-.49,1-.32,1.54-.32h31.1c.52,0,1.11-.18,1.53.33q0,69.73.06,139.48c0,2.17-.65,2.53-2.61,2.51-8.68-.11-17.36-.09-26,0-1.73,0-2.42-.34-2.84-2.29-4.12-19.09-10.6-37.25-22.14-53.25a50.88,50.88,0,0,0-12.07-12.47,4.81,4.81,0,0,0-.23,2.52q0,31.48,0,63C534.05,146.46,534.38,147.36,533.74,148.11Z"/><path class="cls-1" d="M122.19,145.61q0-68.73,0-137.48A7.3,7.3,0,0,0,122,5.58h0a32.59,32.59,0,0,0-7.12,0A123.28,123.28,0,0,0,102.48,7,81.48,81.48,0,0,0,73.72,17.5,101.32,101.32,0,0,0,48.41,39.1,143.67,143.67,0,0,0,33.27,60.67c-5.41,9.28-9.7,19.11-13.83,29A357.94,357.94,0,0,0,5.06,130.81c-1.55,5.51-2.9,11.11-5.06,16.44v.93c10.7,0,21.4-.07,32.1,0,1.55,0,2.21-.48,2.55-1.83,1.42-5.7,2.72-11.44,4.32-17.09,1.48-5.2,2.68-10.49,5-15.44a4.12,4.12,0,0,1,1.16-.11h41a2.58,2.58,0,0,1,1.59.23c0,10.7.1,21.41.07,32.11,0,1.55.25,2.14,2,2.12,10.71-.09,21.42-.06,32.13-.07C122.47,147.33,122.19,146.44,122.19,145.61ZM86.54,79.75c-8.89,0-17.78,0-27,0C66,66.14,73.27,53.81,87.78,47.43V61c0,5.62,0,11.25,0,16.87C87.77,78.7,88.13,79.75,86.54,79.75Z"/></g></g></svg>