<svg xmlns="http://www.w3.org/2000/svg" viewBox="0 0 599.27 193.45"><g id="Ebene_2" data-name="Ebene 2"><g id="Ebene_2-2" data-name="Ebene 2"><path d="M599.27,174.81c-.66.87-.55,2-.81,2.95a20.08,20.08,0,0,1-17.55,15.35,41.58,41.58,0,0,1-5.23.3c-11.64,0-23.28,0-34.92,0-1.44,0-2-.23-1.91-1.83.14-3.89.11-7.79,0-11.68,0-1.4.27-1.85,1.77-1.84,11,.07,22.08,0,33.12,0a10.34,10.34,0,0,0,4.53-.83,5.3,5.3,0,0,0,3.23-4.84,5.4,5.4,0,0,0-2.86-5.08,9.27,9.27,0,0,0-4.91-1c-5.1,0-10.2,0-15.29,0a24.8,24.8,0,0,1-11.87-2.61c-5.46-2.93-8.48-7.61-9.49-13.6-1.2-7.12-.19-13.77,4.85-19.32,3.68-4.05,8.52-5.94,13.78-7a46.22,46.22,0,0,1,8.79-.72q16.34,0,32.67,0c.35,0,.69,0,1.23.09-.42.9-.79,1.7-1.17,2.49-1.83,3.94-3.7,7.85-5.47,11.81a2.06,2.06,0,0,1-2.22,1.44c-9.09-.06-18.18,0-27.27,0a20.74,20.74,0,0,0-2.84.19c-3.47.46-5.54,2.73-5.4,5.84a6,6,0,0,0,6,5.86c5.64.08,11.29,0,16.93,0a31,31,0,0,1,8.73,1.13c7.64,2.24,12,7.34,13.24,15.16,0,.28-.07.62.29.77v.3a3.15,3.15,0,0,0,0,2.1v1.5a3.15,3.15,0,0,0,0,2.1Z"/><path d="M599.27,170.31a1.8,1.8,0,0,1,0-2.1Z"/><path d="M599.27,173.91a1.84,1.84,0,0,1,0-2.1Z"/><path d="M155.28,19.3l-5.71,15.85q-6.1,17-12.18,33.93a1.66,1.66,0,0,1-1.89,1.35q-6.28-.11-12.59,0a1.68,1.68,0,0,1-1.9-1.35Q112.39,45,103.67,21a5.13,5.13,0,0,0-.87-1.64v1.52c0,16,0,32,0,48,0,1.35-.37,1.64-1.66,1.62q-7.12-.12-14.24,0c-1.37,0-1.75-.34-1.75-1.73q.07-30.95,0-61.9c0-1.85,0-3.7,0-5.55,0-.84.14-1.24,1.14-1.23q13,.1,25.93.11c1,0,1.12.54,1.36,1.22q7.61,21.2,15.22,42.37c.15.42.32.83.52,1.36a2.52,2.52,0,0,0,.74-1.43q7.35-21,14.68-42.08A1.93,1.93,0,0,1,147,0q12.36.09,24.73,0c1.08,0,1.45.22,1.45,1.38q-.06,33.81,0,67.6c0,1.13-.32,1.44-1.43,1.42-4.95,0-9.9-.06-14.84,0-1.2,0-1.37-.4-1.37-1.46q.06-24.36,0-48.71v-.9Z"/><path d="M528.41,43.64V32.73c0-10.35,0-20.69,0-31,0-1.42.43-1.71,1.75-1.69q7.18.12,14.39,0C545.75,0,546,.4,546,1.52q0,33.64,0,67.3c0,1.38-.42,1.62-1.68,1.61q-9.22-.11-18.44,0a2.44,2.44,0,0,1-2.37-1.33Q509.9,47.94,496.23,26.82c-.26-.41-.54-.81-.91-1.36a3.69,3.69,0,0,0-.22,1.86c0,13.79,0,27.58,0,41.37,0,1.34-.31,1.77-1.72,1.74-4.84-.09-9.69-.06-14.54,0-1,0-1.36-.22-1.36-1.31q0-33.87,0-67.74C477.49.16,477.92,0,479,0c6.55,0,13.09.05,19.64,0a2.09,2.09,0,0,1,2,1.16q13.33,20.7,26.71,41.38c.27.41.54.81.82,1.21Z"/><path d="M127.77,158.17c0-11.14,0-22.29,0-33.43,0-1.34.37-1.65,1.68-1.65q27,.07,54.1,0c1.25,0,1.74.21,1.7,1.61-.1,4.25-.08,8.5,0,12.74,0,1.13-.28,1.41-1.41,1.41-12.19,0-24.38,0-36.57-.06-1.43,0-1.71.44-1.67,1.74.09,3,.08,5.9,0,8.84,0,1.16.27,1.5,1.47,1.5,11.84,0,23.68,0,35.52-.06,1.34,0,1.78.29,1.74,1.7-.1,3.9-.09,7.8,0,11.69,0,1.23-.39,1.49-1.53,1.48-11.79,0-23.58,0-35.37-.05-1.38,0-1.91.24-1.85,1.76.14,3.09.1,6.2,0,9.29,0,1.2.34,1.48,1.5,1.47,12.14,0,24.28,0,36.42,0,1.32,0,1.79.27,1.75,1.7-.1,4.14-.06,8.29,0,12.43,0,.92-.24,1.19-1.17,1.19q-27.57,0-55.15,0c-1.19,0-1.11-.61-1.11-1.4Q127.78,175.11,127.77,158.17Z"/><path d="M185.17,35.12c0-11.14,0-22.28,0-33.42,0-1.22.16-1.7,1.58-1.7Q213.87.09,241,0c1.27,0,1.57.34,1.54,1.57q-.12,6.3,0,12.59c0,1.28-.25,1.68-1.62,1.67-12.09-.06-24.18,0-36.27-.08-1.49,0-1.82.42-1.76,1.83.12,2.84.1,5.69,0,8.54,0,1.32.26,1.75,1.68,1.74,11.74-.06,23.49,0,35.23-.08,1.58,0,1.86.46,1.82,1.91-.1,3.84-.08,7.69,0,11.54,0,1.13-.3,1.39-1.41,1.39-11.89,0-23.78,0-35.67-.06-1.26,0-1.72.22-1.66,1.61.12,3.19.09,6.39,0,9.59,0,1.16.34,1.39,1.43,1.38,12.19,0,24.38,0,36.57,0,1.29,0,1.68.26,1.65,1.62-.1,4.14-.07,8.29,0,12.44,0,1-.28,1.26-1.26,1.26q-27.44,0-54.86,0c-1.16,0-1.25-.49-1.25-1.42Q185.19,52.05,185.17,35.12Z"/><path d="M408.87,158.17c0-11.19,0-22.38,0-33.57,0-1.13.23-1.51,1.45-1.51q27.21.06,54.41,0c1.3,0,1.53.42,1.51,1.61q-.11,6.28,0,12.59c0,1.21-.24,1.58-1.53,1.58-12.14-.06-24.28,0-36.42-.07-1.36,0-1.76.33-1.71,1.71.11,2.94.11,5.9,0,8.84-.05,1.3.39,1.53,1.59,1.52,11.74,0,23.48,0,35.22-.06,1.51,0,1.8.45,1.77,1.84-.1,3.79-.09,7.59,0,11.38,0,1.31-.31,1.68-1.65,1.67-11.74,0-23.48,0-35.22-.06-1.39,0-1.75.39-1.71,1.74.1,3.1.09,6.2,0,9.29,0,1.17.28,1.5,1.47,1.5,12.14,0,24.28,0,36.42-.07,1.5,0,1.79.42,1.76,1.82-.1,4.05-.06,8.1,0,12.14,0,1-.15,1.38-1.27,1.38q-27.42-.06-54.85,0c-1.17,0-1.25-.46-1.24-1.39Q408.89,175.11,408.87,158.17Z"/><path d="M494.76,193.41c-6.35,0-12.69,0-19,0-1.14,0-1.42-.31-1.4-1.42.06-4.15.07-8.3,0-12.44,0-1.23.38-1.48,1.52-1.47,11.14,0,22.29,0,33.43,0a10.14,10.14,0,0,0,4.52-.84,5.27,5.27,0,0,0,3.2-4.86,5.35,5.35,0,0,0-2.88-5.06,9.07,9.07,0,0,0-4.77-1H494.19a29,29,0,0,1-8.43-1.11c-6.33-1.95-10.7-6-12.51-12.4-2.14-7.52-1.63-14.78,3.42-21.15,3.7-4.67,8.9-6.75,14.58-7.85a48.52,48.52,0,0,1,9.24-.71q15.9,0,31.78,0c1.67,0,1.68,0,1,1.46-2,4.38-4.14,8.75-6.14,13.15a1.74,1.74,0,0,1-1.89,1.21q-13.72-.06-27.44,0a21.21,21.21,0,0,0-3,.2c-3.45.48-5.42,2.72-5.27,5.94a6,6,0,0,0,6,5.75c5.64.08,11.29,0,16.94,0a32.17,32.17,0,0,1,8.3,1c8.13,2.18,13,7.82,13.78,16.32s-1.26,16.11-8.63,21.38a22.3,22.3,0,0,1-13,3.85c-6,.08-12.1,0-18.14,0Z"/><path d="M264.13,123.25c-5.87,7.32-11.58,14.45-17.3,21.57-3.28,4.09-6.53,8.21-9.87,12.25a1.53,1.53,0,0,0,0,2.36q13,16.26,25.95,32.58c.3.38.59.77.92,1.2a2.16,2.16,0,0,1-1.36.19c-6.24,0-12.48,0-18.73,0a3.22,3.22,0,0,1-3-1.44c-4.8-6.39-9.67-12.72-14.52-19.07-.26-.35-.56-.68-.92-1.11l-11.67,15.67c-1.25,1.68-2.52,3.35-3.75,5a1.77,1.77,0,0,1-1.57.89c-6.85,0-13.69,0-20.53,0-.2-.6.3-.84.55-1.15q13-16.19,26-32.32a1.6,1.6,0,0,0,0-2.47Q201.07,141,187.88,124.55c-.3-.38-.72-.68-.81-1.23.4-.36.86-.2,1.28-.2,6.39,0,12.79,0,19.18,0a2.52,2.52,0,0,1,2.23,1.15q7.35,9.57,14.74,19.09l1.39,1.77c2.29-2.93,4.51-5.8,6.74-8.66q4.78-6.15,9.55-12.31a2,2,0,0,1,1.67-1c6.5,0,13,0,19.49,0A6.72,6.72,0,0,1,264.13,123.25Z"/><path d="M392.81,16.73c-2.7,0-5.4,0-8.09,0-8.05.07-13.74,4.38-15.93,12.14a25.71,25.71,0,0,0,.09,14.34c2,7,7.51,11.14,15.19,11.64,2,.13,4.09.11,6.14.12.79,0,1.28,0,.77,1.05-2.22,4.52-4.38,9.06-6.56,13.6-.21.43-.41.75-1,.77-9.49.37-18-1.8-24.65-9.14a33.31,33.31,0,0,1-7.88-16.7,46.55,46.55,0,0,1,1-22.22C355.74,9.63,364.58,2.72,377.47.62A54.65,54.65,0,0,1,386.42,0q8.38,0,16.78,0c.84,0,1.24.1,1.23,1.11-.05,4.84,0,9.69,0,14.53,0,.89-.32,1.08-1.13,1.08C399.8,16.71,396.3,16.73,392.81,16.73Z"/><path d="M341.48,35.2c0,11.2,0,22.39,0,33.58,0,1.32-.32,1.67-1.65,1.65-5-.08-10-.06-15,0-1,0-1.37-.27-1.37-1.34q0-33.87,0-67.74c0-1.08.34-1.33,1.36-1.32Q332.45.1,340,0c1.16,0,1.5.27,1.5,1.47C341.46,12.72,341.48,24,341.48,35.2Z"/><path d="M297.19,44.56c8.62-1.46,14.81-5.81,17.72-13.81s1.91-15.82-3.71-22.52C306.4,2.5,299.84.19,292.58.1,279.7-.06,266.81.07,253.92,0c-1,0-1.25.26-1.25,1.25q0,33.93,0,67.87c0,1,.25,1.28,1.24,1.27,4.85,0,9.69-.09,14.53,0,1.55,0,1.9-.41,1.88-1.9-.08-7.25,0-14.49-.06-21.73,0-1.09.25-1.53,1.41-1.44a22.71,22.71,0,0,0,4,0A3.43,3.43,0,0,1,279,46.91c6.27,7.51,12.6,15,18.92,22.46.44.52.81,1,1.67,1,6.74,0,13.48,0,20.66,0Zm-1.27-15.89a8.53,8.53,0,0,1-5.39,1.93c-6.33,0-12.67,0-19,0-1,0-1.28-.23-1.27-1.23.06-4.14.05-8.28,0-12.42,0-.93.27-1.2,1.18-1.18,3.29.05,6.59,0,9.88,0v0c3.24,0,6.48,0,9.73,0a7.82,7.82,0,0,1,5.35,2.35A6.73,6.73,0,0,1,295.92,28.67Z"/><path d="M382.31,167.61c1.36-.3,2.48-.48,3.57-.79,11.72-3.36,18.16-15.41,14.74-27.51a22.22,22.22,0,0,0-20.77-16c-13.68-.53-27.37-.1-41.06-.21-1,0-1,.5-1,1.21q0,34,0,67.9c0,1,.29,1.24,1.25,1.23,4.89-.05,9.79-.08,14.69,0,1.44,0,1.69-.46,1.68-1.76-.06-7.24,0-14.49-.05-21.73,0-1.11.19-1.62,1.45-1.53a40.29,40.29,0,0,0,4.79,0,2.25,2.25,0,0,1,2,1q9.74,11.61,19.49,23.17a2.22,2.22,0,0,0,1.91.86c6.34,0,12.69,0,19,0,.32,0,.69.16,1-.26Zm-5.94-14-.6,0h-9.43c-3.19,0-6.38-.05-9.58,0-1.15,0-1.41-.35-1.39-1.44.06-4,0-8.08,0-12.12,0-.93.19-1.29,1.22-1.28,6.34.05,12.67,0,19,0,4.59.05,8.27,3.55,8.16,7.63C383.67,150.15,380.43,153.26,376.37,153.58Z"/><path d="M474.88,69.06Q460.3,35.11,445.74,1.16A1.6,1.6,0,0,0,444,0c-6.7,0-13.39,0-20.08,0a2,2,0,0,0-2.19,1.45q-14.42,33.69-28.93,67.34c-.2.47-.59.93-.41,1.59,6.2,0,12.39,0,18.58,0,.89,0,1.05-.55,1.29-1.16,1.53-3.9,3.11-7.78,4.6-11.69a1.65,1.65,0,0,1,1.83-1.27q14.91.08,29.82,0a1.64,1.64,0,0,1,1.84,1.24c1.47,3.92,3,7.81,4.58,11.7.23.59.36,1.18,1.27,1.18,6.34,0,12.69,0,19.24,0C475.15,69.79,475,69.42,474.88,69.06ZM425,41.05c-.39,0-.77,0-1.36-.06,3.27-8.13,6.5-16.13,9.89-24.55,3.38,8.4,6.6,16.42,9.9,24.61C437.11,41.05,431,41.06,425,41.05Z"/><path d="M82.59,69Q68,35.18,53.49,1.3A1.8,1.8,0,0,0,51.5,0c-3.34.07-6.69,0-10,0s-6.89,0-10.34,0a1.4,1.4,0,0,0-1.55,1c-1,2.49-2.12,5-3.18,7.42L.39,68.91c-.63,1.48-.63,1.49,1,1.49,5.59,0,11.19,0,16.78,0a1.56,1.56,0,0,0,1.75-1.17c1.5-4,3.11-7.88,4.63-11.84a1.46,1.46,0,0,1,1.63-1.1q15.06,0,30.12,0a1.46,1.46,0,0,1,1.62,1.12c1.5,3.91,3.09,7.78,4.58,11.69a1.64,1.64,0,0,0,1.8,1.31c5.8-.06,11.59-.07,17.38,0C83,70.44,83.07,70.15,82.59,69ZM49.67,41.09c-6-.08-12.08,0-18.4,0,3.34-8.28,6.58-16.31,9.82-24.37a2.26,2.26,0,0,1,.68,1.21q4.4,10.88,8.78,21.77C51,40.66,51.06,41.1,49.67,41.09Z"/><path d="M329.22,140c-2.35-9.73-10.82-16.39-21.32-16.64-13.58-.33-27.17-.13-40.76-.2-1.27,0-1,.78-1,1.48v33.57c0,11.28,0,22.57,0,33.86,0,1.1.24,1.44,1.39,1.42,5.09-.07,10.19-.06,15.28,0,1.12,0,1.42-.27,1.41-1.4-.05-6.44,0-12.89-.06-19.33,0-1.29.38-1.54,1.59-1.53,6,.06,12.09.12,18.13,0,6.57-.13,12.85-1.56,18-5.85C330,158.6,331.57,149.67,329.22,140Zm-24.45,15.1c-4.12.3-8.28.13-12.42.16-2.35,0-4.7,0-7,0-.93,0-1.18-.29-1.17-1.19q.06-6.88,0-13.78c0-1,.25-1.28,1.25-1.26,3.24.06,6.49,0,9.73,0v0c3.05,0,6.1-.09,9.14,0,4.78.17,7.9,3.24,8.06,7.73A7.77,7.77,0,0,1,304.77,155.06Z"/></g></g></svg>