<svg xmlns="http://www.w3.org/2000/svg" viewBox="0 0 600 136.3"><defs><style>.cls-1{fill:#3277bb;}</style></defs><g id="Ebene_2" data-name="Ebene 2"><g id="Ebene_2-2" data-name="Ebene 2"><path class="cls-1" d="M566.84,45.37l2.24-3a10.18,10.18,0,0,0,.71-1,1.68,1.68,0,0,0-1.15-2.56,4.54,4.54,0,0,0-1-.05c-2.09,0-4.19,0-6.28,0a6.61,6.61,0,0,0-5.81,2.87c-4.81,6.45-9.68,12.85-14.53,19.28-.89,1.18-1.77,2.37-2.67,3.54a1.92,1.92,0,0,0-.41,2.16,2,2,0,0,0,2,1c2.26,0,4.52,0,6.78,0a6.28,6.28,0,0,0,5.4-2.67c3.2-4.28,6.43-8.52,9.63-12.8a1.82,1.82,0,0,1,1.62-.84q15.58,0,31.19,0a1.52,1.52,0,0,1,.84.09c.1.38-.22.59-.4.83-2.17,2.9-4.36,5.77-6.51,8.67a1.76,1.76,0,0,1-1.63.82c-1.48-.05-3,0-4.44,0a1.45,1.45,0,0,0-1.33.67c-1.74,2.34-3.46,4.7-5.3,7a22,22,0,0,1-17.65,8.6c-14.51.09-29,0-43.53,0a6.53,6.53,0,0,1-6.73-5.9A6.6,6.6,0,0,1,509.33,67c1.64-2.16,3.26-4.33,4.9-6.49q8.57-11.36,17.13-22.72A22.75,22.75,0,0,1,546,28.76a21.49,21.49,0,0,1,3.92-.36q21.58,0,43.16,0a6.62,6.62,0,0,1,6.82,5.4,5.81,5.81,0,0,1-.84,4.6c-1.54,2.23-3.22,4.36-4.82,6.55a1.05,1.05,0,0,1-1,.42c-1,0-2,0-3,0H566.84Z"/><path class="cls-1" d="M485.91,53.26A3.85,3.85,0,0,0,487,52.09q8.61-11.4,17.2-22.82a1.64,1.64,0,0,1,1.46-.89c5.47,0,10.93,0,16.4,0,.12,0,.24,0,.42.05,0,.6-.46.94-.76,1.34Q514,40.08,506.21,50.35q-10,13.27-20,26.56a2.25,2.25,0,0,1-2,1c-6.28,0-12.57,0-18.86,0-1.25,0-1.25,0-1.53-1.18q-2.56-11.09-5.14-22.17c-.09-.4-.2-.79-.32-1.23-.49.18-.69.61-.95,1q-8.43,11.16-16.82,22.34a2.84,2.84,0,0,1-2.62,1.32c-4.93-.08-9.87,0-14.8,0h-1.23c0-.55.34-.8.57-1.11L455,33.62c1.11-1.48,2.25-2.94,3.33-4.43a1.66,1.66,0,0,1,1.51-.81c6.41,0,12.82,0,19.23,0,1,0,1,0,1.26,1.06q2.7,11.68,5.42,23.37C485.8,52.94,485.84,53.05,485.91,53.26Z"/><path class="cls-1" d="M308,77.9a2.15,2.15,0,0,1,.6-1.13Q326.46,53,344.37,29.26a1.78,1.78,0,0,1,1.59-.88q26.21,0,52.41,0c.2,0,.4,0,.59,0,.13.39-.15.57-.31.78-2.22,3-4.46,5.89-6.65,8.87a1.68,1.68,0,0,1-1.58.68c-8.26,0-16.52,0-24.78,0a2.27,2.27,0,0,0-2.15,1c-1.64,2.31-3.39,4.54-5.1,6.81a1.94,1.94,0,0,0-.56,1h26.59c.19.54-.2.76-.4,1-2.11,2.83-4.26,5.63-6.35,8.48a2,2,0,0,1-1.84.9c-8.26,0-16.53,0-24.79,0a2.19,2.19,0,0,0-2,1c-1.83,2.52-3.73,5-5.6,7.5a1.7,1.7,0,0,0-.56,1h26.53c.2.49-.14.7-.32.94-2.16,2.89-4.35,5.77-6.5,8.67a1.81,1.81,0,0,1-1.65.8q-26,0-52,0Z"/><path class="cls-1" d="M377.37,77.84l2.57-3.43Q396.88,52,413.81,29.47a2.47,2.47,0,0,1,2.24-1.1c8.05.05,16.1,0,24.15,0h1.22c.07.5-.27.73-.47,1Q423,53.22,405.08,77a1.83,1.83,0,0,1-1.6.91c-8.42,0-16.84,0-25.26,0C378,77.89,377.82,77.87,377.37,77.84Z"/><path d="M97.27,1,97,.77A3.58,3.58,0,0,1,98.26,0,2.17,2.17,0,0,1,97.27,1Z"/><path d="M46.79,114.13l-.35,0a2.14,2.14,0,0,1,1-.84A1.21,1.21,0,0,1,46.79,114.13Z"/><path d="M164.73,95.4a44.12,44.12,0,0,0-5.48-.69c-3.23-.29-6.46-.49-9.69-.74q-5.58-.42-11.14-1c-3.91-.4-7.81-.91-11.7-1.47q-8.64-1.24-17.14-3.26a145.16,145.16,0,0,1-17-5.22c-1.21-.46-1.24-.48-.7-1.72a48.78,48.78,0,0,0,3.91-17A45.3,45.3,0,0,0,95,53.63a47,47,0,0,0-5.13-14.29,46.28,46.28,0,0,0-11.5-13.82c-1-.85-2.1-1.71-3.22-2.47-.65-.44-.63-.55-.1-1.14.14-.15.29-.29.43-.43,3.36-3.32,6.67-6.69,10.12-9.92C89.39,8,93.32,4.49,97.27,1c0-.22,0-.34-.26-.25l-1.39.79c-4.8,2.93-9.45,6.1-14,9.41q-5.37,3.93-10.48,8.17c-1,.85-1,.88-2.23.27a47.88,47.88,0,0,0-18.08-4.79,46.53,46.53,0,0,0-12,.76A48,48,0,0,0,3.18,45.19a45.16,45.16,0,0,0-3,13.25A47.37,47.37,0,0,0,.61,70.09a49.45,49.45,0,0,0,2.67,9.7,47.94,47.94,0,0,0,7.68,13,1.44,1.44,0,0,1,.22,1.76,105.76,105.76,0,0,0-4.33,11C5,111.39,3.5,117.34,3.76,123.59a17.88,17.88,0,0,0,1.32,6.34c2,4.77,6.1,6.75,11,6.31a26.51,26.51,0,0,0,9.58-3,52.41,52.41,0,0,0,11.84-8.34A55,55,0,0,0,43,119.13a39.83,39.83,0,0,0,3.76-5,.24.24,0,0,0-.35,0A87.33,87.33,0,0,1,36.72,121a36.24,36.24,0,0,1-8.83,4,12.14,12.14,0,0,1-6.07.44A6.54,6.54,0,0,1,17,121.65c-1.21-2.67-1.09-5.48-.78-8.23a47.62,47.62,0,0,1,2.85-11.17,7.77,7.77,0,0,1,.31-.8.36.36,0,0,1,.59-.19l.72.48a48.34,48.34,0,0,0,8.74,4.76A47.79,47.79,0,0,0,48,110.19c1.27,0,2.54-.09,3.81-.19a47.11,47.11,0,0,0,28.6-12.63l.56-.48c.35-.3.63-.3.86.17s.69,1.13.94,1.73a1.19,1.19,0,0,0,1.47.77c3-.4,6-.45,8.95-.64,3.23-.22,6.47-.36,9.71-.5l11.56-.5c4.34-.17,8.69-.28,13-.5,2.5-.13,5,0,7.51-.24s4.84-.05,7.26-.24c2.66-.2,5.33-.12,8-.24,4.92-.22,9.85-.24,14.78-.35a2.29,2.29,0,0,0,.37,0c.26,0,.58.11.82-.31A3.47,3.47,0,0,0,164.73,95.4Zm-145.61-16c-1.91,3.21-3.66,6.51-5.4,9.81l-.4.73a44,44,0,0,1,.77-56.11C28.84,16.48,51.77,14.87,66.93,22.56a10.85,10.85,0,0,1-1.63,1.62A203.78,203.78,0,0,0,50.37,38.49,245.15,245.15,0,0,0,33,58.9,222.59,222.59,0,0,0,19.12,79.36Zm69.09,1.16c-.16.43-.4.58-.84.35-.25-.14-.54-.21-.8-.33A78.76,78.76,0,0,1,67.82,68.86c-.39-.34-.82-.64-1.23-1l-.17.12c.53,1,1,2.09,1.59,3.12,1.53,2.85,3.08,5.7,4.61,8.56q3.31,6.18,6.6,12.39c.57,1.08.64.86-.26,1.74a44.65,44.65,0,0,1-21.33,11.67,43.11,43.11,0,0,1-13.58.91A43.57,43.57,0,0,1,22,98.2c-1-.71-1-.71-.51-1.87A141.58,141.58,0,0,1,28.8,81.72q4.87-8.56,10.48-16.67,6.22-9,13.07-17.57c4.12-5.11,8.35-10.12,12.75-15,2.06-2.28,4.21-4.48,6.22-6.82.35-.41.65-.36,1.05-.09a44.22,44.22,0,0,1,8.69,7.58,46.29,46.29,0,0,1,5.47,7.72,44,44,0,0,1,4.57,12,44,44,0,0,1-2.52,26.85C88.46,80,88.31,80.25,88.21,80.52Z"/><path class="cls-1" d="M238.56,30.79a6.85,6.85,0,0,0-5.58-2.4q-26.64,0-53.27,0a2,2,0,0,0-1.81,1L142,77c-.18.25-.47.46-.41.94h.83c18.63,0,37.25,0,55.87,0a21.92,21.92,0,0,0,16.45-7.23,86.27,86.27,0,0,0,7-9.18,5.12,5.12,0,0,0-.43-6.29c-.21-.25-.53-.41-.63-.84a6.72,6.72,0,0,1,.64-.21,22.38,22.38,0,0,0,10.55-6.29,84.84,84.84,0,0,0,5.26-6.68,30.73,30.73,0,0,0,1.95-2.69A6.47,6.47,0,0,0,238.56,30.79Zm-43.18,29.9c-.48.76-1.06,1.46-1.61,2.18s-1.18,1.57-1.79,2.35a5.54,5.54,0,0,1-4.32,2.29c-3.73.08-7.46,0-11.46,0L177.37,66c1.8-2.39,3.63-4.77,5.4-7.19A1.75,1.75,0,0,1,184.4,58c2.95,0,5.91,0,8.87,0a4.91,4.91,0,0,1,.86,0A1.7,1.7,0,0,1,195.38,60.69Zm14.36-19c-.94,1.35-1.94,2.65-3,3.92a5.16,5.16,0,0,1-3.95,2c-3.78.06-7.56,0-11.6,0l4.65-6.18c.55-.72,1.1-1.44,1.63-2.17a1.18,1.18,0,0,1,1-.51c3.25,0,6.5,0,9.74,0A1.71,1.71,0,0,1,209.74,41.66Z"/><path class="cls-1" d="M317.52,28.57a10.15,10.15,0,0,0-2.2-.17H273.51a25.66,25.66,0,0,0-6,.62A23.2,23.2,0,0,0,254,38.08c-5.7,7.63-11.46,15.22-17.2,22.83-1.68,2.23-3.42,4.41-5,6.72a6.55,6.55,0,0,0,2.3,9.45,7.56,7.56,0,0,0,3.68.83h42.67a23.49,23.49,0,0,0,7.4-1.14,22.72,22.72,0,0,0,11.32-8.15l16.4-21.73c2.05-2.72,4.19-5.39,6.1-8.2A6.54,6.54,0,0,0,317.52,28.57ZM292.69,41.24a5.53,5.53,0,0,1-.54.82Q283.59,53.42,275,64.77a6.36,6.36,0,0,1-5.58,2.78c-1,0-2.06,0-3.09,0s-2.21,0-3.32,0c-.9,0-1.74,0-2.23-1s0-1.65.53-2.35l8.09-10.71c3-4,6.06-8,9-12a6.45,6.45,0,0,1,5.58-2.79c2.18,0,4.36,0,6.53,0a3.15,3.15,0,0,1,1.1.11A1.66,1.66,0,0,1,292.69,41.24Z"/></g></g></svg>