<svg xmlns="http://www.w3.org/2000/svg" viewBox="0 0 600 98.18"><defs><style>.cls-1{fill:#fcc100;}</style></defs><g id="Ebene_2" data-name="Ebene 2"><g id="Ebene_2-2" data-name="Ebene 2"><path d="M20.66,49c0,9.1,0,18.2,0,27.31,0,2.88,1.57,4.84,4,5.21a4.83,4.83,0,0,0,5.53-3.15,8.63,8.63,0,0,0,.34-2.78c0-5.49.09-11,0-16.48,0-1.65.48-2,2-2,5.42.09,10.83.08,16.24,0,1.39,0,2,.25,1.91,1.79-.11,4.55,0,9.1-.07,13.65A11.78,11.78,0,0,1,46.08,82Q36.78,89.51,27.45,97a2.66,2.66,0,0,1-1.53.87c-7.63.34-15-.17-20.69-6.26A18,18,0,0,1,.05,79.09C0,59.25,0,39.42.06,19.58a17.54,17.54,0,0,1,12-17.17,37.37,37.37,0,0,1,26-.16c8,2.82,12.44,9.38,12.53,17.94.07,6.26,0,12.53.06,18.8,0,1.54-.32,2.07-2,2-5.33-.11-10.66-.13-16,0-1.93.05-2.23-.69-2.2-2.37.1-5.5.06-11,0-16.49,0-3.65-1.95-5.82-5.08-5.78s-4.77,2.15-4.78,5.77Q20.64,35.57,20.66,49Z"/><path d="M191.25,98c-7.14,0-14.27-.06-21.4,0-1.72,0-2.31-.29-2.31-2.18q.11-45.85,0-91.71c0-1.64.36-2.14,2.09-2.13q21.13.11,42.27,0c1.69,0,2.18.43,2.14,2.13-.12,4.54-.14,9.1,0,13.65.06,2-.4,2.64-2.51,2.59-6.87-.14-13.75,0-20.62-.08-1.6,0-2.24.29-2.19,2.09.14,5,.14,10,0,14.94,0,1.79.6,2.07,2.18,2,5.84-.09,11.69,0,17.53-.08,1.87,0,2.29.59,2.25,2.34-.11,4.72-.12,9.44,0,14.16.05,1.85-.32,2.51-2.35,2.46-5.84-.16-11.69,0-17.53-.1-1.75,0-2.11.52-2.08,2.14.1,5.76.11,11.51,0,17.26,0,1.67.51,2,2,1.94,7.31-.09,14.61,0,21.91-.1,1.7,0,2.19.44,2.15,2.14-.11,4.81-.13,9.62,0,14.43,0,1.79-.61,2.07-2.19,2C205.51,97.93,198.38,98,191.25,98Z"/><path d="M148,59.2c0,12,0,24,0,36.05,0,1.92-.33,2.65-2.48,2.65a8.65,8.65,0,0,1-6.22-2.3c-4-3.53-8.11-6.9-12.24-10.25a4,4,0,0,1-1.61-3.48c0-19.49,0-39,.09-58.46,0-2.24-.49-3-2.8-2.8-3.16.22-6.35,0-9.53.08-1.24,0-1.62-.39-1.61-1.62q.09-7.73,0-15.45c0-1.25.39-1.6,1.62-1.6q23.58.06,47.16,0c1.32,0,1.54.52,1.53,1.67,0,5.06-.09,10.13,0,15.19,0,1.57-.56,1.85-1.94,1.81-3.26-.08-6.53.08-9.79-.07-1.81-.08-2.28.47-2.27,2.27C148,35,148,47.1,148,59.2Z"/><path d="M382.25,50c0-15.11,0-30.22-.05-45.32,0-2,.31-2.8,2.58-2.72,5.49.19,11,.17,16.49,0,2.15-.07,2.47.69,2.47,2.6-.06,24.12,0,48.24-.1,72.36,0,2.36.6,3,3,2.93,5.75-.18,11.5,0,17.26-.09,1.47,0,1.87.42,1.84,1.87q-.12,7.34,0,14.67c0,1.45-.4,1.87-1.86,1.87-13.23,0-26.46-.08-39.69,0-2,0-1.92-1-1.92-2.36Q382.28,72.9,382.25,50Z"/><path d="M430.72,50c0-15.19,0-30.38,0-45.57,0-1.81.26-2.51,2.31-2.45,5.58.17,11.17.14,16.75,0,1.85,0,2.21.52,2.21,2.28-.06,24.28,0,48.57-.11,72.86,0,2.34.62,2.83,2.84,2.76,5.83-.16,11.68,0,17.52-.08,1.42,0,1.89.32,1.86,1.81-.09,4.89-.07,9.79,0,14.68,0,1.3-.29,1.75-1.69,1.74-13.31,0-26.62-.07-39.93,0-2,0-1.72-1-1.72-2.23Z"/><path class="cls-1" d="M134.29,97.84H35.21c.92-.79,1.51-1.33,2.14-1.84Q60.48,77.32,83.6,58.61c1.54-1.26,2.43-1.34,4,0q22.64,19.1,45.4,38C133.33,96.89,133.62,97.2,134.29,97.84Z"/><path d="M371.1,50c0,15.1,0,30.21,0,45.31,0,2-.31,2.81-2.58,2.73-5.49-.19-11-.11-16.49,0-1.6,0-2.22-.28-2.21-2.08q.09-46,0-91.92c0-1.55.33-2.07,2-2,5.75.1,11.51.13,17.26,0,1.85-.05,2,.67,2,2.2Q371.07,27.1,371.1,50Z"/><path d="M598.33,86.16c0-7.3.19-14.6-.07-21.89-.28-7.67-2.61-14.23-11-16.68-.13,0-.2-.26-.29-.4,6.53-2.84,9.51-6.4,10.79-12.91a44.67,44.67,0,0,0,.43-13.6c-1.37-12.26-8.14-18.42-20.45-18.6-10.4-.14-20.8,0-31.2-.08-1.46,0-1.85.4-1.85,1.85q.06,46.13,0,92.24c0,1.34.2,2,1.77,2,5.76-.1,11.52-.08,17.28,0,1.38,0,1.73-.4,1.71-1.74-.09-4.12,0-8.24,0-12.36,0-8.51,0-17,0-25.51,0-.8-.54-1.88,1-2.19,7.24-1.45,11.32,1.81,11.34,9.24,0,8,0,16,0,24a28.6,28.6,0,0,0,.89,7.13c.25.94.66,1.46,1.75,1.46,6.43,0,12.87,0,19.55,0C598.28,94.05,598.32,90.11,598.33,86.16ZM577.91,30.39c-.34,8.53-2.69,10.55-11.19,9.79-1.21-.11-1.36-.59-1.36-1.58,0-6.17,0-12.34,0-18.51,0-1.24.36-1.69,1.59-1.59,1,.09,2.06,0,3.09,0,5.43,0,7.21,1.61,7.69,7,.1,1.2.16,2.4.19,2.91C577.91,29.53,577.93,30,577.91,30.39Z"/><path d="M278.1,87.53c0-8,.1-16-.1-24-.21-8.54-3.67-13.31-11.46-16.13,7.61-3.78,10.1-6.86,11.25-14.91A41,41,0,0,0,277,15.42,16.71,16.71,0,0,0,264.63,3.15a27.11,27.11,0,0,0-7.11-1c-10.4,0-20.79,0-31.19-.08-1.43,0-1.89.34-1.88,1.83q.08,46.11,0,92.21c0,1.89.75,2.06,2.26,2,5.42-.06,10.83-.1,16.24,0,1.83,0,2.27-.47,2.25-2.27-.08-11.59,0-23.18,0-34.77,0-5,0-5,5.12-4.79,4.5.24,6.85,2.52,7.24,7.08.09,1,.1,2.05.1,3.08,0,7.3,0,14.6,0,21.9a35.37,35.37,0,0,0,.68,7.67,2.19,2.19,0,0,0,2.59,2c5.67-.1,11.34,0,17,0,.54,0,1.19.27,1.67-.44A25.92,25.92,0,0,1,278.1,87.53Zm-21-52.26c-.83,3.35-2.57,4.69-6,4.89-6,.33-6,.33-6-5.62V29.4c0-3.09.05-6.17,0-9.26,0-1.2.3-1.77,1.57-1.61a13.19,13.19,0,0,0,1.54,0c7.49,0,8.73,1.13,9.39,8.56A24.92,24.92,0,0,1,257.14,35.27Z"/><path d="M537.21,96c-2.4-13.51-4.68-27-7-40.56Q525.79,29.71,521.37,4c-.27-1.62-.85-2.23-2.62-2.2-7.73.12-15.47.15-23.21,0-2.06,0-2.59.77-2.87,2.51-.94,5.84-2,11.67-3,17.5Q483.34,59,476.92,96.31c-.26,1.5.1,1.72,1.43,1.71q8.76-.08,17.53,0c1.25,0,1.79-.27,1.92-1.66.41-4.44,1.06-8.86,1.51-13.3.15-1.42.5-2.12,2.15-2.07,3.78.11,7.56.08,11.34,0,1.47,0,1.88.49,2,1.89.42,4.44,1.07,8.86,1.5,13.3.14,1.4.56,1.94,2,1.88,2.91-.11,5.84,0,8.76,0s5.68-.1,8.51,0C537.36,98.12,537.49,97.59,537.21,96Zm-28-32.55c-.35,0-.69,0-1,0-2,0-4.76.67-6-.37s0-3.84.24-5.83c1.31-11.68,2.75-23.35,4.16-35a9.4,9.4,0,0,1,.37-1.43l.32,0,4.77,39.35C512.51,63.44,512.5,63.44,509.24,63.44Z"/><path d="M341.42,16.64c-1.59-7.32-6-12.21-13.5-13.87a28,28,0,0,0-6.13-.72c-10.4,0-20.8.06-31.2-.08-2,0-2.32.62-2.31,2.44.07,15.11,0,30.23,0,45.34,0,15.29.05,30.58-.05,45.86,0,2.1.62,2.52,2.55,2.47q8-.19,16,0c1.83,0,2.25-.47,2.23-2.26-.08-11.07,0-22.15-.11-33.23,0-2.4.71-2.83,2.87-2.74,3.95.15,7.91.08,11.86-.07,9.47-.35,15.74-5.34,17.77-14.52A66.41,66.41,0,0,0,341.42,16.64ZM320.89,38.7c-.6,2.93-2,4-5,4.18-6.94.4-6.94.4-6.94-6.49V30.47c0-3.34.1-6.69-.05-10-.07-1.67.49-2.11,2-1.92a24.28,24.28,0,0,0,2.83,0c5.23,0,6.78,1.09,7.37,6.08A44.36,44.36,0,0,1,320.89,38.7Z"/><path d="M117.06,76.06q-8.52-36.15-17-72.3c-.31-1.32-.9-1.72-2.26-1.71q-12,.11-24,0c-1.67,0-2.3.41-2.69,2.15-4.17,19-8.46,38-12.71,56.94-1,4.45-1.94,8.91-3,14C65,67.3,74.24,60,83.3,52.52c1.8-1.49,2.82-1.57,4.64,0,9.52,8.15,19.18,16.13,29.05,24.38A4.14,4.14,0,0,0,117.06,76.06ZM90.55,45.5c-1.19,1.44-4.17.42-6.38.46-3.86.08-3.9,0-3.14-3.91,1.42-7.4,2.89-14.79,4.34-22.18l.54,0c1.28,6.51,2.58,13,3.84,19.54C90.15,41.48,91.45,44.42,90.55,45.5Z"/></g></g></svg>