<svg xmlns="http://www.w3.org/2000/svg" viewBox="0 0 332.49 232.6"><defs><style>.cls-1{fill:#00a0df;}.cls-2{fill:#fefefe;}.cls-3{fill:#01a1df;}</style></defs><g id="Ebene_2" data-name="Ebene 2"><g id="Ebene_2-2" data-name="Ebene 2"><path class="cls-1" d="M260.55,176A70.94,70.94,0,0,1,248,174.74a1.44,1.44,0,0,0-1.82.81c-8.17,13.42-19.94,21.83-35.36,24.9a50.74,50.74,0,0,1-31-3.58c-1.31-.58-1.81-.49-2.49.9-9.38,19.22-24.6,30.95-45.77,34.16C104,236.09,77.78,220.6,67.43,194.65c-.38-1-.83-1.15-1.8-1a55.56,55.56,0,0,1-64.55-44.1A56.26,56.26,0,0,1,26.66,90.63c.88-.54,1-.94.66-1.92-8.59-22.24-6.3-43.3,7.74-62.6C45.89,11.22,60.82,2.51,79.17.48c23.66-2.62,43.13,5.62,58.35,23.89.77.92,1.07.75,1.79,0C149.24,14.66,161.09,8.79,175,7.5c16.59-1.55,31.26,3.3,43.91,14.16a58,58,0,0,1,12.37,15c.51.88.92.89,1.79.53a71,71,0,0,1,78.3,15.28,70,70,0,0,1,20.83,44.23c2.69,29.08-11.21,55.77-36.44,70.17A70.71,70.71,0,0,1,260.55,176Z"/><path class="cls-2" d="M99.46,112.75c0,2.94,0,5.87,0,8.81,0,.74-.13,1.32-1,1.51-5.28,1.19-10.57,2.2-16,1.25-6.81-1.19-10.11-7.29-7.22-13.41,1.54-3.27,4.44-4.83,7.8-5.6a25,25,0,0,1,8.62-.12c1.78.2,1.88.15,1.7-1.65-.33-3.39-2.53-5-6.55-4.81a20,20,0,0,0-7.7,1.72c-1,.48-1.4.2-1.65-.76-.14-.5-.37-1-.56-1.48C76.12,96,76.1,96,78.2,95.15A22.65,22.65,0,0,1,92.34,94a8.76,8.76,0,0,1,6.93,8.22c.06.67.16,1.34.17,2,0,2.83,0,5.67,0,8.51Z"/><path class="cls-2" d="M189.9,99.23c-3.46,0-3.4,0-4,3.44-1.47,8.17-2.49,16.43-4.28,24.55a16.33,16.33,0,0,1-3.06,7.07c-2.74,3.34-9,4.83-12.95,3.07-.62-.28-.82-.59-.53-1.21a7.87,7.87,0,0,0,.3-.81,9,9,0,0,1,1.08-2.8c.73-.88,1.72.21,2.64.23a5.23,5.23,0,0,0,5.47-3.38c1.39-3.17,1.75-6.57,2.38-9.91,1.17-6.23,2.23-12.48,3.39-18.71.21-1.09,0-1.57-1.13-1.39a.66.66,0,0,1-.28,0c-1-.15-2.56.55-3-.38-.57-1.33.27-2.88.59-4.32.11-.54.69-.38,1.11-.4,1.24-.09,2.8.51,3.62-.26s.64-2.22.93-3.37c1.78-6.9,6.4-10,13.5-9.13,3.12.4,3.12.4,2,3.4-.72,1.93-.72,1.93-2.77,1.61-3.67-.58-5.91,1-6.94,4.85-.72,2.72-.72,2.72,2,2.72,1,0,1.93,0,2.89,0s1.64.23,1.2,1.42a1.26,1.26,0,0,0,0,.28C193.44,99.23,193.44,99.23,189.9,99.23Z"/><path class="cls-2" d="M288.19,110.75c-2.89,0-5.77,0-8.66,0-.89,0-1.17.2-1,1.13.58,4.76,3.44,7.41,8.23,7.56a19.27,19.27,0,0,0,7.93-1.15c1-.39,1.44-.13,1.7.82.13.51.35,1,.53,1.5.82,2.32.84,2.39-1.49,3.1a24.43,24.43,0,0,1-13.24.48,13,13,0,0,1-10.07-12,24.06,24.06,0,0,1,.76-9c2-7,8.48-10.22,15.14-9.34,5.94.78,9.61,4.69,10.35,10.67a18.82,18.82,0,0,1,.08,5c-.14.92-.5,1.2-1.4,1.19C294.07,110.72,291.13,110.75,288.19,110.75Z"/><path class="cls-2" d="M222.76,109.25c-.09,4.15-.84,8-3.48,11.08-3.71,4.4-8.65,5.09-13.93,4.11s-8.21-4.34-9.6-9.27a21,21,0,0,1,0-12,13.18,13.18,0,0,1,14.65-9.67c7.1.82,11.55,5.65,12.23,13.28C222.69,107.69,222.72,108.56,222.76,109.25Z"/><path class="cls-2" d="M133.93,110.75c-2.94,0-5.87,0-8.8,0-.86,0-1,.27-1,1.09.5,4.72,3.4,7.44,8.18,7.6a19.62,19.62,0,0,0,8.07-1.18c.92-.37,1.33-.06,1.59.79a11.7,11.7,0,0,0,.74,2c.68,1.3.3,2-1.06,2.43a23.92,23.92,0,0,1-14.75.41c-5.64-1.73-8.44-5.94-9.15-11.6a22.46,22.46,0,0,1,.71-9c2-7,8.31-10.28,15.06-9.45,6.35.78,10,5,10.45,11.79.09,1.29,0,2.59,0,3.89,0,.92-.38,1.24-1.31,1.23C139.8,110.72,136.86,110.75,133.93,110.75Z"/><path class="cls-2" d="M159.63,124.93a21.05,21.05,0,0,1-10.61-2.8,1.54,1.54,0,0,1-.8-2.34,17.91,17.91,0,0,0,.81-2.15c.33-1.09.79-1.38,1.83-.62a15.73,15.73,0,0,0,7.75,2.88,8.14,8.14,0,0,0,4.26-.49,3.41,3.41,0,0,0,2.21-3.11,3,3,0,0,0-1.93-2.81,36.41,36.41,0,0,0-5.82-2.1A29.51,29.51,0,0,1,153.7,110c-2.93-1.46-4.82-3.6-4.85-7.06a8.41,8.41,0,0,1,4.67-8c3.75-2,7.71-1.7,11.68-.73A16.08,16.08,0,0,1,169.44,96a1.05,1.05,0,0,1,.56,1.53c-.47,1.1-.63,2.57-1.44,3.23s-2-.61-3.11-.9c-2.47-.66-4.92-1.36-7.52-.92a3.32,3.32,0,0,0-3.05,2.81c-.24,1.64.82,2.46,2.06,3.12a21.75,21.75,0,0,0,4.45,1.63,25.86,25.86,0,0,1,5.6,2.26c6,3.31,4.38,11.34.69,14A13.09,13.09,0,0,1,159.63,124.93Z"/><path class="cls-2" d="M59.89,124.93a21.14,21.14,0,0,1-10.75-2.84c-1-.56-1.27-1.17-.76-2.21a12.32,12.32,0,0,0,.87-2.28c.34-1.25.9-1.22,1.84-.55a15.85,15.85,0,0,0,9.2,2.91,6.08,6.08,0,0,0,3.18-.76,3.1,3.1,0,0,0,.09-5.58c-1.88-1.13-4-1.55-6.07-2.24a30.08,30.08,0,0,1-4-1.58c-6.52-3.31-5.15-11.29-.86-14.23a12.43,12.43,0,0,1,7.23-2.09,18.88,18.88,0,0,1,9.68,2.4c.77.44,1,.88.61,1.73-.49,1-.58,2.5-1.36,3.1-1,.75-2-.6-3.11-.89-2.47-.68-4.92-1.37-7.52-.93a3.35,3.35,0,0,0-3.08,2.78c-.22,1.63.79,2.47,2,3.14a22,22,0,0,0,4.45,1.64,26.48,26.48,0,0,1,5.36,2.09c6.5,3.43,4.77,12.07.16,14.68A13.92,13.92,0,0,1,59.89,124.93Z"/><path class="cls-2" d="M263.24,93.32a20.1,20.1,0,0,1,5.6,1c.9.27,1.14.73.79,1.59-.44,1.06-.58,2.41-1.32,3.15s-2.1-.26-3.2-.33a23.52,23.52,0,0,0-5.17,0c-3.46.55-5.17,3-6.06,6a15.5,15.5,0,0,0,0,8.41c1.06,3.93,4.06,6.06,8.44,6a14.4,14.4,0,0,0,4.83-.71c.93-.36,1.46-.09,1.74.84.12.42.31.81.46,1.22,1,2.74,1,2.76-1.82,3.45A22.75,22.75,0,0,1,257,124c-5.43-1.23-9.31-5.83-10.06-11.84a21.1,21.1,0,0,1,.72-9.41C249.78,96.33,255.6,92.73,263.24,93.32Z"/><path class="cls-2" d="M233.63,97c3.4-3.53,7.24-3.53,11.26-2.68.69.15,1,.53.63,1.25a6.78,6.78,0,0,0-.23.68,11.06,11.06,0,0,1-1.17,3.07c-.79,1-2.06.07-3.12.14-4.1.26-6.51,2.73-6.82,7.27-.35,5.14-.1,10.28-.16,15.42,0,2,0,2-2,2-1.42-.06-3.2.65-4.15-.36s-.28-2.67-.29-4c0-7.93,0-15.86,0-23.79,0-1.47.43-2,1.89-1.86a10.57,10.57,0,0,0,2.45,0c1.42-.17,1.93.43,1.72,1.78A9.9,9.9,0,0,0,233.63,97Z"/><path class="cls-2" d="M105.86,102.81c0-6.49,0-13,0-19.48,0-1.26.36-1.76,1.63-1.64a13.93,13.93,0,0,0,2.74,0c1.36-.13,1.81.32,1.8,1.75-.06,11.73,0,23.47,0,35.2,0,1.44,0,2.89,0,4.33,0,.8-.31,1.12-1.11,1.1a36.07,36.07,0,0,0-3.75,0c-1.07.07-1.28-.4-1.28-1.35C105.87,116.08,105.86,109.44,105.86,102.81Z"/><path class="cls-1" d="M93.44,114.68a27.65,27.65,0,0,0,0,2.88c.13,1.13-.22,1.64-1.39,1.76-2.48.23-4.95.7-7.45.1s-3.6-1.89-3.74-4.26,1-3.93,3.38-4.72c2.82-.91,5.69-.58,8.57-.27.64.07.61.47.61.91Z"/><path class="cls-3" d="M285.27,106.05H279.5c-.44,0-.82,0-.82-.65a6.92,6.92,0,0,1,8.86-6.54,7,7,0,0,1,4.68,6.6c0,.71-.49.59-.89.59C289.31,106.06,287.29,106.05,285.27,106.05Z"/><path class="cls-1" d="M216.09,109.19a16.61,16.61,0,0,1-.92,6.09,6.14,6.14,0,0,1-6.33,4.26c-3.23,0-5.2-1.26-6.28-4.29a17.83,17.83,0,0,1-.06-12.14,6.07,6.07,0,0,1,6.25-4.39,6.27,6.27,0,0,1,6.41,4.39A16.36,16.36,0,0,1,216.09,109.19Z"/><path class="cls-3" d="M131.07,106.05c-1.92,0-3.84,0-5.76,0-1.06,0-1.14-.32-.94-1.24,1-4.82,4.73-7.26,9.06-5.93,2.5.76,4.74,4.1,4.49,6.6-.08.72-.57.53-.95.53C135,106.06,133,106.05,131.07,106.05Z"/></g></g></svg>