<svg xmlns="http://www.w3.org/2000/svg" viewBox="0 0 400 210.97"><defs><style>.cls-1{fill:#15495d;}.cls-2{fill:#a9bbc3;}.cls-3{fill:#c2122e;}.cls-4{fill:#c3132f;}.cls-5{fill:#c41833;}</style></defs><g id="Ebene_2" data-name="Ebene 2"><g id="Ebene_2-2" data-name="Ebene 2"><path class="cls-1" d="M0,63.69c.43-.17.33-.62.45-.93a8.77,8.77,0,0,1,9.43-5.82,8.57,8.57,0,0,1,7.52,8.44q.18,9.27,0,18.55a8.62,8.62,0,0,1-7.18,8.42A8.76,8.76,0,0,1,.53,86.73C.4,86.43.46,86,0,85.86Z"/><path class="cls-2" d="M103.09.27a.82.82,0,0,0,0-.27h2.5a.82.82,0,0,0,0,.27A1.84,1.84,0,0,1,103.09.27Z"/><path class="cls-2" d="M296.84,0a2.45,2.45,0,0,0,0,.27,1.84,1.84,0,0,1-2.54,0,.62.62,0,0,0,0-.27Z"/><path class="cls-3" d="M154.35,200.92c0-2.18.06-4.37,0-6.55,0-1.07.23-1.32,1.27-1a59.33,59.33,0,0,0,13.67,2.24c3.56.13,7.09,0,10.44-1.35,2.17-.88,3.76-2.31,3.92-4.78s-1.21-4-3.14-5.18a19.86,19.86,0,0,0-3.08-1.49c-1.7-.64-3.44-1.16-5.17-1.72-4.79-1.57-9.26-3.64-12.94-7.23-8-7.8-7.06-24.9,5.52-31.46,5.88-3.06,12.17-3.71,18.65-3.31a85.46,85.46,0,0,1,12.34,1.75c1,.22,1.41.6,1.39,1.73-.09,4.06-.08,8.11,0,12.17,0,1.14-.32,1.24-1.3,1A48.58,48.58,0,0,0,182,153.92a15,15,0,0,0-6.48,1.5c-3.63,1.91-4,5.68-.71,8.19a15.29,15.29,0,0,0,4.63,2.2,96,96,0,0,1,9.71,3.35c6.21,2.87,10.89,7.19,12.35,14.11,2.06,9.74-1.7,20.25-13.46,25a39,39,0,0,1-14.64,2.67,99.82,99.82,0,0,1-18-1.68c-.88-.16-1.09-.48-1.07-1.3C154.38,205.6,154.35,203.26,154.35,200.92Z"/><path class="cls-3" d="M272.09,189.83c0,6.09,0,11.92,0,17.74a.94.94,0,0,1-.79,1.1c-12.85,3.57-25.39,3.55-36.89-4.11s-16.12-19-15.21-32.49c.81-12,6.34-21.39,16.67-27.71,7.2-4.4,15.15-5.84,23.51-5.27a56.8,56.8,0,0,1,11.49,2c.89.25,1.25.59,1.24,1.58q-.09,8,0,16.07c0,1.28-.37,1.18-1.31.75-6.64-3-13.48-4.25-20.59-1.89-8.51,2.82-13,11-12,19.63,1.23,10.49,9.94,17,21.09,16.19A33.05,33.05,0,0,0,272.09,189.83Z"/><path class="cls-3" d="M89,160.08a31.62,31.62,0,0,0-11.66-3.51c-8.2-.74-15.32,1.33-19.75,8.78-6.23,10.47-1.2,26.26,14,28a30.19,30.19,0,0,0,15.94-2.75l1.23-.57c.45.21.27.57.27.83,0,5.47,0,10.93,0,16.39,0,.68.08,1.26-.87,1.52-10.23,2.79-20.45,3.43-30.44-.8-13-5.5-20.23-15.41-21.5-29.46-1-11.7,2.33-21.95,11.11-30,8.18-7.49,18.1-10.06,29-9.38a55.57,55.57,0,0,1,11.65,2c.63.19,1.07.37,1.07,1.22C89,148.18,89,154,89,160.08Z"/><path class="cls-1" d="M294.32.27h2.54a8.63,8.63,0,0,1,7.47,9q0,45.74,0,91.47c0,5.2-3.75,9.1-8.68,9.13a8.76,8.76,0,0,1-8.75-9.07q0-45.81,0-91.62C286.9,4.52,289.74,1.2,294.32.27Z"/><path class="cls-1" d="M103.09.27h2.54c4.58.91,7.44,4.24,7.44,8.85q0,45.89,0,91.78a8.72,8.72,0,1,1-17.43,0q0-45.88,0-91.78A8.65,8.65,0,0,1,103.09.27Z"/><path class="cls-3" d="M113.12,175c0-11.08,0-22.16,0-33.24,0-1.33.37-1.62,1.64-1.6,4.79.08,9.58.07,14.37,0,1.14,0,1.58.18,1.58,1.49q-.07,33.32,0,66.63c0,1.19-.33,1.48-1.48,1.46-4.85-.07-9.69-.09-14.53,0-1.38,0-1.58-.45-1.57-1.68C113.14,197.05,113.12,186,113.12,175Z"/><path class="cls-1" d="M47.82,62.58c0-7,0-14,0-21.06a8.7,8.7,0,0,1,17-2.61,10.3,10.3,0,0,1,.48,3.22c0,13.73,0,27.46,0,41.19,0,5.31-3.76,9.15-8.8,9.12s-8.63-3.89-8.64-9.1C47.8,76.42,47.82,69.5,47.82,62.58Z"/><path class="cls-1" d="M256.51,62.62c0,7.07,0,14.15,0,21.22a8.7,8.7,0,0,1-16.34,4.09,8.91,8.91,0,0,1-1.09-4.34c0-13.94,0-27.87,0-41.81a8.72,8.72,0,1,1,17.43.09C256.54,48.79,256.52,55.71,256.51,62.62Z"/><path class="cls-1" d="M160.9,62.76c0,7,0,14,0,21.06a8.59,8.59,0,0,1-5.75,8.12,8.67,8.67,0,0,1-9.51-2.46,8.46,8.46,0,0,1-2.15-5.71c0-14-.05-28.08,0-42.12a8.71,8.71,0,1,1,17.42,0C160.94,48.71,160.9,55.74,160.9,62.76Z"/><path class="cls-1" d="M352.14,62.76c0,7.07.05,14.15,0,21.22a8.69,8.69,0,0,1-17,2.39,9.25,9.25,0,0,1-.43-2.76c0-13.94,0-27.88,0-41.81a8.71,8.71,0,0,1,16.66-3.73,9.49,9.49,0,0,1,.77,3.94c0,6.92,0,13.83,0,20.75Z"/><path class="cls-1" d="M208.72,74.63c0,3,0,6,0,9.05a8.74,8.74,0,1,1-17.48,0q0-9,0-17.93a8.74,8.74,0,1,1,17.48,0C208.73,68.71,208.72,71.67,208.72,74.63Z"/><path class="cls-1" d="M399.94,74.75c0,2.91,0,5.82,0,8.73,0,5.11-3.74,9-8.61,9a8.64,8.64,0,0,1-8.76-8.83q-.12-9,0-17.93a8.69,8.69,0,1,1,17.37.17C400,68.83,399.94,71.79,399.94,74.75Z"/><path class="cls-4" d="M398.38,202.85c-.72,1.92-1.43,3.84-2.16,5.76-.19.5-.23,1.16-1.05,1.12s-.74-.62-.92-1.08a59.29,59.29,0,0,0-2.41-5.92c0,2,0,4,0,6,0,.41.22,1-.55,1s-.7-.58-.7-1.06c0-2.33,0-4.67,0-7,0-.45-.27-1.14.61-1.13.64,0,1.33-.22,1.64.74.55,1.73,1.2,3.42,1.86,5.11.18.46.16,1,.74,1.37.75-2.1,1.56-4.17,2.22-6.28.3-1,.89-1,1.65-1,1,.05.62.8.63,1.28q0,3.35,0,6.7c0,.47.35,1.28-.67,1.22s-.57-.84-.58-1.31c-.05-1.82,0-3.64,0-5.45Z"/><path class="cls-5" d="M385.56,205.68v-1.55c0-2.29,0-2.29-2.25-2.47-.4,0-.87.08-.86-.57s.47-.58.88-.58h5.76c.43,0,.87,0,.84.62s-.53.5-.91.53c-2.19.15-2.19.15-2.19,2.36,0,1.56,0,3.11,0,4.67,0,.42.19,1-.57,1s-.67-.6-.68-1.08C385.54,207.66,385.56,206.67,385.56,205.68Z"/><path class="cls-3" d="M354.51,150.58c-8.23-9.11-18.93-12.45-31-11.39-22.83,2-37.62,23.22-31.69,45.36,4.24,15.85,18.27,26.32,35.65,26.4,1.75-.13,3.78-.14,5.79-.48,13.86-2.36,23.8-9.85,28.49-23.15S364.18,161.27,354.51,150.58Zm-27.26,42.66a18.28,18.28,0,1,1,18.09-18.31A18.07,18.07,0,0,1,327.25,193.24Z"/></g></g></svg>