<svg xmlns="http://www.w3.org/2000/svg" viewBox="0 0 400 446.35"><defs><style>.cls-1{fill:#0056a1;}.cls-2{fill:#1a67ab;}.cls-3{fill:#2fa0d2;}.cls-4{fill:#e5192f;}.cls-5{fill:#9c1a36;}.cls-6{fill:#a11c38;}.cls-7{fill:#1371b0;}.cls-8{fill:#1c7cb8;}.cls-9{fill:#c81a33;}.cls-10{fill:#bf1b34;}.cls-11{fill:#1f82bc;}.cls-12{fill:#1978b4;}.cls-13{fill:#df1930;}.cls-14{fill:#1774b2;}.cls-15{fill:#ce1a32;}.cls-16{fill:#a81c37;}.cls-17{fill:#2186bf;}.cls-18{fill:#146ead;}.cls-19{fill:#de1930;}.cls-20{fill:#1672b0;}.cls-21{fill:#238bc2;}.cls-22{fill:#b21b36;}.cls-23{fill:#2791c7;}.cls-24{fill:#1269aa;}.cls-25{fill:#2995ca;}.cls-26{fill:#258dc4;}.cls-27{fill:#c11932;}.cls-28{fill:#c71932;}.cls-29{fill:#2c9bce;}.cls-30{fill:#d41a31;}.cls-31{fill:#ba1a33;}.cls-32{fill:#2b9acd;}.cls-33{fill:#ce1931;}.cls-34{fill:#1066a8;}.cls-35{fill:#d91a31;}.cls-36{fill:#ba1b35;}.cls-37{fill:#0e63a5;}.cls-38{fill:#ad1b36;}.cls-39{fill:#b41a34;}.cls-40{fill:#228ac2;}.cls-41{fill:#2690c6;}.cls-42{fill:#ae1b36;}.cls-43{fill:#d41931;}.cls-44{fill:#2d9ccf;}.cls-45{fill:#238bc3;}.cls-46{fill:#2086bf;}.cls-47{fill:#a31a35;}.cls-48{fill:#d81a31;}.cls-49{fill:#ae1a34;}.cls-50{fill:#1d80bb;}.cls-51{fill:#1778b5;}.cls-52{fill:#a61c37;}.cls-53{fill:#b61b35;}.cls-54{fill:#0c5ea2;}.cls-55{fill:#1a7bb7;}.cls-56{fill:#1876b3;}.cls-57{fill:#06569b;}.cls-58{fill:#2590c7;}.cls-59{fill:#2b99cd;}.cls-60{fill:#1570af;}.cls-61{fill:#af1c36;}.cls-62{fill:#d71a31;}.cls-63{fill:#1b7db9;}.cls-64{fill:#b91b35;}.cls-65{fill:#b71b35;}.cls-66{fill:#bc1b34;}.cls-67{fill:#126bab;}.cls-68{fill:#c01b34;}.cls-69{fill:#2894ca;}.cls-70{fill:#1d81bc;}.cls-71{fill:#b81b35;}.cls-72{fill:#2895ca;}.cls-73{fill:#da1930;}.cls-74{fill:#1f86bf;}.cls-75{fill:#1a7cb8;}.cls-76{fill:#b41b35;}.cls-77{fill:#cf1a32;}.cls-78{fill:#a91a35;}.cls-79{fill:#0f66a7;}.cls-80{fill:#0a5a9f;}.cls-81{fill:#c31b33;}.cls-82{fill:#0c61a4;}.cls-83{fill:#1c81bc;}.cls-84{fill:#2087c0;}.cls-85{fill:#a81a35;}.cls-86{fill:#cc1a32;}.cls-87{fill:#c51b33;}.cls-88{fill:#095b9f;}.cls-89{fill:#08579d;}</style></defs><g id="Ebene_2" data-name="Ebene 2"><g id="Ebene_2-2" data-name="Ebene 2"><path class="cls-1" d="M42.7.16A39.62,39.62,0,0,1,55.89,2.58c1.36.54,1.87,1.21,1.56,2.74-.81,4-1.54,8-2.13,12-.25,1.71-.88,1.7-2.23,1.15a27.3,27.3,0,0,0-17.67-1.27c-7.92,2.05-12.94,7.11-15,15a31.21,31.21,0,0,0,.13,16.14C22.92,57.14,30,62.8,39.19,63.41a28.57,28.57,0,0,0,14.24-2.18c1.18-.54,1.61-.32,1.82,1,.7,4.21,1.47,8.42,2.23,12.62.17.94.1,1.57-.95,2.06C40.76,84.26,17,78.25,7.15,64.31A38.74,38.74,0,0,1,.83,49.2c-.19-.94,0-2-.83-2.78v-7a3.29,3.29,0,0,0,0-2.61v-3a35.58,35.58,0,0,1,6.52-18c6.85-9.54,16.42-14.37,28-15.6a36.16,36.16,0,0,1,5-.21A15.15,15.15,0,0,1,42.7.16Z"/><path class="cls-2" d="M0,36.83a2,2,0,0,1,0,2.61Z"/><path class="cls-3" d="M199.58,158.44a5.66,5.66,0,0,0,2.95-.54l85.77-28.58a4.46,4.46,0,0,1,2.3-.54c15.4,5.8,30.84,11.49,46.25,17.27,19.83,7.43,39.7,14.75,59.51,22.22,2.13.8,2.14.77,2.67-1.39.11-.48.13-1,.84-1.06q0,20.25.07,40.49c0,5.59-.08,11.18.05,16.77,0,1.71-.6,2.35-2.12,2.86q-58.33,19.37-116.64,38.82l-44.71,14.92a10.46,10.46,0,0,1-1.26.28c-6.29-2-12.42-4.43-18.6-6.74q-31.9-11.93-63.82-23.82Q124.21,238.68,95.55,228q-22.44-8.36-44.85-16.76c-1.05-.39-2.66-.48-2.05-2.38a4,4,0,0,1,2.08-1.1c5.51-1.56,10.87-3.56,16.3-5.33,7-2.26,14-4.64,20.93-7,6.56-2.11,13.08-4.34,19.61-6.54,7.86-2.54,15.69-5.21,23.52-7.84s15.69-5.21,23.53-7.84c7-2.25,13.93-4.63,20.9-7,7.14-2.3,14.22-4.76,21.35-7.1A23.14,23.14,0,0,1,199.58,158.44Z"/><path class="cls-4" d="M399.87,324q0,22.53.08,45.05c0,2.9-.12,5.81,0,8.71.09,1.67-.5,2.38-2.05,2.89q-29.56,9.76-59.07,19.64l-56.61,18.86c-.4.13-.83.19-1.25.29-3.95-1-7.64-2.66-11.43-4.06Q236.91,403.27,204.3,391q-22.73-8.49-45.47-17c-20.34-7.55-40.64-15.19-61-22.73-1.37-.51-3.07-.67-3.52-2.52.58-1.37,2-1.37,3.09-1.74q45.22-15.09,90.46-30.17c3-1,6.07-2,9.09-3a8.69,8.69,0,0,1,3-.55c8.79-2.89,17.59-5.74,26.37-8.66q31.92-10.59,63.81-21.23c.55-.18,1.11-.28,1.67-.42a3.93,3.93,0,0,1,2.28.47c18.39,7,36.86,13.77,55.27,20.68,15,5.64,30.09,11.15,45.08,16.86,1.22.46,2.47.86,3.71,1.27C399,322.54,399.73,323,399.87,324Z"/><path class="cls-5" d="M200,313.28c-7,2.4-14.08,4.85-21.14,7.2Q137.55,334.27,96.27,348a16.92,16.92,0,0,0-1.74.79c-2.11,1.54-4.72,1.79-7,2.75-1.12.33-2.22.71-3.32,1.1-.9.28-1.79.56-2.66.88s-1.78.56-2.66.89c-1.12.35-2.22.74-3.32,1.11-2.8,1-5.62,1.84-8.4,2.83-2.62.82-5.22,1.71-7.81,2.61s-5.17,1.7-7.74,2.56c-.9.27-1.8.55-2.69.87s-1.75.55-2.61.86a7.37,7.37,0,0,1-.9.22,4.6,4.6,0,0,1-1.84.19c-1.37-.85-.64-1.77,0-2.49,2.8-2.94,5.39-6.06,8.11-9.06q9-10,18-20c4.38-4.92,8.82-9.78,13.22-14.69,4.59-5.11,9.15-10.26,13.77-15.35,4.32-4.78,8.54-9.65,12.94-14.35,1.53-1.64,2.7-3.6,4.53-4.95,8,2.62,16.08,5.22,24.1,7.89q30,10,60.08,20C198.88,312.84,199.41,313.07,200,313.28Z"/><path class="cls-4" d="M.74,360.58c-.05-.65-.15-1.3-.15-1.94q0-54.87,0-109.74c0-1.53,0-2.2,1.92-1.57q37.07,12.43,74.16,24.77a7.1,7.1,0,0,1,1,.45c-3.27,2.87-6,6.31-8.86,9.52-4.67,5.14-9.33,10.3-13.93,15.51C49,304.2,43,310.7,37.12,317.31c-4.23,4.76-8.51,9.48-12.78,14.21q-8.88,9.84-17.67,19.75c-.68.76-1.38,1.48-2.1,2.21-1.84,1.86-3.6,3.77-3.38,6.69a2.33,2.33,0,0,1-.17.26Z"/><path class="cls-1" d="M82.68,27.52a20.93,20.93,0,0,1,18.21-7.78c7.83.46,13.32,5.43,15.41,13.91a45.81,45.81,0,0,1,1.22,11c0,10.17,0,20.33,0,30.5,0,1.73-.46,2.21-2.18,2.16-4.28-.12-8.57-.11-12.85,0-1.6,0-2.1-.37-2.08-2,.08-9.07.05-18.15,0-27.22a28.24,28.24,0,0,0-.63-6.92c-1.23-4.79-4.07-7.07-8.64-6.91A8.9,8.9,0,0,0,82.8,42a23.9,23.9,0,0,0-.21,3.69c0,9.87,0,19.74,0,29.62,0,1.63-.42,2.1-2.07,2.06-4.42-.12-8.85-.09-13.28,0-1.3,0-1.76-.33-1.76-1.69q.06-33.87,0-67.74a1.78,1.78,0,0,1,1.43-2c4.61-1.52,9.2-3.09,13.75-4.77,1.56-.57,1.95-.33,1.93,1.36-.08,7.77,0,15.54,0,23.3C82.58,26.18,82.63,26.61,82.68,27.52Z"/><path class="cls-6" d="M210.88,442.85c-3.22,1.11-6.46,2.16-9.64,3.34-1.12.42-2-.08-2.92-.39Q151.66,430.25,105,414.66,53.83,397.59,2.63,380.54c-.58-.19-1.32-.15-1.7-.8.86-1.16,2.31-1.12,3.46-1.69,2.28-.72,4.55-1.51,6.82-2.28,2.52-.81,5-1.64,7.53-2.52,2.19-.47,4.15-1.9,6.53-1.63,5.52,2.78,11.43,4.59,17.2,6.75Q71.19,389.13,100,399.84q34,12.63,67.9,25.3,20.7,7.71,41.38,15.46C210.08,440.91,212,440.87,210.88,442.85Z"/><path class="cls-1" d="M363.9,29.47c3.47-4.86,7.51-8,12.84-9.26,10.47-2.48,19.08,2.6,21.91,12.95A39.19,39.19,0,0,1,400,43.5c0,10.6,0,21.2,0,31.8,0,1.68-.48,2-2.07,2-4.35-.11-8.71-.1-13.06,0-1.52,0-1.95-.38-1.94-1.92.07-9.36,0-18.73,0-28.1a29.28,29.28,0,0,0-.36-5.2c-1-5.36-3.89-8-8.7-7.87a9.31,9.31,0,0,0-8.74,8.94c-.19,3.33-.08,6.68-.08,10,0,7.33-.07,14.67,0,22,0,1.78-.52,2.18-2.19,2.13-4.28-.11-8.57-.12-12.85,0-1.64,0-2.06-.42-2.05-2,.08-10.68,0-21.35.05-32,0-6.68-.16-13.36-.53-20-.07-1.27,0-1.82,1.51-1.78,4.28.1,8.57.08,12.85,0,1.27,0,1.59.45,1.61,1.62C363.54,25,363.74,26.92,363.9,29.47Z"/><path class="cls-7" d="M209.11,288.62c-2.65,1.34-5.58,1.93-8.34,3-.69.26-1.28-.16-1.88-.36L2.74,225.9a9.64,9.64,0,0,1-1-.44c.15-1.31,1.34-1.26,2.18-1.61s1.72-.58,2.56-.95c5-1.71,10-3.43,15.05-5a2.1,2.1,0,0,1,1.88-.06c4,2.29,8.41,3.49,12.67,5.09Q70,235.67,104,248.25l57.88,21.57c15,5.59,30.06,11.12,45,16.86C207.8,287,209.09,287.13,209.11,288.62Z"/><path class="cls-1" d="M211.16,60.69c1.94-7.5,3.88-15,5.81-22.43l3.92-15.14c.21-.83.26-1.68,1.54-1.67,5.79.05,11.59,0,17.65,0-1.94,5.75-3.8,11.29-5.66,16.83C230.26,50.64,226.07,63,222,75.35a2.37,2.37,0,0,1-2.72,2c-5.59-.11-11.17-.09-16.76,0a2.14,2.14,0,0,1-2.5-1.68q-8.72-26.16-17.58-52.27c-.58-1.71-.14-1.93,1.42-1.91q7.51.11,15,0c1.35,0,1.84.4,2.17,1.72,3.07,12.07,6.22,24.12,9.36,36.17C210.51,59.8,210.43,60.37,211.16,60.69Z"/><path class="cls-3" d="M.86,225c-.65-.59-.33-1.37-.33-2.05q0-64.33,0-128.67c0-1.29-.28-2.44,1.85-1.72C20.66,98.76,39,104.82,57.23,110.93a4.19,4.19,0,0,1,.75.4,10.14,10.14,0,0,1-3.16,2.59C38,125.17,21.11,136.47,4.17,147.62,2.1,149,1,150.41,1.4,152.87a23.76,23.76,0,0,1,.06,2.39c0,1,0,1.91,0,2.87.08,1.29,0,2.58,0,3.87.08,2.43.07,4.86,0,7.29q.11,3.9,0,7.79c.08,2,.07,4.1,0,6.15.07,2.32.06,4.65,0,7,.08,2.61.06,5.23,0,7.84.1,3.19.05,6.38,0,9.57s.07,6.67,0,10C1.31,220.09,2.21,222.66.86,225Z"/><path class="cls-8" d="M1,217.67v-10a3.06,3.06,0,0,1,1.37-1.34c25.51-16.93,50.93-34,76.45-50.89q18-11.89,35.89-23.85c.64-.42,1.25-1.07,2.15-.61a95.56,95.56,0,0,1,10.45,3.49,5.16,5.16,0,0,1-2,1.64c-24.15,16.12-48.25,32.3-72.47,48.3C36.51,195.12,20.31,206,4,216.76,3.13,217.35,2.3,218.48,1,217.67Z"/><path class="cls-1" d="M261.06,31.91c.62-1.32,1.05-2.29,1.54-3.23,4.17-8,10.3-9,16.8-8.41.9.08,1.26.45,1.25,1.36,0,4.65,0,9.3,0,13.94,0,1.22-.5,1.18-1.46,1a19,19,0,0,0-6.93,0C266,38,262,43.18,261.91,50.38c-.11,8.13-.13,16.27,0,24.39,0,2.2-.63,2.64-2.66,2.55-3.84-.17-7.69,0-11.54,0-3.22,0-2.81.41-2.82-2.72,0-13.07,0-26.14-.06-39.2,0-4.07-.22-8.13-.45-12.19-.08-1.33.24-1.75,1.63-1.72,4.2.09,8.42.11,12.62,0,1.52,0,1.82.56,1.85,1.89A48.25,48.25,0,0,0,261.06,31.91Z"/><path class="cls-9" d="M59.24,360.57A35.57,35.57,0,0,1,67.08,358c1.12-.53,2.12,0,3.13.36q22.44,8.37,44.89,16.74,31,11.55,62,23.13l48.56,18.14q13,4.88,26.11,9.77a6.77,6.77,0,0,1,2.31,1.19c.44.41.6.83-.1,1.17l-7.85,2.62c-18.58-7.1-37.25-13.93-55.87-20.91q-35.49-13.29-71-26.52-28.15-10.51-56.31-21C61.64,362.14,60.18,361.82,59.24,360.57Z"/><path class="cls-10" d="M59.24,360.57l26.19,9.84,27.83,10.42,46.54,17.38q15.15,5.64,30.3,11.27Q213.58,418.24,237,427l7.52,2.81c.67.24,1.45.33,1.6,1.24l-7.86,2.62c-20.54-7.87-41.18-15.45-61.78-23.13Q134.69,395,92.86,379.4q-19.08-7.08-38.13-14.27c-1.2-.46-2.51-.8-3.33-1.94A35.09,35.09,0,0,1,59.24,360.57Z"/><path class="cls-11" d="M116.8,130.93c-3.92,2.56-7.87,5.07-11.77,7.67L3.39,206.22c-.78.52-1.63.94-2.45,1.4v-9.57a7.19,7.19,0,0,1,2-1.61c33.58-22.17,67-44.56,100.52-66.82,1.23-.82,2.23-2.48,4.16-1.74A67.25,67.25,0,0,1,116.8,130.93Z"/><path class="cls-12" d="M1,217.67c1.14.11,1.86-.73,2.68-1.28q22.76-15.12,45.5-30.3Q87,160.84,125,135.63a4.62,4.62,0,0,1,2.26-1.21A51.24,51.24,0,0,1,135.1,137a5.38,5.38,0,0,1-2,1.65q-42.8,28.57-85.63,57.07C35,204,22.49,212.39,10,220.66a18.42,18.42,0,0,0-3.43,2.66c-1.42,1.12-3.44.87-4.79,2.14A.79.79,0,0,1,.86,225Z"/><path class="cls-13" d="M87.15,351c2.5-.61,4.81-1.83,7.38-2.22,1.56,2,4,2.17,6.14,3,18.19,6.89,36.43,13.66,54.66,20.45,15.38,5.73,30.79,11.4,46.17,17.13q26.53,9.9,53,19.85,11.89,4.44,23.81,8.8A13.86,13.86,0,0,1,281,419.4a34.07,34.07,0,0,1-6.53,2.18c-.82.42-1.55,0-2.27-.28Q239.09,408.88,206,396.55,155.48,377.76,105,358.92c-5-1.88-10.07-3.72-15.08-5.64C88.8,352.85,87.25,352.77,87.15,351Z"/><path class="cls-14" d="M6.54,223.32c.14-1.25,1.14-1.75,2-2.35q17.79-11.86,35.56-23.72,44.34-29.52,88.69-59A4.7,4.7,0,0,1,135.1,137l5.22,1.74c-.52,1.62-2,2.24-3.24,3.08-25.93,17.38-52.06,34.47-78,51.86-10.49,7-21,14-31.52,21-.94.62-2.13,1.05-2.4,2.36.29.91,1.14,1.06,1.87,1.33l50.38,18.79q19,7.1,37.94,14.17,21.53,8,43.05,16,24.68,9.22,49.34,18.48c1.19.45,2.84.47,3.1,2.26-.63-.05-1,.74-1.74.46-2.24-2-5.19-2.43-7.85-3.45q-19.35-7.38-38.79-14.57c-11.72-4.38-23.47-8.68-35.19-13.05-14-5.21-27.9-10.47-41.86-15.68-11.65-4.35-23.33-8.64-35-13-8.61-3.2-17.37-6.05-25.73-9.81-3.57-1.6-5.86.39-8.49,1.15C13,221.17,9.73,222.19,6.54,223.32Z"/><path class="cls-15" d="M254,428.46c.42-1.31-.85-1.2-1.39-1.41-8.38-3.19-16.78-6.31-25.18-9.44q-19.31-7.22-38.6-14.44-15.33-5.73-30.69-11.44-23.27-8.69-46.53-17.37L81.13,363c-4.13-1.54-8.25-3.11-12.39-4.64a13,13,0,0,0-1.66-.41c2.63-1.39,5.58-1.88,8.3-3,1.81,1.42,4,2,6.12,2.76,27,10,53.86,20.1,80.79,30.14q48.26,18,96.51,36a6.08,6.08,0,0,1,1.78.8c.68.55,1,1.14,0,1.67Z"/><path class="cls-16" d="M210.88,442.85c.6-1.27-.59-1.31-1.2-1.54-7.58-2.85-15.19-5.63-22.77-8.46q-23.58-8.79-47.15-17.62c-13-4.84-26-9.64-39-14.49q-22.45-8.39-44.9-16.81-13.71-5.13-27.45-10.21c-1.14-.42-2.38-.67-3.1-1.82a.44.44,0,0,1,0-.55A38.28,38.28,0,0,1,31.55,369a1.33,1.33,0,0,1,.92.28c1.32,1.38,3.13,1.81,4.82,2.44Q81,388,124.81,404.37q40.29,15,80.6,30.06,4.78,1.8,9.6,3.55a6.68,6.68,0,0,1,2.32,1.17c.48.44,1,1,.08,1.52Z"/><path class="cls-17" d="M107.65,127.88c-1.2-.21-1.81.78-2.63,1.32Q64.1,156.47,23.18,183.76C16.5,188.21,9.76,192.58,3.06,197a5.2,5.2,0,0,1-2.12,1v-7.84a6.5,6.5,0,0,1,1.85-1.49c13.63-9.09,27.23-18.25,40.92-27.25,16.79-11,33.44-22.26,50.18-33.35a46.2,46.2,0,0,0,4.58-3.3A69.11,69.11,0,0,1,107.65,127.88Z"/><path class="cls-18" d="M67.1,202.85c-5,2.08-10.13,3.52-15.22,5.2-1,.34-2.05.61-3.08.92-.76,1.2-2.14,1.21-3.28,1.7-.59.17-1.18.38-1.78.57a2.5,2.5,0,0,1-1.55.13c-1-.74-.16-1.27.28-1.75A11.43,11.43,0,0,1,44.75,208c33-22,66.08-43.8,99-65.86.91-.61,1.75-1.62,3.09-1.14a50.45,50.45,0,0,1,7.84,2.62c-1.49,2-3.65,3.06-5.64,4.37-26.59,17.45-52.95,35.25-79.44,52.85A14.64,14.64,0,0,0,67.1,202.85Z"/><path class="cls-19" d="M399.87,324c-2.09-1.83-4.85-2.1-7.3-3-15.25-5.81-30.55-11.51-45.84-17.22-11.84-4.42-23.72-8.75-35.54-13.21-6.49-2.44-13.1-4.57-19.39-7.52a88,88,0,0,1,10.13-3.41q30.78,11.4,61.51,22.91c10.79,4,21.57,8.11,32.39,12a17.82,17.82,0,0,1,3.59,1.54l.45.51Z"/><path class="cls-20" d="M146.86,141c-4.09,2-7.68,4.85-11.46,7.36q-27.3,18.09-54.51,36.3-18.51,12.33-37,24.61c-.7.47-1.79.66-1.6,1.9.15.36-.07.57-.32.76a9.09,9.09,0,0,1-1.41.58,10.23,10.23,0,0,1-2,.51,10,10,0,0,0-2.51.77c-.36.16-.72.31-1.09.45l-2.81.93a12.19,12.19,0,0,1-1.4.39,13.38,13.38,0,0,0-1.38.37l-1.08.38c-.47.17-.94.35-1.39.56-.82.32-1.64.67-2.44,0a5.64,5.64,0,0,1,2-1.92Q63.83,190,101.21,165c11.93-7.94,23.9-15.82,35.83-23.75,1.14-.76,2.19-1.65,3.28-2.49A34.17,34.17,0,0,1,146.86,141Z"/><path class="cls-21" d="M98.47,124.82c0,.93-.69,1.35-1.38,1.81q-23.9,15.93-47.79,31.88Q26.2,173.87,3.05,189.17a5.1,5.1,0,0,1-2.11,1v-7a15.53,15.53,0,0,1,2.84-2Q32.43,162.11,61.13,143c10.09-6.69,20.26-13.24,30.2-20.16a1.43,1.43,0,0,1,.61-.21A33.36,33.36,0,0,1,98.47,124.82Z"/><path class="cls-22" d="M229.65,436.41a22.5,22.5,0,0,1-5.71,2.09c-6.95-3.14-14.18-5.55-21.32-8.21q-25-9.33-49.94-18.64-30.79-11.44-61.57-22.95c-17-6.32-34-12.63-50.95-19.05-1.09-.42-2.45-.64-2.8-2.11a7.09,7.09,0,0,1,5.75-1.91c2.73,2.06,6,2.78,9.15,3.94q29,10.81,57.94,21.65,47,17.44,93.87,35c7.49,2.79,15,5.56,22.45,8.37A6,6,0,0,1,229.65,436.41Z"/><path class="cls-23" d="M.94,177.14V169.3a11.27,11.27,0,0,1,2.3-1.63q36.54-24.4,73.1-48.78c.79-.54,1.54-1.12,2.56-.59a49.16,49.16,0,0,1,7.85,2.61,62.1,62.1,0,0,1-6.66,4.49Q42.15,150.71,4.19,176C3.24,176.61,2.38,177.78.94,177.14Z"/><path class="cls-24" d="M67.1,202.85c-.11-1.24,1-1.64,1.69-2.14q39-26,78-52c2.63-1.75,5.31-3.43,8-5.14a34.07,34.07,0,0,1,6.53,2.18c0,1.13-.86,1.61-1.64,2.13-20.66,13.75-41.21,27.66-62,41.23A87.62,87.62,0,0,0,88,195.87Q77.71,199.8,67.1,202.85Z"/><path class="cls-25" d="M78.89,118.3c-1.19-.21-1.8.77-2.62,1.31L3.07,168.4c-.65.43-1.24,1-2.14.9v-7.41A7.88,7.88,0,0,1,3.25,160c21.81-14.66,43.86-29,65.66-43.66.63-.43,1.24-1.07,2.14-.61A50.1,50.1,0,0,1,78.89,118.3Z"/><path class="cls-26" d="M.94,177.14a5,5,0,0,0,2.11-1q39-26,78-51.88c1.82-1.21,3.42-2.89,5.72-3.31a21.8,21.8,0,0,1,5.2,1.74,5.69,5.69,0,0,1-2,1.92Q46.49,153.45,3.08,182.34c-.65.43-1.24,1-2.14.9Z"/><path class="cls-27" d="M11.33,376.25a38.65,38.65,0,0,1-7,2.2c-.64-1.08.13-1.81.72-2.49,3.79-4.37,7.71-8.64,11.58-12.95,4.6-5.12,9.17-10.26,13.76-15.37Q37,340.37,43.5,333.11c4.64-5.18,9.26-10.38,13.93-15.53C61.75,312.8,66,308,70.34,303.2,74.91,298.15,79.48,293.11,84,288c2.67-3.05,5.49-6,8.12-9.06a2,2,0,0,1,2.49-.72,5.57,5.57,0,0,1,2.59.86c.21,1.86-1.23,2.89-2.24,4-7.18,7.77-14.17,15.71-21.24,23.58-8.28,9.22-16.51,18.47-24.8,27.68-7.13,7.92-14.22,15.86-21.38,23.75C22.05,364.07,16.62,370.1,11.33,376.25Z"/><path class="cls-28" d="M94.58,278.21a2.2,2.2,0,0,0-1.92.81q-8.1,9.18-16.22,18.34c-2.89,3.24-5.83,6.43-8.72,9.66-6.18,6.88-12.33,13.79-18.52,20.66-4.45,4.95-9,9.82-13.42,14.77-5.69,6.35-11.3,12.76-17,19.11-3.28,3.67-6.74,7.17-9.92,10.92-1.6,1.89-3.83,3.36-4.51,6a10.88,10.88,0,0,1-3.43,1.29l0,0c-.47-1.25-.12-2.54-.23-3.8.11-1,.9-1.63,1.53-2.31,7.73-8.44,15.28-17,23-25.54q8.68-9.58,17.32-19.22,10.46-11.64,20.88-23.32c5.74-6.43,11.48-12.87,17.33-19.21,2.51-2.72,4.8-5.63,7.42-8.25.68-.68,1.32-1.61,2.55-1.15Z"/><path class="cls-29" d="M399.87,165.82a3.1,3.1,0,0,0-.33.78c-.33,3.36-.33,3.38-3.47,2.21q-33.49-12.56-67-25.12c-11.91-4.45-23.86-8.8-35.79-13.23-1-.36-2.1-.63-2.69-1.68a27.41,27.41,0,0,1,6.51-2.24c18.85,7.19,37.8,14.13,56.69,21.22C367.87,153,382,158.25,396,163.52c2.37.89,2.38.87,3-1.65.11-.41.22-.86.8-.84Z"/><path class="cls-30" d="M260.55,426.28c.74-1.16-.23-1.34-.95-1.61-7.73-2.88-15.46-5.72-23.18-8.61q-20.82-7.77-41.64-15.58c-10.57-3.94-21.16-7.82-31.73-11.76-12.8-4.77-25.58-9.59-38.38-14.37q-17-6.35-33.95-12.64c-4.33-1.61-8.7-3.15-13-4.81-.93-.36-2.21-.54-2.32-2l3.47-.91c11.56,4.51,23.23,8.72,34.85,13.06Q146,379.16,178.36,391.2q24.28,9,48.55,18.12c11.83,4.42,23.65,8.87,35.5,13.22a5.79,5.79,0,0,1,2,.92c.48.44,1.07,1,.1,1.52Z"/><path class="cls-31" d="M11.33,376.25c.62-2.64,2.93-4.07,4.54-5.94,6.07-7.07,12.36-13.95,18.6-20.87,4.5-5,9.08-9.91,13.57-14.92,5.64-6.29,11.21-12.65,16.83-19,2.83-3.18,5.73-6.31,8.57-9.49,6.18-6.88,12.32-13.79,18.52-20.65,1.84-2,4-3.81,5.21-6.35a13,13,0,0,1,3.92,1.31c.32.92-.24,1.54-.77,2.12-5.62,6.05-11,12.29-16.58,18.41q-8.59,9.51-17.1,19.11c-4.29,4.81-8.64,9.56-12.93,14.38-6,6.7-12,13.34-18,20.05-4.34,4.87-8.68,9.73-13.1,14.53a47.93,47.93,0,0,0-3.87,4.67A44.31,44.31,0,0,1,11.33,376.25Z"/><path class="cls-32" d="M45.31,210.26,48.8,209c-.19,1.11.67,1.27,1.41,1.55q27.85,10.35,55.69,20.71,32.73,12.2,65.43,24.42c18.69,7,37.41,13.88,56.08,20.93,2.65,1,5.56,1.5,7.85,3.38a12.06,12.06,0,0,1-3.5,1.23c-14.68-5.24-29.23-10.83-43.85-16.25q-21.32-7.89-42.6-15.88-32.2-12-64.41-24c-11.21-4.19-22.42-8.35-33.62-12.58C46.34,212.08,44.79,212.05,45.31,210.26Z"/><path class="cls-33" d="M90.66,276.9c-1,0-1.52.81-2.09,1.43C83.74,283.7,79,289.1,74.13,294.47c-2.9,3.22-5.84,6.41-8.73,9.64q-9,10-17.89,20c-2.84,3.18-5.73,6.31-8.57,9.48-6.17,6.88-12.32,13.79-18.5,20.65-4.5,5-9.06,9.93-13.56,14.91a47.78,47.78,0,0,1-5.94,6.21.7.7,0,0,1-.28-.62c0-1.52,0-3,0-4.56,1-2,2.81-3.26,4.24-4.84C10.62,359,16.28,352.61,22,346.27s11.42-12.72,17.11-19.1c4.29-4.81,8.64-9.57,12.93-14.38,6-6.77,12.11-13.46,18.14-20.22,4.87-5.46,9.74-10.92,14.71-16.29.49-.53,1-1.15,1.83-.68C88,276.32,89.52,276,90.66,276.9Z"/><path class="cls-25" d="M399.87,161a3.19,3.19,0,0,0-.33.77c-.34,3.44-.35,3.5-3.65,2.27q-24.78-9.24-49.56-18.53-18.88-7-37.8-14.08c-3-1.11-6-2.12-9-3.27-.91-.35-2-.61-2.46-1.65a33.29,33.29,0,0,1,6.13-2.08c15.87,5.77,31.66,11.77,47.48,17.65q22.83,8.47,45.65,17c2.12.79,2.13.76,2.66-1.39.11-.48.13-1,.84-1.06Z"/><path class="cls-34" d="M88,195.87c.3-1.9,2.1-2.33,3.35-3.17q25.08-16.78,50.25-33.44,8.77-5.82,17.52-11.69a22.43,22.43,0,0,0,2.1-1.82,33.71,33.71,0,0,1,6.54,2.18c-.48,1.53-1.87,2.15-3.05,2.94q-26.67,17.77-53.33,35.56a21.3,21.3,0,0,0-3.77,2.91Q98,193,88,195.87Z"/><path class="cls-35" d="M87.15,351c1.52,1.9,3.92,2.11,6,2.88,16.59,6.25,33.23,12.35,49.84,18.52q31.63,11.76,63.26,23.56,27.35,10.2,54.69,20.42c4.54,1.7,9.05,3.46,13.58,5.19a13.29,13.29,0,0,1-3.93,1.31c-3.52-.85-6.8-2.41-10.18-3.66-20.62-7.6-41.21-15.32-61.8-23q-22.73-8.49-45.46-17c-21.48-8-42.94-16-64.44-24-1.09-.4-2.19-.78-3.23-1.28-.69-.33-1.56-.59-1.37-1.67C85,351.53,86.17,351.54,87.15,351Z"/><path class="cls-36" d="M51.4,363.19,81.22,374.4l27.63,10.33q19.19,7.18,38.37,14.38c10.43,3.89,20.88,7.72,31.31,11.61q21.22,7.92,42.44,15.9c5.15,1.92,10.29,3.86,15.45,5.73a3.22,3.22,0,0,1,1.88,1.35l-3.89,1.3c-2-1.72-4.56-2.2-6.91-3.08q-36-13.4-72-26.84-24.16-9-48.3-18.06-28-10.45-56-20.92c-1-.38-2.38-.45-2.4-2.05A4.24,4.24,0,0,1,51.4,363.19Z"/><path class="cls-37" d="M107.62,189.34c0-1.37,1.16-1.76,2-2.36l54.64-36.46c1.19-.8,2.3-1.73,3.46-2.59a49.38,49.38,0,0,1,7.84,2.61c-.82,1.66-2.47,2.39-3.89,3.34l-38.18,25.5c-.88.59-1.95,1-2.39,2.12-6.21,2.51-12.66,4.33-19,6.51A17.61,17.61,0,0,1,107.62,189.34Z"/><path class="cls-38" d="M217.41,440.67c.49-1.79-1.23-1.6-2-1.9-4.29-1.72-8.67-3.23-13-4.85q-22.56-8.42-45.09-16.87c-10.49-3.91-21-7.76-31.51-11.68-12.87-4.79-25.72-9.64-38.59-14.44-10.15-3.8-20.32-7.56-30.48-11.35-7.45-2.77-14.91-5.53-22.33-8.38-.86-.33-2.36-.26-2.19-1.91.08-1.12,1-1,1.76-1.26a2.19,2.19,0,0,1,1,.18c3.35,2.13,7.19,3.09,10.84,4.47q35.73,13.47,71.55,26.72c24.67,9.19,49.31,18.48,74,27.53,9.33,3.42,18.66,6.85,27.92,10.45.86.33,2.31.34,2,2Z"/><path class="cls-39" d="M18.74,373.65c-.88-.95.23-1.25.62-1.68q9.81-11,19.69-21.91,7.52-8.38,15-16.77,11.64-13,23.31-25.93c5-5.59,10.12-11.09,15-16.81,2.89-3.4,6.31-6.35,8.71-10.17,1.22.73,2.8.36,3.94,1.32-1.43,2.83-3.86,4.88-5.94,7.17-5.79,6.38-11.53,12.81-17.28,19.22s-11.34,12.6-17,18.94c-4.47,5-9,10-13.53,15-5.74,6.43-11.55,12.79-17.24,19.26-3,3.37-6.21,6.49-8.81,10.17v.43Z"/><path class="cls-40" d="M35.73,213.3l2.61-.86,59.73,22.27,71.15,26.57q26.91,10,53.83,20.06c.93.35,2.5.23,2.19,2a7.62,7.62,0,0,1-3.06.89c-8.88-3-17.56-6.46-26.34-9.7q-21.45-7.9-42.83-16-32.2-12.06-64.42-24.06c-16.51-6.17-33.05-12.28-49.54-18.5C37.71,215.54,35.65,215.63,35.73,213.3Z"/><path class="cls-41" d="M399.87,156.67a3.1,3.1,0,0,0-.33.78c-.33,3.36-.33,3.38-3.48,2.21q-28.24-10.59-56.49-21.18-17.18-6.42-34.38-12.76a3,3,0,0,1-1.95-1.26l6.53-2.18c4.5,2.41,9.42,3.76,14.17,5.56,23.76,9,47.59,17.75,71.37,26.69l.2.08c3.37,1.27,3.42,1.23,3.42-2.42.12-.78-.18-1.75.94-2.06Z"/><path class="cls-42" d="M221.32,439.37c-.51-1.55-2.09-1.47-3.2-1.88-12.31-4.64-24.68-9.13-37-13.72Q158,415.19,135,406.53q-19-7.08-38-14.13-23.05-8.61-46.1-17.26c-4.74-1.77-9.47-3.58-14.22-5.31a2.93,2.93,0,0,1-1.82-1.41c.3-.82,1.06-.93,1.76-1.14a1,1,0,0,1,.86.27c3.13,2.2,6.85,3,10.34,4.35,14.12,5.37,28.27,10.64,42.43,15.92,11.78,4.39,23.58,8.73,35.37,13.12q20.82,7.77,41.63,15.58c11.64,4.34,23.31,8.63,35,13,6.77,2.52,13.51,5.12,20.28,7.65.72.27,1.41.43,1.46,1.35Z"/><path class="cls-43" d="M86.74,275.6c-2,1.18-3.35,3.09-4.89,4.74-3.21,3.42-6.21,7-9.33,10.54Q63.28,301.23,54,311.54c-4.4,4.88-8.87,9.71-13.26,14.6C35,332.54,29.35,339,23.63,345.4c-2.79,3.13-5.61,6.22-8.42,9.33Q9,361.57,2.85,368.39c-.52.57-1,1.29-1.9,1.34C.35,368.51.8,367.2.66,366c0-.83.57-1.29,1.06-1.82,7.32-7.94,14.48-16,21.69-24.06l20.88-23.32c5.75-6.42,11.55-12.81,17.31-19.23S73,285,78.54,278.55c1.22-1.43,2.64-2.69,3.8-4.18C84,274.18,85.32,275,86.74,275.6Z"/><path class="cls-44" d="M.92,154.92c-.8-4,.71-6.38,4.26-8.68C22.06,135.32,38.69,124,55.43,112.88c.82-.55,1.41-1.52,2.55-1.55a33.68,33.68,0,0,1,6.54,2.17A4.7,4.7,0,0,1,62.71,115Q33.57,134.49,4.4,153.9C3.39,154.57,2.44,155.81.92,154.92Z"/><path class="cls-45" d="M399.52,152.3c0,4.58,0,4.5-4.36,2.84-11.75-4.46-23.53-8.83-35.29-13.24l-41.38-15.51c-2.24-.83-4.49-1.6-6.74-2.41-.87-.31-1.87-.49-2-1.7a45.36,45.36,0,0,1,6.52-2.18,6,6,0,0,0,2.58,1.57c23.65,8.78,47.27,17.67,70.93,26.43,2.52.93,5,1.91,7.55,2.81A4.78,4.78,0,0,1,399.52,152.3Z"/><path class="cls-46" d="M399.52,152.3l-33.94-12.62q-13.6-5.06-27.22-10.14c-6.71-2.49-13.44-4.93-20.11-7.51-.76-.29-2.47-.14-2-1.93l6.54-2.18a4.51,4.51,0,0,0,2.32,1.52c20.53,7.73,41.13,15.31,61.67,23,3.26,1.22,6.51,2.43,9.78,3.62,2.18.79,2.33.7,2.34-1.62,0-.51,0-1,0-1.53.14-1-.42-2.24,1-2.82q0,5,0,10C399.26,150.77,399.61,151.57,399.52,152.3Z"/><path class="cls-47" d="M37.47,367.55H36.6c-.58-1.39.5-2.19,1.22-3,5.88-6.32,11.61-12.78,17.34-19.22,7-7.8,14-15.53,20.9-23.34,5.73-6.44,11.55-12.82,17.33-19.22,5.44-6,10.8-12.14,16.32-18.09a3,3,0,0,1,1-.86,5.89,5.89,0,0,1,3.47.9c-.42,1.71-1.86,2.73-2.92,3.93-5.78,6.56-11.74,13-17.59,19.45-7.8,8.63-15.62,17.23-23.31,25.95-5,5.63-10,11.24-15,16.77-3.86,4.2-7.63,8.48-11.44,12.73-.48.53-1.13,1.06-.28,1.8.1.39,0,.54-.44.44A32.18,32.18,0,0,0,37.47,367.55Z"/><path class="cls-48" d="M84.07,352.28c2.1,2.08,5,2.47,7.59,3.44,19.28,7.3,38.6,14.48,57.91,21.68,13,4.85,26,9.64,39.05,14.49,13.82,5.16,27.62,10.37,41.44,15.53q17.79,6.63,35.6,13.2a17.29,17.29,0,0,1,4.89,2.27,12.13,12.13,0,0,1-3.47,1.21c-2-1.52-4.46-2-6.76-2.89-18.9-7-37.77-14.14-56.68-21.16Q171,387.92,138.39,375.73l-55-20.56c-.88-.33-2.33-.35-1.88-2A4.49,4.49,0,0,1,84.07,352.28Z"/><path class="cls-49" d="M25.27,371.47c-.45-1.75,1.18-2.46,2-3.38C31.69,363,36.38,358,40.91,353c6.89-7.69,13.69-15.46,20.58-23.16,4.48-5,9.08-9.91,13.57-14.91,5.63-6.29,11.19-12.66,16.82-19,3.28-3.67,6.57-7.32,10-10.84,1.09-1.11,1.52-2.83,3.15-3.42a5.57,5.57,0,0,1,2.59.86c.56.83-.07,1.36-.52,1.89-3.6,4.18-7.36,8.2-11,12.33-5.85,6.63-11.82,13.16-17.7,19.76-4.44,5-8.93,9.92-13.4,14.87s-9,10-13.49,15.07-8.89,9.75-13.23,14.72c-2.33,2.67-5,5-6.9,8.09A18.27,18.27,0,0,1,25.27,371.47Z"/><path class="cls-19" d="M.9,360.54c-.55-2.57.5-4.52,2.2-6.35q6.95-7.47,13.75-15.06c5.75-6.4,11.4-12.87,17.14-19.27,4.44-5,9-9.82,13.42-14.78,5.69-6.34,11.27-12.79,17-19.1,3.84-4.22,7.75-8.38,11.41-12.77a2,2,0,0,1,1.76-.66,5.55,5.55,0,0,1,2.61.87c-1.52,3-4.15,5.19-6.37,7.64C65.43,290.34,57.1,299.71,48.7,309q-11.37,12.57-22.64,25.23c-6.93,7.79-14,15.46-20.83,23.34A24.84,24.84,0,0,1,2.77,360C2.25,360.48,1.74,361.16.9,360.54Z"/><path class="cls-50" d="M399.52,143.15c0,4.51,0,4.56-4.08,3q-23.78-8.83-47.51-17.72c-7.92-2.95-15.85-5.86-23.77-8.81-.78-.29-2.14-.21-1.33-1.75l6.53-2.17a4.7,4.7,0,0,0,2.54,1.58q32.66,12.14,65.29,24.35C398.06,142,399,142.2,399.52,143.15Z"/><path class="cls-30" d="M399.87,307v3.5c-.92,1.53-2.18.79-3.27.38-7.46-2.83-15-5.53-22.45-8.35-20.3-7.66-40.67-15.16-61-22.77a16.09,16.09,0,0,1-2.6-1.1c-.61-.36-1.32-.76-.78-1.69a16.13,16.13,0,0,1,4.23-1.38,3.31,3.31,0,0,1,2.52.24c26.69,10,53.44,19.91,80.12,30C397.72,306.18,399,306.17,399.87,307Z"/><path class="cls-51" d="M24.4,216.79a7.74,7.74,0,0,0,2.61-.44c7.86,3.56,16.09,6.18,24.14,9.25C65,230.89,79,236,92.9,241.22l49.3,18.39q30.24,11.26,60.5,22.57c3.12,1.17,6.26,2.28,9.38,3.47.72.28,1.57.41,1.88,1.31a7,7,0,0,1-3.11,1.2c-2-1.88-4.65-2.25-7-3.16-11.76-4.48-23.58-8.77-35.37-13.17-15-5.61-30.05-11.27-45.09-16.87-10.5-3.92-21-7.77-31.53-11.68-12.86-4.8-25.71-9.65-38.58-14.45q-13.52-5.06-27-10.05C25.21,218.42,24.21,218.17,24.4,216.79Z"/><path class="cls-52" d="M369.89,256.91q10.32-3.51,20.63-7c3.07-1,6.14-2,9.35-3.1v21.4c-.64,1.11-1.56.53-2.29.27-8.77-3.14-17.47-6.46-26.19-9.75C370.6,258.43,369.74,258.05,369.89,256.91Z"/><path class="cls-30" d="M81.46,353.15c.08.93.84,1.07,1.51,1.32q28.26,10.5,56.51,21,31.61,11.75,63.2,23.53L261,420.77c1.83.68,3.63,1.43,5.47,2.1.65.24,1.05.5.63,1.23l-2.61.88c.59-1.29-.61-1.31-1.21-1.54-8.94-3.36-17.9-6.66-26.85-10q-23.19-8.64-46.36-17.31l-30.72-11.43-31.1-11.63q-15.3-5.71-30.62-11.4c-5.49-2-11-4-16.48-6.11-.85-.32-1.83-.58-2.28-1.55A4.45,4.45,0,0,1,81.46,353.15Z"/><path class="cls-53" d="M43.13,365.81l.44-.44,1.74-.43c3.9,2.13,8.19,3.29,12.31,4.85,24.83,9.37,49.71,18.6,74.58,27.88q27.2,10.15,54.41,20.26,21.42,8,42.79,16c.93.35,2,.62,1.94,2a2,2,0,0,1-1.69.51l-31.08-11.62-27.64-10.34-43.29-16.18L93.28,385.48q-19-7.11-38-14.23c-3.39-1.27-6.8-2.47-10.2-3.71C44.21,367.23,43.21,367,43.13,365.81Z"/><path class="cls-54" d="M131.15,181.5c-1.25-1.14.32-1.33.69-1.6,2.53-1.81,5.14-3.5,7.73-5.22q16-10.63,32-21.27c1.38-.92,2.71-1.91,4.07-2.87a51.49,51.49,0,0,1,7.84,2.61c-.33,1.27-1.47,1.74-2.41,2.37-8.11,5.44-16.25,10.83-24.37,16.27-.75.5-1.72.83-2,1.86-5.8,2.38-11.84,4.06-17.76,6.09A28.28,28.28,0,0,1,131.15,181.5Z"/><path class="cls-55" d="M399.52,143.15l-39.6-14.75q-14.82-5.5-29.65-11c-.77-.28-1.62-.54-.91-1.64l5.25-1.75c7.13,2.45,14.14,5.25,21.21,7.85C369.44,126.85,383,132,396.6,137c2.29.84,2.29.84,2.35-1.6a7.88,7.88,0,0,1,.08-1.09,1.91,1.91,0,0,1,.26-.63.42.42,0,0,1,.59-.14v6.55C399.18,141.05,399.66,142.14,399.52,143.15Z"/><path class="cls-56" d="M399.52,134c0,.94-.08,1.89,0,2.83.16,1.54-.31,1.86-1.79,1.31q-25.39-9.52-50.82-19c-3.59-1.34-7.19-2.67-10.77-4a2.39,2.39,0,0,1-1.54-1.13,45.07,45.07,0,0,1,6.53-2.18c17.41,6.69,34.95,13,52.38,19.68C395.54,132.26,397.72,132.68,399.52,134Z"/><path class="cls-57" d="M372.94,101.33c5.25-2.26,10.79-3.71,16.17-5.6,3.27-1.15,6.6-2.12,9.9-3.16,1.31.22.68,1.24.68,1.87.06,5.2,0,10.39,0,15.59,0,.51,0,1,0,1.52-.71,1-1.57.41-2.32.14-7.4-2.67-14.75-5.46-22.1-8.24C374.29,103.07,373,102.87,372.94,101.33Z"/><path class="cls-58" d="M225.24,283.37c-.19-1-1.08-1-1.81-1.3q-25.31-9.46-50.61-18.92c-13.08-4.88-26.18-9.68-39.26-14.56-13.76-5.13-27.49-10.33-41.24-15.47q-17.68-6.6-35.4-13.13-8.55-3.18-17.07-6.4a2.28,2.28,0,0,1-1.51-1.15l2.18-.45c7,2.22,13.75,5,20.62,7.56q21.72,8,43.4,16.19,20.77,7.78,41.57,15.52Q169,259.81,192,268.36q16.71,6.21,33.42,12.47c.84.31,1.87.5,2,1.69A4.37,4.37,0,0,1,225.24,283.37Z"/><path class="cls-59" d="M71.05,115.68c-4,2.6-8,5.17-11.93,7.79Q30.88,142.23,2.62,161c-.52.35-1,.91-1.69.9V158a6.11,6.11,0,0,1,1.49-1.24Q33.72,135.87,65,115c.64-.43,1.24-1.07,2.14-.6A12.32,12.32,0,0,1,71.05,115.68Z"/><path class="cls-60" d="M399.52,134c-3.87-.71-7.37-2.49-11-3.81-9.28-3.37-18.51-6.9-27.77-10.36L342.49,113c-.6-.23-1.28-.39-1.35-1.22a46.75,46.75,0,0,1,6.53-2.18c10.67,4.34,21.56,8.09,32.31,12.22,5.81,2.23,11.69,4.29,17.5,6.54.85.33,1.88.46,2.24,1.53-.09,1.21.23,2.44-.2,3.63Z"/><path class="cls-61" d="M369.89,256.91c.75,1.53,2.38,1.51,3.68,2q12.09,4.6,24.25,9.08c.64.24,1.32.66,2.05.22V276c-2.83-.37-5.37-1.66-8-2.63-9.67-3.53-19.3-7.18-28.95-10.78a13,13,0,0,1-2-.86c-.69-.38-1.23-.85-.62-1.71Z"/><path class="cls-62" d="M399.52,316.57q-19.2-7.17-38.39-14.34L319.72,286.7c-5.28-2-10.57-3.91-15.86-5.86-.74-.28-1.53-.48-1.93-1.28l2.92-.94a4.75,4.75,0,0,1,3.14.54q38.22,14.34,76.5,28.54c4.29,1.59,8.54,3.29,12.84,4.84C399.85,313.45,400,313.65,399.52,316.57Z"/><path class="cls-62" d="M399.52,316.57c.41-2.15-.69-2.9-2.63-3.61-12.49-4.57-24.92-9.31-37.37-14q-12.79-4.8-25.61-9.54l-29.05-10.82a20.62,20.62,0,0,1,4.91-1.67c0,.91.69,1.11,1.41,1.38q14.11,5.25,28.19,10.56l41.78,15.65c5.35,2,10.7,4,16.05,5.95a2.59,2.59,0,0,0,2.67,0v6.09Z"/><path class="cls-63" d="M28.32,215.91a.9.9,0,0,1,.87-.43c2.86.3,5.39,1.63,8,2.62,23.48,8.85,47,17.55,70.52,26.34q35.86,13.41,71.77,26.74c11.76,4.37,23.53,8.73,35.25,13.19.81.31,1.94.41,1.81,1.74-.44.59-1.13.61-1.76.74-5.42-2.46-11.07-4.35-16.65-6.37-9.4-3.39-18.74-6.92-28.09-10.4-9.15-3.42-18.3-6.8-27.44-10.24q-17.55-6.61-35.15-13.15Q88.25,239.53,69,232.37c-13-4.86-26.06-9.59-39-14.62C29.14,217.41,28.15,217.21,28.32,215.91Z"/><path class="cls-64" d="M48.79,364.05c1.21,1.72,3.28,1.77,5,2.41,13.79,5.24,27.64,10.32,41.46,15.48q26.52,9.9,53,19.85c13,4.85,26,9.65,39,14.49q23,8.57,45.91,17.18c.6.23,1.8.25,1.21,1.54l-1.32.44c-11.59-4.83-23.45-8.91-35.19-13.32q-43-16.12-86-32.1-29.14-10.87-58.29-21.74c-2.53-.94-5.37-1.33-7.44-3.35A4.3,4.3,0,0,1,48.79,364.05Z"/><path class="cls-65" d="M46.18,364.93l32.51,12.13,27.63,10.32q23.28,8.7,46.54,17.38,16.88,6.3,33.75,12.56,22.27,8.3,44.51,16.62c.76.28,1.76.42,2,1.5-.64-.06-1.05.75-1.75.46-1-1.74-3-1.75-4.51-2.34-14.21-5.37-28.48-10.58-42.71-15.9-16.12-6-32.22-12.12-48.35-18.14-13.08-4.88-26.19-9.67-39.27-14.55q-22.36-8.36-44.7-16.78c-1.69-.63-3.38-1.28-5.1-1.85-.75-.25-1.37-.49-1.39-1.4Z"/><path class="cls-66" d="M399.87,283.89v3.5c-.87,1.46-2.06.68-3.06.31-5.51-2-11-4-16.5-6.1-11.71-4.44-23.49-8.71-35.19-13.16-1.22-.46-2.78-.57-3.09-2.3l6-2c16.63,6.32,33.32,12.47,50,18.66A3.33,3.33,0,0,1,399.87,283.89Z"/><path class="cls-9" d="M325.83,271.55a11.08,11.08,0,0,1,3.86-1.21c1-.37,1.83.18,2.69.5,21.43,8.06,42.92,15.93,64.32,24.05,1.1.42,2.52.3,3.17,1.62v3.06c-.85.71-1.66.16-2.44-.13q-25.29-9.36-50.55-18.83c-6.17-2.31-12.37-4.58-18.53-6.92C327.34,273.31,325.74,273.34,325.83,271.55Z"/><path class="cls-67" d="M399.52,129.64c-8.13-3-16.26-5.93-24.38-8.94-8.32-3.08-16.62-6.21-24.93-9.33-1-.37-2.16-.46-2.54-1.73a45.56,45.56,0,0,1,6.54-2.17c4,2.16,8.3,3.44,12.51,5,9.59,3.53,19.12,7.26,28.75,10.69,3.5,1.25,3.48,1.3,3.45-2.47.2-1.11-.58-2.52,1-3.23V127C399.47,127.87,400,128.83,399.52,129.64Z"/><path class="cls-68" d="M342,266.14c1.62,1.76,4,2,6,2.81Q372,278,396,286.83c1.19.44,2.44,1.48,3.88.56v4.33c-1.05.42-2-.06-2.92-.41q-28.6-10.62-57.17-21.33c-1.14-.43-2.61-.58-3-2.14Z"/><path class="cls-69" d="M41.82,211.56l.44-.44,1.31-.42c6.45,3.14,13.31,5.24,20,7.8,9.31,3.57,18.67,7,28,10.51,7.78,2.91,15.58,5.76,23.35,8.69q14.2,5.37,28.44,10.64,19.33,7.14,38.64,14.33t38.57,14.42c2.9,1.1,5.84,2.12,8.73,3.24a3,3,0,0,1,1.65,1,6.79,6.79,0,0,1-3.09,1.2c-1.48-1.81-3.78-2-5.76-2.75-8.22-3-16.37-6.23-24.61-9.19-10.62-3.81-21.14-7.92-31.74-11.79-7.81-2.86-15.56-5.91-23.37-8.78q-15.9-5.82-31.75-11.79C94,232,77.41,225.83,60.83,219.56c-5.82-2.2-11.66-4.34-17.46-6.59C42.67,212.7,41.68,212.74,41.82,211.56Z"/><path class="cls-70" d="M30.5,215.05l1.31-.44c4.36.53,8.23,2.58,12.27,4.07q21.42,7.9,42.8,15.95,24.65,9.24,49.32,18.41c18.15,6.76,36.26,13.58,54.44,20.26,8.84,3.25,17.63,6.67,26.48,9.9,1,.35,2.43.37,2.46,2a5.14,5.14,0,0,1-2.16.79c-1.25-1.53-3.2-1.65-4.84-2.27-11.42-4.33-22.89-8.55-34.33-12.84q-19-7.14-38-14.19L109,245q-19.41-7.22-38.8-14.49C60,226.69,49.7,223,39.49,219.1c-2.57-1-5.12-2-7.73-2.86C31.23,216.06,30.39,216,30.5,215.05Z"/><path class="cls-71" d="M399.87,283.89c-9.62-3.09-19-6.93-28.47-10.38-7-2.56-14.07-5.24-21.11-7.86-.88-.32-1.83-.5-2.24-1.51a36,36,0,0,1,6.16-2c4,2.31,8.42,3.43,12.66,5.06,9.51,3.66,19.08,7.18,28.63,10.73a32.08,32.08,0,0,0,4.37,1.18Z"/><path class="cls-72" d="M231,281.29c-8.15-3-16.3-5.94-24.43-9-9.15-3.39-18.27-6.85-27.42-10.27q-16.44-6.13-32.91-12.24c-9.42-3.48-18.86-6.87-28.27-10.37-7.59-2.82-15.13-5.75-22.71-8.6q-13.8-5.19-27.61-10.33c-7.38-2.75-14.77-5.48-22.14-8.28-.75-.28-1.77-.42-1.9-1.54l1.74-.44c0,.77.5,1.08,1.19,1.34Q61,217,75.56,222.44l38.8,14.49,30.28,11.28,47.13,17.62q18.9,7.05,37.81,14.07c.82.3,1.69.47,2.18,1.29Z"/><path class="cls-73" d="M82.34,274.37a2.32,2.32,0,0,1-.86,1.9Q72.63,286,63.81,295.68c-6.35,7-12.65,14.1-19,21.14-7.78,8.66-15.63,17.26-23.32,26q-7.47,8.46-15,16.8A51.82,51.82,0,0,1,1,365.37c-.58-.69-.16-1.5-.29-2.24C3,360,5.78,357.26,8.37,354.35Q17.46,344.12,26.65,334c4.43-4.89,8.8-9.82,13.23-14.71q8.59-9.51,17.11-19.1c4.23-4.76,8.53-9.47,12.79-14.22,3.19-3.56,6.33-7.17,9.62-10.64.5-.52.84-1.2,1.63-1.36C81.62,273.62,81.92,274.18,82.34,274.37Z"/><path class="cls-74" d="M219.58,285.19c-.57-1.13-1.81-1.17-2.76-1.53-13.06-4.9-26.16-9.71-39.23-14.58q-24.78-9.24-49.55-18.54-19-7.08-38-14.13Q67,227.8,43.94,219.16l-12.13-4.55,3-.87c2,1.91,4.76,2.4,7.23,3.33,10.29,3.86,20.61,7.65,30.89,11.51q18.89,7.11,37.79,14.13l32.12,12q20.73,7.72,41.44,15.48c10.29,3.87,20.61,7.63,30.88,11.54,2.21.85,4.6,1.29,6.61,2.65A3.18,3.18,0,0,1,219.58,285.19Z"/><path class="cls-75" d="M28.32,215.91c.81,1.55,2.46,1.68,3.83,2.19q22.93,8.66,45.9,17.22c11.79,4.4,23.59,8.73,35.38,13.13q22.56,8.42,45.09,16.88,17,6.33,33.93,12.62c6.78,2.5,13.6,4.9,20.38,7.4.75.28,1.75.43,2,1.5L214,287q-19.71-7.35-39.41-14.69Q152,263.86,129.47,255.4c-10.09-3.77-20.2-7.5-30.28-11.26q-23.47-8.76-46.92-17.54c-7.65-2.86-15.32-5.68-23-8.55-.9-.34-2-.44-2.3-1.7C27.32,215.84,27.84,215.93,28.32,215.91Z"/><path class="cls-76" d="M399.87,279.11a2.59,2.59,0,0,1-2.67,0l-28-10.42-13-4.85c-.87-.33-1.88-.5-2-1.71a32.78,32.78,0,0,1,6.1-2.09c-.18,1.17.8,1.23,1.49,1.49q9.54,3.61,19.08,7.17c5.83,2.17,11.68,4.3,17.51,6.46a10,10,0,0,1,1.48.86Z"/><path class="cls-77" d="M399.87,307c-3.79-.17-7-2.14-10.46-3.37-9.33-3.34-18.58-6.91-27.86-10.38l-38.2-14.3c-3.11-1.16-6.23-2.24-9.35-3.36a20.93,20.93,0,0,1,4.91-1.67c1.21,1.28,2.89,1.63,4.43,2.21,13,4.94,26,9.7,38.94,14.55,11.35,4.25,22.68,8.52,34.05,12.7a4.54,4.54,0,0,0,3.54.15Z"/><path class="cls-78" d="M31.37,369.29c-.52-1.58.92-2.26,1.64-3.08,5.8-6.54,11.74-12.95,17.59-19.44q11.68-12.93,23.32-25.92l14.87-16.62Q98,294,107.1,283.71a4.16,4.16,0,0,0,.52-1.15c.43.6,1.37.15,1.76.85-.22,2-1.82,3-3,4.31-7.31,8.24-14.7,16.4-22,24.6-5.75,6.42-11.54,12.81-17.3,19.22s-11.35,12.59-17,18.94Q43.65,357.82,37,365c-1,1.12-2,2.31-3,3.41l-1.74.87Z"/><path class="cls-79" d="M399.51,120.92c0,4.26.65,4.6-4.1,2.8-13-4.93-26.14-9.71-39.22-14.55-.86-.32-1.87-.49-2-1.7a22.89,22.89,0,0,1,5.66-1.79c8.46,3,16.81,6.28,25.23,9.39,3.53,1.3,7.07,2.58,10.58,3.92C397,119.5,398.48,119.79,399.51,120.92Z"/><path class="cls-80" d="M154.68,173.65c-.62-.73-.64-.76.35-1.42,3.66-2.45,7.35-4.87,11-7.32q8.72-5.86,17.41-11.76a33.88,33.88,0,0,1,6.51,2.18c.2,1.39-1,1.82-1.8,2.39-3.5,2.39-7,4.72-10.57,7.1-.76.51-1.67.88-2,1.86C168.71,169.28,161.75,171.63,154.68,173.65Z"/><path class="cls-32" d="M67.13,114.38c-3.92,2.55-7.87,5.07-11.77,7.66Q38.66,133.17,22,144.34q-9.46,6.32-18.94,12.59a4.83,4.83,0,0,1-2.12,1c0-1,0-2,0-3a4.26,4.26,0,0,0,2.56-1q29.3-19.53,58.6-39a5.53,5.53,0,0,1,2.44-1.34A5.64,5.64,0,0,1,67.13,114.38Z"/><path class="cls-81" d="M336.79,267.84c3.18,2.08,6.87,3,10.36,4.29,12.94,4.93,25.93,9.76,38.9,14.59,4.59,1.71,9.22,3.34,13.82,5v2.61a4.37,4.37,0,0,1-3.15-.41c-12.65-4.65-25.24-9.49-37.91-14.11-7.62-2.78-15.19-5.72-22.78-8.58-1.08-.4-2.52-.57-2.36-2.3Z"/><path class="cls-82" d="M399.51,120.92q-12.37-4.55-24.75-9.11c-4.26-1.58-8.51-3.2-12.77-4.78-.81-.3-1.68-.47-2.12-1.35a27.84,27.84,0,0,1,6.51-2.23c9.81,3.85,19.7,7.49,29.6,11.11,2.53.93,2.54.9,3-1.83a2,2,0,0,1,.48-1v-1.3q.18-.3.36,0v7C399.15,118.55,399.68,119.77,399.51,120.92Z"/><path class="cls-58" d="M41.82,211.56c1.28,1.46,3.2,1.55,4.83,2.21,11.44,4.65,23.19,8.5,34.66,13.11,7.7,3.09,15.58,5.74,23.36,8.62,9.75,3.61,19.52,7.18,29.22,10.92,9.37,3.61,18.88,6.85,28.2,10.6,9,3.63,18.33,6.62,27.41,10.14s18.54,6.52,27.58,10.41c3.1,1.33,6.4,2.22,9.58,3.39.61.22,1.8.25,1.21,1.53l-.46,0c-3-1.85-6.38-2.68-9.61-3.9q-27-10.17-54-20.22-18.89-7.06-37.79-14.09L79.68,227q-18.6-6.93-37.19-13.85c-.71-.26-1.63-.25-2-1.17Z"/><path class="cls-83" d="M30.5,215.05c2.6,1.61,5.57,2.35,8.39,3.42q30.75,11.6,61.57,23c15.38,5.73,30.79,11.39,46.17,17.13q26.53,9.89,53,19.85c5.49,2,11,4,16.48,6.11.6.22,1.88,0,1.28,1.39l-.87.13c-1.15-1.5-3-1.59-4.59-2.17Q180.18,272,148.35,260.22q-22.07-8.21-44.1-16.45-30-11.21-59.92-22.45c-5.07-1.9-10.23-3.53-15.14-5.84Z"/><path class="cls-84" d="M221.81,284.34c-7.61-2.36-14.94-5.46-22.41-8.18-9.17-3.34-18.3-6.81-27.44-10.23q-23.47-8.78-46.94-17.55Q108,242,90.87,235.66L44.53,218.37c-2.64-1-5.29-2-7.93-3-.8-.3-1.71-.55-1.75-1.68l.88-.44c.46,1.53,1.93,1.67,3.08,2.1q35.37,13.23,70.78,26.36,22.07,8.22,44.13,16.46,31.71,11.86,63.4,23.79c1.73.65,3.75.66,5.06,2.25A1,1,0,0,1,221.81,284.34Z"/><path class="cls-85" d="M34,368.42a4,4,0,0,1,1.18-2.27q8.84-9.69,17.65-19.4,9.66-10.69,19.26-21.44c6.37-7.09,12.76-14.17,19.1-21.29,6.1-6.85,12.14-13.74,18.21-20.61.41.18,1.05-.27,1.3.43-.78,2.38-3,3.66-4.48,5.45-4.26,5.09-8.9,9.87-13.34,14.81-5.83,6.5-11.61,13-17.43,19.56-2.74,3.08-5.52,6.11-8.26,9.18-6.12,6.83-12.21,13.68-18.35,20.49-3.29,3.65-6.63,7.25-10,10.86a7.77,7.77,0,0,0-2.26,3.36l-1.75.87Z"/><path class="cls-73" d="M81,273.94c-3,4-6.58,7.49-9.85,11.25-6.07,7-12.3,13.83-18.49,20.71-4.5,5-9.09,9.91-13.58,14.92-5.64,6.3-11.22,12.66-16.84,19-2.79,3.14-5.63,6.22-8.43,9.34-3.62,4-7.21,8.1-10.85,12.12-.56.63-1.05,1.43-2,1.51a2.31,2.31,0,0,1-.12-2.15l.07-.07c2-.62,3.05-2.38,4.35-3.77,3.6-3.86,7.06-7.85,10.56-11.79,5.62-6.33,11.2-12.67,16.84-19,3.08-3.45,6.26-6.82,9.35-10.27,5.88-6.56,11.69-13.2,17.62-19.72,2.58-2.84,5.15-5.68,7.67-8.57,3.89-4.47,7.91-8.83,11.89-13.23a7.92,7.92,0,0,1,1-.79Z"/><path class="cls-86" d="M325.83,271.55c1.79,2,4.45,2.25,6.75,3.12q25.44,9.66,51,19.07c5.41,2,10.88,3.89,16.31,5.83V300c-.14,2.07-1.43,1.77-2.75,1.3-5.18-1.86-10.32-3.86-15.48-5.78q-26.91-10-53.77-20.05c-1.09-.41-2.19-.79-3.23-1.29-.69-.32-1.56-.58-1.37-1.66A5.19,5.19,0,0,1,325.83,271.55Z"/><path class="cls-87" d="M333.67,268.93c.39,1.1,1.38,1.36,2.34,1.72q26.13,9.78,52.25,19.57c3.85,1.43,7.74,2.74,11.61,4.11v2.18q-35.17-12.83-70.18-26.17Z"/><path class="cls-77" d="M399.87,303.51c-.44,1.14-1.07,1.36-2.3.9-8.1-3.08-16.25-6.05-24.37-9.08-9.26-3.44-18.5-6.92-27.76-10.37-8.46-3.16-16.93-6.3-25.38-9.48-.63-.24-1.76-.34-1.15-1.58a5.75,5.75,0,0,1,2.18-.84c3.16,2,6.78,2.95,10.23,4.23,17.95,6.68,35.87,13.42,53.82,20.07,4.89,1.81,9.7,3.86,14.73,5.27Z"/><path class="cls-88" d="M399.51,111.77c0,4.56,0,4.65-4.28,3.11Q381.9,110,368.64,105c-.85-.31-1.83-.58-2.26-1.56a27.18,27.18,0,0,1,6.56-2.12c1.28,1.71,3.36,1.85,5.13,2.52C385.19,106.56,392.36,109.14,399.51,111.77Z"/><path class="cls-86" d="M399.87,302.63c-1,.8-2,.13-2.86-.2q-20.22-7.5-40.43-15.06c-11-4.12-22.09-8.21-33.11-12.37-.94-.35-2.21-.54-2.38-1.94.72-.21,1.36-.72,2.18-.51,2.26,2.1,5.3,2.46,8,3.57,9.08,3.7,18.32,7,27.51,10.42,12.94,4.78,25.84,9.65,38.79,14.38,1.23.45,1.86.25,2.3-.89Z"/><path class="cls-89" d="M175.59,166.68c-1.17-.92.15-1.24.5-1.48,2.3-1.62,4.74-3,7-4.71s5.1-2.76,6.87-5.16l9.61,3.11a1.85,1.85,0,0,1-1.19.84c-7.24,2.41-14.48,4.85-21.72,7.27A5.31,5.31,0,0,1,175.59,166.68Z"/><path class="cls-88" d="M399.88,110.47h-.36c0-5.23,0-10.45,0-15.68,0-.76.29-1.62-.49-2.22,1.26-.86.92.29.92.78C399.93,99.06,399.9,104.76,399.88,110.47Z"/><path class="cls-19" d="M.83,360.61,1,362.76v7L.8,375H.74a135.06,135.06,0,0,1,0-14.37Z"/><path class="cls-56" d="M399.52,129.64c.12-.87-.31-1.81.36-2.6v6.52h-.36Z"/><path class="cls-43" d="M.74,375H.8c0,.15.09.3.14.44,0,1.44,0,2.87,0,4.31A10.18,10.18,0,0,1,.74,375Z"/><path class="cls-1" d="M179.91,40.93c-2.08-12.71-9.94-20.49-22.68-21.72S131.68,23.55,127,37.75a36.29,36.29,0,0,0-1.44,15.06c1,10.95,5.66,19.77,16.3,24,11.62,4.64,23.3,3.42,34.75-1.16,1-.4,1.21-.91,1-2-.74-3.32-1.41-6.66-1.94-10-.25-1.58-.67-1.63-2.05-1a32,32,0,0,1-18.84,2.91c-5.14-.83-9.4-2.92-11.13-8.38-.54-1.7-.38-2.46,1.72-2.41,5.44.13,10.89,0,16.33,0,5.59,0,11.18,0,16.77,0,1.35,0,1.92-.31,2-1.77A59.57,59.57,0,0,0,179.91,40.93Zm-16.39.83c-.09,1.16-.77,1-1.48,1h-8.91c-2.83,0-5.66,0-8.48,0-1.28,0-1.59-.31-1.4-1.61,1-6.8,6.37-10.93,12.72-9.63C160.25,32.44,163.86,37.39,163.52,41.76Z"/><path class="cls-1" d="M314.5,19.17c-12.91-1-25.13,4.25-29.92,18a39.9,39.9,0,0,0-1.82,14.37c.42,15.18,9.51,25.78,24.5,27.71,10.3,1.34,19.71-1,26.68-9.4,4.89-5.91,6.48-13,6.49-20.51C340.52,32.78,331.27,20.47,314.5,19.17Zm6.29,40.89a9.34,9.34,0,0,1-9.08,6.24c-4.45,0-7.51-2.23-9.36-6.21a27.52,27.52,0,0,1-2-11.9,25.4,25.4,0,0,1,1.93-9.51c1.84-4,4.75-6.29,9.28-6.3a9.34,9.34,0,0,1,9.25,6.3A27.71,27.71,0,0,1,320.79,60.06Z"/></g></g></svg>