<svg xmlns="http://www.w3.org/2000/svg" viewBox="0 0 600 248.26"><g id="Ebene_2" data-name="Ebene 2"><g id="Ebene_2-2" data-name="Ebene 2"><path d="M343.28,89.76c4.25.23,11.76.33,19.08,2.27a5.7,5.7,0,0,1,.74.15c2.43,1.17,6,1,6.26,4.81s-3.41,8.08-7.17,8.71c-3.56.59-7.2.73-10.8,1.06-15.59,1.42-31.23,2.46-46.62,5.59a27.16,27.16,0,0,0-3.38,1,2.31,2.31,0,0,0-1.86,2.39c.12,1.27,1.34,1.42,2.3,1.57,8.33,1.22,16.65,2.51,25.1,2.68a82.08,82.08,0,0,1,22.2,3c12.31,3.71,17.34,10.55,17.17,23.38a37.81,37.81,0,0,1-1.58,12c-1.13,3.28-2.93,6.32-6,7.88-17.7,9.1-35.93,12.08-54.83,3.78a41,41,0,0,1-13-9.45c-8-8.36-5-20.63,5.94-24.36,6.45-2.19,13.13-2,19.77-1.4a93.18,93.18,0,0,1,17.32,3.36,20.81,20.81,0,0,1,7.16,3.59c2.43,1.9,2.48,3.55.12,5.58C338,150,334,150.83,330,151.19a33.31,33.31,0,0,1-19.22-4.06,20.83,20.83,0,0,0-8.88-2.62,5.89,5.89,0,0,0-6.29,4.06,3.71,3.71,0,0,0,.87,4.17c2.16,2.33,5.06,3,8,3.42a75.83,75.83,0,0,0,38.44-4.46,24.47,24.47,0,0,0,6.88-4.16c4.1-3.54,3.63-7.53-1.23-10-3.79-1.92-8-2.64-12.08-3.46-9.29-1.85-18.71-2.26-28.14-2.55A84.55,84.55,0,0,1,293.48,130c-9.28-2-11.82-3.78-10.57-15.43,1-9.08,6.66-14.06,14.47-17.45C306.36,93.22,323,88.89,343.28,89.76Z"/><path d="M478.38,122.12a197.23,197.23,0,0,1,21.84-.18c3.47.24,4.5,1.2,4.55,4.62,0,1.43,0,2.86,0,4.29-.15,4.15-1.13,5.28-5.47,5.61-6.39.48-12.79.77-19.18,1.14-2.1.12-4.21.28-6.31.32a1.85,1.85,0,0,0-2.06,1.65c-1.1,4.05-2.32,8.07-3.6,12.07-.65,2.05,0,2.64,2,2.24,6.94-1.33,13.88-2.66,20.84-3.87,3.31-.57,6.66-1,10-1.25s6.57,2,8.13,5.65c1.36,3.18,1,5.42-2.09,8.08-10.93,9.39-23.25,16.11-37.79,17.66-10.54,1.12-20.46-7.93-21.15-18.59-.47-7.39,1.29-14.36,3.89-21.17a5.39,5.39,0,0,0,.08-4.31,18.39,18.39,0,0,1-1.4-6.63c-.06-3.53.76-5,4.24-5.38,3.29-.34,4.71-2.1,5.82-4.79s2.34-5,3.62-7.49c.69-1.31.68-1.85-1-2-5.64-.33-9.53-3.36-12.14-8.23-1.72-3.21-1.15-4.83,2.33-5.84a112.63,112.63,0,0,1,14.33-2.91,248.85,248.85,0,0,1,37.47-3.26,13.8,13.8,0,0,1,10.52,4.57,30.81,30.81,0,0,1,5,7.24c2,3.87.88,6.09-3.39,6.84-10.3,1.81-20.73,2.48-31.15,3.09-4.56.27-4.56.21-5.9,4.49C479.74,117.83,479.11,119.82,478.38,122.12Z"/><path d="M370.55,151.39c.49-15.53,2.16-30.87,7.22-45.67a20,20,0,0,1,4.08-7.47c3.12-3.32,6.33-3.52,9.72-.49a74.32,74.32,0,0,1,9.06,10.5c6.83,8.9,12.18,18.75,18.22,28.15,1.23,1.91,2.55,3.76,3.88,5.6.48.68,1.11,1.42,2.07,1.1s1-1.3,1-2.13c.31-4.93-.83-9.71-1.71-14.5a362,362,0,0,0-9.55-38.37,18.19,18.19,0,0,1-.85-6.71c.28-3.74,2.37-4.85,5.65-2.91A36.43,36.43,0,0,1,428.91,87c7.55,9.24,11.45,20.06,13.38,31.67a86.07,86.07,0,0,1-1.74,37.77,19.53,19.53,0,0,1-6,9.73c-5.07,4.41-11.48,4.41-16.43-.12s-8.49-10.4-12-16.14c-4.26-6.95-7.66-14.38-11.68-21.46-.64-1.12-1.19-3.07-2.49-2.82s-1,2.26-1.13,3.51c-1,8.79-.78,17.66-1.3,26.48A64.61,64.61,0,0,1,388,167.9c-1.09,4.2-3.48,6.35-7.24,6.54a8.92,8.92,0,0,1-8.36-5.81c-1.56-4.35-1.69-8.91-1.82-13.45C370.52,153.91,370.55,152.65,370.55,151.39Z"/><path d="M274.85,136.61c.44,11.71,1.36,21.62.36,31.56a2.11,2.11,0,0,1,0,.25c-.55,3.05,0,6.74-4,8-4.57,1.41-9,1.08-12.83-2.15-1.83-1.56-2-4-2.39-6.23a98.23,98.23,0,0,1-1.07-16.35c.07-16.16.25-32.31,2.06-48.4a29,29,0,0,1,1.73-7.59c1.92-4.77,6.13-5.38,9.33-1.37a22.76,22.76,0,0,1,5.22,13.62C273.68,118.08,274.37,128.24,274.85,136.61Z"/><path d="M246.33,118c-.92-12.09-6.25-22.76-12.8-32.78-11.4-17.42-26.71-30.87-43.73-42.53C161.67,23.41,130.63,11,97.31,4.27,69.39-1.36,41.51-2.31,14,6.88c-1.75.58-3.65.81-5,2.16A37.32,37.32,0,0,0,.5,21.14a5,5,0,0,0,2.27,6.74c6.2,3.38,12.65,2.72,19.07.65a2.11,2.11,0,0,0,1.53-2.12c0-1-.83-1.45-1.63-1.72-2-.68-4-1.18-6-1.92-1.29-.48-3.72-.09-3.71-1.33,0-1.65,2.34-1.76,3.81-2.16C31.36,15,47.18,14.94,63,16.46a232.5,232.5,0,0,1,69.78,18.07c23.8,10.22,46.05,23,65,41,9.1,8.66,17,18.27,21.52,30.17,5.53,14.59,4.8,28.56-5.32,41.16a49.43,49.43,0,0,1-18.71,13.87c-24.8,11.16-50.62,12.79-77.1,7.9-1.48-.27-1.44-1.06-1.44-2.08V140.73h-1c0-8.34,0-16.68,0-25,0-1.79.24-2.53,2.28-2.38,4.45.32,8.93.25,13.38.55,10.84.73,21.64,1.84,32.1,5a21.7,21.7,0,0,1,8.11,3.93c2,1.78,2.11,3.69.25,5.66a14.32,14.32,0,0,1-4.9,3,21.54,21.54,0,0,0-5.07,2.77c-1.05.86-1.34,1.95,0,2.66,4.1,2.22,8.49,4.35,13.18,3.43a18.76,18.76,0,0,0,14.84-13c2.35-6.86.43-12.75-4.41-17.85a40.11,40.11,0,0,0-18.81-10.82C151,94.43,135.17,92,119,92.69c-1.72.07-2.3-.33-2.33-2.12a185,185,0,0,0-1.72-21.14,28.58,28.58,0,0,0-7.28-16.28c-3-3.18-5-2.88-6.68,1.17a36.36,36.36,0,0,0-1.71,5.52c-2.54,10.79-3.24,21.8-3.9,32.81-.09,1.64-.57,2.24-2.25,2.54a149.25,149.25,0,0,0-34.47,10.24c-6.4,2.8-12.74,5.84-17.55,11.14C37,121,35.64,126.14,37.93,132c1.11,2.8,3.16,4.95,5,7.24C56,155.54,72.55,167.48,91.3,176.47a4.4,4.4,0,0,1,2.87,4.12,41.83,41.83,0,0,0,2.63,11.78c2,5,5.65,7.38,10.5,6.86,6-.63,8.34-2.89,9.32-8.89a10.19,10.19,0,0,0,.24-2.25c-.14-2,.64-2.13,2.37-1.68a142,142,0,0,0,31,4.18,134.28,134.28,0,0,0,42.87-5.67c12.6-3.79,24.4-9.25,34.22-18.23C241.6,153.61,247.79,137.15,246.33,118ZM93.07,162.38C78.61,157.19,65.41,150,53.83,140.05c-2.67-2.3-5.22-4.76-7.69-7.29-3.9-4-3.18-7.61,1.94-9.81,8.09-3.46,16.66-5.15,25.3-6.52,6.48-1,13-1.74,19.55-2.19,1.3-.08,1.95,0,1.95,1.59C94.9,131.32,94.45,146.78,93.07,162.38Z"/><path d="M599.8,116.55c-.43-5.24-1.56-10.31-4.51-14.79-3.65-5.52-9.19-7.61-15.57-5.87-4.89,1.33-9,4-12.91,7.18-9.1,7.39-16.48,16.36-23.41,25.71-3.23,4.36-6.29,8.85-9.45,13.32-.62-.56-.4-1.19-.43-1.73-.33-7.38,2-14.09,5.4-20.47,3.26-6.16,6.73-12.22,10.1-18.32a22.44,22.44,0,0,0,2.69-9.89c.08-1.62.58-3.71-1.18-4.58s-3.35.63-4.63,1.8c-11.45,10.48-20.08,22.88-24.81,37.72-3.45,10.83-3.79,21.7,1.59,32.14a4.15,4.15,0,0,1,.15,4.18,216.07,216.07,0,0,0-10.25,25.45c-3.82,11.61-7.15,23.35-6.79,35.74.26,8.84,4.13,16,10.88,21.62a12.43,12.43,0,0,0,4.18,2.28,3.29,3.29,0,0,0,4.11-1.56,8,8,0,0,0,1.08-3.32,263.22,263.22,0,0,1,17.66-66.31c.61-1.48,1.2-2,2.93-1.65a28.63,28.63,0,0,0,10.8.05c8.23-1.41,15.15-5.44,21.23-11C592.73,151.51,601.43,136.3,599.8,116.55Zm-11.28,8.18c-4.26,15.44-16.77,26.55-33.63,29.05a3.28,3.28,0,0,1-.78-.16A155.11,155.11,0,0,1,572.9,125.1c2.67-3.25,5.5-6.37,8.29-9.52a19.41,19.41,0,0,1,2.38-2.24c1.07-.86,2.3-1.62,3.7-1s1.8,2.13,1.9,3.6A25.87,25.87,0,0,1,588.52,124.73Z"/><path d="M303.68,20.47a20.91,20.91,0,0,0-2.51-.24c-.69-.05-1.3-.12-1.66-.87-1.89-3.87-5.45-5.25-9.31-6.18-7.43-1.8-14.74-.77-22,1.11-15.15,3.94-27,12.29-34.09,26.53-4.21,8.46-3.23,16.45,3.18,23.57a1.91,1.91,0,0,1,.6,2.18c-1.67,5.35.89,9.49,4.28,13.17,1.91,2.08,4.12,1.92,6.24,0a13.48,13.48,0,0,0,3-4c.74-1.5,1.51-2,3.26-1.24a25.18,25.18,0,0,0,11,2c5.52.15,10.74-1.22,15.8-3a59.52,59.52,0,0,0,21.12-13.47c6-5.75,11.12-12.2,13.21-20.5C318.41,29.57,313.77,22.39,303.68,20.47ZM247.25,52.84a7,7,0,0,1-.42-6.22c3-9.1,11.5-15.62,22.26-16.62A89.2,89.2,0,0,0,247.25,52.84Zm55.09-9.09c-5.75,10.13-14.73,15.34-26,17a51.07,51.07,0,0,1-17.08-.4c8.55-11.29,18.05-20.76,30.66-26.65a18.13,18.13,0,0,1,8.55-1.82c3.46.15,5.44,2.11,5.48,5.59A12.29,12.29,0,0,1,302.34,43.75Z"/></g></g></svg>