<svg xmlns="http://www.w3.org/2000/svg" viewBox="0 0 1197.95 413.81"><defs><style>.cls-1{fill:#ec1c24;}.cls-2{fill:#fefefe;}.cls-3{fill:#ec1d25;}.cls-4{fill:#fefafa;}</style></defs><g id="Ebene_2" data-name="Ebene 2"><g id="Ebene_2-2" data-name="Ebene 2"><path class="cls-1" d="M593,0h2c11.14,1.24,21.53,5.12,32.09,8.64,45.33,15.12,90.54,30.55,135.83,45.79q75,25.23,150,50.61,73.58,24.88,147.16,49.71,65.28,22.11,130.58,44.13c.48.16.95.32,1.41.5,2.44,1,5.54,1.38,5.86,4.65.28,2.95-2.87,3.26-4.52,4.72-39.54,13.53-79,27.29-118.47,41-23.28,8.08-46.6,16-69.89,24.11Q941.12,296,877.16,318.13,828.56,335,780,351.83q-65.36,22.68-130.72,45.31c-10.85,3.76-21.88,7-32.51,11.41-7,2.87-14.43,3.68-21.71,5.26h-2c-35.63-9.3-69.52-23.71-104.32-35.45-17.82-6-35.48-12.47-53.21-18.74q-71.09-25.1-142.12-50.32Q247.24,293,201.1,276.74q-69.4-24.62-138.83-49.13c-18.51-6.56-37-13.28-55.56-19.61-2.19-.74-4.41-1.53-6.09-3.27-2-4.26,1.21-5.24,4.08-6.22,11.33-3.88,22.63-7.9,34-11.7,42.93-14.35,85.7-29.17,128.6-43.64q47.78-16.11,95.48-32.45,49.38-16.87,98.79-33.62,46.08-15.7,92.17-31.36,49.38-16.86,98.78-33.62C565.87,7.57,579,2.37,593,0Z"/><path class="cls-2" d="M763.81,232.75c2-5.45,3.59-9.56,5.09-13.7,7-19.22,14-38.42,20.73-57.7,1.06-3,2.38-4.12,5.61-4.06,12,.19,24,.23,36,0,3.54-.08,4.82,1.28,5.95,4.36,8.92,24.34,18,48.61,27.09,73,1.9-.83,1.89-2.71,2.43-4.12q11.14-28.83,22.14-57.72c2.59-6.78,1.52-9.18-5.63-9.39-6.29-.18-3.78-4.3-4.18-7.17-.63-4.46,2.81-3.12,5-3.14,19-.16,38-.13,57-.41,3.44,0,4.55,1.09,4,4.2-.47,2.51,2.12,6.69-3.87,6.24-5.74-.43-9.58,2.62-11.94,8q-21.66,49-43.5,98c-3.35,7.52-2.84,8.64,5.21,10,4.27.74,2,3.85,2.43,5.9.67,3.09-1.38,3.48-3.85,3.5-15,.14-30,.35-45,.54l-10,.13c-6.42.09-7.07-.71-6.13-7.13a2.35,2.35,0,0,1,1.94-2.32c6.8-2.21,7.51-3.61,4.93-10.5-5.47-14.63-11.1-29.2-16.7-43.78-1.48-3.87-3-7.7-4.92-12.45-4.52,9.95-8.68,19.1-12.83,28.25l-13,28.6c-2.6,5.73-1,9.29,5.27,9.63,6,.33,3.51,4.3,3.86,7,.49,3.73-2.49,2.73-4.39,2.73q-30.74-.09-61.48-.32c-2,0-4.89.68-4.19-2.92.5-2.53-2.4-6.54,3.31-7.1,6.68-.67,8.43-4.24,5.82-11q-16.67-43.26-33.42-86.48a128.56,128.56,0,0,1-4.5-12.15c-1.15-4.18-3.55-6.41-7.76-6.28-5.35.17-3.26-3.71-3.68-6.26-.56-3.36,1.32-3.71,4.1-3.69,18.83.09,37.65,0,56.48,0,2,0,4.6-.39,3.74,2.78-.67,2.44,2.88,6.81-3.06,7.13-3.79.21-6.26,2.37-5,6.24C749.53,189.94,756.49,210.65,763.81,232.75Z"/><path class="cls-2" d="M309.21,138.45c.06-4.61-1.73-6.79-5.83-7.71-2.27-.51-4.59-1.38-6.84-1.24-5.32.32-4.69-3.06-4.55-6.4.06-1.46.63-2.13,2.09-2.08,1.17,0,2.34,0,3.5,0,36.16,0,72.33.69,108.46-.25,23.27-.6,40.74,8.86,55.2,25.82,34.73,40.73,26.92,100.08-17,129.23A58,58,0,0,1,410.9,286c-38-.29-76-.09-114-.15-2.11,0-5.15,1.41-5.05-3.12.08-3.58.16-6.3,4.82-5.79a11.73,11.73,0,0,0,3.47-.34c8-1.53,8.92-2.63,8.92-10.74V203.41"/><path class="cls-2" d="M596.11,292.73c-14.56-.31-28.85-2.12-42.42-7.79-24.47-10.22-39.77-28.05-43.51-54.56-4-28.43,5.47-51.89,28.61-69.1C570.06,138,622,138,653.36,161.14c24.23,17.93,33.61,42.43,28.43,71.91-5.07,28.81-23.63,46-50.73,54.67C619.73,291.37,608,292.54,596.11,292.73Z"/><path class="cls-1" d="M921.73,389.06c-17.88-.11-31.79-13.94-31.74-31.54a32,32,0,0,1,64,.5C953.81,375.53,939.64,389.18,921.73,389.06Z"/><path class="cls-1" d="M347.27,202.91c0-14.31.1-28.62-.08-42.92,0-3.32,1-4.16,4.21-4.13,19.8.14,39.6.08,59.4.07,6.84,0,12.56,2.91,17.76,7,21.45,16.72,25.71,52.38,8.74,73.66-7,8.79-16,13.63-27.57,13.51q-29-.28-57.91.05c-3.85,0-4.69-1.13-4.64-4.78C347.39,231.19,347.27,217.05,347.27,202.91Z"/><path class="cls-1" d="M598.64,262c-15.83-.1-28-3.4-38.09-12.34-21.46-19-15.64-53.58,11.21-65.68,14.92-6.72,30.37-6.94,45.71-1.34,17.75,6.49,28.16,21.16,27.83,38.52s-11.46,31.69-29.14,37.67C609.65,261,602.94,262.17,598.64,262Z"/><path class="cls-2" d="M922.21,383.86c-14.78.08-26.13-11.38-26.06-26.33.07-14.72,11.33-26.1,25.83-26.1s25.78,11.46,25.85,26.12S936.64,383.78,922.21,383.86Z"/><path class="cls-3" d="M927.55,360.39l9.25,14.73c-3.75,1.87-5.8.34-7.46-2.85s-3.83-5.86-5.29-9-4-3.74-6.91-3.23c-3.45.6-1.63,3.45-1.84,5.27a54.33,54.33,0,0,0-.06,8c.07,1.9-.61,2.63-2.57,2.61s-2.69-.49-2.68-2.52q.1-15.71,0-31.41c0-2.1,1.08-2.47,2.8-2.45,4,.07,8,0,12,.12,7.69.32,11.14,2.89,12,8.67S935.08,357.46,927.55,360.39Z"/><path class="cls-4" d="M922.3,355.17c-6.51.08-9.24-4.45-7-9.66a2.14,2.14,0,0,1,2.37-1.31c2.8.09,5.61.14,8.4.42,3,.3,4.93,1.8,4.89,5.1-.05,3.48-2,5-5.29,5.26C924.21,355.09,922.72,355.15,922.3,355.17Z"/></g></g></svg>