<svg xmlns="http://www.w3.org/2000/svg" viewBox="0 0 600 240.5"><defs><style>.cls-1{fill:#7296c3;}.cls-2{fill:#7297c3;}</style></defs><g id="Ebene_2" data-name="Ebene 2"><g id="Ebene_2-2" data-name="Ebene 2"><path class="cls-1" d="M37.18,120.13C9.06,113.22,2.58,93.44.66,73.55c-1.42-14.61-1-29.33,5.61-43.12C13.44,15.4,24,4.45,40.84.71A20.23,20.23,0,0,1,45.13.12C56.59.06,68,.14,79.5,0c2.87,0,4,.75,4,3.79-.15,10.16,0,20.32-.08,30.49,0,1.5.49,3.35-2,3.67s-3.23-.91-3.78-3.17a58.72,58.72,0,0,0-8.75-20.29c-4.94-7-11.27-11.1-20.14-9.58-8,1.37-11.82,7.31-14.47,14.16C31.2,27,30.38,35.36,29.93,43.71c-1.06,19.81-1.42,39.64,2.47,59.23,1.8,9.09,6.6,13.34,14,13.32,6.52,0,11.64-3.8,12.92-10.18,2.25-11.16,1.41-22.5.81-33.74-.31-5.91-4.68-9.39-11-10.26-1.91-.27-3.42-.36-3.37-2.94s1.74-2.63,3.6-2.63c10.48,0,21,.09,31.46,0,2.94,0,3.88.88,3.87,3.85-.09,30,0,60-.08,90,0,1.47.59,3.35-2,3.57-2.34.21-3.14-1.08-3.59-3-1.58-6.62-3.75-13-7.57-18.71-5.85-8.73-15.27-12.56-25.21-10-5.78,1.52-10.19,5.05-11.83,11-1.81,6.61-.76,12.79,4.12,17.95s11.16,7.57,17,10.89c6.31,3.57,12.82,6.75,19,10.56,22.65,13.93,21.06,47.38-2.76,60.26a49.83,49.83,0,0,1-23.62,6.14c-11.13.08-22.26-.06-33.4.07-2.9,0-4-.81-3.92-3.82.13-13.23,0-26.45.07-39.68,0-1.7-.46-3.64,2.38-3.78,2.59-.13,2.85,1.68,3.2,3.37,2,9.68,4.76,19.06,10.69,27.22,4.28,5.87,9.79,9.95,17.05,10.83,7.95,1,15.23-.5,19.72-8.13,4.09-7,3.12-18.2-2-24.7s-12.27-9.82-19.2-13.58-13.5-7.5-20-11.68c-15.8-10.12-16.32-36.29.48-48A62.62,62.62,0,0,1,37.18,120.13Z"/><path class="cls-1" d="M259,216.53c-4.15,6.62-7.93,11.64-12.89,15.88-17.47,15-51.89,9.29-59.18-18-5-18.57-4.71-36.75,6.9-53.22,8.76-12.43,25.45-18.26,38.82-13.9,8.73,2.84,13.93,9.79,13.7,18.29a13.9,13.9,0,0,1-20.88,11.81c-5.12-2.82-6.7-10-3.23-15.16,1.24-1.87,2.95-3.42,4.3-5.22,1.94-2.59,1-5-2.09-5.8-4.06-1.1-8.23.78-10.69,4.8-2.87,4.69-3.57,10-4.1,15.28-1.58,15.59-1.7,31.16.74,46.73,2.59,16.44,15.18,22.23,28.84,12.62,12.54-8.82,19-21.6,19.5-36.66.68-20,.36-40,.15-60-.05-4.37,1.24-5.59,5.44-5.3,5.14.36,10.32.19,15.48.05,2.55-.07,3.36.89,3.32,3.38-.12,7,0,14.05,0,22.08,6.33-6.28,13.22-9,21.11-8.54,12.51.7,21.07,9.21,21.34,22.45.48,22.57.19,45.15.3,67.73,0,2.56-1,3.37-3.42,3.32-5.16-.13-10.35-.31-15.49,0-4.19.29-5.49-.91-5.44-5.29.24-21.94.11-43.87.1-65.81a44.85,44.85,0,0,0-.17-5.8c-.47-3.46-1.42-6.7-5.43-7.74s-7.28.75-9.67,3.87c-2.66,3.47-3.26,7.61-3.25,11.9,0,21.13-.13,42.26.14,63.38.06,4.64-1.44,5.78-5.71,5.48a121.27,121.27,0,0,0-14.52,0c-3.28.17-4.15-1.1-4-4.19C259.18,229.31,259,223.66,259,216.53Z"/><path class="cls-1" d="M344.19,28.37c10.71-13.1,31.83-13.44,40.35,1.76C390,22.81,397,18.5,406.3,18.59c11.41.12,19.36,6.33,21.78,17.46a46.83,46.83,0,0,1,1.1,9.58c.09,20.48-.06,41,.13,61.43,0,4.12-1.31,5.37-5.25,5.13a111.32,111.32,0,0,0-14,0c-3.95.26-4.88-1.3-4.86-5,.11-22.9,0-45.8-.05-68.7a21,21,0,0,0-.67-5.23c-1.81-6.69-7.79-8.35-12.87-3.63-3.49,3.24-4.17,7.42-4.16,11.93q.06,32.18,0,64.34c0,6.23,0,6.23-6.42,6.24-4.35,0-8.73-.24-13.06.07-3.74.27-4.57-1.14-4.54-4.68.15-21.45.08-42.89.07-64.34a38.42,38.42,0,0,0-.86-10.08c-1.68-6.23-7.26-8.05-12.26-4-4.49,3.65-5.12,8.76-5.14,14-.05,21.29-.11,42.57.06,63.86,0,3.88-.82,5.54-5,5.22a130.06,130.06,0,0,0-14.51,0c-2.85.1-4-.7-4-3.77q.15-42.09,0-84.18c0-2.95.82-4,3.82-3.85a105.38,105.38,0,0,0,13.06,0c3.83-.26,5.91.65,5.21,4.92A15.78,15.78,0,0,0,344.19,28.37Z"/><path class="cls-1" d="M556.25,29.13a25.5,25.5,0,0,1,16.57-10.19c14.49-2.67,26.75,6.85,26.93,21.55.28,22.56.08,45.13.25,67.7,0,3.37-1.34,4.08-4.3,4-5-.17-10-.23-15,0-3.39.17-4.39-1-4.37-4.39.14-21.43.1-42.87,0-64.31,0-3.2-.43-6.41-.73-9.61-.27-2.9-1.38-5.44-4.32-6.41a8.76,8.76,0,0,0-9,1.85c-3.51,3.17-4.44,7.31-4.44,11.83,0,21.6-.13,43.2.11,64.79,0,4.76-1,6.76-6.1,6.29a129,129,0,0,0-15-.07c-2.71.06-3.71-1-3.7-3.69q.08-42.31,0-84.63c0-2.92,1.22-3.51,3.78-3.44,4.67.14,9.37.29,14,0,3.89-.27,5.82.78,5.14,5A22.21,22.21,0,0,0,556.25,29.13Z"/><path class="cls-1" d="M344.24,221.57c0-4.52,0-9,0-13.54,0-1.76.17-3.26,2.43-3.38,1.93-.11,2.88.69,3.3,2.65a57.66,57.66,0,0,0,5.71,16.36c3.38,6,8.22,9.79,15.43,10,5.82.14,10.95-1,13.76-6.85a15.72,15.72,0,0,0-2.77-17.09c-4.7-5.25-10.69-8.76-16.74-12.17-5.62-3.17-11.35-6.28-15.84-11-11.14-11.64-5.65-32,10.13-38.15a42.45,42.45,0,0,1,13.68-2.71c7.25-.31,14.51,0,21.77-.13,2.47,0,3.45.82,3.4,3.36-.12,6.12,0,12.25-.06,18.38,0,1.36.39,3-1.83,3.26-1.86.21-3-.33-3.63-2.24a50.15,50.15,0,0,0-3.22-8c-3.46-6.34-8.77-9.61-16.19-9.28-9.53.43-14.38,9.4-9.47,17.69,2.94,5,7.75,7.65,12.55,10.3,5.07,2.8,10.3,5.29,15.24,8.38,9.52,6,13.27,14.63,12.15,25.48-1.1,10.66-6.88,18.15-16.51,22.72a37.4,37.4,0,0,1-16.39,3.54c-7.42,0-14.85-.18-22.26.06-3.5.12-5-.73-4.71-4.52C344.49,230.29,344.24,225.92,344.24,221.57Z"/><path class="cls-2" d="M188.5,56.23c0-16.61.12-33.22-.08-49.82,0-4.09,1.29-5.36,5.26-5.14,5.3.29,10.64.14,16,0,2.65-.05,3.71.93,3.7,3.68q-.09,51.75,0,103.51c0,2.79-1.12,3.69-3.74,3.65-5.48-.1-11-.21-16.45,0-3.59.17-4.75-1.07-4.72-4.68C188.59,90.41,188.5,73.32,188.5,56.23Z"/><path class="cls-1" d="M298.78,5c0-2.67-.78-3.77-3.58-3.69-5.48.15-11,.18-16.45,0-3.25-.12-4.2,1.22-4.12,4.28.17,6.28.05,12.56.05,20.13-4.14-4.1-7.83-6.25-12.67-6.41-11.88-.38-20.27,5.43-25.52,15.27C225,56.07,226,78,236.76,99.43c5.47,10.83,16,15.12,27.15,12.95,5-1,8.51-4.36,12.23-8,.18,7.78.18,7.78,7.39,7.78,3.87,0,7.74-.12,11.61,0,2.72.11,3.64-.87,3.64-3.63Q298.67,56.76,298.78,5ZM274.47,90.77c-.38,2-.66,4.14-1.24,6.14-1.67,5.71-6.09,9.93-10,9.74-4.11-.19-7.25-3.71-8.21-10.51a196.46,196.46,0,0,1,.17-59A22.08,22.08,0,0,1,258.05,29c3.31-5.38,9-5.47,12.38-.09,2.73,4.32,3.34,9.3,4.07,14.25,1.2,8.16.81,16.36.9,24.56C275.22,75.38,275.9,83.12,274.47,90.77Z"/><path class="cls-1" d="M511.55,42c-.1-11.4-5.52-18.46-16.48-21.59a46.93,46.93,0,0,0-33.87,2.94A21.58,21.58,0,0,0,450.73,33c-3,5.92-1.79,12.64,2.91,16.19s13.18,3,17.49-1.12c4.5-4.28,4.51-8.9-.08-15.51-1.44-2.08-2.08-4.32-.26-6.15,3.22-3.23,7.49-2.82,11.41-1.94,3.53.8,5.14,3.69,5.21,7.28s-.41,7.47.12,11.11c1.06,7.34-2.7,10.85-8.91,13.37-7.6,3.08-15.37,5.86-22.36,10.29-12.29,7.79-15.12,28.1-6,39.45,7,8.77,27.56,11.53,38.06-2a16,16,0,0,1,.1,2.66c-.73,4.41,1,6,5.5,5.61a109.3,109.3,0,0,1,14,0c3,.14,3.81-1,3.79-3.93C511.58,86.16,511.73,64.07,511.55,42ZM486.33,94.93c-.06.31-.18.61-.27.92-2,6.81-5.62,10.36-10.12,9.82-4.08-.5-5.8-3.76-6-11.65-.09-4,.08-8,0-12-.23-12,6.15-19.28,17.52-23.73C486.93,70.72,488.54,82.85,486.33,94.93Z"/><path class="cls-1" d="M168.57,170.26c-.07-10.38-4-18.46-14.52-22.16a46.47,46.47,0,0,0-25.22-1.37c-8.52,1.75-16.52,4.8-21,13.08-3.41,6.26-2.19,13,2.72,16.53,4.62,3.33,13.48,2.69,17.59-1.26s4.05-9.14-.37-15.57c-1.66-2.42-2.36-4.82.5-6.68a12.74,12.74,0,0,1,11.61-1.1c3.84,1.37,4.39,4.93,4.62,8.33s-.15,7.1.11,10.63c.44,6-2.12,9.64-7.65,11.88-7.16,2.9-14.21,6.08-21.17,9.43-16.23,7.81-16,26.63-10.82,37.58A17.93,17.93,0,0,0,119.75,240c9.59,1.11,18.81.24,25.77-8.52a15.35,15.35,0,0,1,0,2.35c-.72,4.27,1,5.71,5.28,5.35a105.46,105.46,0,0,1,13.54,0c3,.13,4.34-.79,4.33-4.05C168.56,213.47,168.7,191.86,168.57,170.26Zm-24.74,48a25.74,25.74,0,0,1-3.79,10.8,7.24,7.24,0,0,1-8.34,3.32c-3.14-.73-4-3.4-4.48-6.21a84.91,84.91,0,0,1,.14-23c1.11-9.16,8-13.42,15.12-17.4,2.13-1.19,2.05.4,2.06,1.71,0,4.18,0,8.36,0,14.06A116,116,0,0,1,143.83,218.28Z"/><path class="cls-1" d="M172.86,64.23a54.39,54.39,0,0,0-6.54-26.42c-12.66-23.07-39.86-25.67-56.48-5.39-14.08,17.17-13.82,51.34.51,68.32,15,17.77,38.73,17.23,52.71-1.33C170.44,89.61,173.07,78.3,172.86,64.23ZM146.67,96.36a33.4,33.4,0,0,1-1.57,6c-1.47,3.73-4.1,6-8.36,6.22-4.45.19-7.31-1.85-9.11-5.77-2.77-6-2.9-12.58-3.06-18.94-.37-14.65-.81-29.31.63-43.94a35.59,35.59,0,0,1,2.74-11.19,8.34,8.34,0,0,1,8-5.24c3.74,0,6.87,1.48,8.59,5.17a35,35,0,0,1,3,14.07c.22,7.89.06,15.79.06,23.68C147.5,76.44,148.55,86.46,146.67,96.36Z"/></g></g></svg>