<svg xmlns="http://www.w3.org/2000/svg" viewBox="0 0 600 112.93"><defs><style>.cls-1{fill:#cc002a;}</style></defs><g id="Ebene_2" data-name="Ebene 2"><g id="Ebene_2-2" data-name="Ebene 2"><path class="cls-1" d="M321,103.09a4,4,0,0,0,3.44-1.31,22.54,22.54,0,0,0,6.24-11.27,5,5,0,0,0-.63-3.15Q318.22,57,306.33,26.55c-1-2.65-1-2.65,1.73-2.66,7.81,0,15.62.06,23.43,0,1.85,0,2.75.42,3.44,2.28,3.26,8.79,6.72,17.5,10.11,26.27.9-.58,1-1.57,1.33-2.39,3.32-7.95,6.66-15.9,9.87-23.91.65-1.62,1.38-2.28,3.22-2.26q15.5.19,31,.07c1.68,0,2.29.57,2.75,2.07,3,9.77,6,19.51,9,29.27a3.65,3.65,0,0,0,.94,1.91C405.93,47,408.73,37,411.35,26.84c.57-2.21,1.34-3.12,3.82-3,5.95.23,11.92.13,17.88,0a2.38,2.38,0,0,1,2.78,2.06c2.85,9.54,5.82,19,8.75,28.57.22.71.47,1.41.86,2.55,2.66-9.71,5.21-19,7.75-28.26,1.33-4.88,1.32-4.89,6.31-4.89h7.43c0,2.08-.77,3.84-1.26,5.63-5.16,18.9-10.4,37.78-15.52,56.69-.54,2-1.39,2.59-3.43,2.53-5.45-.16-10.92-.18-16.37,0-2.14.07-2.83-.73-3.4-2.62-3.08-10.27-6.31-20.48-9.48-30.72-.12-.38-.08-.85-.85-1.13C415,60,413.45,65.77,411.88,71.51c-1.37,5-2.8,10-4.05,15-.43,1.7-1.17,2.22-2.92,2.18-5.79-.12-11.59-.14-17.38,0-2,.05-2.73-.65-3.28-2.46q-8.62-28.48-17.39-56.94c-1,.35-1,1.33-1.29,2Q352.92,62.3,340.31,93.22c-2.45,6-5.25,11.77-10.83,15.7-7,5-14.39,5.08-21.93,1.68-5.31-2.39-7.8-7.43-7-13.22.79-5.95,5.58-9.62,12.27-9.39,5.68.2,9.21,3.8,9.64,9.85A9,9,0,0,1,321,103.09Z"/><path class="cls-1" d="M76.13,44.57c0,13.93-.06,27.85.07,41.78,0,2.3-.66,2.74-2.8,2.7q-11.34-.19-22.66,0c-2.11,0-2.82-.34-2.79-2.67.14-11.66,0-23.32.11-35,0-1.94-.44-2.61-2.47-2.54-4.87.14-9.74.15-14.61,0-2.23-.07-3,.45-3,2.87.14,11.49,0,23,.11,34.48,0,1.82-.37,2.42-2.32,2.39-7.89-.12-15.78-.09-23.67,0C.51,88.59,0,88.19,0,86.51q.08-42,0-84.06C0,.61.57.27,2.27.29q12,.14,23.92,0c1.77,0,2.23.45,2.22,2.21-.09,10.57,0,21.14-.09,31.71,0,1.86.41,2.44,2.34,2.38,4.78-.15,9.57-.18,14.35,0,2.35.09,3.12-.41,3.07-3C47.92,23.34,48.07,13,48,2.7,48,.7,48.32,0,50.51,0c7.81.14,15.62.11,23.42,0,1.78,0,2.25.53,2.24,2.27C76.1,16.38,76.13,30.48,76.13,44.57Z"/><path class="cls-1" d="M188.17,30.86c8-8.1,17.26-10.42,27.71-7.81,9.2,2.31,14.17,9,14.18,18.55,0,14.86,0,29.71.08,44.56,0,2-.51,2.52-2.49,2.49-7-.13-13.94-.18-20.91,0-2.39.06-2.67-.78-2.66-2.84.09-13.51,0-27,0-40.53a26.18,26.18,0,0,0-.23-3.76c-.7-4.69-4.4-6.81-8.85-5.08a17.27,17.27,0,0,0-6.36,4.81c-.8.87-.56,1.89-.56,2.87,0,14-.06,28,0,42.05,0,2-.58,2.48-2.51,2.45-7.23-.11-14.45-.09-21.67,0-1.69,0-2.3-.33-2.3-2.18q.11-30.21,0-60.42c0-1.79.5-2.25,2.25-2.23q11,.15,21.92,0c1.86,0,2.58.41,2.35,2.34A42.54,42.54,0,0,0,188.17,30.86Z"/><path class="cls-1" d="M568.48,44.41c0,14,0,28,0,42,0,1.93-.55,2.4-2.4,2.37q-10.46-.15-20.9,0c-1.79,0-2.24-.54-2.24-2.28q.07-42,0-84.06c0-1.92.55-2.4,2.41-2.37q10.46.15,20.9,0c1.8,0,2.24.55,2.23,2.28C568.45,16.39,568.48,30.4,568.48,44.41Z"/><path class="cls-1" d="M574.63,44.46c0-13.93,0-27.86,0-41.79,0-2,.5-2.5,2.47-2.46,6.88.12,13.77.1,20.65,0,1.67,0,2.3.29,2.3,2.15q-.09,42.17,0,84.32c0,1.76-.48,2.26-2.24,2.24q-10.32-.15-20.65,0c-1.92,0-2.54-.39-2.53-2.44C574.67,72.48,574.63,58.47,574.63,44.46Z"/><path class="cls-1" d="M147.31,32.69c-7.64-8.17-17.37-10.94-27.86-11.07-9.47.21-18.15,2-25.37,8.11-10.54,8.94-13.26,20.51-11,33.62,2,11.22,8.26,19.48,18.53,24.08,11,4.94,22.67,4.93,33.85.67C159,79.17,161,47.31,147.31,32.69Zm-20.16,40a16.69,16.69,0,0,1-3.21,7c-2.72,3.34-6.64,3.4-9.48.15A14.84,14.84,0,0,1,110.72,71a184.06,184.06,0,0,1,.34-30.88,13.82,13.82,0,0,1,3.37-7.19c2.64-3.28,6.45-3.35,9.28-.18,2.63,2.94,3.58,6.56,3.94,10.38.16,1.58.29,3.17.32,4.76.05,2.69,0,5.37,0,8.05C127.93,61.53,128.43,67.17,127.15,72.71Z"/><path class="cls-1" d="M534.55,60.83c1.94,0,2.46-.6,2.41-2.42a63.78,63.78,0,0,0-.64-8.52c-1.48-9-5.29-16.69-13-21.87C513.78,21.58,503,20.33,492,22.55c-13.58,2.73-23.24,10.36-26.46,24.36-3.35,14.58-.1,27.35,12,37,8.17,6.52,17.86,7.58,27.89,7a39.87,39.87,0,0,0,23.75-9.17c3.43-2.85,4.93-6.66,5.65-10.9.21-1.25-.12-1.83-1.55-1.78-2.68.1-5.38.1-8.06,0-1.58-.06-2.43.29-2.72,2A9.46,9.46,0,0,1,518,77.8c-6.63,4-13.7,4.88-20.94,1.84a8,8,0,0,1-5.19-8.16c.07-2.85.11-5.71,0-8.56-.08-1.71.35-2.28,2.18-2.25,6.72.12,13.44,0,20.15,0v.06C521,60.78,527.75,60.7,534.55,60.83ZM510.12,49.89c0,1.16-.74,1.11-1.52,1.11H493.51c-.88,0-1.73,0-1.69-1.24.12-4.34-.29-8.74,1.23-12.93,2-5.39,5.91-7.77,10.33-6.29,2.79.93,4.25,3.17,5.24,5.71C510.35,40.65,510.14,45.29,510.12,49.89Z"/><path class="cls-1" d="M308.56,50.4c-1.44-9.25-5.38-17-13.2-22.54-6.12-4.3-13.16-5.76-20.44-6.13-25.05-1.25-43.61,17-37.15,44.49,3.17,13.46,14.67,22.73,28.61,24.33C279.07,92,291,90.2,301.19,81.78c3.52-2.9,5-6.78,5.77-11.1.2-1.17-.11-1.7-1.41-1.65-2.85.09-5.7.15-8.56.07-1.44,0-2.11.43-2.35,1.87A9.68,9.68,0,0,1,290,77.89c-6.48,3.8-13.39,4.72-20.49,1.92a8.37,8.37,0,0,1-5.6-8.43c0-2.77.11-5.55,0-8.31-.1-1.82.35-2.45,2.32-2.41,6.71.14,13.43.06,20.14.06v.06c6.89,0,13.77-.05,20.65,0,1.69,0,2.17-.54,2.15-2.15A60.08,60.08,0,0,0,308.56,50.4Zm-26.27-.57c0,1.33-1,1.16-1.76,1.16-2.52,0-5,0-7.55,0-2.35,0-4.7-.06-7,0-1.47.06-2.17-.32-2.07-2,.19-3.5.06-7,.82-10.5a14.47,14.47,0,0,1,1.56-4c1.6-2.83,3.84-4.65,7.26-4.5s5.5,2.3,6.84,5.16C282.53,39.9,282.32,44.89,282.29,49.83Z"/></g></g></svg>