<svg xmlns="http://www.w3.org/2000/svg" viewBox="0 0 600 239.7"><defs><style>.cls-1{fill:#1f70be;}.cls-2{fill:#2e7ac2;}</style></defs><g id="Ebene_2" data-name="Ebene 2"><g id="Ebene_2-2" data-name="Ebene 2"><path class="cls-1" d="M265.81,0c4,1.23,8.14,1.76,12.05,3.27A69.85,69.85,0,0,1,299,16c-.63.76-1.38.41-2,.41q-80.68,0-161.38.07c-1.91,0-2.52-.43-2.46-2.42.14-4.67,0-9.35,0-14Z"/><path class="cls-1" d="M117.23,0c0,4.83-.15,9.66-.1,14.49,0,1.56-.47,2-2,1.94Q58.56,16.37,2,16.43c-1.51,0-2-.37-2-1.92C.12,9.67.06,4.84.06,0Z"/><path class="cls-1" d="M427.48.47c1.91,5.17,3.82,10.34,5.84,15.78-1,.06-1.71.15-2.44.15q-48,0-96.07.05c-1.91,0-2.52-.42-2.46-2.41.15-4.68,0-9.36,0-14h62.34a4.67,4.67,0,0,0,2.51.23c9.25,0,18.49,0,27.74,0A4.92,4.92,0,0,1,427.48.47Z"/><path class="cls-1" d="M600,239.7c-7.57,0-15.14-.07-22.71-.07-19.6,0-39.19,0-58.79,0-1.91,0-2.54-.43-2.47-2.42.16-4.12.08-8.26,0-12.39,0-1.13.18-1.68,1.51-1.67q41.1.08,82.2.08a1,1,0,0,1,.23,0Z"/><path class="cls-1" d="M600,207.87c-.93,0-1.87-.11-2.8-.11q-39.23,0-78.46,0c-2.08,0-2.82-.44-2.72-2.65.2-4,.09-8.1,0-12.16,0-1.13.19-1.67,1.52-1.67q41,.06,82,.05a1.85,1.85,0,0,1,.45.11Z"/><path class="cls-2" d="M599.06,0l0,.47a4.14,4.14,0,0,1-3.1.75q-44.37,0-88.74,0a3.49,3.49,0,0,1-1.83-.31l0-.93Z"/><path class="cls-2" d="M427.48.47q-15.06,0-30.12,0c-.89,0-1.88.36-2.65-.45h32.81Z"/><path class="cls-1" d="M515.66,104.3c-.68,1.87-1.46,3.71-2,5.62-.45,1.64-1.28,2.14-3,2.12-9.37-.08-18.75,0-28.12,0-19.92,0-39.84,0-59.76,0-2.09,0-3.34-.36-3.82-2.61a16.35,16.35,0,0,0-2.26-5.1c0,1.75-.14,3.51,0,5.24.19,1.92-.4,2.49-2.4,2.47-10.7-.1-21.4,0-32.1,0-4.77,0-9.53,0-14.3,0-1.51,0-2-.39-2-2,.1-4,.14-8,0-11.93-.08-2,.42-2.62,2.55-2.61,27.73.08,55.46,0,83.19,0,2.58,0,5.16.1,7.73,0a2.53,2.53,0,0,1,3,2c1.25,3.91,2.73,7.74,4.28,12,1.53-4.28,3-8.13,4.27-12a2.45,2.45,0,0,1,2.75-2.06q45.24.1,90.46,0c1.81,0,2.45.42,2.39,2.32-.15,4.13-.09,8.27,0,12.41,0,1.31-.39,1.75-1.73,1.75q-23.55-.06-47.11,0c-1.36,0-1.75-.44-1.69-1.74.1-2,0-3.9,0-5.85Z"/><path class="cls-1" d="M225.72,48.28q-45,0-89.95,0c-2,0-2.73-.34-2.62-2.51.21-4,.15-8,0-11.93,0-1.67.48-2.07,2.1-2.06,15.38.06,30.76,0,46.14,0q64.54,0,129.07-.05a3.88,3.88,0,0,1,4,2.4,56.46,56.46,0,0,1,4.08,12.88c.23,1-.15,1.24-1,1.2-.62,0-1.25,0-1.87,0Z"/><path class="cls-1" d="M226.21,191.34H316c2.9,0,3,0,2.26,2.89a45.57,45.57,0,0,1-4,11.68,3.14,3.14,0,0,1-3.12,1.88q-87.88-.06-175.76,0c-1.8,0-2.23-.53-2.18-2.25.13-3.89.18-7.8,0-11.7-.1-2.1.56-2.56,2.59-2.55Q181,191.39,226.21,191.34Z"/><path class="cls-1" d="M299.53,223.21A65.65,65.65,0,0,1,281.45,235,54.69,54.69,0,0,1,259,239.67q-61.5-.15-123,0c-2.21,0-3-.44-2.84-2.77.22-3.5,0-7,.06-10.53s-.5-3.15,3-3.15q28.23,0,56.46,0H299.53Z"/><path class="cls-1" d="M310,95.59a20.35,20.35,0,0,1-3.16,5.42,66.33,66.33,0,0,1-9.76,10.06,3.92,3.92,0,0,1-2.77,1q-62.69,0-125.36,0c-1.86,0-2.18-.62-2.14-2.28.11-4,.15-8,0-11.93-.08-1.93.6-2.29,2.38-2.29q41,.08,82,0H310Z"/><path class="cls-1" d="M309.79,143.91h-140c-3.38,0-2.91.39-2.94-3,0-3.83.08-7.65,0-11.47,0-1.62.54-2.11,2-1.92a7.37,7.37,0,0,0,.94,0q61.74,0,123.47,0a6.07,6.07,0,0,1,4.41,1.63c3.88,3.52,7.67,7.11,10.55,11.54A9.92,9.92,0,0,1,309.79,143.91Z"/><path class="cls-1" d="M58.67,31.85c18.66,0,37.32,0,56,0,1.89,0,2.57.39,2.49,2.4-.17,4-.15,8,0,11.93.06,1.83-.56,2.18-2.26,2.18-13.74-.07-27.48,0-41.22,0-23.74,0-47.47,0-71.21,0-1.93,0-2.53-.43-2.44-2.41.16-4,.15-8,0-11.93C0,32.19.5,31.81,2.22,31.81,21,31.88,39.85,31.85,58.67,31.85Z"/><path class="cls-1" d="M59.34,223.21c18.74,0,37.48,0,56.22,0,1.94,0,2.54.49,2.47,2.45-.16,3.9-.14,7.8,0,11.7.07,1.85-.5,2.35-2.35,2.34q-33.73-.09-67.47,0c-14.91,0-29.83-.05-44.74.06-2.14,0-2.62-.59-2.53-2.6.16-3.82.16-7.65,0-11.46-.08-1.94.45-2.47,2.42-2.46C22,223.24,40.67,223.21,59.34,223.21Z"/><path class="cls-1" d="M59.61,191.34c18.58,0,37.16,0,55.74-.05,2.21,0,2.77.63,2.68,2.74-.17,3.81-.16,7.64,0,11.46.07,1.93-.62,2.31-2.4,2.3q-40.29-.07-80.58,0c-10.62,0-21.24,0-31.86,0-1.67,0-2.33-.31-2.26-2.16.15-4,.14-8.11,0-12.16-.06-1.79.5-2.18,2.22-2.18C22,191.36,40.79,191.34,59.61,191.34Z"/><path class="cls-1" d="M388.77,48.28c-18,0-35.92,0-53.88,0-2.11,0-2.63-.55-2.54-2.58.17-3.82.16-7.65,0-11.47-.08-1.9.39-2.49,2.39-2.48,12.57.1,25.14.05,37.72.05q32.08,0,64.19,0c1.68,0,2.46.48,3,2.1,1.29,4,2.79,7.92,4.21,11.88.88,2.48.88,2.49-1.67,2.49Z"/><path class="cls-1" d="M488.48,48.28c1.91-5.37,3.75-10.48,5.53-15.62.38-1.09,1.21-.79,1.93-.8,5.23,0,10.46,0,15.69,0q42.4,0,84.8,0c2,0,2.86.34,2.74,2.61-.21,3.88-.15,7.8,0,11.69.06,1.74-.41,2.22-2.18,2.21-14.52-.08-29.05,0-43.57,0H488.48Z"/><path class="cls-1" d="M505.35.93A5,5,0,0,1,508.3.47H599c0,4.83,0,9.66.11,14.49,0,1.11-.34,1.59-1.46,1.45a5.45,5.45,0,0,0-.7,0H499.73C501.66,11.09,503.51,6,505.35.93Z"/><path class="cls-1" d="M456.14,80.14h-2.42q-42.6,0-85.22,0c-2.1,0-2.63-.56-2.54-2.59.17-3.81.15-7.64,0-11.45-.08-1.93.46-2.47,2.43-2.47,20.53.08,41.05,0,61.58,0,6.08,0,12.17.05,18.26,0,1.45,0,2.22.33,2.71,1.8C452.55,70.27,454.31,75,456.14,80.14Z"/><path class="cls-1" d="M477.3,79.89c1.78-5,3.56-10,5.29-15a1.44,1.44,0,0,1,1.7-1.17,9.12,9.12,0,0,0,1.17,0c26.15,0,52.29,0,78.44,0,2.17,0,2.79.57,2.7,2.71-.17,4-.08,8,0,11.93,0,1.17-.14,1.85-1.61,1.84q-43.56-.06-87.11-.06A3.17,3.17,0,0,1,477.3,79.89Z"/><path class="cls-1" d="M375,191.34c13.19,0,26.38,0,39.57,0,1.75,0,2.26.45,2.2,2.2-.13,4.13-.09,8.27,0,12.4,0,1.36-.28,1.89-1.79,1.89q-39.91-.06-79.84,0c-1.44,0-1.86-.42-1.83-1.85.08-4.21.11-8.42,0-12.63,0-1.74.63-2,2.16-2C348.62,191.36,361.81,191.34,375,191.34Z"/><path class="cls-1" d="M375,223.21c13.11,0,26.22,0,39.34-.05,2,0,2.49.54,2.41,2.46-.15,3.89-.13,7.8,0,11.69.05,1.79-.38,2.39-2.29,2.36-8-.11-16.08,0-24.12,0-18.18,0-36.37,0-54.56.06-2.11,0-2.62-.57-2.53-2.6.17-3.81.16-7.64,0-11.45-.08-1.92.42-2.48,2.41-2.47C348.79,223.26,361.91,223.21,375,223.21Z"/><path class="cls-1" d="M466.51,127.49c12.81,0,25.62,0,38.43,0,1.81,0,2.54.16,1.7,2.23-1.63,4.05-3.06,8.17-4.43,12.31a2.32,2.32,0,0,1-2.61,1.94q-33-.08-66.07,0a2.39,2.39,0,0,1-2.7-1.85q-2.19-6.41-4.62-12.73c-.63-1.62-.19-1.91,1.41-1.9C440.59,127.51,453.55,127.49,466.51,127.49Z"/><path class="cls-1" d="M466.63,159.36c9.05,0,18.1.06,27.15,0,2,0,2.14.48,1.48,2.19-1.59,4.13-3,8.32-4.47,12.52a2.23,2.23,0,0,1-2.44,1.86q-21.77-.09-43.53,0a2.09,2.09,0,0,1-2.31-1.72c-1.51-4.33-3-8.66-4.72-12.93-.69-1.76,0-1.9,1.46-1.89C448.38,159.38,457.51,159.36,466.63,159.36Z"/><path class="cls-1" d="M293.29,175.85c-8.27,0-16.55,0-24.82,0-1.63,0-2.16-.45-2.12-2.1.11-4.13.12-8.27,0-12.4-.05-1.73.62-2,2.17-2q23.31.07,46.61,0c1.12,0,1.87.15,2.26,1.42a69.75,69.75,0,0,1,2.73,13c.18,1.65-.34,2.14-2,2.13C309.84,175.81,301.57,175.85,293.29,175.85Z"/><path class="cls-1" d="M293.42,63.73c8.2,0,16.4.05,24.6,0,1.8,0,2.31.47,2.1,2.23a69.43,69.43,0,0,1-2.66,12.78,1.76,1.76,0,0,1-2,1.47q-23.66,0-47.32,0c-1.49,0-1.83-.53-1.8-1.9.07-4.21.09-8.43,0-12.64,0-1.58.51-1.95,2-1.93C276.72,63.76,285.07,63.73,293.42,63.73Z"/><path class="cls-1" d="M59,175.85c-7.74,0-15.47,0-23.2,0-1.73,0-2.3-.44-2.25-2.22.13-4,.1-8.11,0-12.16,0-1.55.3-2.19,2-2.19q23.43.1,46.86,0c1.54,0,2,.43,2,2-.1,4.2-.11,8.42,0,12.63,0,1.6-.51,1.95-2,1.94C74.66,175.82,66.85,175.85,59,175.85Z"/><path class="cls-1" d="M391.37,175.85c-7.73,0-15.45,0-23.18,0-1.75,0-2.28-.46-2.22-2.22.13-4.13.08-8.26,0-12.39,0-1.33.2-2,1.76-1.95q23.65.07,47.3,0c1.34,0,1.73.42,1.7,1.73-.07,4.29-.1,8.58,0,12.86,0,1.59-.49,2-2,1.95C407,175.82,399.17,175.85,391.37,175.85Z"/><path class="cls-1" d="M541.16,175.85c-7.65,0-15.29,0-22.93,0-1.77,0-2.25-.47-2.2-2.22.14-4.2.1-8.41,0-12.62,0-1.34.42-1.72,1.73-1.71q23.51,0,47,0c1.55,0,1.78.67,1.76,2-.05,4.2-.08,8.41,0,12.61,0,1.59-.53,2-2,2C556.76,175.82,549,175.85,541.16,175.85Z"/><path class="cls-1" d="M191.74,175.85c-7.64,0-15.29,0-22.93,0-1.46,0-2.07-.3-2-1.93.11-4.28.08-8.57,0-12.86,0-1.29.36-1.76,1.71-1.75q23.52,0,47,0c1.16,0,1.68.3,1.66,1.57-.06,4.44-.09,8.89,0,13.32,0,1.71-.92,1.63-2.08,1.63C207.34,175.84,199.54,175.85,191.74,175.85Z"/><path class="cls-1" d="M59.11,95.59c7.65,0,15.3.07,23,0,2,0,2.47.59,2.4,2.48-.14,4.13-.08,8.26,0,12.39,0,1.21-.33,1.62-1.58,1.61q-23.76,0-47.52,0c-1.34,0-1.75-.43-1.73-1.74.07-4.21.09-8.42,0-12.63,0-1.62.45-2.12,2.1-2.11C43.5,95.63,51.31,95.59,59.11,95.59Z"/><path class="cls-1" d="M391.43,127.49c7.65,0,15.3,0,23,0,1.75,0,2.47.31,2.39,2.27-.17,4.05-.1,8.11,0,12.17,0,1.39-.19,2.06-1.86,2.06q-23.55-.1-47.1,0c-1.51,0-1.83-.53-1.81-1.9.08-4.22.11-8.43,0-12.64,0-1.62.55-2,2-1.94C375.8,127.52,383.61,127.49,391.43,127.49Z"/><path class="cls-1" d="M59.12,80.14c-7.81,0-15.61,0-23.42,0-1.62,0-2.15-.41-2.1-2.07.11-4.21.07-8.42,0-12.63,0-1.29.34-1.77,1.71-1.77q23.78.06,47.54,0c1.25,0,1.59.42,1.58,1.62-.06,4.36-.1,8.73,0,13.09,0,1.57-.59,1.76-1.91,1.75C74.73,80.11,66.93,80.14,59.12,80.14Z"/><path class="cls-1" d="M59.13,143.91c-7.81,0-15.61,0-23.41,0-1.62,0-2.16-.42-2.12-2.08.11-4.21.07-8.42,0-12.63,0-1.28.37-1.77,1.72-1.77q23.76.06,47.52,0c1.23,0,1.61.41,1.59,1.62-.06,4.36-.09,8.73,0,13.09,0,1.55-.59,1.77-1.92,1.76C74.73,143.88,66.93,143.91,59.13,143.91Z"/><path class="cls-1" d="M541.42,127.49c7.65,0,15.3.05,23,0,1.78,0,2.27.53,2.22,2.26-.12,4.05-.08,8.11,0,12.16,0,1.39-.19,2.1-1.89,2.09q-23.41-.1-46.83,0c-1.5,0-1.83-.51-1.8-1.89.08-4.2.1-8.42,0-12.62,0-1.56.43-2,2-2C525.81,127.52,533.62,127.49,541.42,127.49Z"/><path class="cls-1" d="M191.76,80.14c-7.66,0-15.31,0-23,0-1.47,0-2-.33-2-1.92.11-4.21.08-8.43,0-12.64,0-1.34.25-1.92,1.78-1.91q23.43.07,46.87,0c1.56,0,1.78.61,1.76,1.93-.06,4.22-.1,8.43,0,12.64,0,1.64-.61,1.9-2,1.89C207.38,80.11,199.57,80.14,191.76,80.14Z"/><path class="cls-1" d="M466.9,191.34c5.23,0,10.45,0,15.68,0,1.45,0,2,.22,1.38,1.83-1.66,4.36-3.2,8.77-4.7,13.18a1.8,1.8,0,0,1-2,1.45q-10.54-.06-21.07,0a1.81,1.81,0,0,1-2-1.47c-1.54-4.4-3.09-8.81-4.78-13.15-.61-1.59-.15-1.86,1.34-1.84C456.13,191.38,461.52,191.34,466.9,191.34Z"/><path class="cls-1" d="M460.36,223.21c4,0,7.76,0,11.49,0,1.21,0,1.22.51.87,1.45-1.66,4.61-3.29,9.23-4.93,13.84-.18.5-.32,1.11-1,1.06-.42,0-.63-.39-.77-.77C464.15,233.68,462.3,228.58,460.36,223.21Z"/></g></g></svg>