<svg xmlns="http://www.w3.org/2000/svg" viewBox="0 0 400 263.65"><defs><style>.cls-1{fill:#0070c2;}.cls-2{fill:#318acd;}.cls-3{fill:#4293d1;}.cls-4{fill:#93c1e4;}.cls-5{fill:#aaceea;}.cls-6{fill:#73afdc;}.cls-7{fill:#0071c2;}.cls-8{fill:#0171c2;}</style></defs><g id="Ebene_2" data-name="Ebene 2"><g id="Ebene_2-2" data-name="Ebene 2"><path class="cls-1" d="M0,154.76a4,4,0,0,0,.34-2.09,97.16,97.16,0,0,1,10.78-36.81,128.42,128.42,0,0,1,21.1-29.22Q37.58,81,43.46,75.84c.35.16.2.47.2.7,0,3,0,6.06,0,9.09A1.88,1.88,0,0,1,43.14,87a109,109,0,0,0-25,48.09,83.54,83.54,0,0,0-1.87,28.36A60.83,60.83,0,0,0,19,176.76a37,37,0,0,0,2.41,6.86,65.62,65.62,0,0,0,16.6,23,82.38,82.38,0,0,0,15.22,10.85A134,134,0,0,0,88,230.57q7.89,1.88,15.89,3.12A95,95,0,0,0,114.14,235c.33.17.72,0,1.06.15l.75,0c.33.18.71,0,1,.15l.93.05c.34.17.73,0,1.07.14l1,.06c.4.19.85,0,1.25.14l1.15.06c.4.19.84,0,1.25.14l1.32.06c.48.19,1,0,1.48.15l1.33,0c.54.2,1.12,0,1.67.14l1.73.06c.68.21,1.39,0,2.07.14l2.32.06c.88.22,1.79,0,2.68.14l3.73.06a1,1,0,0,0,.49.08H157a1,1,0,0,0,.49-.08l4.12-.06c1-.19,2.06.08,3.07-.14l2.53-.06c.69-.17,1.4.07,2.07-.14l2.13-.06c.55-.16,1.14.06,1.68-.14l1.72,0c.54-.18,1.12.06,1.66-.15l1.34-.06c.54-.17,1.12.07,1.65-.14l1.36-.06c.47-.16,1,.06,1.45-.14l1.14-.06c.41-.16.86.05,1.26-.14l1.15-.06c.4-.16.85,0,1.25-.14l1.15-.06c.4-.15.84.05,1.24-.14l.95-.05c.4-.17.85.05,1.25-.16l.75,0c.34-.15.73,0,1.07-.15a28.51,28.51,0,0,0,4.33-.45c.34-.16.73,0,1.06-.15a67,67,0,0,0,7.2-.86c4.35-.63,8.69-1.39,13-2.13,5.54-.95,11.05-2.09,16.54-3.3q10.79-2.38,21.43-5.33c8.1-2.23,16.12-4.74,24.07-7.46q8.5-2.9,16.85-6.26c3.82-1.55,7.61-3.14,11.37-4.84s7.53-3.42,11.21-5.32,7.27-3.77,10.76-5.92c.24-.14.49-.43.76-.28s.11.49.11.75c0,9.56,0,19.12,0,28.68a1,1,0,0,1-.64,1.06c-4.06,2.29-8.22,4.37-12.44,6.3-6.72,3.08-13.52,5.94-20.45,8.53q-8.62,3.24-17.39,6.06c-12.29,3.92-24.74,7.22-37.32,10-6.77,1.51-13.58,2.77-20.4,4-3.3.61-6.63,1.06-10,1.59q-4.33.69-8.68,1.23c-.65.08-1.31.11-1.95.23-.33.16-.71,0-1,.16l-4.36.45c-.33.15-.72,0-1,.14l-1,.06c-.33.15-.71,0-1,.15l-1,0c-.35.14-.73,0-1.08.14l-1.12.06c-.35.14-.73,0-1.08.14l-1.12.06c-.41.15-.87,0-1.28.14l-1.32.06c-.41.15-.85-.05-1.26.14l-1.34.06c-.47.16-1-.05-1.46.14l-1.34.06c-.54.17-1.12-.07-1.65.14L178,263c-.61.19-1.26-.06-1.87.15l-1.93.06c-.68.17-1.4-.07-2.08.14l-2.32.06c-1,.19-2.05-.08-3.07.14l-3.93.06c-2.38.14-4.76.05-7.15.05-2.74,0-5.49.09-8.24-.05-5.46-.21-10.92-.4-16.37-.81-5.78-.44-11.54-1-17.29-1.79a231.23,231.23,0,0,1-23.94-4.43,166.74,166.74,0,0,1-37.87-13.78,106.71,106.71,0,0,1-29.82-22.21,79.53,79.53,0,0,1-19.92-39,109.89,109.89,0,0,1-2-15.23,3.29,3.29,0,0,1-.07-1v-1c0-.48.12-1-.1-1.43v-4.2a2.57,2.57,0,0,0,0-1.6v-.6a2.1,2.1,0,0,0,0-1.4Z"/><path class="cls-1" d="M171.21,24.22c-6.43,1.43-12.77,3.2-19.08,5.05A376.53,376.53,0,0,0,92.75,52.2C90.94,53.09,89.14,54,87.2,55c0-2.53,0-4.92,0-7.3,0-.5.36-.6.66-.78Q98.49,40.47,109.64,35a333.67,333.67,0,0,1,59.43-22.46,351.92,351.92,0,0,1,36-7.93c9.95-1.65,20-2.89,30-3.65,4.56-.34,9.11-.57,13.67-.78a12,12,0,0,1,2-.07h3.66c2-.06,4,.14,6-.1h1.8a17.67,17.67,0,0,0,3,.1h3.21a6.58,6.58,0,0,1,1.4.07l2.52,0c.68.21,1.39,0,2.07.14l1.74.06c.54.21,1.11,0,1.66.14l1.51.06c.42.18.87,0,1.29.14l1.32.06c.41.18.86,0,1.28.15l1.11.05c.35.16.74,0,1.09.15l.94.05c.33.17.72,0,1.06.14l.94.06c.34.18.72,0,1.06.15a7.83,7.83,0,0,0,2.36.24c.33.2.71,0,1,.16,3.87.64,7.77,1.11,11.64,1.81a208.84,208.84,0,0,1,20.66,4.77,147.84,147.84,0,0,1,28.05,11.07,102.47,102.47,0,0,1,20.75,14.16,78.86,78.86,0,0,1,15,17.66A71.6,71.6,0,0,1,398,74.11c.57,2.68.95,5.38,1.41,8.07.16.34,0,.72.15,1l0,.76c.16.41,0,.86.15,1.27l.06,1.33c.16.55-.06,1.13.14,1.68v7.45c-.21.61,0,1.25-.14,1.86l-.06,1.34c-.19.4,0,.85-.15,1.26l0,.76c-.19.32,0,.71-.15,1a91.32,91.32,0,0,1-4.4,18.29A92.16,92.16,0,0,1,381.48,145a95.51,95.51,0,0,1-9.24,10.44,103.56,103.56,0,0,1-12.45,10.35,89.66,89.66,0,0,1-12.59,7.46,48,48,0,0,1-7.33,3V163.91c0-2.87,0-5.73,0-8.6a1.48,1.48,0,0,1,.84-1.48,86.33,86.33,0,0,0,8.26-5.68,87.47,87.47,0,0,0,9.78-8.77,80.45,80.45,0,0,0,11-14.31A70,70,0,0,0,378,104.85a48.85,48.85,0,0,0,1.27-7.79c.16-.35,0-.73.14-1.08l.06-1.52c.22-1-.05-2.06.14-3.08v-.21c-.18-1.09.08-2.19-.14-3.28l-.06-1.52c-.16-.4.05-.85-.14-1.25l-.05-.75c-.17-.32,0-.71-.16-1a64.6,64.6,0,0,0-3.44-13.84,61.24,61.24,0,0,0-3.68-8A67.1,67.1,0,0,0,365.63,52a73.12,73.12,0,0,0-8.35-8.71,79.22,79.22,0,0,0-10.11-7.66,110.26,110.26,0,0,0-14.5-7.76A135.71,135.71,0,0,0,318,22.41c-3.74-1.19-7.55-2.17-11.38-3.06q-4.74-1.09-9.51-1.93c-1.86-.33-3.74-.65-5.62-.89s-3.52-.43-5.26-.75c-.33-.19-.71,0-1-.16l-4.34-.44c-.4-.19-.86,0-1.26-.15l-.94,0c-.41-.2-.86,0-1.26-.15l-.95-.05c-.4-.2-.85,0-1.25-.15l-1.35-.05c-.54-.21-1.11,0-1.65-.15l-1.52,0c-.61-.21-1.26,0-1.88-.15l-2.13-.05c-.74-.22-1.52,0-2.27-.15l-3.72,0a8.14,8.14,0,0,0-2.09-.08h-9.8a2.63,2.63,0,0,0-1.08.08L244,14c-.82.18-1.67-.07-2.49.15l-2.32.05c-.68.18-1.39-.07-2.06.15l-1.54.06c-.54.16-1.11-.07-1.65.14l-1.55.05c-.47.17-1-.05-1.45.15l-1.15.05c-.41.16-.86,0-1.27.14l-1.12.06c-.47.17-1-.06-1.45.15l-1,.06c-.33.14-.71,0-1.05.14l-.95,0c-.33.15-.72,0-1.05.15l-.95.05c-.34.14-.73,0-1.08.14l-4.32.46c-.33.16-.71,0-1,.15-3.2.47-6.44.65-9.61,1.33-1.31.28-2.68.27-4,.51-5.38,1-10.79,1.77-16.13,2.94-3.51.77-7,1.41-10.53,2.36C173.29,23.79,172.23,24,171.21,24.22Z"/><path class="cls-2" d="M0,157.16a1.51,1.51,0,0,1,0,1.6Z"/><path class="cls-3" d="M0,163c.36.43.15.94.18,1.41-.07.08-.13.08-.18,0Z"/><path class="cls-4" d="M0,155.16a1.13,1.13,0,0,1,0,1.4Z"/><path class="cls-5" d="M.17,165.37v1H0v-1C.06,165.26.12,165.27.17,165.37Z"/><path class="cls-6" d="M.17,165.37H0v-1H.18C.18,164.7.17,165,.17,165.37Z"/><path class="cls-7" d="M97.22,98.37c0-.72.09-1.45,0-2.16s.14-1.09,1-1a19.64,19.64,0,0,0,2.17,0c.37,0,.73,0,1.1,0l37.34,0c.3,0,.59,0,.89,0,.88.21,1.79,0,2.67.14l1,0c.33.19.71,0,1,.15a29.91,29.91,0,0,1,7.07,2.07c6.24,3,9.87,8,11.54,14.61.4,1.57.57,3.17.83,4.76.18.68-.06,1.39.15,2.07,0,.27-.06.53-.06.8v55.51c0,.3,0,.6.06.89-.23.38-.6.19-.9.19h-18.7c-1.08,0-1.08,0-1.08-1.07V119.3a2.77,2.77,0,0,0-.09-1.18c-.59-4.15-3.11-5.69-7-6.16a1.92,1.92,0,0,0-1-.09H119c-1.08,0-1.08,0-1.08,1.08v62.23c0,1.46.14,1.27-1.29,1.27-6.12,0-12.25,0-18.38,0-.33,0-.73.21-1-.18,0-.33,0-.66,0-1q0-38,0-75.9C97.27,99,97.24,98.71,97.22,98.37Z"/><path class="cls-7" d="M207,159.12l8.22,0a1.49,1.49,0,0,1,.08.78q0,7.78,0,15.58c0,.27.16.61-.17.82H202.29c-.61-.2-1.26,0-1.87-.14a23.89,23.89,0,0,1-10.22-2.87,20,20,0,0,1-5.81-4.88,23.78,23.78,0,0,1-4.5-9.14,17.47,17.47,0,0,1-.52-3.75c-.16-.55.06-1.13-.14-1.68,0-.53,0-1.06,0-1.59q0-38.91,0-77.82c0-.39,0-.79,0-1.19.24-.36.6-.18.9-.18,6.26,0,12.51,0,18.77,0,.85,0,1,.26,1,1.07,0,6.65,0,13.3,0,20a2,2,0,0,0,.1,1.07l15.16,0c.25.26.13.57.13.86,0,5,0,9.93,0,14.89,0,.75-.19,1-.94,1-4.53,0-9.06,0-13.6,0-.7,0-.89.2-.89.9q0,20,0,40a1.36,1.36,0,0,0,.08.69,5.61,5.61,0,0,0,5.37,5.56C205.89,159.19,206.47,159,207,159.12Z"/><path class="cls-7" d="M325.81,61.61V174.45c0,1.17-.1,1.14-1.35.94a36.75,36.75,0,0,1-6.21-1.42,20.19,20.19,0,0,1-7-4.06,18.83,18.83,0,0,1-5.82-10.83c-.18-.84-.14-1.69-.29-2.53-.16-.48,0-1-.15-1.48,0-.73,0-1.46,0-2.19v-90c0-.39,0-.79,0-1.19.19-.3.49-.17.73-.17h19.38C325.37,61.49,325.61,61.43,325.81,61.61Z"/><path class="cls-7" d="M58.21,137.36c0-.39,0-.79,0-1.19q0-19.89,0-39.79c0-1,.27-1.2,1.22-1.19q9.2.06,18.4,0c.86,0,1.18.15,1.17,1.12q0,39.93,0,79.88c0,.43.26,1.08-.62,1A28.37,28.37,0,0,1,71,175.56a18.23,18.23,0,0,1-10.46-9,20.33,20.33,0,0,1-2.2-8.24c-.16-.48,0-1-.15-1.48Q58.22,147.12,58.21,137.36Z"/><path class="cls-7" d="M68.6,84c-3.17,0-6.33,0-9.5,0-.67,0-.84-.2-.83-.85q0-9,0-18c0-.66.18-.84.84-.84q9.54,0,19.09,0c.67,0,.81.21.81.84q0,9,0,18c0,.64-.15.84-.82.84C75,84,71.79,84,68.6,84Z"/><path class="cls-7" d="M293.19,133.85c-.22-.88,0-1.79-.14-2.68l-.05-1.35c-.2-.4,0-.84-.15-1.25-.09-.68-.17-1.37-.27-2.06a50.33,50.33,0,0,0-3.38-12.21A34.24,34.24,0,0,0,279,100.6a32.35,32.35,0,0,0-17.58-6.66c-.69-.18-1.4.07-2.08-.14a5.63,5.63,0,0,1-1.64,0c-.74.21-1.52,0-2.27.14l-1.15,0c-.33.18-.72,0-1.05.16-1.21.21-2.42.39-3.62.64a34.06,34.06,0,0,0-20.29,12.26,36.89,36.89,0,0,0-6.08,11.15,47.28,47.28,0,0,0-2.46,11.57c-.14.34,0,.72-.14,1l-.06,1.55q-.15,3.49,0,7l0,1.54c.19.4,0,.85.15,1.26,0,.31,0,.62.05.93s0,.73.15,1.07a52,52,0,0,0,1.09,6.06,38.82,38.82,0,0,0,5.23,12.3,30.4,30.4,0,0,0,6.86,7.5,34,34,0,0,0,8.57,4.84,39.07,39.07,0,0,0,8.89,2.32c.32.17.71,0,1,.16l.57,0c.4.18.85,0,1.24.16l1.16.05c.75.18,1.52-.07,2.26.14h2.06c.95-.22,1.92.05,2.87-.14l1.51-.06c.35-.16.74,0,1.09-.14l1.84-.26a37.93,37.93,0,0,0,11.15-3.3,46.18,46.18,0,0,0,11.82-8.57c.53-.51.26-.73-.11-1.07-3.88-3.69-7.77-7.37-11.64-11.08-.46-.44-.75-.37-1.14,0a25.72,25.72,0,0,1-3.2,2.78,19.82,19.82,0,0,1-11.45,4.24c-.54.21-1.12,0-1.66.14a19.12,19.12,0,0,1-3.21,0c-.41-.15-.86,0-1.27-.14a16.22,16.22,0,0,1-15.35-15.35c-.19-.41,0-.85-.14-1.26-.11-1.41-.11-1.41,1.24-1.41q24.91,0,49.84,0c.83,0,1.05-.21,1-1C293.12,138.71,293.18,136.28,293.19,133.85Zm-21.39-5.67c-5,0-10,0-15,0s-9.93,0-14.89,0c-.72,0-1-.12-.92-.91.43-5.67,2.17-10.66,7.27-13.82a17.06,17.06,0,0,1,13.83-2c4.71,1.26,7.46,4.64,9.08,9.07a28.32,28.32,0,0,1,1.4,6.82C272.64,128,272.47,128.19,271.8,128.18Z"/><path class="cls-7" d="M356.23,68.28a8.25,8.25,0,0,0-7.5-6.67,8.1,8.1,0,0,0-8.51,10.64A7.75,7.75,0,0,0,347,78a7.31,7.31,0,0,0,2.19,0A8.39,8.39,0,0,0,356.23,68.28Zm-8.09,8.33a6.83,6.83,0,1,1,0-13.65,6.83,6.83,0,1,1,0,13.65Z"/><path class="cls-8" d="M351.82,73.79c-.53-.88-1-1.78-1.58-2.65-.24-.39-.34-.63.2-.91,1.29-.69,1.44-1.89,1.26-3.18a2.56,2.56,0,0,0-2.16-2.3,17.29,17.29,0,0,0-3.87-.15c-.91,0-1.23.42-1.21,1.29,0,1.33,0,2.66,0,4s0,2.66,0,4c0,.83.42.91,1.07.9s1.15,0,1.09-.86a13.38,13.38,0,0,1,0-2.1c0-.33-.32-.85.31-1a1,1,0,0,1,1.14.57c.42.79,1,1.52,1.34,2.33a1.69,1.69,0,0,0,1.89,1C352.17,74.73,352.2,74.41,351.82,73.79Zm-4.12-4.58c-1.4,0-1.11.13-1.15-1.39.09-.65-.4-1.57,1-1.47,1.69.11,2.25.37,2.23,1.44S349.16,69.24,347.7,69.21Z"/></g></g></svg>