<svg xmlns="http://www.w3.org/2000/svg" viewBox="0 0 600 108.54"><defs><style>.cls-1{fill:#d73721;}.cls-2{fill:#d7351f;}.cls-3{fill:#d21900;}</style></defs><g id="Ebene_2" data-name="Ebene 2"><g id="Ebene_2-2" data-name="Ebene 2"><path class="cls-1" d="M0,36a1.71,1.71,0,0,1,0,2.1Z"/><path class="cls-2" d="M0,32.68a1.35,1.35,0,0,1,0,1.8Z"/><path class="cls-3" d="M596.66,54.85c-1.33,1.43-2.6,2.9-3.93,4.33a1.81,1.81,0,0,1-1.85.76c-.83-.29-.67-1.14-.67-1.82,0-3.9,0-7.79,0-11.69,0-2.75,0-5.5-.11-8.24-.14-2.29-.92-4.39-3.33-5.23a6,6,0,0,0-6.36,1.5,14.68,14.68,0,0,0-2.23,2.8c-3.39,5.14-6.1,10.64-9,16.07-.26.49-.38,1.12-1.08,1.4a3.1,3.1,0,0,1-.21-1.65q0-6.45,0-12.89a16,16,0,0,0-.32-3.58,4.65,4.65,0,0,0-4.87-4c-2.85-.09-5.07,1.27-7.16,3a55.59,55.59,0,0,1-6.83,4.86c-1,.6-1.55.72-2.16-.61-1.45-3.19-3.64-5.75-7.21-6.7a5.72,5.72,0,0,0-7.31,7c.77,3.63,3.9,6.06,8.07,6.39,1.34.1,3.23-.65,3.89.43s.27,2.82.14,4.25c-.32,3.65-1.61,6.84-5,8.72-4.55,2.54-10.2.42-12.27-4.9a18.63,18.63,0,0,1,2.79-19.18c.37-.48.83-.89,1.16-1.38.77-1.18.48-1.74-.92-1.79a17.39,17.39,0,0,0-5.31.79c-7,2-12.69,6.17-18.17,10.72-.48.39-.95.79-1.54,1.29-1.87-4.31-4.4-8.06-6-12.28-.22-.6-.4-1.33-1.2-1.35s-1,.7-1.26,1.29C493,41.68,488,49.39,482.92,57a7.63,7.63,0,0,1-2.23,2.54,2.94,2.94,0,0,1-.26-1.82c0-5.79,0-11.59,0-17.39a12.68,12.68,0,0,0-.6-4.57,4.31,4.31,0,0,0-4.57-3.12c-2.87.05-4.66,1.77-6.11,4-3.59,5.47-6.73,11.2-9.85,16.94-.2.38-.34,1.05-.8,1-.64-.12-.36-.83-.36-1.27q0-6.89,0-13.79a10.08,10.08,0,0,0-.75-4.1,4.22,4.22,0,0,0-4.22-2.75c-3,0-4.94,1.55-6.41,4-4.27,7-8.58,14-13.19,20.88-.32.47-.5,1.1-1.24,1.23a10.39,10.39,0,0,1-.19-3.42c-.05-5.75,0-11.5-.14-17.24-.05-2.15-.75-4.23-3-5.09s-4.4-.1-6.18,1.53a17,17,0,0,0-2.84,3.66c-3,4.74-5.77,9.57-8.39,14.51A4.33,4.33,0,0,1,410,54.73a5.72,5.72,0,0,1-.13-.85c0-5.25,0-10.5,0-15.74a2.41,2.41,0,0,1,.85-1.67c5.67-6.67,9.31-14.24,10.12-23,.26-2.79.36-5.59-.74-8.27a5.86,5.86,0,0,0-5.88-4c-3.44.09-5.72,2.12-7.57,4.73-3.14,4.44-4.5,9.53-5.17,14.83s-.29,10.68-.33,16a2,2,0,0,1-1.26,2.07,36.31,36.31,0,0,1-7.81,3c-1.29.34-1.86.18-2.42-1.16-1.43-3.41-3.63-6.24-7.38-7.35-4.27-1.28-7.81,1.56-7.57,6a6.8,6.8,0,0,0,2.81,5.22,13.64,13.64,0,0,0,6.09,2.3c1.06.2,2.55-.61,3.08.56.46,1,.19,2.36.2,3.55a9.5,9.5,0,0,1-.13,1.5c-.66,5.11-4.32,8.6-9,8.55-3.95,0-7.32-2.62-8.63-7.08-1.92-6.53-1-12.64,3.34-18.07a14.88,14.88,0,0,0,1.08-1.43c.69-1.16.42-1.63-.94-1.64A12,12,0,0,0,367,34.37a59.27,59.27,0,0,0-11.62,8.16c-2.37,2-4.65,4.18-7.09,6.39-.38-3.47-.78-6.78-1.1-10.1a126.86,126.86,0,0,1-.8-19.59,137.68,137.68,0,0,1,2.33-16.29c.18-1,.36-2.06-.46-2.94h-2.7c-1.56.61-3.21.93-4.72,1.67-14.17,6.92-26.17,23.48-20.31,45.05A37.69,37.69,0,0,0,324.13,55a29.76,29.76,0,0,0-10.59.91c-1.14.29-1.22-.09-1.2-1a33.21,33.21,0,0,0-1.57-11.37c-1.14-3.42-2-3.78-5.23-2.17-.49.24-1,.48-1.47.74-1.68.92-1.76,1.16-.63,2.69a15.83,15.83,0,0,1,3.06,7.67c-.47-.41-.8-.71-1.14-1-4.8-4-10.34-5-16.31-3.7a5.12,5.12,0,0,0-4.27,4,5.89,5.89,0,0,0,2,6,10.82,10.82,0,0,0,3.46,2A29.34,29.34,0,0,0,306,61c1-.18,1.3-.11,1.29,1,0,1.5.13,3,.25,4.49.07.9.19,1.93,1.3,2.1s1.57-.71,1.95-1.54a10.69,10.69,0,0,0,.63-1.83,19.25,19.25,0,0,0,.64-4.59c0-.51,0-1,.67-1.17,4.43-1.08,8.87-2,13.47-1.05a1.89,1.89,0,0,1,1.19.78,51.29,51.29,0,0,0,5.78,6.28c.75.69.72,1.16.21,2A69,69,0,0,0,329,75.61c-3.34,7.29-5.73,14.81-5.22,23,.24,3.9.64,7.85,4.75,10H333c4.28-1.94,7.06-5.38,9.23-9.38a63,63,0,0,0,7-23.67,107.57,107.57,0,0,0-.22-19.9,2.09,2.09,0,0,1,.57-1.88c2.59-2.57,5.14-5.18,7.93-7.53A11.08,11.08,0,0,1,360.62,44a23.17,23.17,0,0,0-.6,11.37c1.25,5.73,4,10.35,9.83,12.44,7.79,2.8,16.38-1.12,19.88-8.92a23.75,23.75,0,0,0,1.73-11.42c0-.47-.42-1.15.46-1.32a31.09,31.09,0,0,0,9.13-3.23c0,.72,0,1.21,0,1.69q0,10.05,0,20.09a3.51,3.51,0,0,0,2.28,3.67,3.92,3.92,0,0,0,4.52-1,11.62,11.62,0,0,0,2-3.13c3.11-6.49,6.71-12.7,10.17-19,.48-.88,1-1.72,1.58-2.54.21-.31.47-.76.93-.63s.41.63.44,1,0,1,0,1.5c0,5.8,0,11.59,0,17.39a12.08,12.08,0,0,0,.22,2.68,4.59,4.59,0,0,0,3.17,3.81,4.88,4.88,0,0,0,5.1-1.3,16.85,16.85,0,0,0,1.89-2.31q7.13-10.28,13.53-21c.36-.58.72-1.44,1.51-1.23s.59,1.17.59,1.82c0,4.2,0,8.39,0,12.59,0,2.55,0,5.1.05,7.64,0,1.49.37,3,1.88,3.66a4.53,4.53,0,0,0,4.8-.64,8.38,8.38,0,0,0,2.37-3.23c3.34-6.81,6.83-13.53,10.57-20.12a12.75,12.75,0,0,1,1.34-2c.46-.56.88-.42,1,.32a17.94,17.94,0,0,1,.07,1.8c0,5.69,0,11.39,0,17.08a18,18,0,0,0,.21,2.84c.57,3.63,3.63,5.27,7,3.81a9.49,9.49,0,0,0,3.47-2.78,112.1,112.1,0,0,0,8.13-11.67c1.68-2.62,3.29-5.28,5.06-8.12.95,1.74,1.78,3.32,2.66,4.87a1.7,1.7,0,0,1-.24,2.25c-2.05,2.47-3.88,5.11-4.34,8.4a6.5,6.5,0,0,0,2.24,6.33c2,1.59,4.17,1.52,6.38.63a10.18,10.18,0,0,0,5.91-6.57c1.28-3.73.61-7.39-.61-11-.21-.61-.54-1.14.12-1.75a49.11,49.11,0,0,1,10.46-8,5,5,0,0,1,2.51-.83,18.46,18.46,0,0,0-3,8.37c-.57,6.07.57,11.71,5,16.2,6.91,7,19.33,4.89,24.31-4.07,2.43-4.38,2.8-9.1,2.37-13.95a1.56,1.56,0,0,1,1-1.83,26.22,26.22,0,0,0,4.36-2.9,13.27,13.27,0,0,1,2.4-1.51c1.25-.56,2-.1,2.25,1.25a8.93,8.93,0,0,1,.1,1.64c0,5.74,0,11.49,0,17.23,0,1.6,0,3.21.11,4.8.25,2.74,2.18,4,4.86,3.29a5.32,5.32,0,0,0,3.2-2.31,25.24,25.24,0,0,0,1.51-2.75c3.31-6.76,6.69-13.49,10.49-20,.32-.55.57-1.56,1.4-1.3s.43,1.13.44,1.76c0,4.24,0,8.49,0,12.74a37.38,37.38,0,0,0,.22,6.43,6.46,6.46,0,0,0,8.15,5.44c2.82-.61,4.54-2.63,6-4.84,1.66-2.48,3.18-5,4.76-7.57v-1.2C598.75,53.52,597.93,53.5,596.66,54.85Zm-55-12.26c-1.7-.14-3.18-.38-4.25-1.6a1.92,1.92,0,0,1-.29-2.59c.63-.82,1.54-.61,2.33-.24a6.33,6.33,0,0,1,3.25,3.55C543.34,43.28,541.69,41.93,541.69,42.59ZM411,9.94a11.27,11.27,0,0,1,1.17-3.23c.49-.86,1-1.86,2.23-1.61s1.24,1.37,1.31,2.26a38.36,38.36,0,0,1-.94,12.94,37.77,37.77,0,0,1-4.13,10.06c-.19.31-.3.73-.87.91C409.88,24.09,409.47,17,411,9.94Zm-30,31.76a2.39,2.39,0,0,1-1.59-2,1.48,1.48,0,0,1,2-1.75c2.14.62,3.19,2.3,4.09,4.31A9.09,9.09,0,0,1,381.09,41.7ZM296,56.85a6.28,6.28,0,0,1-1.66-1,2.73,2.73,0,0,1-1-3.18c.44-1.27,1.53-1.42,2.67-1.45a7.54,7.54,0,0,1,4.37,1.29,20.75,20.75,0,0,1,5.09,4.93C302,57.59,298.93,58,296,56.85Zm45.12,34.94a21,21,0,0,1-3.48,7.55,7,7,0,0,1-2.25,1.94A3.86,3.86,0,0,1,330,99.8a9,9,0,0,1-1.16-4.88,47,47,0,0,1,6.81-23.56A68.26,68.26,0,0,1,341,63.48C342.6,73.1,343.71,82.45,341.08,91.79ZM344.5,5.52c-2.67,6.56-5.11,13.18-6.19,20.25a68.89,68.89,0,0,0,.23,22.06c.49,2.85.87,5.72,1.38,8.57a2.85,2.85,0,0,1-.7,2.58,20.88,20.88,0,0,0-1.88,2.52c-.52.82-.83.85-1.46,0a36.94,36.94,0,0,1-7.68-17.78,52.54,52.54,0,0,1-.62-8.22c.05-9.65,2.47-18.54,8.6-26.19a16.94,16.94,0,0,1,5.9-5,3.87,3.87,0,0,1,1-.39c.57-.1,1.25-.53,1.71-.09S344.71,5,344.5,5.52Zm156.2,56.9c-.22.94-.58,2-1.72,1.92s-1.65-1.18-1.64-2.31c0-2.29,1.27-4.06,2.59-6C500.65,58.29,501.2,60.3,500.7,62.42Z"/><path class="cls-3" d="M280.27,54.22c-1.07-.81-1.95-.19-2.71.66-1.27,1.41-2.55,2.82-3.84,4.21-.52.56-1.16,1.11-2,.84s-.61-1.17-.61-1.83c0-5.85,0-11.69,0-17.54a19.83,19.83,0,0,0-.22-3c-.7-4.76-5.24-6.55-9.05-3.6a12.57,12.57,0,0,0-2.72,3.18c-3.39,5.13-6.12,10.62-9,16.05-.29.53-.38,1.24-1.11,1.51a3.84,3.84,0,0,1-.24-1.94c0-5,0-9.9-.14-14.84-.14-3.84-2.28-5.54-6.1-5.26A10.31,10.31,0,0,0,237,35.24a58.73,58.73,0,0,1-7.44,5.3c-.94.53-1.39.61-1.94-.57-1.5-3.21-3.68-5.85-7.3-6.82a5.69,5.69,0,0,0-7.37,6.52c.44,3.16,2.37,5.06,5.21,6.18a14.15,14.15,0,0,0,5.92.65c.8,0,1.07.21,1.05,1a36.3,36.3,0,0,1-.15,4.79c-.62,3.87-2.37,7-6.39,8.28-4.53,1.4-9.07-.91-10.86-5.83a18.59,18.59,0,0,1,3.13-19.12,10.6,10.6,0,0,0,1.09-1.43c.46-.85.29-1.48-.82-1.48a17.2,17.2,0,0,0-2.69.15,34.09,34.09,0,0,0-13,5.37,84.71,84.71,0,0,0-9.52,7.26c-1.83-4.22-4.38-7.94-5.92-12.17-.23-.62-.39-1.48-1.28-1.46s-1.05.82-1.31,1.45c-3.58,8.79-8.68,16.72-14,24.49a5.4,5.4,0,0,1-1.69,1.81,3,3,0,0,1-.23-1.72q0-8.85,0-17.69a12.94,12.94,0,0,0-.64-4.42,4.3,4.3,0,0,0-4.6-3.08c-2.74.06-4.51,1.65-5.92,3.78-3.58,5.42-6.71,11.1-9.81,16.79-.28.52-.4,1.23-1.32,1.5V52.66c0-4,0-8.09,0-12.14a14.53,14.53,0,0,0-.5-4.45,4.44,4.44,0,0,0-4.82-3.41c-3,.07-4.83,1.84-6.27,4.22-4.17,6.93-8.43,13.8-12.93,20.52-.33.5-.57,1.14-1.41,1.4,0-.65-.07-1.18-.07-1.71,0-5.54,0-11.09,0-16.64a21.22,21.22,0,0,0-.25-3.28c-.7-4.26-4.44-5.87-8.06-3.49a11.37,11.37,0,0,0-3.23,3.5c-3.26,5-6.22,10.23-9.06,15.5a5.72,5.72,0,0,1-1.44,2A3.44,3.44,0,0,1,90.76,53c0-4.7,0-9.39-.05-14.09a3.54,3.54,0,0,1,.92-2.56A41.78,41.78,0,0,0,97,28.61a36.29,36.29,0,0,0,4.68-20.42c-.23-2.84-1.2-5.48-4.12-6.62S92,1.4,89.68,3.41a13.49,13.49,0,0,0-2.19,2.46c-3.36,4.86-4.72,10.39-5.3,16.16C81.69,27,82,31.92,82,36.86a1.86,1.86,0,0,1-1.1,1.87,36.9,36.9,0,0,1-7.95,3c-1.34.36-1.87.09-2.41-1.19C69,37.09,66.79,34.25,63,33.18a5.71,5.71,0,0,0-7.32,6.93A7.26,7.26,0,0,0,59.25,45a12.62,12.62,0,0,0,7,1.72c1.2-.05,1.44.47,1.47,1.45A21.76,21.76,0,0,1,67.5,53c-.85,4.35-3.93,7.51-7.72,7.89-4.11.41-7.58-1.8-9.4-6a18.53,18.53,0,0,1-1-10.15,17.54,17.54,0,0,1,4.49-9.62c.5-.55,1.29-1.26.83-2s-1.49-.46-2.24-.33a17.64,17.64,0,0,0-5.93,2.42A83.82,83.82,0,0,0,30.69,47.68l-1.46,1.4c-.52-5.06-1.06-9.76-1.48-14.46a90.92,90.92,0,0,1,.37-22.72C28.64,8.6,29.2,5.3,29.75,2a1.92,1.92,0,0,0-.65-2H26.4a21.85,21.85,0,0,0-4,1A37.94,37.94,0,0,0,8,12.23,34,34,0,0,0,0,30.88v1.8a2.25,2.25,0,0,1,0,1.8V36a3,3,0,0,1,0,2.1v2.4A.78.78,0,0,1,.16,41,28.17,28.17,0,0,0,3.6,53a47.73,47.73,0,0,0,8.77,11.33c2.43,2.4,2,1.94.58,4.47C8.52,76.78,5,85,4.23,94.25a23.16,23.16,0,0,0,1.39,10.88,5.22,5.22,0,0,0,3.68,3.41h4.5c4.51-1.93,7.3-5.57,9.51-9.72A63,63,0,0,0,30,76.45c.86-7,.35-14-.07-21a2.16,2.16,0,0,1,.62-1.87,115,115,0,0,1,9-8.39,5,5,0,0,1,2-1.2,23.57,23.57,0,0,0-.69,10.52c1.14,6.09,3.86,11.06,10.06,13.25,8.47,3,17.65-1.91,20.53-10.83a24.72,24.72,0,0,0,.93-9.63c0-.58-.2-1.14.73-1.31a27.9,27.9,0,0,0,8.82-3.09c0,.54,0,.92,0,1.3q0,10,0,20.09c0,2.21.77,3.48,2.4,4a4.11,4.11,0,0,0,4.88-1.62,16.89,16.89,0,0,0,1.74-3c3.31-6.77,7-13.33,10.72-19.88a8.87,8.87,0,0,1,1.11-1.59c.52-.58,1-.51,1,.35.05.6.08,1.2.08,1.8,0,5.64,0,11.29,0,16.94a18.59,18.59,0,0,0,.21,3,4.57,4.57,0,0,0,3,3.95,4.94,4.94,0,0,0,5.14-1.12,13.34,13.34,0,0,0,2-2.43q7.11-10.29,13.54-21c.34-.58.71-1.42,1.5-1.24s.56,1.16.57,1.8c0,6.2,0,12.39,0,18.59a14.29,14.29,0,0,0,.18,2.53c.51,2.67,2.34,3.72,5,3,2-.57,3-2.07,3.82-3.76,3.46-7,7.05-14,11-20.77.42-.73.75-2,1.69-1.79.78.2.47,1.48.47,2.29,0,6.25,0,12.5.06,18.74,0,2.15.65,4.12,2.8,5.07s4.21.34,6-1.06a18.51,18.51,0,0,0,3.41-3.77c3.82-5.26,7.26-10.75,10.63-16.3.26-.44.38-1,1.06-1.26a33.22,33.22,0,0,0,1.71,3c1.33,1.85,1.48,3.45-.34,5.16A12.19,12.19,0,0,0,175,57.72a10,10,0,0,0-1,5.67,5.78,5.78,0,0,0,7.1,5.08c4.16-.91,6.46-3.76,7.61-7.64,1.06-3.56.38-7-.85-10.41a1.54,1.54,0,0,1,.44-1.93,58,58,0,0,1,7.67-6.23,14.67,14.67,0,0,1,5.11-2.43,20.5,20.5,0,0,0-2.74,15.79c1.32,6.67,6,11.71,11.77,12.73A15.93,15.93,0,0,0,227,60.82c2.63-4.44,3.1-9.31,2.62-14.33,0-.51-.43-1.12.29-1.45,2.34-1.08,4.25-2.8,6.35-4.22.78-.52,1.67-1.14,2.63-.6s.78,1.54.78,2.43q0,10.13,0,20.24a12.13,12.13,0,0,0,.17,2.69c.57,2.45,2.21,3.5,4.66,2.93a6.22,6.22,0,0,0,4.2-3.74c2.77-5.64,5.58-11.26,8.58-16.78.88-1.62,1.79-3.23,2.74-4.81.29-.46.51-1.31,1.22-1.08s.48,1,.49,1.6c0,3.3,0,6.6,0,9.9,0,2.94-.1,5.9.13,8.84a6.69,6.69,0,0,0,10.55,5.08A11.37,11.37,0,0,0,275.18,65a75.6,75.6,0,0,0,5.16-8.07C280.87,56,281.33,55,280.27,54.22ZM223.71,42.29c-.28.43-.92.2-1.41.27a5.83,5.83,0,0,1-3.71-1.32,2,2,0,0,1-.55-2.79c.68-1,1.68-.62,2.55-.18a6.32,6.32,0,0,1,2.62,2.58C223.46,41.3,224,41.76,223.71,42.29ZM92.07,9.57a11.73,11.73,0,0,1,1.31-3.32c.47-.74,1-1.41,2.05-1.15S96.51,6.19,96.61,7A36.22,36.22,0,0,1,94.9,23.05a27.05,27.05,0,0,1-4,8.12C90.85,23.92,90.34,16.68,92.07,9.57Zm-30,32.15A2.49,2.49,0,0,1,60.5,40a1.65,1.65,0,0,1,.38-1.79A1.57,1.57,0,0,1,62.57,38c2,.7,3,2.3,4,4.34A10.17,10.17,0,0,1,62.07,41.72ZM20.69,95.53A13.92,13.92,0,0,1,18,100a4.65,4.65,0,0,1-4.7,1.67,4.33,4.33,0,0,1-3.06-3.56,23.48,23.48,0,0,1,0-8.92c1.36-9.6,5.71-17.84,11.72-25.7C23.77,74.5,24.88,85.12,20.69,95.53ZM25.66,5q-1.29,3.27-2.57,6.54a67.65,67.65,0,0,0-3.44,37.66c.49,2.6.84,5.22,1.27,7.83a1.53,1.53,0,0,1-.28,1.26c-1,1.35-2,2.71-3.09,4.14A35.24,35.24,0,0,1,9.43,45.56c-1.8-10-1.26-19.79,3.19-29.12a28.65,28.65,0,0,1,8.3-10.83,9.08,9.08,0,0,1,3.75-1.8C25.8,3.59,26.06,4,25.66,5ZM181.59,62.5c-.24,1-.61,2-1.79,1.83s-1.53-1.21-1.56-2.25c0-1.76.86-3.23,1.69-4.7.22-.38.49-.74.87-1.33C181.58,58.28,182.15,60.33,181.59,62.5Z"/></g></g></svg>