<svg xmlns="http://www.w3.org/2000/svg" viewBox="0 0 2334.01 154.51"><defs><style>.cls-1{fill:#010101;}</style></defs><g id="Ebene_2" data-name="Ebene 2"><g id="Ebene_2-2" data-name="Ebene 2"><path d="M360,123.18c5.67-12.92,10.91-24.87,16.16-36.82C387.77,59.91,399.43,33.5,410.89,7c1.25-2.87,2.59-3.95,5.77-3.9,12.33.2,24.66.05,37,.13,1.54,0,3.85-1.07,3.91,2.16S455.32,8,453.45,8c-3.17.12-6.34.06-9.49.32-7.08.57-10.09,3.55-10.79,10.63-.33,3.31-.58,6.65-.6,10-.14,33.13-.81,66.27.43,99.4.41,11,4.05,14.42,15,14.79,2,.07,4,0,6,.07,1.75,0,3.66-.55,3.55,2.53s-2.14,2.37-3.81,2.37q-31.25,0-62.48,0c-1.92,0-3.54.2-3.51-2.68s1.78-2.21,3.33-2.24a51.52,51.52,0,0,0,10.93-.86,10.08,10.08,0,0,0,8.19-8.32,23.7,23.7,0,0,0,.74-4.92Q411,75,411,20.69c-1.6.32-1.52,1.87-2,2.94q-26.41,59.9-52.8,119.81c-.92,2.09-1,4.89-4.67,4.81s-3.6-3-4.51-5q-26.51-59.32-52.9-118.69c-.65-1.46-.94-3.15-2.87-4.65v5.58c0,26.47,0,53,.05,79.42,0,6,.38,12,.75,18,.65,10.72,6.6,17.4,17.24,19.58a17.68,17.68,0,0,0,2.94.55c1.91.05,2.55.88,2.52,2.79,0,2.12-1.1,2.39-2.84,2.39q-23.49-.06-47,0c-1.45,0-2.63-.1-2.6-2.07,0-1.62,0-2.84,2.2-3a25.24,25.24,0,0,0,9.12-2.38c6.86-3.5,11-8.82,11.61-16.75,1.52-19.3.64-38.61.72-57.92.07-15.48.75-31-.64-46.43-.73-8-3.71-10.69-11.81-11.23-2.82-.19-5.66-.26-8.49-.24-1.84,0-2.67-.56-2.73-2.56-.07-2.23,1.15-2.35,2.81-2.35,13,0,26,.12,39-.06,3.05,0,3.4,1.93,4.25,3.85q20.4,46,40.81,91.91C352.62,106.59,356.06,114.32,360,123.18Z"/><path d="M2139.82,21.54a40.79,40.79,0,0,0,5-14.82c.35-2.2.5-3.81,3.39-3.59,3.22.24,2,2.61,2,4.07.52,15.64.91,31.28,1.29,46.93,0,1.63,1,3.8-2.2,3.94-2.6.11-3-1.45-3.32-3.37-1.48-8.39-3.78-16.52-8-24-9.94-17.57-25.75-24.88-45.21-24.84-20,0-33.44,10.83-40.61,28.55a107.66,107.66,0,0,0-2.1,77.11c10.51,30.6,45.34,42.44,72.83,25.32,14-8.74,19.34-23.08,23-38.23.15-.65.2-1.32.3-2,.25-1.76.67-3.12,3-3,2.54.09,2.42,1.62,2.42,3.36q0,22.23,0,44.45c0,1.53.18,3-2.14,3.06-1.88,0-3.15-.32-3.59-2.47a34.29,34.29,0,0,0-3.76-9.18c-1.4-2.61-2.31-3.89-5.09-.87-26.19,28.45-81.71,24.39-104.74-9.9-9.58-14.25-12.9-30.13-12.24-46.94.75-19.42,6.35-37.26,19-52.46C2059.73-2.19,2108.31-10.52,2139.82,21.54Z"/><path d="M1286.46,22a49.65,49.65,0,0,0,5.29-15.45c.32-1.92.76-2.92,3-2.92,2.75,0,2.3,1.73,2.33,3.34q.57,24,1.1,47.94c0,1.46.88,3.4-2,3.46-2.53.06-2.88-1.16-3.27-3.24a88.58,88.58,0,0,0-5.8-19.53C1277.29,13.29,1251.25,1,1227.8,8c-16.52,4.89-26,17-31,32.58-7.43,23-8.1,46.53-.6,69.68,10.18,31.37,42.85,44,71.76,28.1,14.15-7.76,19.75-21.38,24-35.81a27.5,27.5,0,0,0,1-5.38c.16-1.9.57-3,2.88-3.05,2.66,0,2.4,1.53,2.4,3.23,0,14.82,0,29.64,0,44.46,0,1.22,1,3.18-1.56,3.44-2.29.22-3.47-.39-4.09-3a31.78,31.78,0,0,0-6.11-12.08,20.19,20.19,0,0,0-1.88,1.63c-24.57,26.81-68.42,23.05-90.63,6.05-16-12.26-24.55-28.62-26.58-48.38s1.23-38.81,11.32-56.26c11.73-20.27,30-30,52.79-31.88C1252.86-.41,1271.06,6.65,1286.46,22Z"/><path d="M1386.82,91.68c-8.33,0-16.67.18-25-.08-3.42-.1-4.16,1.08-4.1,4.26.24,11.65.1,23.31.3,35,.16,10.11,2.52,12.41,12.76,13.07a2,2,0,0,1,.5,0c1.29.49,3.71-1.16,3.72,1.76,0,3.27-2.63,1.88-4.08,1.89-14,.11-28,.06-42,.06h-2.5c-1.35,0-2.22-.48-2.12-2,.08-1.35,1-1.58,2-1.61a4.17,4.17,0,0,0,.5,0c13.74-1.82,14.19-1.81,14.55-15.43.69-25.8,1-51.61-.2-77.41-.41-8.89-2.44-10.64-11.24-11-1.16,0-2.33-.09-3.49-.09-1.4,0-2.12-.54-2.18-2.05-.06-1.78,1.09-1.76,2.28-1.77h7.5c12.5,0,25,0,37.49,0,1.34,0,3.63-1.1,3.49,2-.11,2.48-2,1.67-3.28,1.84-.66.08-1.33,0-2,.06-9.31.33-11.51,2.38-11.71,11.59-.22,10.32-.09,20.65-.32,31-.07,2.89.88,3.59,3.66,3.57q25.49-.17,51,0c2.77,0,3.73-.66,3.67-3.56-.22-10.16,0-20.32-.28-30.47-.31-9.94-2.39-11.77-12.32-12.1-1.33-.05-2.66,0-4-.15s-1.29-1.22-1.35-2.22.52-1.47,1.48-1.49,1.66,0,2.5,0c14.16,0,28.32,0,42.49,0,1.36,0,3.69-1.23,4,1.45.33,3-2.18,2.27-3.84,2.36-10.61.57-12.5,2.21-12.57,12.79q-.23,38.72,0,77.44c.06,10.51,2.37,12.68,12.82,13.65,1.42.13,3.77-.83,3.6,2-.14,2.35-2.13,1.65-3.46,1.65q-21.75.07-43.49,0c-1.46,0-3.69.76-3.47-2.08.19-2.49,2.2-1.35,3.47-1.55,1.81-.27,3.64-.37,5.46-.53,5.11-.45,7.76-3.33,8.27-8.34,1.19-11.63.46-23.29.61-34.94.11-8.49,0-8.5-8.64-8.5Z"/><path d="M65.79,68.28c-.07-15.81.52-31.64-.5-47.45C64.71,11.76,61.7,8.77,52.64,8.27c-2.33-.13-4.66-.26-7-.19C43.76,8.13,43,7.53,43,5.54c-.06-2.16,1-2.41,2.72-2.39,4.83.07,9.66,0,14.49,0,15.5,0,31,0,46.49,0,1.42,0,3.42-.88,3.5,2.07.07,2.79-1.44,2.79-3.45,2.8a83.2,83.2,0,0,0-9.48.38c-5.78.7-8.24,3.06-9.19,8.79a58.41,58.41,0,0,0-.85,9.43c-.13,22.64-.08,45.29-.27,67.94a166,166,0,0,1-1.14,20.44c-2.94,22.06-20.28,37.41-43.86,39.09-8.49.6-17,.75-25.24-1.94-5.49-1.8-10.31-4.62-13.73-9.44-3.12-4.41-3.88-9.18-1.68-14.15A10.74,10.74,0,0,1,15,122.88c5.58,2.09,8.12,7.39,6.37,13.32-2.68,9.05-.37,12.3,9.26,13,19.43,1.49,33.41-12.1,34.45-33.51.27-5.49.6-11,.66-16.47C65.87,88.93,65.79,78.61,65.79,68.28Z"/><path d="M1082,123.43V92.54c0-12,.06-24,0-36-.1-11.46-3.53-15-15-16.28-1.46-.16-4.14,1.18-3.9-2.14.23-3.13,2.75-1.71,4.2-1.73,10.83-.12,21.66-.09,32.49,0,1.24,0,3.13-.95,3.43,1.57.32,2.75-1.67,2.22-3.2,2.52-11.41,2.27-14,5.26-14,16.8-.06,29.15,0,58.29-.11,87.43,0,1.86,1.65,4.65-1.26,5.6-2.69.89-3.57-1.84-4.81-3.48Q1043.47,98.93,1007.13,51c-1-1.3-2-2.57-3.27-4.11-.3.68-.62,1.07-.62,1.45,0,26.15.15,52.29,0,78.44-.07,12,3.37,15.72,16.21,17.31,1.43.18,3.68-.76,3.45,2.14-.19,2.41-2.08,1.71-3.41,1.72q-17.24.08-34.49,0c-1.36,0-3.2.65-3.49-1.68-.35-2.75,1.93-2.12,3.35-2.51,2.08-.56,4.25-.86,6.28-1.55,5.1-1.72,7.94-5.11,7.93-10.75C999,105.65,999,79.84,999,54a48.5,48.5,0,0,0-.75-5.43c-.61-5.33-3.71-7.92-8.94-8.19-1.49-.08-3-.18-4.49-.15s-2.12-.46-2.11-2,.87-1.91,2.22-1.91q14.75,0,29.49,0c2.31,0,3,1.9,4,3.29q29.7,39.19,59.35,78.42C1078.88,119.59,1080.11,121.05,1082,123.43Z"/><path d="M821,50.43c1.85-2.83,2.37-5.78,3.1-8.64.37-1.48-.23-3.6,2.39-3.57,2.93,0,1.83,2.29,1.84,3.65q.13,15,0,30c0,1.24,1,3.23-1.49,3.51s-2.41-1.48-2.76-3.18c-3.1-15-10.84-26.5-25.73-31.74-20.94-7.37-43,4.42-48.69,26.32a98.18,98.18,0,0,0,.66,52.79,36.32,36.32,0,0,0,50.27,23.12c8.08-3.76,12.25-9.95,12.55-18.74a70.42,70.42,0,0,0-.28-11c-.77-6.26-3.19-8.29-9.49-8.68-1.5-.1-3-.13-4.5-.1s-2.15-.44-2.13-2,.94-1.89,2.25-1.86c1.5,0,3,0,4.5,0,12.67,0,25.33,0,38,0,1.44,0,3.6-.83,3.49,2.07-.1,2.52-2,1.68-3.31,1.78-9.34.72-11.24,2.36-11.88,11.79-.48,7.13-.48,14.31-.46,21.46,0,2.6-.28,3.87-3.4,3.73-7.86-.36-14.91,3.07-22.17,5.37-18.62,5.92-36.58,5.13-52.93-6.29C724.13,121.62,720.13,82.67,740.61,55c18.07-24.41,56.08-26.67,75.51-9Z"/><path d="M1728.27,147.65c-14,0-28,0-42,0-1.43,0-3.72,1-4-1.64-.25-2.84,2.17-1.89,3.59-2,10.34-.92,12.84-3.23,12.91-13.62q.24-38.72,0-77.41c0-8.35-1.33-13.12-11.6-12.82-1.57,0-3.07,0-3-2.27s1.78-1.59,2.92-1.6q37,0,74-.06c2,0,2.87.42,3,2.68.52,7.3,1.35,14.58,2,21.87.1,1.15,1,2.81-1.11,3.23s-2.56-1-2.94-2.55c-5.06-21.2-13.94-21.18-29.24-21.32-4.49,0-9,.12-13.49-.1-3.06-.16-4.36.46-4.3,4,.24,12.81.21,25.63,0,38.45,0,3.29.85,4.37,4.16,4.14,4.65-.34,9.33,0,14-.34,6.85-.42,9.39-3.11,9.9-10,.09-1.32.18-2.65.21-4s.43-2.21,2-2.25,1.84.93,1.84,2.22q0,16.74,0,33.46c0,1.2,0,2.35-1.77,2.29-1.54,0-2-.9-2-2.23,0-.34,0-.67,0-1,.11-12.77-4.12-14.31-16.14-14.42s-12-.08-12,12.1c0,10.32-.25,20.64.79,30.94.73,7.21,2.7,9.38,9.89,9.89,8.15.57,16.31.82,24.4-.6,8.37-1.46,13.12-7.36,17-14.17a48.45,48.45,0,0,0,5-13c.37-1.6,1.09-2.74,3.06-2.41,2.18.35,1.33,1.93,1.26,3.1-.6,9.13-1.35,18.26-1.83,27.39-.17,3.16-1.28,4.16-4.52,4.12C1756.25,147.55,1742.26,147.65,1728.27,147.65Z"/><path d="M1597.4,136.2c-1.93,2.2-2.69,5-3.28,7.68-.37,1.74-.95,2.62-2.86,2.62-2.37,0-2.08-1.57-2.08-3.06,0-10,0-20,0-30,0-1.23-.44-2.78,1.64-3s2.85.71,3.29,2.74a56.27,56.27,0,0,0,6.66,17.6c7.26,12,19.93,17.39,33.39,14,9.08-2.28,14.91-8.16,16.66-17.28s-1.88-16.19-9.68-21.26c-8.41-5.47-17.79-8.9-26.79-13.14-8.07-3.8-15.71-8.09-20.1-16.37-5.5-10.36-6.06-20.75.8-30.62,7.54-10.84,18.64-13.13,31-11.53,6.46.83,12.33,3.38,16.67,8.22,3.41,3.8,4.38,1.7,6.13-1.28,1.07-1.82-.27-6.2,3.59-5.13,2.89.8,1.22,4.3,1.3,6.54.23,6.31.12,12.64,0,19,0,1.26.86,3.1-1.7,3.34-2.28.22-2.33-1.51-2.72-2.8A37,37,0,0,0,1639.49,46c-6.58-6.28-14.47-8.65-23.38-7.55-7.08.88-11.88,4.83-14.14,11.65s-.44,12.79,4.72,17.68c4.76,4.51,10.53,7.52,16.35,10.38,8,4,16.27,7.55,24.12,11.85,12.74,7,18.51,20.51,15.37,34.76-3,13.83-14,23.26-28.48,24.51C1618.87,150.58,1612.5,148.31,1597.4,136.2Z"/><path class="cls-1" d="M2334,138.91a12.12,12.12,0,1,1-12.26-12.38A12.25,12.25,0,0,1,2334,138.91Z"/><path d="M1974.7,134.31a17.33,17.33,0,0,1-15.18,7,25.76,25.76,0,0,1-16.58-7.18c-5.56-5.08-9.9-11.22-14.35-17.25a2.85,2.85,0,0,1,0-3.92c4.53-6.61,7.7-14,10.82-21.28,5.54-13,12.33-24.84,27.1-29.28,2.48-.74,1.4-2.64,1.53-4.1.19-2.1-1.45-1.81-2.74-1.81-14.17,0-28.34,0-42.5-.05-2.28,0-2.68.92-2.78,3-.14,2.79,1.62,2.61,3.45,3,11.81,2.55,16,8.39,13.44,19.45a76,76,0,0,1-13,27.8c-11.59-16-22.68-31.59-34.13-46.91-2.84-3.79-3.17-5.34,1.55-7.7,8.8-4.4,17-9.86,22.77-18.2,7.26-10.54,5.06-22.9-5.35-30.26C1900.42.75,1891-.88,1881.15.42c-15.16,2-26.76,16.74-25.51,31.9.82,10,4.95,18.6,10.53,26.55,2.25,3.21,1.63,4.49-1.35,6.42a189.12,189.12,0,0,0-20.53,15.86c-15.56,13.52-14.8,34.18-9.19,46.13,7.5,16,25.84,26.29,42.81,24.43,13.82-1.51,24.76-8.34,34.13-18,2.87-3,4.19-3.72,7.25.07,8.22,10.19,18.69,16.83,32.15,18.06,14.12,1.29,27.24-7.4,30.23-20.3C1977.23,131.14,1977.21,131.13,1974.7,134.31ZM1886,5.5c11.06-.79,19.36,7.69,19.37,19.78,0,8.55-4.37,15-10.66,19.92-14.23,11.23-10.27,10.77-19.18-3.15A37.55,37.55,0,0,1,1870,28.31C1867.82,16,1874.62,6.31,1886,5.5Zm25.17,121.3c-5.75,7.66-18,14-28.3,14-14.2-.57-23.91-9-30.89-21.15-6.6-11.47-6.47-23,.83-34.33a56.57,56.57,0,0,1,16.52-16.35c1.85-1.24,2.83-1.44,4.3.53,13,17.42,25.38,35.32,37.4,53.44C1911.9,124.21,1912.41,125.14,1911.17,126.8Z"/><path d="M212.27,4.36c-13.58-3-27.41-3.13-41.24-2.74C157.88,2,144.74,2.55,131.59,3c-1.72.06-3.66-.49-3.59,2.57s2.09,2.33,3.77,2.46c.83.06,1.66,0,2.49.07,12.75.39,15.3,2.92,15.84,15.71,0,.67.06,1.33.06,2,0,32.95.13,65.91-.06,98.86-.09,15.42-3,18-18.53,18.51-1.71.05-3.64-.64-3.58,2.49s2,2.41,3.71,2.41c9.82,0,19.65,0,29.47,0h6c8.33,0,16.65,0,25,0,2.11,0,2.9-.58,2.91-2.81,0-2.44-1.49-2.13-3-2.15-1.67,0-3.33,0-5-.06-11.07-.35-14.82-3.77-15.09-14.67-.36-14.8-.23-29.62-.55-44.43-.07-3.52,1-4.49,4.47-4.45,11.64.12,23.31.33,34.89-1.37C225,76.16,235.2,69,240.27,55.34,249,31.72,237.07,9.9,212.27,4.36Zm7.56,43.54C217.52,64.24,208,72.83,191,74.13c-5.31.4-10.66.11-16,.44-3.09.19-3.53-1.19-3.51-3.81.12-10,0-20,0-30,0-9.83.11-19.66-.07-29.48-.05-3.07.63-4.44,4-4.56a89,89,0,0,1,21.37,1.33c12.92,2.65,20.28,10.48,22.53,23.42A52.61,52.61,0,0,1,219.83,47.9Z"/><path d="M717.25,144c-11.47-.88-18.78-8.23-25.69-16.39-10-11.78-17.89-25.31-30.79-35.37,3.71-.86,6.66-1.37,9.51-2.23,13.14-4,20.94-13.57,21.17-25.82.21-11.49-7.75-21.59-20.57-25.76a73.39,73.39,0,0,0-21.14-3.21c-14.5-.33-29,.27-43.44,1.07-1.45.08-4.07-1.31-4.1,1.91s2.58,1.91,4.06,2c10.77.47,12.81,2.34,12.85,13.11q.14,38.45,0,76.89c0,11.26-2.47,13.53-13.84,14-1.35.05-3.71-1.17-3.71,1.76,0,2.72,2.17,2,3.67,2q18.48.06,37,0c3.5,0,7-.05,10.49,0,1.61,0,2.45-.41,2.44-2.22s-1.24-1.61-2.37-1.62c-1.67,0-3.33,0-5-.06-8.94-.38-11.66-2.84-11.94-11.68-.31-10.14-.33-20.3-.24-30.45,0-2.44-1.65-6.14,1.28-7.15a10.46,10.46,0,0,1,10.34,2A45.28,45.28,0,0,1,653,103c5.57,7.24,11,14.59,16.47,21.93,5.26,7.08,10.43,14.23,16.92,20.28,1.31,1.22,2.45,2.75,4.54,2.75q13,0,26,0c1.3,0,2.25-.21,2.3-1.85S718.7,144.13,717.25,144ZM638.49,90.31c-2.55.09-3.06-.89-3-3.17.1-7.49,0-15,0-22.47,0-7.16.12-14.32-.07-21.47-.07-2.88.47-4.19,3.74-4.1,6.82.19,13.62,0,20.28,2.06A17,17,0,0,1,670.93,51.4a35.69,35.69,0,0,1,.63,25.36c-2.58,7.7-8.68,11-16.15,12.33C649.83,90.07,644.16,90.13,638.49,90.31Z"/><path d="M560.6,43.41c-11.91-7.22-25.05-9.6-38.8-8.93C488.71,36.07,466,59.24,465.89,91.36c-.05,19.39,6.29,33.7,20.19,45.25,9.65,8,21,12,33.33,13.18,35,3.25,63.94-16.51,67.26-50.07C589,76.45,582,56.39,560.6,43.41ZM564.17,119c-5.75,17.11-19,26.91-36.62,27-19.68.1-33.46-9.19-38.95-27.24a90,90,0,0,1,0-53.12c5.4-17.8,18.7-27.15,37.32-27.23,18.79-.08,32.25,9.44,38.18,27,3,8.77,3.8,17.86,4,27C567.83,101.41,567.06,110.33,564.17,119Z"/><path d="M2269,40.86c-12.58-6.2-26.06-7.79-39.9-5.68-23.1,3.5-40.59,15-47.23,38-6.93,24-2.93,46.26,17.24,63.42,9.56,8.13,21,12,33.33,13.18,39.45,3.63,68.32-21.66,67.77-57.51C2300.39,68.72,2290.21,51.3,2269,40.86Zm12.11,50.79c.08,9.87-.81,18.76-3.77,27.37-6,17.42-19.41,27.18-37.13,26.92-20.14-.3-33.5-9.64-38.9-28a92,92,0,0,1-.73-48.84c5.15-20.56,19.05-31,39.7-30.72,20,.29,34,12,38.66,32.33A84.17,84.17,0,0,1,2281.09,91.65Z"/><path d="M965.94,143.82c-6.64-.85-9.79-5.37-12.18-11.09q-19.69-47.08-39.65-94c-.65-1.55-.68-3.74-3.36-3.55-2.31.17-2.3,2.1-2.9,3.51q-8.91,20.84-17.74,41.69Q879.19,106,868.22,131.62c-2.52,5.86-6.12,10.7-13,11.94-1.4.25-2.45.8-2.31,2.6.18,2.51,2,1.77,3.33,1.78q13.25.08,26.49,0c1.32,0,3.18.77,3.55-1.57.45-2.81-1.8-2.14-3.23-2.48-7.51-1.8-10.08-6.09-8.23-13.65,1.69-7,4.88-13.4,7.25-20.12.95-2.68,2.42-3.41,5.15-3.38,11.66.15,23.32.17,35,0,2.88,0,4,1.09,5,3.58,3,7.73,6.29,15.36,9.38,23.06,3,7.48,1.48,9.87-6.66,10.63-.83.08-1.67,0-2.5.13-1.33.16-3.25-.58-3.08,2,.15,2.37,1.95,1.83,3.33,1.84,6.17,0,12.33,0,18.5,0,6.33,0,12.66,0,19,0,1.21,0,2.76.51,3-1.61C968.33,144.58,967.5,144,965.94,143.82Zm-78.15-41c-3.22,0-2-1.77-1.43-3.18,5.94-14.39,11.92-28.77,18.28-44.07l18.24,44c.36.88.61,1.81,1.09,3.27C911.61,102.81,899.7,102.77,887.79,102.83Z"/><path d="M1572.66,143.46c-6.21-.84-9.43-5-11.69-10.32q-20-47.52-40-95c-.65-1.54-.76-3.82-3.38-3.61-2.23.18-2.25,2.19-2.86,3.62-5.94,14.06-11.79,28.17-17.76,42.22q-10.8,25.44-21.73,50.81c-2.45,5.72-6,10.44-12.42,12-1.78.42-3.37.75-2.94,3s2.35,1.4,3.65,1.41c8.49.08,17,.1,25.49,0,1.41,0,3.62,1.15,4.1-1.4.56-3-2.12-2.39-3.64-2.79-6.9-1.82-9.62-6.16-7.91-13,1.76-7.12,5-13.72,7.44-20.59,1-2.68,2.4-3.38,5.13-3.35q17.25.24,34.49,0c2.93,0,4.45.8,5.51,3.6,2.59,6.83,5.58,13.5,8.32,20.27,4.52,11.21,3.87,12.26-8.14,13.6-1.39.15-3.3-.37-3.09,2.07s2.14,1.64,3.46,1.66c6,.07,12,0,18,0,6.49,0,13,0,19.49,0,1.24,0,2.76.45,2.89-1.7C1575.16,144.12,1574.1,143.65,1572.66,143.46ZM1492.33,102c6.3-15.37,12.56-30.61,19.15-46.68,6.64,16,12.93,31.12,19.4,46.68Z"/></g></g></svg>