<svg xmlns="http://www.w3.org/2000/svg" viewBox="0 0 600 195.59"><defs><style>.cls-1{fill:#ff2626;}</style></defs><g id="Ebene_2" data-name="Ebene 2"><g id="Ebene_2-2" data-name="Ebene 2"><path class="cls-1" d="M259.16,195.59a76.37,76.37,0,0,0-9.73-5.67c-10.55-5.06-21.6-8.17-33.38-8.12a39.39,39.39,0,0,0-11,1.2,27.47,27.47,0,0,0-15.9,12.13c-.12-.27-.18-.47-.28-.64-5.84-10.1-14.83-15.85-25.94-18.59-9.44-2.33-19-2.26-28.62-1.37-13.23,1.24-25.95,4.86-38.75,8.15-11.88,3-23.79,5.91-35.9,7.94-10.62,1.78-21.13,1.88-31.36-2-14.64-5.5-23.55-15.94-26.83-31.22-2.56-11.94-1.64-23.78,1-35.56C7.54,99.93,17.78,80.45,31,62.43a194.79,194.79,0,0,1,47.6-46.22C89.11,9.07,100.43,3.35,113.13,1c4-.76,8.18-1.42,12.2-.61,8.94,1.81,13.15,8.49,12.23,17.36-.7,6.69-3.91,12.35-8.08,17.46a10.65,10.65,0,0,1-8,4.09c-3.07.13-5-1.67-5.35-4.74-.46-4.62,1.53-8.29,4.43-11.65a11.31,11.31,0,0,1,8.73-4.16,1.46,1.46,0,0,0,1.5-1.17,6,6,0,0,0-5.3-8.28,18.49,18.49,0,0,0-7.44,1.07A71.29,71.29,0,0,0,92.83,25.87c-23.54,21.7-42.47,46.82-55.69,76.06a126.57,126.57,0,0,0-9.92,32.12c-1.52,9.45-1.48,18.89,2.15,28,3,7.6,8.87,12.12,16.1,15.32,7.74,3.42,15.84,4.25,24.16,3.48C82.8,179.66,95.48,176,108.3,173c13.86-3.22,27.54-7.13,41.47-10,13.3-2.76,26.71-4.36,40.33-3.78,16.55.69,31.72,5.45,45.22,15.23,6.76,4.89,13.5,9.79,19.47,15.63,1.45,1.41,2.75,3,4.1,4.46C259.1,194.8,259.47,195,259.16,195.59Z"/><path class="cls-1" d="M599.32,2.41a92.39,92.39,0,0,1-13.71,19.5C573.2,35.53,558.41,45.41,540.38,50a55.25,55.25,0,0,1-25.22.72c-1.67-.35-1.67-.37-.62-1.74,3.78-4.93,7.76-9.69,11.87-14.35a2,2,0,0,1,1.78-.85c17.68,1.64,33.26-4.3,47.94-13.37A125.87,125.87,0,0,0,598.94,2C599.26,2,599.45,2,599.32,2.41Z"/><path class="cls-1" d="M284.64,66.44c3.39-5.48,6.59-10.67,9.78-15.86a1.13,1.13,0,0,1,1.06-.67h17c.16.52-.16.77-.33,1q-4.47,7.28-9,14.54c-.28.46-.5.95-1.22.94C296.32,66.43,290.63,66.44,284.64,66.44Z"/><path class="cls-1" d="M599.32,2.41,598.94,2A1.57,1.57,0,0,1,600,1.09,2.33,2.33,0,0,1,599.32,2.41Z"/><path class="cls-1" d="M500.72,176.82c.09-.23.32-.56.47-.4.31.31.13.7-.14,1C501,177.23,501,176.93,500.72,176.82Z"/><path class="cls-1" d="M525.1,166.29c3.21-6.81,7.33-13.1,11.07-19.61,9.27-16.13,18.34-32.38,27.48-48.58.15-.27.52-.53.21-1-6,0-11.91,0-17.87,0a1.51,1.51,0,0,0-1.55.89c-.72,1.33-1.51,2.62-2.32,4-.51-.67-1-1.27-1.41-1.88-1.79-2.46-3.85-4.52-7.09-5a19.61,19.61,0,0,0-13,2.9,88.1,88.1,0,0,0-19.7,16.45c-9.21,10-16.8,21.18-24.12,32.57-4.26,6.62-8.33,13.36-13.39,19.43a32.69,32.69,0,0,1-7.17,6.92c-3.24,2.08-6.06.78-6.79-3a18.56,18.56,0,0,1,.46-7.35c2.26-10.83,6.4-21,11-31a3.76,3.76,0,0,1,1.42-1.51c28-19.71,51.15-44.3,71.71-71.47a25.32,25.32,0,0,0,3-4.7c-1.88.19-3.61.42-5.36.52a2.09,2.09,0,0,0-1.71,1c-13,17.43-27.81,33.2-43.6,48.09a135.6,135.6,0,0,1-16.4,13.66,6.72,6.72,0,0,1-2.62,1.36c.63-1.33,1.13-2.47,1.7-3.58a495.86,495.86,0,0,1,36.11-59.24A220.68,220.68,0,0,1,541,15.88a40.58,40.58,0,0,1,5.7-4.25A14.32,14.32,0,0,1,550.39,10c1.54-.41,2.44.29,2.46,1.9a15.86,15.86,0,0,1-1.34,6.63c-1.43,3.22-3,6.38-4.51,9.57-.18.37-.53.71-.37,1.31a19.61,19.61,0,0,1,2.69-.57,5.87,5.87,0,0,0,5.56-4.43c.38-1.14,1-2.18,1.5-3.3,1.82-4.35,2.83-8.83,2-13.57a5.71,5.71,0,0,0-5-4.91c-4.24-.7-8.1.58-11.82,2.38C533.9,8.64,527.38,13.88,521,19.4c-21.28,18.52-38.81,40.2-54,63.86a453.71,453.71,0,0,0-26.76,48.24,3.17,3.17,0,0,1-1.59,1.91,24.33,24.33,0,0,1-7.9,1.92c-1.57.08-1.63,0-1-1.42A100.48,100.48,0,0,0,435,121.18c1.82-5.63,2.86-11.37,1.65-17.26-1-5-4.2-8.81-10.22-9a20,20,0,0,0-7,.87c-7.46,2.46-13.87,6.7-19.73,11.83-9.75,8.53-17.47,18.76-24.28,29.66-5.69,9.09-10.24,18.76-12.58,29.31-1.15,5.21-1.75,10.47-.44,15.75,1.61,6.51,6.37,9.89,13,9.33a23.18,23.18,0,0,0,9-2.94c9.08-4.91,16.45-11.82,23-19.66a182.93,182.93,0,0,0,17.93-26.56,2.18,2.18,0,0,1,2-1.31,43.44,43.44,0,0,0,7.95-1c1.21-.3,1.25.11.89,1.12-.93,2.66-1.78,5.35-2.66,8-2.64,8-5.37,16.07-6,24.59-.33,4.2,0,8.28,2.25,12,3,5,7.9,6.87,13.52,5.2a24.9,24.9,0,0,0,6.77-3.31,66.88,66.88,0,0,0,12.42-11.28c1.19-1.34,2.34-2.71,3.7-4.3a34.34,34.34,0,0,0,0,10c1.09,6.34,5.2,9.67,11.63,9.46a16.45,16.45,0,0,0,7.28-2.34c6-3.22,10.94-7.74,15.68-12.52.48,0,.48,0,.33.62a22.32,22.32,0,0,0-.06,6.63c.66,4.13,2.92,6.84,6.44,7.48a12.56,12.56,0,0,0,7.68-1,59.8,59.8,0,0,0,17-11.67c10.92-10.78,19.84-23.11,27.94-36.07.13-.2.3-.42,0-.71-1.38,0-2.8.08-4.21,0a2.74,2.74,0,0,0-2.81,1.46,171.35,171.35,0,0,1-12.36,17.21,55.24,55.24,0,0,1-13.47,12.08c-1,.64-2.16,1-3.24.18s-.81-2-.42-3.06C524.06,168.7,524.55,167.48,525.1,166.29ZM419.57,140.87c-5.36,10.39-11.8,20-20.63,27.79a18.75,18.75,0,0,1-6,3.74c-4.6,1.68-8.12-.65-8.38-5.54-.24-4.35,1.05-8.38,2.62-12.33,4.1-10.34,10-19.68,16.63-28.53.06-.08.17-.11.34-.22,3.25,6.38,8.47,10.54,14.66,13.63C419.4,139.72,420.12,139.8,419.57,140.87Zm6.71-12.58c-.74,1.71-1.71,3.31-2.51,5a1.17,1.17,0,0,1-1.68.71c-10.48-3.72-15.39-15.25-7.34-24.42a24.88,24.88,0,0,1,6.54-5.1,8.88,8.88,0,0,1,5.57-1c1.66.19,2.54,1.34,3.2,2.7a11.26,11.26,0,0,1,.88,5.36C431,117.45,428.64,122.88,426.28,128.29Zm81.08,31.82c-2.68,3.78-5.29,7.63-9.07,10.49a11.6,11.6,0,0,1-4.16,2.38c-2.76.66-4.62-.81-4.58-2.65a33,33,0,0,1,3.53-14c7.86-16.15,17.49-31.1,30.17-43.94a47.59,47.59,0,0,1,6.78-5.81,9,9,0,0,1,4.74-1.81c2.75-.12,4.41,2.33,3,4.66C527.47,126.22,518.78,144,507.36,160.11Z"/><path class="cls-1" d="M241.79,118.34q19.29-33.41,38.57-66.81c.27-.48.77-.91.63-1.61-5.1,0-10.16.16-15.21-.07-2.51-.11-4.27.42-5.21,2.85-.1.25-.22.55-.61.61-2.66-4.09-6.34-6.25-11.33-5.84a20.3,20.3,0,0,0-6.26,1.67c-6,2.59-11.09,6.59-15.86,11-10.37,9.52-18.86,20.61-26.91,32.08-7.76,11-16.13,21.61-26.24,30.66a30.43,30.43,0,0,1-12,7.1c-5.89,1.65-10.21-1.33-11-7.41a23.27,23.27,0,0,1,1.39-10.84,131.25,131.25,0,0,1,12-25c6.16-9.93,13.43-18.93,22.59-26.3,2.48-2,5.2-3.5,8.49-3.56s5.1,2.3,4.4,5.5A1.78,1.78,0,0,1,197.4,64c-6.6.57-12.42,7.53-12.16,14.13a5.09,5.09,0,0,0,6.76,4.6,12.11,12.11,0,0,0,4.75-3.15,30.59,30.59,0,0,0,8.48-16.9c1.34-8.72-4.07-15-12.91-15.27-5.91-.19-11,2-15.87,5.12a98.7,98.7,0,0,0-18,15.49,74.11,74.11,0,0,1-17.36,13.82,16,16,0,0,1-5,2c-.43.08-1,.33-1.31,0s.1-.85.24-1.23c.51-1.37,1.12-2.7,1.63-4.07,2.2-5.93,4-11.93,3.79-18.38-.35-9-6.64-14.1-15.56-12.51-5.74,1-10.79,3.61-15.56,6.79C97.82,62.1,88.69,72.17,80.66,83.29c-7,9.73-12.56,20.2-15.61,31.86-1.6,6.1-2.41,12.28-1.06,18.56,1.76,8.15,7.89,12.11,16.06,10.38a31.33,31.33,0,0,0,10.71-4.79c9.76-6.4,17.54-14.87,24.69-23.94,5.38-6.83,9.55-14.47,14-21.9a4.85,4.85,0,0,1,3.66-2.65c2.32-.37,4.58-1,7.07-1.65-.37.7-.62,1.19-.88,1.67a147.87,147.87,0,0,0-9.05,19.44,34.43,34.43,0,0,0-.79,23.11,15.76,15.76,0,0,0,14.78,11.16c7.21.05,13.54-2.33,19.47-6.14a98.06,98.06,0,0,0,14.83-12.21c2.17-2.1,4.35-4.19,6.56-6.31.09.2.17.29.16.36-.07.39-.15.79-.25,1.18-1,4.1-2.09,8.2-1.87,12.51.28,5.55,3.39,9.41,8.62,10.37A15.76,15.76,0,0,0,201,143c6-2.57,10.77-6.7,15.21-11.3.58-.59,1.13-1.21,1.91-2-.11,2.19-.29,4-.27,5.8.05,5,3.62,9.74,10.14,8.86a18.3,18.3,0,0,0,5.48-1.67c4.95-2.33,9.11-5.78,13.15-9.37,11.9-10.6,21.24-23.33,30.17-36.4a2.37,2.37,0,0,0,.06-.47c-1.56,0-3,.1-4.48,0a2.86,2.86,0,0,0-2.84,1.46c-5.67,7.76-11.55,15.34-18.65,21.86a29.77,29.77,0,0,1-6.31,4.68c-1.12.58-2.38,1.28-3.53.33s-.85-2.37-.51-3.67A12.13,12.13,0,0,1,241.79,118.34ZM123.3,92.05c-5.87,9.83-11.72,19.68-20.29,27.53a34.27,34.27,0,0,1-6.2,4.56,8.9,8.9,0,0,1-4.5,1.1c-2.74,0-4.75-2.13-5.24-5.48-.11-.74-.11-1.5-.17-2.4a44.68,44.68,0,0,1,3.82-13.47c3.94-9.22,9.41-17.56,15.1-25.77.41-.59.66-.82,1.11,0,3.45,6.14,8.91,9.73,15.44,11.88C123.65,90.41,124,90.87,123.3,92.05Zm7.9-16.18c-.94,2.54-2.16,5-3.21,7.48a1.36,1.36,0,0,1-1.62,1,17.15,17.15,0,0,1-9.58-4.43,10,10,0,0,1-3.09-10.7,18,18,0,0,1,9.11-11.38c6.59-3.48,10.71-1.18,10.88,6.73A36.23,36.23,0,0,1,131.2,75.87Zm95.68,34.25c-3,4.78-6.36,9.36-10.91,12.87-1.11.86-2.31,1.63-3.5,2.38a3.68,3.68,0,0,1-4.14,0,3.56,3.56,0,0,1-1.62-3.8c.69-5,2.68-9.59,4.8-14.11,4.84-10.32,11.22-19.69,18.15-28.71,4-5.16,8-10.3,12.25-15.2a24.54,24.54,0,0,1,7.2-5.69,8.47,8.47,0,0,1,3.47-1,3.67,3.67,0,0,1,3.19,1.36,1.92,1.92,0,0,1,.18,2.36C246.45,77.19,237.16,94,226.88,110.12Z"/><path class="cls-1" d="M507.61,26.62C495.88,19.4,484,12.39,471.66,6.29a52.61,52.61,0,0,0-33.92-4.57c-4.63.88-9,2.59-13.43,4.12-.53.19-1,.5-1.63-.09C418.09,1.28,412.39.33,406.29.66,401,1,396.09,2.53,391.2,4.33,373.87,10.72,359,21,345.47,33.34A259.4,259.4,0,0,0,301.34,86.2c-8.92,14-16.47,28.65-21.64,44.47-2.94,9-5,18.07-4.61,27.59.3,7,1.72,13.82,5.45,19.91,5.65,9.24,13.8,14.06,24.82,13.51A40.18,40.18,0,0,0,324,186c14.58-8.62,25.92-20.5,34.91-34.69,6.67-10.54,12.23-21.58,14-34.16.72-5.21.71-10.36-1.36-15.33A10.92,10.92,0,0,0,360.61,95a29.53,29.53,0,0,0-10,2.39c-10.59,4.42-18.28,12.11-24,21.82a87.53,87.53,0,0,0-11.34,35.19c.11,0,.24,0,.3,0,.34-.3.67-.61,1-.93a77.31,77.31,0,0,1,22.77-17.07,1.89,1.89,0,0,0,1.1-1.61,52.19,52.19,0,0,1,9.67-21.78c2.29-3.06,4.77-5.92,8.38-7.47,5.1-2.2,8.46,0,8.76,5.47a37.57,37.57,0,0,1-1.7,12.69c-5,17.07-14.74,31.17-27.72,43.11a40.89,40.89,0,0,1-15,9.23c-8.55,2.76-16.36-.77-19.92-9A24.82,24.82,0,0,1,301,155.13a111.26,111.26,0,0,1,8.2-33.64c7.35-18.16,17.38-34.81,29-50.48,11-14.81,22.69-29.07,36.61-41.31a116.78,116.78,0,0,1,28.34-19c4.3-2,8.75-2.73,13.59-1a7.94,7.94,0,0,1-.66.49,107.34,107.34,0,0,0-19.62,15.38,86.89,86.89,0,0,0-21.45,33.11C373.6,62.79,373,67,374.25,71.3c1.67,5.7,6.37,8.33,12.1,6.78a36.29,36.29,0,0,0,16.4-9.92,87.33,87.33,0,0,0,20.15-31.3c2.57-7,4.32-14.07,4-21.56-.13-2.64-.11-2.73,2.46-3.23.2,0,.41-.05.6-.08,4.11-.59,8,.29,11.94,1.42,9,2.61,17.08,7.16,24.93,12.15,8.13,5.18,16,10.76,24.39,15.54,2.3,1.31,2.31,1.29,4.08-.71C499.34,35.8,503.56,31.32,508,27A2.4,2.4,0,0,0,507.61,26.62Zm-86.73-7.47C418.61,39,409.49,55,394,67.53a28.33,28.33,0,0,1-6.4,4c-4.6,2-8.34-.45-8.22-5.44a21.85,21.85,0,0,1,2.38-8.85c7.44-15.73,18.07-28.81,32.62-38.56a49,49,0,0,1,6.21-3.59A7.6,7.6,0,0,1,420.88,19.15Z"/></g></g></svg>