<svg xmlns="http://www.w3.org/2000/svg" viewBox="0 0 400 351.38"><defs><style>.cls-1{fill:#fcbe07;}</style></defs><g id="Ebene_2" data-name="Ebene 2"><g id="Ebene_2-2" data-name="Ebene 2"><path class="cls-1" d="M200.42,120c5.73-19.92,12.27-39.27,21.13-57.74,8.54-17.81,18.29-34.86,33.34-48.16,21.77-19.25,45.05-18.77,65.89,1.5,13.43,13.07,22.54,29.11,30.34,45.94,16.12,34.79,25.74,71.6,32.91,109.07,11.05,57.77,15.72,116.15,16,174.93,0,4.37-.76,6-5.57,5.85-12.93-.37-25.89-.2-38.83-.08-3.22,0-4.54-.72-4.51-4.31.28-27.62-.51-55.22-2.19-82.79-3.7-60.64-9.36-121-25.84-179.82a176.27,176.27,0,0,0-13.29-34.69c-3.06-5.83-6.56-11.35-11.56-15.76-6.95-6.11-14.29-6.18-21.45-.2-6.23,5.21-10.32,12-13.86,19.13-8.84,17.9-14.1,37-18.44,56.35-9.24,41.15-14,82.91-16.86,124.93-1.89,27.72-3.08,55.47-3,83.27,0,3.25-.73,4.49-4.27,4.44-13.46-.2-26.92-.15-40.39,0-2.94,0-4.23-.49-4.27-3.9-.32-31.75-1.24-63.49-3.91-95.14-4.25-50.39-10.07-100.52-25.9-148.89-3.93-12-8.67-23.65-16.44-33.78a40.28,40.28,0,0,0-5.62-6.05c-7.61-6.56-15.34-6.42-22.62.55-8,7.71-12.55,17.64-16.56,27.77-10.28,25.94-15.9,53.1-20.5,80.48-7.8,46.33-11.75,93-13.74,139.94-.9,21.22-1.31,42.43-1.49,63.66,0,3.94-1.18,4.94-5,4.88-13.11-.23-26.23-.15-39.35,0-3.11,0-4.62-.5-4.58-4.21.93-78,7.68-155.34,29.06-230.76,8.72-30.76,19.72-60.67,38.59-87A88.3,88.3,0,0,1,86.51,9.55c16.33-12.13,34-12.72,51-1.48,13.12,8.67,22.36,20.89,30.38,34.12,13.41,22.12,22.36,46.14,29.84,70.78C198.43,115.23,198.58,117.73,200.42,120Z"/></g></g></svg>