<svg xmlns="http://www.w3.org/2000/svg" viewBox="0 0 400 208.8"><defs><style>.cls-1{fill:#fb0000;}</style></defs><g id="Ebene_2" data-name="Ebene 2"><g id="Ebene_2-2" data-name="Ebene 2"><path class="cls-1" d="M398.43,4.59q-40.73.06-81.46,0c-1.06,0-1.53.23-1.79,1.33q-7.71,31.51-15.48,63L287,120.71a.9.9,0,0,1-.49-.78q-14-56.85-28-113.7c-.29-1.18-.65-1.66-2-1.65q-40,.07-80.05,0c-1.34,0-1.6.37-1.59,1.64,0,13,0,26,0,39a2.72,2.72,0,0,1-.17,1.58c-.07-.1-.11-.13-.12-.17l-.36-1.2a55.8,55.8,0,0,0-19.56-28.52A72.36,72.36,0,0,0,131.3,5.24,128.65,128.65,0,0,0,97.09.07C81.22-.41,65.73,1.57,50.91,7.49,39.79,11.93,30.05,18.37,22.42,27.73,12.71,39.65,8.65,53.59,7.8,68.68c-.08,1.49.4,1.66,1.7,1.66q25.55-.06,51.11,0c2.89,0,2.89,0,3.21-2.93,0-.21.06-.41.1-.62,1.49-9.05,6.86-15,15-18.77,6.56-3,13.46-3.25,20.47-2.34,4.21.55,8.24,1.69,11.65,4.3,5.3,4.06,7.32,9.58,6.47,16.07-.83,6.32-4.61,10.35-10.56,12.43a36.18,36.18,0,0,1-11.57,1.92q-10,.1-20,0c-1.27,0-1.68.28-1.67,1.62q.07,17.83,0,35.66c0,1.24.33,1.58,1.57,1.57,5.61,0,11.22,0,16.82,0a27.15,27.15,0,0,1,11.9,3.08c7.78,4,11.36,10.84,10.36,20.2-.94,8.73-5.54,14.7-13.88,17.67a32.24,32.24,0,0,1-17,1.17c-10.13-1.9-17.55-7.32-21.78-16.82a44.24,44.24,0,0,1-3.58-17.87c0-1-.12-1.47-1.34-1.47q-27.75.06-55.51,0c-1.09,0-1.27.35-1.25,1.34A105.46,105.46,0,0,0,4.36,155c4.59,14.8,12.58,27.29,25.06,36.7,10.32,7.77,22.06,12.31,34.66,14.63a148.06,148.06,0,0,0,52.23.23c12.9-2.21,25.1-6.47,36.09-13.75,9.87-6.55,17.67-14.87,22.12-26,0-.11.2-.17.45-.38v1.88c0,11.36,0,22.73,0,34.09,0,1.38.26,1.84,1.76,1.83q26.19-.09,52.37,0c1.54,0,1.85-.38,1.85-1.88q-.06-60.57,0-121.14V79.49a2,2,0,0,1,.54,1q3.16,12.85,6.32,25.73,11.83,48.18,23.64,96.37c.33,1.37.89,1.66,2.19,1.66q23.35-.06,46.71,0c1,0,1.63-.15,1.92-1.36Q326,146.53,340,90.23q1.31-5.26,2.62-10.53l.26,0v1.88q0,60.48,0,121c0,1.28.16,1.8,1.66,1.79q27-.09,53.94,0c1.21,0,1.58-.27,1.58-1.55q0-98.36,0-196.72C400,4.84,399.62,4.59,398.43,4.59ZM175,120.83c-5.32-10.21-12.06-18.43-22.75-23.08C164.27,92.93,171,83.68,175,72.08Z"/></g></g></svg>