<svg xmlns="http://www.w3.org/2000/svg" viewBox="0 0 600 175.6"><defs><style>.cls-1{fill:#00928c;}</style></defs><g id="Ebene_2" data-name="Ebene 2"><g id="Ebene_2-2" data-name="Ebene 2"><path d="M233.27,44c4.31,0,8.62.1,12.93.07a1.78,1.78,0,0,1,2,1.26q5.72,14.24,11.48,28.44,2.31,5.7,4.61,11.39c.07.17.25.28.47.52,1.15-2.5,2.29-4.91,3.39-7.34,1.18-2.61,2.31-5.24,3.48-7.85,1.25-2.79,2.5-5.58,3.78-8.35,1.07-2.34,2.15-4.68,3.2-7,1.47-3.28,3.09-6.5,4.38-9.85a5.6,5.6,0,0,1,.54-.86c.26-.49.72-.26,1.07-.26q13.08,0,26.17,0c.35,0,.81-.23,1,.29,0,.6-.09,1.2-.09,1.79q0,41.89,0,83.77c0,2,0,2-1.93,2-5.62,0-11.25,0-16.87,0-1.25,0-1.58-.29-1.58-1.56q.07-26.73,0-53.48A3,3,0,0,0,291,75l-27.27,57.45c-8.41-20.17-16.68-40-24.94-59.83l-.26,0v1.56q0,28,0,56.05c0,1.28-.23,1.69-1.62,1.67-6.07-.09-12.15,0-18.23,0-.36-.38-.2-.86-.2-1.29V45.44a2.26,2.26,0,0,1,.13-1.18v0c3.88-.28,7.76,0,11.64-.13A12.84,12.84,0,0,0,233.27,44Z"/><path class="cls-1" d="M178.24,86.86v4.93c-.29.61,0,1.28-.22,1.89a43.34,43.34,0,0,1-6.44,17.61,48.74,48.74,0,0,1-11.38,12.2,50.22,50.22,0,0,1-17.06,8.34,36.39,36.39,0,0,1-9.2,1.41c-2.59.24-2.59.24-2.94-2.49a43.85,43.85,0,0,0-3.7-15.26,43.41,43.41,0,0,0-13.8-17.15A44.32,44.32,0,0,0,93.26,90c-.41-.2-1-.22-1-.88a19.14,19.14,0,0,1,4.38-.89,43.71,43.71,0,0,0,35.2-35.89,46.24,46.24,0,0,0,.54-6.44,1.14,1.14,0,0,1,.19-.42.35.35,0,0,1,.42-.09l2,.08c.5.27,1.08,0,1.59.22a49.8,49.8,0,0,1,22.27,8.61c9.81,6.93,16.2,16.16,18.65,28,.18.87.3,1.76.44,2.64C178.26,85.57,178,86.25,178.24,86.86Z"/><path d="M546.05,44.3V82.19c1.3-1.7,2.38-3.11,3.45-4.53q7.69-10.18,15.39-20.39,4.4-5.85,8.76-11.71c.24-.31.52-.6.78-.9s.74-.23,1.11-.24q10.59,0,21.19,0c.42,0,1-.31,1.24.42-2.85,3.89-5.72,7.76-8.55,11.67-6.54,9-13,18.06-19.59,27.07a1.74,1.74,0,0,0,0,2.35q14.4,21.78,28.77,43.59c.35.53.5,1.21,1.1,1.56.22.21.26.41,0,.61a1.38,1.38,0,0,1-.87.11c-7.41,0-14.82.06-22.24,0-3.72-4.94-6.93-10.22-10.4-15.34-6.66-9.83-13.24-19.71-20.08-29.91v45.4c-.24.26-.55.19-.85.19H527c-.29,0-.61.07-.85-.18V44.29c.25-.23.56-.17.85-.17H545.2C545.5,44.12,545.81,44.06,546.05,44.3Z"/><path class="cls-1" d="M41.41,131.42c-9.57-.79-18.28-3.92-25.53-10.27C2.32,109.29-2.86,94.28,1.52,76.83,5.84,59.65,17.38,49,34.56,44.69a34.12,34.12,0,0,1,9.56-1l.16.17c.39,2.22.41,4.48.77,6.7A43.69,43.69,0,0,0,81.86,86.7c.7.1,1.56,0,1.78,1a3.92,3.92,0,0,1-2.15.57,42.48,42.48,0,0,0-26.25,13.12,43.1,43.1,0,0,0-11.67,23.81c-.31,2,0,4-.55,6A1.51,1.51,0,0,1,41.41,131.42Z"/><path d="M320.23,44.57c.35-.44.84-.24,1.26-.24,16.58,0,33.15,0,49.73,0,1.24,0,1.49.39,1.47,1.53q-.1,6,0,11.9c0,1.21-.33,1.53-1.53,1.53-9.59,0-19.19,0-28.78,0a2.89,2.89,0,0,0-1.62.16,1.26,1.26,0,0,0-.15.87q0,9.06,0,18.12a1.46,1.46,0,0,0,.13.87h0a3.46,3.46,0,0,0,1.63.13c9.13,0,18.27,0,27.4,0,1.21,0,1.64.26,1.62,1.55-.08,4.52,0,9-.05,13.55,0,.44.31,1-.31,1.33a9,9,0,0,0-1-.12H341.91c-.39,0-.81-.11-1.15.19q-.39,9.93,0,19.85h0a3.23,3.23,0,0,0,1.63.14c9.44,0,18.88,0,28.33,0,1.23,0,1.6.31,1.58,1.58-.08,4.36,0,8.73,0,13.1,0,.49.16,1-.17,1.46q-25.09,0-50.19,0c-.55,0-1.2.29-1.68-.28a4.14,4.14,0,0,1-.09-1.49q0-42.06,0-84.12A3.53,3.53,0,0,1,320.23,44.57Z"/><path d="M492.25,43.38h3.95c.82.3,1.7,0,2.53.21,5.43.59,10.8,1.47,15.72,4a7.23,7.23,0,0,1,3.25,2.51c-.35,2.24.07,4.52-.22,6.76q0,3.26-.08,6.51a52.11,52.11,0,0,0-.14,5.3c0,.42.32,1-.43,1.21-2.59-1.9-4.7-4.41-7.72-5.78a22.54,22.54,0,0,0-7.51-1.83c-.53-.24-1.12,0-1.65-.22a42.12,42.12,0,0,0-7.86,0c-.5.24-1.07-.06-1.57.23a27,27,0,0,0-23.77,25.84,12.25,12.25,0,0,0,0,3.87,24,24,0,0,0,4.3,13.21,31.3,31.3,0,0,0,16.75,13,11.5,11.5,0,0,0,4.49.82,23.26,23.26,0,0,0,5.34,0L499,119c.49-.26,1.07.06,1.56-.24a26.11,26.11,0,0,0,12.78-5.15c1.25-.9,2.25-2.07,3.44-3,.58,0,.44.45.44.76q0,9.52,0,19a.76.76,0,0,1-.17.4A50,50,0,0,1,502,135.33a45.71,45.71,0,0,1-6.62,0l-2.57-.08c-.52-.25-1.11,0-1.65-.22A55.83,55.83,0,0,1,477.33,132,48.08,48.08,0,0,1,457,119.05a42.25,42.25,0,0,1-8.86-15.69,35.29,35.29,0,0,1-1.64-8.77c-.2-.53,0-1.12-.21-1.65l-.09-2.57a17,17,0,0,1,0-3.91c0-.57,0-1.15.07-1.72.3-.6,0-1.29.24-1.89a36.13,36.13,0,0,1,4.18-13.28,45,45,0,0,1,10.12-12.63,56.83,56.83,0,0,1,11.48-7.77,56.19,56.19,0,0,1,18-5.56C490.93,43.37,491.62,43.66,492.25,43.38Z"/><path class="cls-1" d="M130.69,136.18A47.12,47.12,0,0,1,125.82,152a44.11,44.11,0,0,1-81.56-8.91,54.68,54.68,0,0,1-1.41-7.83c-.23-4.69-.5-4,3.52-4q41,0,81.95,0c.88,0,1.82-.24,2.6.42l0,2.59C130.63,134.88,130.91,135.56,130.69,136.18Z"/><path class="cls-1" d="M44.12,43.67A43.72,43.72,0,0,1,79.55.91c13.81-2.69,26.25.6,37.09,9.63,8.51,7.1,13.34,16.29,15.14,27.15.2,1.18.28,2.38.41,3.57a4.8,4.8,0,0,1-.07,2.41l0,0c-.82.69-1.81.5-2.75.5q-21.62,0-43.24,0-19.65,0-39.32,0c-.93,0-1.93.19-2.75-.5Z"/><path d="M218.65,44.26q0,42.87,0,85.74c0,.65,0,1.3.06,1.95-.58-.4-.35-1-.35-1.52q0-42.3,0-84.6C218.37,45.3,218.18,44.71,218.65,44.26Z"/><path d="M320.23,44.57c0,5.87,0,11.75,0,17.63V130c0,.55,0,1.1-.05,1.65-.43-.47-.24-1-.24-1.58q0-42,0-83.93C320,45.62,319.78,45,320.23,44.57Z"/><path d="M372.08,132c0-5.06,0-10.11.1-15.17,0-1.14-.71-.85-1.3-.86-5.66,0-11.33,0-17,0-3.91,0-7.82,0-11.73,0-.46,0-1,.23-1.41-.22,10,0,20,0,30,0,1.29,0,1.75.27,1.72,1.65-.09,4.41,0,8.83,0,13.25C372.41,131.05,372.59,131.59,372.08,132Z"/><path d="M371,95.78a2.79,2.79,0,0,0,.21-1.61c0-4.41,0-8.82,0-13.23,0-1.16-.26-1.5-1.46-1.49-9.17,0-18.35,0-27.52,0-.51,0-1.1.26-1.55-.22,9.78,0,19.57,0,29.35,0,1.13,0,1.46.33,1.44,1.45,0,4.62,0,9.23,0,13.85C371.5,95,371.69,95.54,371,95.78Z"/><path d="M419.74,44.21H386.59c.43-.4,1-.24,1.44-.24H418.3C418.79,44,419.31,43.81,419.74,44.21Z"/><path d="M311.79,44.42a6.68,6.68,0,0,0-1.16-.19H284.69a9.55,9.55,0,0,0-1.18.16c.28-.63.85-.42,1.31-.42H310.5C311,44,311.54,43.77,311.79,44.42Z"/><path d="M576.53,131.77c7.32,0,14.64,0,22,0,.4,0,1.33.52,1.18-.65.47.33.46.66-.09.83a3.27,3.27,0,0,1-1,.05H577.84A1.93,1.93,0,0,1,576.53,131.77Z"/><path d="M598,44.85c-.19-.64-.73-.4-1.13-.4q-10.62,0-21.24,0a6.85,6.85,0,0,0-1.17.21c.31-.6.87-.39,1.34-.39,7.05,0,14.1,0,21.16,0C597.26,44.29,598.17,43.7,598,44.85Z"/><path d="M517.09,130.75q0-9.63,0-19.26c0-.33.09-.71-.3-.94,1-.29.58.54.58.84,0,2.6,0,5.2,0,7.8,0,3.34,0,6.69,0,10C517.41,129.74,517.64,130.34,517.09,130.75Z"/><path d="M526.18,131.93h19.87c-.3.49-.79.35-1.22.35H527.41C527,132.27,526.49,132.4,526.18,131.93Z"/><path d="M546.05,44.3H526.18c.31-.46.8-.33,1.23-.33h17.41C545.26,44,545.74,43.83,546.05,44.3Z"/><path d="M340.74,79.25c-.26-.24-.18-.56-.18-.85V60.22c0-.28-.1-.61.2-.83Z"/><path d="M340.76,115.7c-.28-.23-.2-.55-.2-.83V96.68c0-.28-.1-.61.2-.83Z"/><path d="M233.27,44c-3,.33-6.06.06-9.09.14-1.84,0-3.68.07-5.52.11.3-.36.72-.28,1.12-.28Z"/><path d="M516.83,69.93c.63-1.09.21-2.29.35-3.43a17.67,17.67,0,0,1,.22-3.08c0,1.88,0,3.76,0,5.64C517.4,69.39,517.8,70.17,516.83,69.93Z"/><path d="M495.42,135.34H502A18,18,0,0,1,495.42,135.34Z"/><path d="M517.48,56.91a43.66,43.66,0,0,1,.22-6.76C517.61,52.4,518,54.67,517.48,56.91Z"/><path d="M497.63,119a13.16,13.16,0,0,1-5.34,0Z"/><path d="M446.23,86.46c0,1.31,0,2.61,0,3.91A6.44,6.44,0,0,1,446.23,86.46Z"/><path d="M466.75,92a8.3,8.3,0,0,1,0-3.87Z"/><path d="M498.73,43.6a7.68,7.68,0,0,1-2.53-.21C497,43.44,497.92,43.11,498.73,43.6Z"/><path d="M132.12,43.67l.07-2.41c.5.73.14,1.56.25,2.34Z"/><path d="M444.74,68.51a6.05,6.05,0,0,1-.23-2.24C445,67,444.68,67.76,444.74,68.51Z"/><path d="M446.54,82.85a3.94,3.94,0,0,1-.24,1.89C446.35,84.1,446.06,83.43,446.54,82.85Z"/><path d="M444.53,72.59a4.5,4.5,0,0,1,.21-2C444.69,71.28,445,72,444.53,72.59Z"/><path d="M177.41,91.87a3.93,3.93,0,0,1,.22-1.89C177.59,90.62,177.87,91.29,177.41,91.87Z"/><path d="M429.7,94.57c-.22-.19-.51-.49-.32-.69s.6-.1.91-.13C430.08,94,429.65,94.12,429.7,94.57Z"/><path d="M177.63,85.05a3.84,3.84,0,0,1-.22-1.9C177.88,83.74,177.59,84.42,177.63,85.05Z"/><path d="M492.25,43.38a4.19,4.19,0,0,1-1.95.23C490.9,43.13,491.6,43.44,492.25,43.38Z"/><path d="M130.69,136.18a3.93,3.93,0,0,1,.21-1.92C130.86,134.9,131.15,135.58,130.69,136.18Z"/><path d="M446.31,92.94a3,3,0,0,1,.21,1.65C446.09,94.09,446.34,93.5,446.31,92.94Z"/><path d="M500,62.1a2.76,2.76,0,0,1,1.65.22C501.05,62.28,500.45,62.53,500,62.1Z"/><path d="M490.52,62.32a2.66,2.66,0,0,1,1.57-.23C491.62,62.52,491.05,62.29,490.52,62.32Z"/><path d="M500.6,118.73A2.7,2.7,0,0,1,499,119C499.51,118.53,500.07,118.77,500.6,118.73Z"/><path d="M136.05,43.9a3.08,3.08,0,0,1-1.59-.21C135,43.71,135.57,43.48,136.05,43.9Z"/><path d="M491.2,135a3.2,3.2,0,0,1,1.65.22C492.3,135.22,491.71,135.47,491.2,135Z"/><path d="M454,130.5q-5.4-7.95-10.79-15.91l-13.49-20c-.48-.75.25-.65.59-.82,3.8-.8,6.5-3.1,8.76-6.15,3.33-4.48,4.74-9.61,5.48-15,.21-.64-.06-1.33.21-2a5.6,5.6,0,0,1,0-2.12c-.3-.73,0-1.52-.23-2.24s-.34-1.34-.49-2c-2.41-10.67-14.13-19.72-24.28-20.05a2.61,2.61,0,0,0-1-.09H387.63a2.61,2.61,0,0,0-1,.09c-1.5,0-3,.11-4.51,0-1.08-.06-1.46.18-1.46,1.37q.06,42.5,0,85c0,1,.25,1.34,1.32,1.33,5.62-.05,11.25-.07,16.88,0,1.41,0,1.87-.32,1.86-1.81-.06-14.12,0-28.23,0-42.34v-2c.42.48.59.63.72.82,2.34,3.5,4.66,7,7,10.51q6.65,9.72,13.35,19.4c3.34,4.84,6.7,9.68,10,14.56a1.59,1.59,0,0,0,1.53.81c5.27,0,10.55,0,15.82,0h5.56A2.87,2.87,0,0,0,454,130.5ZM413.46,82.81c-3.94.39-7.92.38-11.88.6-.92.06-.93-.42-.93-1.09,0-3.77,0-7.53,0-11.3s0-7.43,0-11.15c0-.51-.19-1.14.74-1.13,4.12.06,8.27-.22,12.35.19,6,.61,10.48,6.26,10.35,12.47A12,12,0,0,1,413.46,82.81Z"/><path class="cls-1" d="M92.66,87.91c-.66,0-1.34.11-1.8-.54l.92,0Z"/><path class="cls-1" d="M89.63,87.66c-1.4-.16-2.85.35-4.21-.3C86.82,87.51,88.26,87,89.63,87.66Z"/></g></g></svg>