<svg xmlns="http://www.w3.org/2000/svg" viewBox="0 0 600 133.32"><defs><style>.cls-1{fill:#e75228;}.cls-2{fill:#80b626;}.cls-3{fill:#309dd7;}.cls-4{fill:#f7b418;}</style></defs><g id="Ebene_2" data-name="Ebene 2"><g id="Ebene_2-2" data-name="Ebene 2"><path class="cls-1" d="M31.88,64.08c-9.52,0-19-.09-28.56,0C.68,64.17,0,63.34,0,60.78Q.16,32.12,0,3.46C0,.58,1,0,3.63,0Q32.19.16,60.74,0c2.81,0,3.58.84,3.56,3.57q-.15,28.46,0,56.92c0,3.09-1,3.7-3.89,3.65C50.92,64,41.4,64.08,31.88,64.08Z"/><path class="cls-2" d="M101.19.06c9.52,0,19,.07,28.56,0,2.47,0,3.47.53,3.46,3.26q-.18,28.86,0,57.73c0,2.42-.74,3.14-3.16,3.13q-29-.13-57.92,0c-2.58,0-3-1-3-3.25q.11-28.86,0-57.73C69.06.74,69.8,0,72.22,0,81.88.13,91.53.06,101.19.06Z"/><path class="cls-3" d="M32.4,133.24c-9.65,0-19.32-.08-29,0-2.56,0-3.42-.7-3.4-3.33q.14-28.68,0-57.37c0-2.36.62-3.2,3.11-3.19q29,.13,58,0c2.38,0,3.23.64,3.22,3.11q-.12,28.88,0,57.76c0,2.62-1.13,3-3.35,3C51.46,133.19,41.93,133.24,32.4,133.24Z"/><path class="cls-4" d="M133.13,101.72c0,9.24-.09,18.48.06,27.71.05,2.79-.51,3.92-3.66,3.89q-28.38-.23-56.79,0c-3.11,0-3.69-1-3.67-3.86q.17-28.11,0-56.21c0-2.79.5-3.91,3.65-3.88q28.4.22,56.79,0c3.1,0,3.73,1,3.68,3.86C133,82.72,133.13,92.22,133.13,101.72Z"/><path d="M217.25,42.91Q206.17,70.8,195.09,98.69c-1.38,3.49-4.32,1.38-6.52,1.88-1.93.44-3.09-.4-3.87-2.35-7.16-18-14.42-35.92-21.65-53.87-2.22.52-1.11,2.3-1.11,3.42-.09,16.17-.05,32.34-.08,48.51,0,1.41.43,2.89-.42,4.23-11.05.44-11.05.44-11.05-10.48,0-19.64.07-39.29-.07-58.93,0-3.29.5-4.88,4.25-4.48,4.32.47,9.52-1.51,12.82.71S171.08,35,172.67,39c5.68,14.34,11.27,28.71,16.9,43.07a12.74,12.74,0,0,0,.82,1.46c7.13-17.62,14.28-35,21.14-52.53,1.33-3.4,3-4.77,6.63-4.36a64.53,64.53,0,0,0,9.12,0c1.94-.06,2.87.46,2.87,2.63q-.09,34.41,0,68.83c0,.52.09,1.34-.19,1.52-3.23,2.1-6.84.62-10.28.9-2.38.18-1.73-1.87-1.73-3.16q0-25.32.11-50.63c.34-1.38.66-2.77-.15-4.11-.28-.45-.74-.38-.36,0Z"/><path d="M537.16,78.78c0-6.07-.15-12.14.07-18.2.1-2.88-.94-3.64-3.64-3.5-1.75.09-4.25,1-5.2-.65-1.21-2.14-.5-4.89-.33-7.37.11-1.67,1.66-1.32,2.8-1.38,6.3-.33,6.65-.35,6.23-6.25-1-14.28,9.72-21.17,21.84-20.17,3.17.26,5.07,1,4.51,4.67a18.29,18.29,0,0,0,0,3.55c.07,1.65-.28,2.23-2.26,1.89-9.45-1.64-15.16,5.64-12,15,.41,1.21,1.19,1.23,2.11,1.25a30.51,30.51,0,0,0,5.15,0c4.08-.63,4.92,1,5.11,4.94.22,4.69-2,4.7-5.4,4.62-7-.15-7,0-7,6.72,0,11.08-.09,22.16.06,33.24,0,2.8-.81,3.54-3.57,3.52-8.5,0-8.5.07-8.5-8.44Z"/><path d="M423.13,88a24.44,24.44,0,0,0,18.13,4.65c3.25-.4,6.43-1.18,7.09-5.1s-2-5.8-5-7.16c-4-1.79-8.11-3.2-12.05-5.07-5.64-2.69-8.66-7.18-8.43-13.57.22-6.11,3.7-10,8.94-12.49,7.67-3.61,15.62-3.36,23.66-1.3a2.61,2.61,0,0,1,2.27,3.11c-.08.92,0,1.85,0,2.77,0,4.86,0,4.81-4.57,3.11-4.31-1.6-8.72-2.2-13.21-.78-2.69.85-4.87,2.35-5,5.42-.16,2.87,1.68,4.62,4.11,5.73C444,69.6,449.3,70.91,453.86,74c9.12,6.08,9,18.17-.2,24.07-4.38,2.81-9.33,3.6-14.38,3.89a28.71,28.71,0,0,1-5.93-.3C420.54,99.63,422.76,100.27,423.13,88Z"/><path d="M587.26,72.84c0,4-.09,7.92,0,11.88.18,6,3.68,8.82,9.43,7.16,2.71-.78,3.3-.43,3.27,2.36-.07,6.59,0,6.66-6.61,7.5-11.9,1.53-18.14-3.89-18.19-15.86,0-8.18-.15-16.36.06-24.53.08-3.19-.7-4.65-4.14-4.27-1.47.16-3.83.87-4.39-.68a12.75,12.75,0,0,1-.05-7.78c.51-1.72,2.57-1,3.87-.88,3.44.32,4.9-.55,4.74-4.44-.32-7.85,0-7.71,7.65-10.07,3.45-1.06,5-.63,4.32,3.25a1.78,1.78,0,0,0,0,.4c.17,3.4-1.35,7.63.6,10s6.22.65,9.46.76c2.16.07,2.77,1,2.63,2.92a19.13,19.13,0,0,0,0,3.55c.3,2.5-.82,3.14-3.18,3.12-3,0-6.88-1.35-8.8.57-2.09,2.08-.5,6-.7,9.13-.12,2,0,4,0,5.93Z"/><path d="M312.62,88.4c0,2.9-.05,5.61,0,8.32,0,1.71-1.15,2.2-2.36,2.77-9.75,4.57-23.34,2.75-31-4.17-7.79-7.07-10.29-20-6.09-31.56,3.69-10.09,12.78-16.58,24-17.11a42.19,42.19,0,0,1,11.42.89c2.8.63,4.51,1.78,4.1,5.05a62.63,62.63,0,0,0-.05,7.33c-6.06-3.54-12-5.06-18.38-2.59a16,16,0,0,0-8,6.82c-4.15,6.78-3.42,17.55,1.53,23.06C293.24,93.25,301.17,93.7,312.62,88.4Z"/><path d="M337.31,56.65c1.26-1.88,2.16-4.08,3.84-5.74a13.79,13.79,0,0,1,7.6-4c5.16-.85,6.59.37,6.59,5.55V58.4c-12.25-1.86-17.5,2.08-18.46,14.43-.62,8-.41,16.07-.28,24.11,0,3-.84,3.78-3.79,3.74-8.31-.11-8.32,0-8.32-8.25,0-13.58.08-27.16-.05-40.74,0-3,.58-4.18,3.9-4.1,7.84.17,7.85,0,8.19,7.64C336.56,55.73,336.42,56.3,337.31,56.65Z"/><path d="M247.11,74.05c0-7.64.12-15.28-.06-22.91-.06-2.82.89-3.54,3.61-3.53,8.48,0,8.48-.08,8.48,8.47,0,13.57-.07,27.13.05,40.7,0,2.72-.38,4-3.59,3.91-8.48-.12-8.49,0-8.49-8.46Z"/><path d="M253.09,36.64c-4.14,0-7.28-3-7.19-6.82a7.29,7.29,0,0,1,14.56.14C260.46,33.69,257.17,36.66,253.09,36.64Z"/><path d="M387.68,46.59c-17.56,0-28.27,10.64-28.28,28.12,0,16.46,10.65,27.25,26.94,27.27C403.09,102,414,91,414,74,414.06,56.76,404.29,46.6,387.68,46.59ZM401.07,80.2c-1.59,7.85-6.38,12-13.87,12.2-7.11.18-12.74-4.17-14.65-11.51a26.09,26.09,0,0,1,0-12.93c2-8,7.57-12.18,15.54-11.78,7.11.36,11.88,5,13.16,13,.27,1.68.26,3.41.41,5.47A52,52,0,0,1,401.07,80.2Z"/><path d="M496.6,46.59c-17.46,0-28.35,10.86-28.26,28.18.08,16.47,10.74,27.19,27,27.21,16.74,0,27.59-11,27.58-28C523,56.61,513.29,46.59,496.6,46.59Zm13,35.64c-2,6.31-6.18,9.69-12.7,10.15a14.09,14.09,0,0,1-14.32-8.61,24.07,24.07,0,0,1,.17-19.26c2.6-6.06,8.29-9,15.23-8.27,6.23.64,10.7,5,12.07,11.87a44.52,44.52,0,0,1,.53,5.44C510.41,77,510.37,79.67,509.56,82.23Z"/></g></g></svg>