<svg xmlns="http://www.w3.org/2000/svg" viewBox="0 0 600 213.3"><g id="Ebene_2" data-name="Ebene 2"><g id="Ebene_2-2" data-name="Ebene 2"><path d="M86.18.29C84.73,2.87,83.24,5.42,81.85,8c-7,13.16-12.66,26.84-15.71,41.49-2.51,12.1-3.34,24.27.31,36.25,5.78,18.93,18.53,30.79,37.71,35.67,9.83,2.51,19.84,2.67,29.91,2.1,16-.91,31.31-5.07,46.67-9.17Q227.14,102,273.56,89.77l83.7-22.21L473.08,36.82l92.81-24.64,32.89-8.74c.35-.09.71-.13,1.22-.23-.32.8-1,.83-1.45,1Q499.69,46.53,400.81,88.77q-92.43,39.49-184.86,79c-20.6,8.8-41.12,17.8-61.88,26.23a283.87,283.87,0,0,1-54.19,16.41c-12.1,2.28-24.3,3.54-36.64,2.65-13.73-1-26.78-4.32-38.07-12.53C11.85,190.77,3.37,177.9.86,161.39c-2-13.5-.25-26.68,3.39-39.68C9.41,103.29,17.91,86.42,28.3,70.46c11.32-17.39,24.48-33.37,38.18-48.9C72.52,14.72,78.7,8,84.81,1.22c.35-.39.67-.81,1-1.22Z"/></g></g></svg>