<svg xmlns="http://www.w3.org/2000/svg" viewBox="0 0 600 260.75"><defs><style>.cls-1{fill:#175ea8;}.cls-2{fill:#175fa8;}</style></defs><g id="Ebene_2" data-name="Ebene 2"><g id="Ebene_2-2" data-name="Ebene 2"><path class="cls-1" d="M493.5,126.05H593l-3.31,1.47a32.83,32.83,0,0,0-18.92,21.3c-9.35,30.18-18.9,60.31-28.37,90.46a2.81,2.81,0,0,1-1.54,1.92,198.66,198.66,0,0,1-56.8,17.63A151.37,151.37,0,0,1,453,260.39c-18.7-1-36.55-5.34-52.93-14.67-12.36-7-20.82-17.68-26.7-30.47a102.45,102.45,0,0,1-9-36.32c-2.52-37.8,6.48-72.82,26.12-105.1,9.56-15.73,22.34-28.64,36.8-39.9A157.71,157.71,0,0,1,497.07,3,192.7,192.7,0,0,1,548.5.79a241.28,241.28,0,0,1,50.35,10c1.16.36,1.35.72,1,1.89q-5,15.41-9.72,30.87c-.43,1.37-.76,1.41-1.83.51C578,35.49,566.8,28.57,553.94,24.54c-22.92-7.2-43.65-2.45-62.59,11.67-11.68,8.72-21,19.65-29,31.7-12.78,19.15-21.82,40-28.09,62.1a295.39,295.39,0,0,0-8.82,39.51c-1.46,10.48-2.19,21-1,31.56,1,8.79,3.17,17.22,8.3,24.62,5.76,8.31,13.87,12.83,23.72,14.42a54.5,54.5,0,0,0,19.1-.51,1.94,1.94,0,0,0,1.72-1.59q9.38-30,18.8-60c2.95-9.42,5.78-18.88,8.91-28.24,3.49-10.41-.78-18.55-9.82-22.89Z"/><path class="cls-1" d="M260.92,47.31c-2.38-14.52-10.16-25.39-22.62-32.95-13-7.88-27.38-11.18-42.39-11.26C157.21,2.89,118.51,3,79.8,3c-.23,0-.51-.12-.74.24a19.63,19.63,0,0,1,5,5.27c2.81,4.68,2.5,9.57,1,14.53q-33.34,106.52-66.66,213A34.59,34.59,0,0,1,8,251.73a29.31,29.31,0,0,1-8,5.19H91.88c-.17-.18-.25-.32-.37-.38-7.71-3.82-10.7-10.83-8.1-19.05q2.22-7,4.43-14.05,9.55-30.45,19.1-60.89c.3-1,.62-1.37,1.77-1.23,2.79.34,5.61.53,8.42.67a206.11,206.11,0,0,0,39.41-1.79,153.28,153.28,0,0,0,44.08-12.69c14.48-6.81,27.1-16.07,37.28-28.51,11.12-13.58,17.95-29.22,21.83-46.21A65.86,65.86,0,0,0,260.92,47.31ZM191.83,71.57c-3.05,13.16-7.34,25.88-14.17,37.62-6.5,11.18-14.85,20.6-26.43,26.76a55.39,55.39,0,0,1-36.3,5.84c-1.27-.21-1.29-.63-1-1.69q18.25-58,36.43-116a1.63,1.63,0,0,1,1.91-1.4c2.51.09,5,0,8.59,0a53.16,53.16,0,0,1,13.32,1.06c11.19,2.7,17.89,10.22,19.49,21.63C195,54.26,193.83,63,191.83,71.57Z"/><path class="cls-2" d="M389.67,256.55c-11.62-4.05-22.37-9.87-32.72-16.43-9.36-5.93-18.34-12.38-26.11-20.38-1.63-1.68-1.66-1.74-.08-3.38,12.51-13,20.2-28.32,21.84-46.46.18-2.08.26-2.07-1.83-2.07H320.53c4.7,4.4,6.22,7.45,6,12.11a41.15,41.15,0,0,1-7.19,21.25c-.34.49-.6,1.07-1.2,1.34-.1-.13-.21-.25-.29-.38-1.63-2.48-3.28-5-4.88-7.45C304.09,181,297.61,166.26,295.07,150c-.16-1,.19-1.33.95-1.69,4.22-2,8.41-4,12.62-6,10.52-5,20.78-10.41,29.77-17.94,7-5.9,13-12.66,16.26-21.42,4.47-11.91,1.64-24-7.81-32.47-7.55-6.77-16.69-9.63-26.64-9.9-14.41-.39-27.21,4.31-38.4,13.21-8.4,6.69-13.71,15.67-17.35,25.64a103.71,103.71,0,0,0-5.91,41.06c.09,1.74-.28,2.58-2,3.17-6,2-11.89,4.12-17.75,6.4-12.1,4.71-23.45,10.71-33.08,19.63C191.57,182.79,185.56,199.06,188,218c2.58,19.88,14.08,33,33,39.27,15.57,5.12,31.29,4.26,46.82-.75a134.73,134.73,0,0,0,35-17.53c1.38-1,2.14-.88,3.26.27,1.68,1.72,3.5,3.3,5.31,4.89,4.73,4.17,9.44,8.36,14.79,11.74A6.65,6.65,0,0,0,330,257c11.48-.05,23,0,34.45,0h25.78A3.93,3.93,0,0,0,389.67,256.55ZM290.5,224.43c-10.66,5.7-21.75,10-34,10.69h-.77c-7.66-.17-14.84-1.85-20.88-6.87-5.47-4.53-8-10.57-8.9-17.48-1.57-12.37,3.43-22.28,11.65-30.92a77,77,0,0,1,23.2-16.41c.92-.43,1.22-.37,1.51.69a182.16,182.16,0,0,0,28.25,58.92C290.92,223.52,291.46,223.91,290.5,224.43Zm1.35-93.36c-1.14-13.8.11-27.11,6.39-39.6,2.8-5.55,6.35-10.54,11.61-14.06,3.33-2.22,6.92-3.52,11-2.77,4.35.8,6.89,3.66,7.25,8.09.44,5.25-1.09,10-3.34,14.63-4.11,8.41-10.11,15.37-16.85,21.75a84.51,84.51,0,0,1-14,11A5.35,5.35,0,0,1,291.85,131.07Z"/></g></g></svg>