<svg xmlns="http://www.w3.org/2000/svg" viewBox="0 0 600 121.66"><defs><style>.cls-1{fill:#e11e26;}</style></defs><g id="Ebene_2" data-name="Ebene 2"><g id="Ebene_2-2" data-name="Ebene 2"><path class="cls-1" d="M529.62,0A78.21,78.21,0,0,1,556.8,4.44,74.24,74.24,0,0,1,577.51,16,75.91,75.91,0,0,1,587,24.69a75.13,75.13,0,0,1,12.84,19.7c.22.48.36.89-.07,1.25s-.73-.09-1.09-.28a41.11,41.11,0,0,0-11.55-3.94A43.36,43.36,0,0,0,576,40.67a42.78,42.78,0,0,0-15.45,3.51,37,37,0,0,0-5,2.81,1.08,1.08,0,0,1-1.46,0,33.81,33.81,0,0,0-13.66-5.58,45,45,0,0,0-12-.79,43.72,43.72,0,0,0-16.42,4.14,23.79,23.79,0,0,0-3.4,2.11,1.21,1.21,0,0,1-1.67,0,36.67,36.67,0,0,0-14.47-5.58,48.51,48.51,0,0,0-11-.69c-6.26.42-12.33,1.71-17.85,4.9-.34.2-.61.3-.91,0s-.17-.57,0-.92A56.72,56.72,0,0,1,467,36.24a74.77,74.77,0,0,1,25.76-25.66,73.07,73.07,0,0,1,14.87-6.77,72.34,72.34,0,0,1,13.27-3A79.23,79.23,0,0,1,529.62,0Z"/><path d="M243.62,109.29h1.65c8.31,0,16.63,0,24.94,0,1,0,1.27.21,1.18,1.19-.21,2.17-.41,4.34-.76,6.49-.16,1-.11,2-.23,3s-.41.91-1.08.91q-19.29,0-38.57,0c-1,0-1.14-.36-1-1.17.44-3.49.89-7,1.28-10.48.3-2.72.49-5.44.79-8.16s.76-5.31,1-8c.15-1.81.35-3.61.56-5.4.35-2.91.58-5.84,1-8.75.24-1.74.37-3.51.57-5.26.32-2.88.61-5.75,1-8.62.22-1.75.37-3.51.56-5.27s.36-3.68.51-5.53c0-.37.13-.54.52-.52s.51,0,.77,0h37.28c1.42,0,1.44.13,1.21,1.5a53.15,53.15,0,0,0-.66,5.62,27.59,27.59,0,0,0-.32,3.28c.05.81-.56.92-1.29.92-7.88,0-15.77,0-23.65,0-2.05,0-2.17,0-2.26,2-.12,2.82-.68,5.59-.82,8.41-.06,1.42-.3,2.84-.5,4.25-.13.89.27,1,1.06,1,6.47,0,12.94,0,19.41,0,.87,0,1.17,0,1,1.12-.48,2.68-.61,5.43-.83,8.15a14.3,14.3,0,0,0-.31,1.87c0,.81-.7.42-1.07.42-6.42,0-12.85,0-19.28,0-1.2,0-1.42.36-1.52,1.52-.25,2.75-.57,5.49-.92,8.23-.23,1.83-.45,3.68-.57,5.53A2.19,2.19,0,0,1,243.62,109.29Z"/><path d="M347.54,109.27H375.4c-.23,2.4-.43,4.71-.66,7-.15,1.37-.36,2.74-.51,4.11-.08.76-.63.43-1,.43-3.21,0-6.43,0-9.64,0H334.83c-1.32,0-1.38-.19-1.18-1.45.31-1.9.49-3.83.72-5.74.35-2.91.59-5.83,1-8.74.24-1.79.37-3.6.58-5.4.33-2.83.54-5.67,1-8.48.3-1.87.34-3.77.55-5.65.33-2.83.61-5.67,1-8.5.23-1.78.38-3.59.58-5.39.31-2.91.75-5.82,1-8.74.14-1.85.45-3.68.54-5.53a17.85,17.85,0,0,0,.28-3c-.08-.66.48-.45.81-.46H379.4c1.35,0,1.41.17,1.21,1.43-.31,1.94-.54,3.9-.71,5.86a27.54,27.54,0,0,0-.31,3.15c0,.82-.63.88-1.33.88-8.09,0-16.19,0-24.29,0-1,0-1.31.08-1.4,1.24-.27,3.41-.87,6.81-1.18,10.22-.1,1.09-.31,2.17-.33,3.28,0,.79.2,1,1,1,6.34,0,12.68,0,19,0,.93,0,1.76-.33,1.44,1.41-.57,3.08-.68,6.25-1.07,9.37-.11.87-.47.79-1,.79-6.47,0-12.94,0-19.41,0-1.09,0-1.41.26-1.5,1.41-.22,2.79-.59,5.58-.92,8.36-.22,1.92-.51,3.84-.56,5.78A1.92,1.92,0,0,1,347.54,109.27Z"/><path d="M462.68,121.63a84.4,84.4,0,0,1-10.54-.56c-2.56-.22-5.09-.88-7.65-1.2-.78-.1-.94-.35-.83-1,.29-1.77.66-3.53.83-5.32.13-1.41.53-2.78.68-4.19.09-.79.5-1,1.1-.84,3.31.77,6.69,1,10,1.47a26.91,26.91,0,0,0,3.92.31,73.71,73.71,0,0,0,7.58,0c2.17-.19,4.29-.57,5.87-2.34,1.37-1.53,1.57-3.45,1.83-5.31a12,12,0,0,0,.26-3.78c-.42-2.47-2.21-3.68-4.26-4.45-4.59-1.72-9.34-3-13.86-4.94-3.81-1.6-7.29-3.66-8.45-8a20.66,20.66,0,0,1-.46-8,56.13,56.13,0,0,1,.85-6.47c1.7-7.13,5.05-11,12-13a47.56,47.56,0,0,1,7.81-1.12,58,58,0,0,1,9.78.15,61.07,61.07,0,0,1,11.32,1.42c.64.16.76.35.69.88-.19,1.45-.45,2.89-.55,4.36-.12,1.79-.54,3.55-.7,5.34-.06.72-.27.88-.9.75-2.55-.51-5.15-.67-7.71-1-3-.43-6.06-.43-9.08-.69a15,15,0,0,0-7.14,1.06A5.31,5.31,0,0,0,462.19,69a19.65,19.65,0,0,0-.54,5.25c.08,2.25,1.73,3.87,4.85,5,4.92,1.77,10,3.08,14.73,5.4,3.2,1.58,6,3.66,7.09,7.31,1,3.42.67,6.92.38,10.43a30.87,30.87,0,0,1-1.84,8.24,15,15,0,0,1-10.45,9.46,40.62,40.62,0,0,1-8.51,1.37C466.15,121.57,464.42,121.5,462.68,121.63Z"/><path d="M193.81,102c2.85-7.21,5.71-14.36,8.52-21.53,3.24-8.25,6.43-16.51,9.67-24.76.18-.46.42-.89.57-1.37a.74.74,0,0,1,.79-.62c4.14,0,8.29,0,12.54,0l-4,9.7q-2.26,5.49-4.55,11-2.69,6.45-5.37,12.9c-1.48,3.58-2.92,7.17-4.4,10.75-1.78,4.31-3.59,8.6-5.38,12.9-1.3,3.13-2.63,6.24-3.84,9.39a.94.94,0,0,1-1.08.75q-5.91,0-11.83,0c-.47,0-.67,0-.79-.65-1.05-5.42-2.19-10.82-3.27-16.23s-2.06-10.6-3.13-15.89c-1.17-5.77-2.42-11.53-3.57-17.31-1-4.93-1.91-9.87-2.85-14.81,0,0,0-.08,0-.12-.18-.75-.86-1.67-.34-2.2s1.45-.15,2.22-.15c3.3,0,6.6,0,9.9,0,1,0,1.24.21,1.39,1.25.48,3.33,1.17,6.63,1.79,9.94.58,3.1,1.17,6.21,1.76,9.31.84,4.36,1.71,8.72,2.52,13.09.74,4,1.4,8,2.12,11.92C193.37,100.17,193.6,101.07,193.81,102Z"/><path d="M21,65.07H1.38C0,65.07-.16,64.84.1,63.53a61,61,0,0,0,.77-6.62,12.21,12.21,0,0,0,.25-2.63c-.05-.38.12-.55.51-.53s.51,0,.77,0q26.22,0,52.45,0c1.15,0,1.41.17,1.07,1.35-.9,3.1-2.09,6-4.7,8.07A9.33,9.33,0,0,1,45.54,65c-3.6.09-7.2,0-10.8,0-.79,0-.93.2-1,1-.25,2.83-.66,5.66-1,8.49-.21,1.88-.32,3.77-.55,5.65-.35,2.83-.52,5.67-1,8.49-.31,1.91-.35,3.86-.56,5.78-.31,2.79-.77,5.57-1,8.36-.14,1.94-.35,3.86-.58,5.78-.34,2.87-.48,5.77-1,8.62-.16.91-.1,1.84-.24,2.77-.11.7-.24.91-1,.9-3.77,0-7.54-.05-11.31,0-.91,0-1-.38-.89-1,.54-3.87.88-7.76,1.31-11.63.35-3.13.67-6.26,1-9.39.46-4.21,1.05-8.4,1.52-12.6.4-3.6.64-7.21,1.06-10.8.37-3.17.82-6.33,1-9.51A3.85,3.85,0,0,1,21,65.07Z"/><path d="M297.08,109.29h28.68c.44,0,1.09-.16.88.63-.77,2.9-1.68,5.71-3.81,8a9.28,9.28,0,0,1-6.95,2.92c-10.62.08-21.25,0-31.87.06-.92,0-1.19-.23-1.06-1.14.3-2.07.51-4.16.76-6.23.33-2.75.68-5.49,1-8.24.21-1.79.36-3.59.56-5.39.33-3,.69-5.91,1-8.87.21-1.88.33-3.77.54-5.66.3-2.7.67-5.4,1-8.1.21-1.8.36-3.6.56-5.39.33-3,.54-5.93,1-8.88.29-1.87.39-3.76.54-5.65a16.45,16.45,0,0,0,.28-2.89c-.05-.56.37-.69.86-.69,3.85,0,7.71,0,11.56,0,.61,0,.74.24.68.76-.23,1.83-.47,3.65-.68,5.48-.22,2-.39,4-.61,6-.32,2.75-.73,5.48-1,8.24-.16,1.76-.34,3.51-.56,5.26q-.54,4.5-1,9c-.21,2-.31,3.94-.54,5.91-.3,2.66-.69,5.31-1,8-.22,1.92-.36,3.86-.53,5.78A1.75,1.75,0,0,1,297.08,109.29Z"/><path class="cls-1" d="M535.2,77.8c0,9.72-.16,19.45,0,29.17a14.29,14.29,0,0,1-11.55,14,14,14,0,0,1-15.58-9.27,3.91,3.91,0,0,1,2.08-4.75,3.8,3.8,0,0,1,5,1.76c.88,1.69,1.78,3.29,3.65,4.17a6.23,6.23,0,0,0,8.66-5.45q0-29.74,0-59.5c0-2.39,0-2.38,2.36-2.62,1.58-.16,3.13.29,4.7.28.76,0,.65.64.66,1.15V77.8Z"/><path d="M438.5,63.8a11,11,0,0,0-4.62-7.19,18.79,18.79,0,0,0-10.44-2.82c-9.17-.11-18.34,0-27.51,0-1.85,0-1.8,0-1.92,1.88s-.24,3.87-.52,5.78c-.45,3-.66,6-1,9-.21,1.76-.4,3.51-.56,5.27-.24,2.75-.69,5.48-1,8.23-.2,2-.45,3.93-.6,5.91-.19,2.71-.65,5.4-.95,8.11-.21,1.88-.24,3.79-.56,5.65-.46,2.73-.6,5.49-1,8.23s-.47,5.45-.84,8.16c-.11.75-.15.9.64.89q5.6,0,11.18,0c.7,0,.81-.22.85-.86.11-1.76.36-3.51.53-5.27.32-3.42.83-6.82,1.24-10.23.36-3.08.71-6.17,1-9.25.05-.52.2-.64.68-.64q4.36,0,8.74,0a.8.8,0,0,1,.91.65c.55,2,1.18,4,1.78,5.93,1.89,6.19,3.76,12.39,5.68,18.58.14.44.05,1.12,1,1.1,4.07-.08,8.14,0,12.31,0-.92-3-1.82-5.89-2.71-8.8C429,106,427.23,100,425.29,94c-.31-1-.1-1.16.72-1.41a15.57,15.57,0,0,0,8.91-6.2c3.11-4.62,3.62-9.93,4.08-15.24A24.68,24.68,0,0,0,438.5,63.8Zm-12.61,8.63a25.26,25.26,0,0,1-1.27,6.45c-1.28,3-3.1,4.43-6.55,4.71-4.35.35-8.69.19-13,.27-1,0-1.39-.2-1.24-1.23.29-2,.61-4,.74-6,.12-1.8.39-3.59.55-5.39s.32-3.76.54-5.64a1.07,1.07,0,0,1,1.28-1.1c2.26.09,4.53,0,6.8,0s4.47-.16,6.67,0c3.06.29,4.42,1.06,5.22,3.69A9.88,9.88,0,0,1,425.89,72.43Z"/><path d="M109.6,63.28a10.5,10.5,0,0,0-6-7.51,20.54,20.54,0,0,0-8.43-2c-9.63-.14-19.28,0-28.92-.07-.78,0-.87.28-.88,1a34.77,34.77,0,0,1-.28,3.52c-.31,2.75-.7,5.49-1,8.24-.19,1.92-.38,3.86-.59,5.78-.31,2.91-.66,5.83-1,8.74-.19,1.72-.35,3.43-.56,5.14-.36,2.91-.67,5.83-1,8.74-.19,1.8-.32,3.61-.55,5.4-.37,2.91-.67,5.83-1,8.74-.2,1.88-.51,3.73-.73,5.6s-.36,3.6-.55,5.4c-.07.62.09.88.81.87,3.69,0,7.37,0,11.06,0a.85.85,0,0,0,1-.87c.12-2.52.52-5,.78-7.52.28-2.67.44-5.36.81-8,.4-2.91.75-5.82,1-8.74.07-.85.34-1.1,1.15-1.09,2.74,0,5.49,0,8.23,0a1,1,0,0,1,1.21.91C85,98.3,85.9,101,86.74,103.8c1.64,5.33,3.28,10.65,4.88,16a1.29,1.29,0,0,0,1.54,1.1c1.71-.09,3.43,0,5.14,0,1.89,0,3.77,0,5.66,0,.63,0,.9,0,.64-.84-2.73-8.61-5.38-17.24-8.1-25.85-.33-1,0-1.31,1-1.63A15.91,15.91,0,0,0,108.37,81.8a35.94,35.94,0,0,0,1.54-7.68A32.33,32.33,0,0,0,109.6,63.28ZM94.81,81.06c-1.22,1.77-3.06,2.32-5,2.51-4.55.43-9.13.22-13.69.27-.92,0-1.3,0-1-1.22.37-1.7.42-3.5.62-5.25.32-2.92.59-5.84,1-8.75a14.88,14.88,0,0,0,.27-2.89c-.08-1.1.39-1.22,1.3-1.19,2.23,0,4.45,0,6.68,0s4.38,0,6.56,0c2,.06,3.83.52,4.92,2.35a5.55,5.55,0,0,1,.84,2.56C97.37,73.52,97.23,77.53,94.81,81.06Z"/><path d="M166.17,120.25c-1.2-5.61-2.3-11.23-3.35-16.86s-2.28-11.31-3.35-17-2.32-11.3-3.33-17c-.91-5.1-2-10.17-3.06-15.25-.11-.57-.29-1-1-1-3.6.05-7.2,0-10.8,0a1,1,0,0,0-1.13.76c-.42,1.07-.9,2.12-1.35,3.18Q135,66.11,131.14,75q-4.9,11.49-9.83,23-4.68,10.91-9.38,21.81c-.38.86-.26,1.07.69,1.06,3.55,0,7.11-.09,10.66,0a1.76,1.76,0,0,0,1.92-1.35c1.22-2.93,2.48-5.84,3.6-8.81.29-.76.58-1,1.33-.95,6.55,0,13.11,0,19.66,0,.78,0,1.06.3,1.17.91.55,3,1.09,6.06,1.6,9.09.12.71.3,1.13,1.16,1.1,1.93-.06,3.86,0,5.78,0h5.91C165.82,120.85,166.33,121,166.17,120.25ZM147.87,99c-4.42,0-8.83,0-13.24,0-.55,0-1,.08-.7-.8q5.15-13,10.24-26.12c0-.1.18-.16.27-.25.56,3.31,1.12,6.55,1.64,9.81.39,2.43.72,4.87,1.1,7.3.47,3,.95,6.09,1.49,9.13C148.8,98.84,148.62,99,147.87,99Z"/></g></g></svg>