<svg xmlns="http://www.w3.org/2000/svg" viewBox="0 0 600 300.49"><defs><style>.cls-1{fill:#382d97;}.cls-2{fill:#f5bd28;}.cls-3{fill:#f5bd29;}.cls-4{fill:#f0b92b;}.cls-5{fill:#eab42f;}.cls-6{fill:#edb62d;}.cls-7{fill:#4d3d8b;}.cls-8{fill:#392e98;}.cls-9{fill:#e3ae33;}.cls-10{fill:#382d98;}.cls-11{fill:#e3af33;}.cls-12{fill:#dca937;}.cls-13{fill:#e8b330;}.cls-14{fill:#46388f;}.cls-15{fill:#deab36;}.cls-16{fill:#c99c42;}.cls-17{fill:#c89b43;}.cls-18{fill:#b98f4c;}.cls-19{fill:#d1a13e;}.cls-20{fill:#d4a43b;}.cls-21{fill:#ce9f3f;}.cls-22{fill:#c09548;}.cls-23{fill:#b18951;}.cls-24{fill:#d5a43b;}.cls-25{fill:#937462;}.cls-26{fill:#8b6e67;}.cls-27{fill:#d9a738;}.cls-28{fill:#c39746;}.cls-29{fill:#aa8355;}.cls-30{fill:#bc914a;}.cls-31{fill:#82676d;}.cls-32{fill:#9e7c5c;}.cls-33{fill:#634e80;}.cls-34{fill:#433691;}.cls-35{fill:#4a3b8d;}.cls-36{fill:#524189;}.cls-37{fill:#5a4783;}.cls-38{fill:#a38059;}.cls-39{fill:#7b6172;}.cls-40{fill:#765c75;}.cls-41{fill:#69537c;}.cls-42{fill:#6f5779;}.cls-43{fill:#3c3095;}.cls-44{fill:#8c81b4;}.cls-45{fill:#403393;}.cls-46{fill:#493a8e;}.cls-47{fill:#b18950;}.cls-48{fill:#8c6f67;}.cls-49{fill:#80646f;}.cls-50{fill:#524188;}.cls-51{fill:#947562;}.cls-52{fill:#a07e5b;}.cls-53{fill:#b78e4e;}.cls-54{fill:#a78157;}.cls-55{fill:#ac8554;}.cls-56{fill:#6e567a;}.cls-57{fill:#624d80;}.cls-58{fill:#9a7a5f;}.cls-59{fill:#67517d;}.cls-60{fill:#856a6b;}.cls-61{fill:#d7a63a;}.cls-62{fill:#584684;}.cls-63{fill:#ddaa36;}.cls-64{fill:#ca9c42;}.cls-65{fill:#ad8653;}.cls-66{fill:#b58c4f;}.cls-67{fill:#bc914b;}.cls-68{fill:#c39745;}.cls-69{fill:#7e6370;}.cls-70{fill:#876b69;}.cls-71{fill:#8f7264;}.cls-72{fill:#a58058;}.cls-73{fill:#98785f;}.cls-74{fill:#755c75;}.cls-75{fill:#9e7d5c;}.cls-76{fill:#614c80;}.cls-77{fill:#66517e;}.cls-78{fill:#edb72d;}</style></defs><g id="Ebene_2" data-name="Ebene 2"><g id="Ebene_2-2" data-name="Ebene 2"><path class="cls-1" d="M218.79,268.32c0,3.11,0,6.23,0,9.34,0,3.61.89,4.68,4.53,4.95,1.59.12,1.66.81,1.58,2,0,.65-.21.89-.88.89q-9.27,0-18.55,0c-.77,0-.89-.44-.74-1s-.67-1.7.67-1.8c4.23-.32,4.81-1.78,4.81-5.85V236.61c0-.46,0-.92,0-1.38-.15-2.87-.91-3.7-3.76-4.33-.59-.13-1.52.23-1.72-.8-.3-1.53,0-1.87,1.54-1.87h17.32c.61,0,1.41-.25,1.32.88-.06.78.19,1.48-1.09,1.69-4.64.76-5,1.29-5,6,0,5.16,0,10.31,0,15.47,0,1.07.16,1.5,1.38,1.48,5-.08,10-.06,15,0,1.08,0,1.38-.3,1.37-1.37-.06-5.2,0-10.41,0-15.62,0-.25,0-.51,0-.76-.23-3.56-1-4.35-4.48-5.09-.56-.11-1.54.29-1.61-.92s.05-1.79,1.57-1.76c5.72.11,11.45,0,17.17.06.57,0,1.42-.36,1.39.8,0,.88.16,1.74-1.17,1.79a8.49,8.49,0,0,0-2.09.45,3.47,3.47,0,0,0-2.7,3.32c-.08,1-.14,2-.14,3.06q0,19.07,0,38.13c0,.36,0,.72,0,1.07.15,4.38.82,5.2,5.18,5.81,1.44.2.77,1.14.9,1.81s-.25,1-1,1q-9,0-18.08,0c-.7,0-1.15-.18-1-.92s-.67-1.76.8-1.87a13.32,13.32,0,0,0,1.66-.26c2.29-.46,3.3-1.5,3.48-3.8.33-4.34.09-8.68.14-13,0-2.6,0-5.2,0-7.81,0-.85-.23-1.14-1.11-1.13-5.16,0-10.32.05-15.48,0-1,0-1.18.32-1.17,1.22.05,3.47,0,7,0,10.42Z"/><path class="cls-1" d="M456.39,274.32c0,3.27,0,6.54,0,9.81,0,.46.41,1.29-.49,1.32-.73,0-1.58.41-2.23-.47-2.2-3-2.23-3-5.43-1-7.59,4.76-17.19,3-23.51-4.39-4.46-5.2-6.49-11.38-7.15-18.05-.75-7.5.14-14.77,3.6-21.58a24.93,24.93,0,0,1,9.41-10.64c6.11-3.63,12.19-3.5,18.16.4l.63.43c1.78,1.18,2.15,1.09,3.26-.69.29-.45.41-1.06,1-1.24,1.49-.43,2.12,0,2.12,1.59q0,9.42,0,18.84c0,.54.43,1.42-.76,1.43-.95,0-1.74.13-1.94-1.25a44.61,44.61,0,0,0-2.84-10.44,17.38,17.38,0,0,0-3-5,9.91,9.91,0,0,0-15.79,1.08c-2.4,3.63-3.31,7.79-3.77,12a77.59,77.59,0,0,0,.8,25,20.25,20.25,0,0,0,3.34,8c2.49,3.34,5.84,4.43,9.87,3.64,3.82-.76,5.4-3.5,6.18-7a32.91,32.91,0,0,0,.38-10.66c-.45-4.23-1.94-5.45-6.3-5.71-.74-.05-1.48.14-1.5-1.12s.23-1.72,1.65-1.7c6.34.09,12.67,0,19,0,.64,0,1.53-.34,1.41.92-.08.9.33,1.81-1.31,1.91-3.72.22-4.75,1.48-4.8,5.27,0,3.07,0,6.13,0,9.19Z"/><path class="cls-1" d="M377.6,251.77a26,26,0,0,1,2.54-3.64A10.84,10.84,0,0,1,391.86,245c4.37,1.31,6.32,4.73,6.92,9a25.75,25.75,0,0,1,.22,3.51c0,6.84,0,13.68,0,20.52,0,2.93.8,4.1,3.63,4.54,1.64.26,1.25,1.24,1.25,2.18,0,1.3-1,.73-1.59.74-3,0-5.93,0-8.89,0-1.33.05-1.79-.25-1.77-1.71.07-9.08,0-18.17,0-27.25a14.24,14.24,0,0,0-.64-4.68c-1.16-3.39-4.09-4.54-7.19-2.7-3.5,2.06-5.11,5.42-5.92,9.24a18,18,0,0,0-.34,3.81c0,5.2,0,10.41,0,15.62,0,3.07.81,4.16,3.86,4.66,1.41.23,1.87.74,1.68,2.12-.09.63-.22.88-.89.87-5.31,0-10.62,0-15.94,0-.57,0-1.1-.07-.92-.79s-.62-1.7.66-2c.45-.11.9-.18,1.34-.3a3.46,3.46,0,0,0,2.85-3.67q0-22.28,0-44.56c0-2.45-.88-3.12-4.22-3.45-.79-.08-1.31-.09-1.3-1.16s.25-1.38,1.34-1.4q5-.13,9.95-.51c1.22-.09,1.65.11,1.64,1.48-.08,6.89,0,13.78,0,20.67Z"/><path class="cls-1" d="M36.11,254.62V238.24c0-.71,0-1.43,0-2.14-.26-3.17-1.47-4.53-4.61-5.18-.86-.18-1.64-.23-1.51-1.54.1-.94.32-1.18,1.24-1.17,4.49,0,9,0,13.48,0,.57,0,1.32-.21,1.23.82-.06.75.32,1.71-1,1.73a6.47,6.47,0,0,0-1.36.24c-2.93.68-4.29,2.25-4.3,5.27-.05,8.47,0,16.94-.06,25.42A112.51,112.51,0,0,1,39,273C38,282,34.16,285.8,25.23,286.61a22.82,22.82,0,0,1-8.34-.75A13.74,13.74,0,0,1,6.41,273.53a42.45,42.45,0,0,1-.28-5q0-15.54,0-31.08c0-.76,0-1.53,0-2.29-.09-2.54-.87-3.49-3.31-4.05a6.71,6.71,0,0,0-1.65-.28c-1.29,0-1.09-.82-1.15-1.63-.07-1.11.66-.93,1.3-.93,5.93,0,11.85,0,17.78,0,.65,0,1.27,0,1.12.9-.1.66.38,1.43-.91,1.66-4.88.86-5.2,1.32-5.21,6.29q0,17.22,0,34.45a20,20,0,0,0,.41,4.56c1.31,5.69,6,8.71,12,7.77S36,279,36.08,272.38c.09-5.92,0-11.84,0-17.76Z"/><path class="cls-1" d="M56.82,252.77c.8-1.34,1.34-2.41,2-3.39a10.53,10.53,0,0,1,8.25-4.91c6.5-.35,10.82,3.51,11,10.17.2,7.29.08,14.6.11,21.89,0,.57,0,1.13,0,1.69.06,2.85.81,3.93,3.65,4.35,1.65.25,1.19,1.27,1.22,2.18,0,1.18-.91.71-1.44.72-3.12,0-6.23,0-9.35,0-1.17,0-1.44-.31-1.43-1.45,0-9.13,0-18.27,0-27.41A18.19,18.19,0,0,0,70.5,252c-.84-3.11-3.36-4.4-6.39-3.23a9,9,0,0,0-3.89,3.12,14.72,14.72,0,0,0-3.2,8.61c-.17,6.12-.13,12.25-.09,18.37,0,2.32,1.11,3.33,4.14,3.78,1.17.17,1.34.64,1.34,1.65s-.31,1.28-1.31,1.27c-5.05,0-10.11,0-15.17,0-.54,0-1.4.28-1.23-.77.11-.74-.65-1.78.94-2.08,3.76-.72,4.53-1.79,4.53-5.63V253.88c0-.46,0-.92,0-1.38-.11-3.12-.91-4-4.05-4.09-1.07,0-1.53-.23-1.49-1.44,0-1.05.29-1.38,1.35-1.41,3-.09,5.92-.27,8.87-.5,1.11-.08,1.53.18,1.55,1.37C56.42,248.41,56.65,250.39,56.82,252.77Z"/><path class="cls-1" d="M551.45,278.68c-.14.31-.28.63-.43.94-2.68,5.6-7.83,8-13.84,6.33-3.85-1-6.12-4-6.64-8.42a64,64,0,0,1-.23-7.19c0-5.92,0-11.84,0-17.76,0-3.29-.57-3.92-3.86-4.17-1.14-.09-1-.73-1-1.44s0-1.35,1.05-1.39c3.26-.1,6.53-.26,9.79-.52,1.2-.09,1.41.3,1.41,1.41q-.06,14.25,0,28.48a21.06,21.06,0,0,0,.29,3.81c.54,3,3.08,4.41,6,3.47a7.33,7.33,0,0,0,3.43-2.47,16.33,16.33,0,0,0,3.71-10.31c.07-5.61,0-11.23,0-16.84,0-3.23-.82-4.13-4-4.19-1.25,0-1.53-.43-1.5-1.58,0-.92.24-1.23,1.19-1.26,3.26-.11,6.53-.27,9.78-.52,1.14-.08,1.33.31,1.32,1.34,0,10.31,0,20.62,0,30.93,0,3.48,1,4.59,4.48,4.77,1.28.07,1,.8,1,1.52s0,1.3-1.06,1.33c-3.11.08-6.23.27-9.33.52-1.06.08-1.29-.28-1.26-1.25.07-1.83,0-3.67,0-5.5Z"/><path class="cls-1" d="M476.22,253.69c.33-.79.64-1.59,1-2.37a16.09,16.09,0,0,1,2.39-3.9c2.6-3,5.78-3.83,8.49-2.08s4,6.32,2.56,9.45a4,4,0,0,1-4.16,2.49c-1.6-.22-2.71-1.43-3.07-3.36-.58-3.08.36-4.73,3.24-5.73-1.08-1.33-3-1.42-4.55-.18a9.29,9.29,0,0,0-2.72,3.83,36,36,0,0,0-2.77,13.54c-.1,4.29,0,8.58,0,12.86,0,2.35.74,3.33,3,4a18.68,18.68,0,0,0,2.25.46c1.38.2,1.83.93,1.49,2.32-.15.6-.55.5-.93.5H465.23c-.49,0-1,0-.85-.7s-.66-1.67.54-2.07c.48-.15,1-.18,1.49-.33a3.43,3.43,0,0,0,2.81-3.54c0-8.47,0-16.94,0-25.42a9.74,9.74,0,0,0-.19-1.51c-.39-2.45-1.19-3.32-3.65-3.5-1.28-.1-1-.88-1-1.58s0-1.23,1-1.27c3.22-.11,6.43-.31,9.64-.52.81-.05,1.05.21,1,1-.05,2.54,0,5.09,0,7.63Z"/><path class="cls-1" d="M351.92,264.25c0,4.34,0,8.68,0,13a19.46,19.46,0,0,0,.22,2.74,3.19,3.19,0,0,0,2.61,3,3.78,3.78,0,0,0,4.2-1.83,13,13,0,0,0,1.45-6c.09-1.38.09-2.76,0-4.13,0-1,.66-.83,1.23-.82s1.27-.27,1.24.79c-.07,2.9.15,5.82-.58,8.68-1.22,4.75-4.26,7-9.17,6.71a8.53,8.53,0,0,1-8.37-7.84,26.9,26.9,0,0,1-.21-3.35c0-8.37,0-16.74,0-25.11,0-1.13-.26-1.6-1.43-1.45a11,11,0,0,1-2.15,0c-.49,0-1.28.3-1.29-.59,0-.73-.47-1.68.67-2.09,6.7-2.44,8.56-7.93,9-14.3.06-.92.22-1.35,1.29-1.33s1.28.28,1.27,1.28c-.05,4.24,0,8.47-.05,12.71,0,1.08.31,1.39,1.38,1.36,2.44-.08,4.9.05,7.35-.06,1.3-.05,1.09.71,1.07,1.45s.33,1.67-1.09,1.61c-2.45-.09-4.91,0-7.35,0-1.11,0-1.37.35-1.36,1.4C351.94,254.76,351.92,259.51,351.92,264.25Z"/><path class="cls-1" d="M333,253.76v23.57c0,3.45.85,4.65,4.22,5.22,1.53.26,1.2,1.13,1.25,2.05.08,1.26-.85.88-1.47.88q-7.42,0-14.86,0c-.59,0-1.48.31-1.33-.84.1-.77-.53-1.75,1-2,3.64-.67,4.45-1.81,4.45-5.53V236.67c0-4.08-.69-5-4.63-5.89-1.28-.27-.75-1.08-.85-1.72-.14-.85.44-.83,1-.86,3.21-.15,6.43-.28,9.63-.53,1.21-.1,1.56.21,1.55,1.44C333,237.33,333,245.54,333,253.76Z"/><path class="cls-1" d="M115.52,264.37c0,4.38,0,8.77,0,13.16a13.29,13.29,0,0,0,.17,2.44c.4,2,1.3,2.92,3,3.08a3.76,3.76,0,0,0,4.3-2.43,18.16,18.16,0,0,0,1-5.85,14.14,14.14,0,0,0,0-3c-.25-1.59.63-1.62,1.76-1.54.51,0,.72.19.72.72,0,3.21.13,6.43-.85,9.56-1.31,4.2-4.38,6.22-9,5.91-4.12-.27-6.81-2.73-7.59-6.9a20.26,20.26,0,0,1-.3-3.81c0-8.42-.05-16.84,0-25.26,0-1.53-.44-2-1.86-1.77a10.4,10.4,0,0,1-2.3,0c-.51,0-1.38.4-1.37-.65,0-.79-.36-1.69.87-2.13,5.64-2,7.93-6.51,8.59-12.11a14.12,14.12,0,0,0,.22-2.13c-.06-1.13.47-1.31,1.46-1.29s1.1.29,1.1,1.14c0,4.24,0,8.47-.05,12.71,0,1.21.31,1.55,1.52,1.5,2.6-.09,5.21.05,7.81,0,1.26-.05,1.12.66,1.1,1.44s.3,1.66-1.11,1.61c-2.7-.09-5.41,0-8.12,0-.94,0-1.2.26-1.19,1.2C115.54,254.67,115.52,259.52,115.52,264.37Z"/><path class="cls-1" d="M304.34,175.48a24.66,24.66,0,0,1-14.08,5.91.79.79,0,0,1-.81.15,6.34,6.34,0,0,1,1.11.37c2.51.45,5,.82,7.52,1.38A7.37,7.37,0,0,0,302,183a36.56,36.56,0,0,0,13-7.54,6.85,6.85,0,0,1,3.29-.47c1.73,0,3.47,0,5.2,0a2.22,2.22,0,0,1,1.84.53,39.79,39.79,0,0,1-17.91,12.55c-4.92,1.75-10,1.17-14.92-.21a11.88,11.88,0,0,1-6.62-5.17,4.31,4.31,0,0,0-2.19-1.72,11.17,11.17,0,0,1-6.94-6.64c-.33-.94.4-1,1-1.08,1.09-.21,2.05.34,3.07.55a49.28,49.28,0,0,1,6.65.54,20.3,20.3,0,0,0,5.45-.16c2.84.44,5.69.1,8.54.2a11.61,11.61,0,0,1,2.13.1C304,174.64,304.62,174.7,304.34,175.48Z"/><path class="cls-1" d="M97.17,262.08c0,5.06,0,10.11,0,15.17,0,3.52.87,4.76,4.31,5.32,1.71.28,1.14,1.33,1.17,2.2,0,1.2-.93.7-1.45.7-5,0-10,0-15,0-.7,0-1.41.08-1.24-1,.11-.73-.51-1.84,1-1.87a7,7,0,0,0,2.07-.5,3.16,3.16,0,0,0,2.37-3.2c0-9.34,0-18.68,0-28,0-2.2-1.11-3.06-3.83-3.11-1.2,0-1.73-.28-1.65-1.61,0-.94.32-1.2,1.23-1.23,3.26-.12,6.53-.29,9.79-.52,1-.07,1.28.24,1.27,1.24C97.14,251.16,97.17,256.62,97.17,262.08Z"/><path class="cls-2" d="M335,41.36l-.06-27.8c0-3,0-3-2.94-3.65-1.74-.38-3.49-.69-5.23-1a.53.53,0,0,1,.32-.61L342.28,0V9.83a5.84,5.84,0,0,0-.08,1.67q0,14.22,0,28.45c0,1.66-.15,1.92-1.8,1.87S336.72,42.32,335,41.36Z"/><path class="cls-3" d="M309.29,18.12A39.23,39.23,0,0,1,314.81,15c3.07-1.7,6.16-3.36,9.24-5.06.76-.41,1.27-.63,1.26.63q-.07,15.42-.08,30.84c-2.16.92-4.4.54-6.59.28-1-.11-.92-1.09-.93-1.86,0-3.36,0-6.72,0-10.08V21.46a2.59,2.59,0,0,0-.27-1.62c-1.29-1-2.9-.65-4.34-.95-1-.21-2.09-.29-3.13-.43a1.62,1.62,0,0,1-.48-.17Z"/><path class="cls-2" d="M293.61,26.67a14.33,14.33,0,0,1,3.62-2.17c3.59-2,7.21-3.94,10.82-5.9.39-.21.74-.55,1.24-.48h0a2.16,2.16,0,0,1,.4,1.59q0,9.94,0,19.9a2.4,2.4,0,0,1-.31,1.48,13.16,13.16,0,0,1-7.15.11c-.56-.58-.43-1.32-.44-2,0-3.05,0-6.1,0-9.15a2.33,2.33,0,0,0-.35-1.74c-1.26-.86-2.76-.55-4.13-.86-1.22-.28-2.54-.08-3.68-.76Z"/><path class="cls-4" d="M335,41.36c1.74,0,3.47-.09,5.2,0,1.45.1,1.9-.33,1.89-1.84-.07-9.31,0-18.63,0-27.95,0-.59-.19-1.23.23-1.77,0,6.56.05,13.12.05,19.68,0,7.13,0,14.25-.05,21.37a44.75,44.75,0,0,0-.06,5.79c0,1.19-.38,1.76-1.53,1.69-1.9-.12-3.87.5-5.7-.46Z"/><path class="cls-4" d="M317.79,19c.59.48.33,1.14.33,1.71,0,6.35.05,12.7,0,19.05,0,1.27.37,1.68,1.63,1.61,1.83-.09,3.66,0,5.49,0V53.92a12.58,12.58,0,0,1-7.09.13c-.55-.58-.4-1.32-.43-2-.09-1.55.19-3.12-.25-4.66a16.36,16.36,0,0,1-.13-3.05q0-11.41,0-22.82A3.6,3.6,0,0,1,317.79,19Z"/><path class="cls-5" d="M335,57.9c1.93,0,3.86,0,5.78,0,1,0,1.28-.36,1.3-1.33.05-1.9-.31-3.83.21-5.71V67.73a2.34,2.34,0,0,0-.09.75c0,2.45,0,2.51-2.58,2.44-1.54,0-3.16.45-4.62-.46Z"/><path class="cls-6" d="M318.15,53.92h7.08V65a12.06,12.06,0,0,1-7.16.08,1.76,1.76,0,0,1-.35-1.15q0-4.35,0-8.7A1.51,1.51,0,0,1,318.15,53.92Z"/><path class="cls-7" d="M271,165.73h.27c2.26-.23,4.4.49,6.57.92,1.73.35,3.38.66,5-.38a1.84,1.84,0,0,1,1.18-.22c2.28.27,4.57.06,6.85.14.8,0,1.65-.09,2.22.69.09.19.19.43.06.58-1.2,1.42-2.38,2.9-4.47,3-5.46,0-10.91,0-16.37,0-.56,0-1.11-.09-1.67-.13a8.07,8.07,0,0,1-2.4-4.64A5.42,5.42,0,0,1,271,165.73Z"/><path class="cls-8" d="M358.78,185.94c1.07-3.06,2.21-6,3.14-9.06.4-1.32,1.27-1,2.13-1,1.22,0,.67,1,.68,1.46,0,3.11,0,6.22,0,9.33,0,.59.45,1.47-.86,1.49s-.94-.91-.94-1.56c0-2.65,0-5.3-.29-8.06l-.69,1.92-2.33,6.63c-.18.51-.22,1.09-1,1.06s-.73-.61-.89-1c-1-2.91-2.05-5.82-3.34-8.68v8.44c0,.65.18,1.3-.92,1.29s-.91-.69-.91-1.32c0-3.21,0-6.42,0-9.64,0-.51-.37-1.38.7-1.31.77,0,1.69-.44,2.1.87.78,2.58,1.74,5.1,2.65,7.64A3,3,0,0,0,358.78,185.94Z"/><path class="cls-9" d="M318.15,53.92V65c.83,1.25.42,2.66.45,4,.09,3.89-.4,3.42,3.54,3.49,1,0,2.15-.25,3.09.47V81.8c-2.14.92-4.37.5-6.56.31-.88-.07-.92-.94-1-1.67-.1-1.81.21-3.64-.25-5.43a20.69,20.69,0,0,1-.13-3.52c0-7.19,0-14.39,0-21.59,0-.84-.21-1.76.6-2.41C318.39,49.62,318,51.78,318.15,53.92Z"/><path class="cls-10" d="M97.14,232.57a7.13,7.13,0,0,1-.45,3.08,3.29,3.29,0,0,1-3,2.44A3.59,3.59,0,0,1,89.94,236a7.78,7.78,0,0,1,0-6.65,3.58,3.58,0,0,1,3.66-2,3.23,3.23,0,0,1,3.09,2.31A6.91,6.91,0,0,1,97.14,232.57Z"/><path class="cls-11" d="M335,70.46c1.82,0,3.65-.07,5.46,0,1.27.07,1.78-.35,1.61-1.61a1.26,1.26,0,0,1,.22-1.15v9.49c-.26,2.91-.27,3-3.28,2.9-1.34,0-2.76.38-4-.47Z"/><path class="cls-12" d="M317.94,75.06a24.22,24.22,0,0,1,.17,5.45c0,1,.33,1.33,1.32,1.3,1.93-.06,3.87,0,5.8,0v8c-2.19.92-4.44.51-6.67.28-.65-.07-.8-.71-.83-1.29a7.36,7.36,0,0,0-.27-2.09c-.27-3.43-.11-6.86-.09-10.28A1.35,1.35,0,0,1,317.94,75.06Z"/><path class="cls-13" d="M325.23,72.91c-1.93,0-3.86,0-5.78,0-1,0-1.36-.27-1.33-1.29.06-2.23,0-4.46,0-6.69h7.08Z"/><path class="cls-8" d="M345.47,175.53c2.39,0,4,.89,4.43,2.52.13.46.53,1.17-.33,1.35-.54.12-1.1.2-1.41-.68a3.15,3.15,0,0,0-4.62-1.23,1.85,1.85,0,0,0-.75,1.87c.06.74.59,1,1.23,1.15,1.43.36,2.85.77,4.28,1.12a3,3,0,0,1,2.33,2.54,2.85,2.85,0,0,1-1.38,3.13,6,6,0,0,1-7.35-.25,2.46,2.46,0,0,1-.88-1.71c0-.42-.31-1,.37-1.13s.77.22,1,.69a3.58,3.58,0,0,0,5,1.88,2,2,0,0,0,1.43-1.8c0-.89-.57-1.33-1.26-1.75a10,10,0,0,0-3.06-.88c-2.66-.65-3.73-1.7-3.54-3.45C341.22,176.67,342.78,175.5,345.47,175.53Z"/><path class="cls-14" d="M270.6,170.38c.32-.47.81-.36,1.26-.36h15.89c.45,0,.94-.12,1.27.32,0,.9-.84,1.07-1.41,1.41a22.88,22.88,0,0,1-6.79,2.52c-1.09.28-1.86-.91-3-.6-.48.13-1,0-1.11.71-1.15-.84-2.64-1-3.78-1.87A9,9,0,0,1,270.6,170.38Z"/><path class="cls-15" d="M335,79.65c1.72,0,3.44-.07,5.16,0,1.34.08,2.18-.16,1.91-1.75,0-.22.14-.47.22-.7v8.27c.07,1.25-.59,1.76-1.76,1.67-1.84-.14-3.75.46-5.53-.46Z"/><path class="cls-16" d="M325.23,100.48c0,2.15,0,4.29,0,6.43a2,2,0,0,1-1.26.45c-2.09.09-4.19-.15-6.25.4a17.41,17.41,0,0,1,0-7.8C320.21,100.13,322.77,99.57,325.23,100.48Z"/><path class="cls-17" d="M334.88,108.66c0-2.11.07-4.23.11-6.34,1.8-1,3.74-.32,5.61-.47a1.93,1.93,0,0,1,1.68.47q0,3.34-.07,6.68C339.8,108.18,337.33,108.67,334.88,108.66Z"/><path class="cls-18" d="M334.43,119.46l.31-6.11a1.82,1.82,0,0,1,1.53-.47c1.92.15,3.91-.51,5.76.47a27.45,27.45,0,0,1-.26,5.87C339.33,119.46,336.87,119.16,334.43,119.46Z"/><path class="cls-19" d="M325.23,100.48c-2,0-3.92,0-5.89,0-.58,0-1.11,0-1.4-.62a.76.76,0,0,1-.44-.59,15.45,15.45,0,0,1,.17-6c.23-.26.51-.19.6.06.5,1.32,1.61,1.12,2.66,1.19,1.44.1,2.94-.39,4.3.46Z"/><path class="cls-20" d="M335,96.81V91.29a3.11,3.11,0,0,1,2.18-.46c1.71,0,3.45.18,5.11-.44V96.8a1.76,1.76,0,0,1-1.53.47C338.83,97.13,336.84,97.78,335,96.81Z"/><path class="cls-21" d="M335,96.81h7.29v5.52H335Z"/><path class="cls-22" d="M342,113.35h-7.29a27.21,27.21,0,0,1,.14-4.69,1,1,0,0,1,1-.53c1.72,0,3.44.05,5.16,0,.72,0,1,.33,1.18.88A21.11,21.11,0,0,1,342,113.35Z"/><path class="cls-23" d="M334.43,119.46c.14-.14.27-.4.42-.41,2.31-.19,4.63-.52,6.92.17a20.24,20.24,0,0,1-.32,4.85,11.63,11.63,0,0,1-7.33,0C334.22,122.53,334.33,121,334.43,119.46Z"/><path class="cls-24" d="M325.23,95c-1.63,0-3.26-.1-4.88,0-1.46.11-2.46-.14-2.41-1.87a.82.82,0,0,1-.48-.72c0-1.92-.71-3.9.48-5.71a3.83,3.83,0,0,1,.19.72c.13,2.34.13,2.34,2.53,2.34h4.57Z"/><path class="cls-25" d="M332,140.31l.87-4.91c1.61-.94,3.37-.35,5.06-.47a2.74,2.74,0,0,1,2.31.48,26.56,26.56,0,0,1-.89,5.61,28.7,28.7,0,0,0-5.32-.25C333.31,140.75,332.57,140.87,332,140.31Z"/><path class="cls-26" d="M332,140.31h6.08c.56,0,1.16-.06,1.27.72a19.89,19.89,0,0,1-1,4.83c-1.55-.72-3.21-.42-4.83-.5-.85,0-1.75.19-2.5-.45C331.37,143.37,331.68,141.84,332,140.31Z"/><path class="cls-27" d="M342.28,90.39a1.32,1.32,0,0,1-1.5.92c-1.93-.06-3.86,0-5.79,0V86.7c1.83,0,3.65-.08,5.47,0,1,.06,1.6-.24,1.82-1.23Z"/><path class="cls-28" d="M317.9,107.83a1.34,1.34,0,0,1,1.5-.94c1.94.07,3.88,0,5.82,0,0,1.54,0,3.07,0,4.6a2.38,2.38,0,0,1-1.86.48c-1.85-.13-3.74.4-5.54-.39A3.5,3.5,0,0,1,317.9,107.83Z"/><path class="cls-29" d="M334.12,124.07h7.33a18.21,18.21,0,0,1-.36,4.29c-1.6.94-3.35.35-5,.47a2.72,2.72,0,0,1-2.3-.47A24.68,24.68,0,0,1,334.12,124.07Z"/><path class="cls-30" d="M317.87,111.51h7.31l.06,3.68-.12.9c-2.48.2-5,.56-7.4-.26A4.8,4.8,0,0,1,317.87,111.51Z"/><path class="cls-31" d="M331.05,144.9H337c.7,0,1.34,0,1.42.95a13.84,13.84,0,0,1-.88,3.75,26.33,26.33,0,0,0-5.17-.26c-.8,0-1.66,0-2.2-.76C330.44,147.35,330.75,146.13,331.05,144.9Z"/><path class="cls-32" d="M340.23,135.41h-7.37a20.8,20.8,0,0,1,.54-4,11.93,11.93,0,0,1,7.38,0A16.27,16.27,0,0,1,340.23,135.41Z"/><path class="cls-33" d="M324.83,162.34l1.56-3.05c2.3-.9,4.66-.5,7-.27a.83.83,0,0,1,.7,1.23,8.85,8.85,0,0,1-1.18,2.82c-2.12.16-4.24.07-6.36,0A1.84,1.84,0,0,1,324.83,162.34Z"/><path class="cls-34" d="M317.14,173.36l2.14-2.46a2.67,2.67,0,0,1,1.58-.45c2,0,4.06-.08,6.08,0,.62,0,1.54-.05,1.33,1.09a9,9,0,0,1-1.81,2.52c-2.37.15-4.75.08-7.12.05A2.6,2.6,0,0,1,317.14,173.36Z"/><path class="cls-35" d="M328.27,171.58c-.13-.82-.78-.63-1.3-.64l-7.69,0,1.84-2.44c1.55-1.15,7.79-1.11,9.05.06C329.49,169.51,329.16,170.72,328.27,171.58Z"/><path class="cls-36" d="M330.17,168.52a27.49,27.49,0,0,0-9.05-.06c.66-1,1.33-2,2-3a2.53,2.53,0,0,1,1.55-.49c1.81,0,3.62-.05,5.43,0,.59,0,1.39-.15,1.54.8A11.62,11.62,0,0,1,330.17,168.52Z"/><path class="cls-37" d="M331.64,165.76c-.48-.56-1.13-.32-1.71-.33-2.27,0-4.54,0-6.81,0l1.71-3.09c2.1.62,4.26.2,6.38.33.59,0,1.25-.22,1.7.4A8.86,8.86,0,0,1,331.64,165.76Z"/><path class="cls-38" d="M340.78,131.42l-7.38,0a10.05,10.05,0,0,1,.36-3h7.33A11.66,11.66,0,0,1,340.78,131.42Z"/><path class="cls-39" d="M330.13,148.58c1.95.59,3.95.18,5.93.3.58,0,1.29-.19,1.44.72a6.38,6.38,0,0,1-.64,2.38,46.69,46.69,0,0,1-6.69.08,1.2,1.2,0,0,1-.94-.42Z"/><path class="cls-40" d="M329.23,151.64h6.22c.49,0,1-.15,1.41.34a10.34,10.34,0,0,1-.92,3.08,37.87,37.87,0,0,0-5-.21,3.06,3.06,0,0,1-2.51-.79Z"/><path class="cls-41" d="M334.09,160.25c-.08-.92-.73-1-1.44-1-2.08,0-4.17,0-6.26,0l1-2.44c1.61-.93,3.36-.4,5.05-.48,1,0,2-.27,2.9.49C334.88,158,334.82,159.23,334.09,160.25Z"/><path class="cls-42" d="M335.34,156.86h-7.95l1.05-2.79c2,.52,4.13.28,6.2.34.53,0,1.17-.17,1.3.66A3.85,3.85,0,0,1,335.34,156.86Z"/><path class="cls-43" d="M317.14,173.36c2.53.6,5.1.23,7.65.34.58,0,1.23-.23,1.67.4-.44.44-.57,1.13-1.16,1.47L315,175.49Z"/><path class="cls-44" d="M271,165.73H268.2a.45.45,0,0,1-.07-.28C269.08,165.53,270.07,165.14,271,165.73Z"/><path class="cls-1" d="M271.24,165.73a13,13,0,0,1,2.88-.76,18.75,18.75,0,0,0,9.75-7.28,42.6,42.6,0,0,0,7.27-18.78,241,241,0,0,0,2.35-36c.06-24.81,0-49.61,0-74.42,0-.6.06-1.2.09-1.81a2.72,2.72,0,0,0-1.4.52q-17.77,9.37-35.56,18.73a2.23,2.23,0,0,0-1.39,2.33q.06,38.1,0,76.21a157.28,157.28,0,0,0,1,20c.62,4.86,1.49,9.67,3.66,14.13,1.72,3.52,4.22,6.11,8.24,6.86.86.63,1.9.24,2.83.52a2,2,0,0,0,.54,0l.46-.07Z"/><path class="cls-45" d="M304.34,175.48c-.2-.83-.88-.54-1.38-.55-2.55,0-5.11,0-7.66,0a7.76,7.76,0,0,1-2.71-.37.74.74,0,0,1,.41-.6c1.71-.77,3.36-1.64,5-2.52a1.58,1.58,0,0,1,.89-.13c2.44.15,4.88,0,7.32.1.65,0,1.49-.24,1.78.72A12,12,0,0,1,304.34,175.48Z"/><path class="cls-46" d="M308,172.13c-2.06-.61-4.18-.11-6.26-.27-1.09-.09-2.22.24-3.26-.32a8.16,8.16,0,0,1,4.45-3.59c2.16.13,4.32,0,6.47.11.59,0,1.53-.16,1.37,1A9.16,9.16,0,0,1,308,172.13Z"/><path class="cls-47" d="M324.92,119.55a26.25,26.25,0,0,1-.3,5.53,2.26,2.26,0,0,0-2.75-1.49,3.49,3.49,0,0,1-1.07,0,4.7,4.7,0,0,0-3.68,1c-.58-1.69,0-3.33.2-5a1.19,1.19,0,0,1,.25-.38c1-.79,6.24-.89,7.27-.15C325,119.25,324.91,119.4,324.92,119.55Z"/><path class="cls-48" d="M322.76,141a9.18,9.18,0,0,1-.63,3.31,24.37,24.37,0,0,1-4.52.1c-1,0-1.9.23-2.85.23a6.1,6.1,0,0,1,1.05-5.11c1.94-.11,3.88,0,5.81,0C322.48,139.59,323.16,139.9,322.76,141Z"/><path class="cls-49" d="M321.59,146.76a18.6,18.6,0,0,1-1.27,4.63,35.69,35.69,0,0,0-5.27-.21,3.14,3.14,0,0,1-1.76-.32,4.71,4.71,0,0,1,1.34-4.46,35.39,35.39,0,0,1,5.73-.12A1.51,1.51,0,0,1,321.59,146.76Z"/><path class="cls-50" d="M310.78,169.06c-.14-.74-.74-.56-1.21-.57-1.78,0-3.55,0-5.33,0a3.24,3.24,0,0,1-1.76-.32,5,5,0,0,1,3.19-3.29c1.88.13,3.76,0,5.65.09.74,0,1.56-.07,2,.79A12.35,12.35,0,0,1,310.78,169.06Z"/><path class="cls-51" d="M322.76,141c.06-.95-.54-1-1.28-1-1.92-.07-3.86.29-5.75-.29a3.15,3.15,0,0,1,.64-3.67,26.83,26.83,0,0,1,6-.12c.8,0,1.38.41,1,1.39A11.18,11.18,0,0,1,322.76,141Z"/><path class="cls-40" d="M313.3,150.72h5.48c.62,0,1.24,0,1.54.67a12.66,12.66,0,0,1-1.25,3.64c-2.29-.42-4.64.13-6.92-.42C311.51,153,312.38,151.86,313.3,150.72Z"/><path class="cls-52" d="M324.25,129.89a22.56,22.56,0,0,1-.56,5,3.05,3.05,0,0,0-2.79-1.18c-1.45,0-3,.36-4.36-.36a3.66,3.66,0,0,1,.33-3.81C319.34,129.49,321.83,129,324.25,129.89Z"/><path class="cls-53" d="M324.92,119.55c-1.72-.84-3.54-.19-5.31-.37-.72-.07-1.54-.23-2,.6-.56-.45-.44-1.06-.37-1.66a17.47,17.47,0,0,0,.32-1.92.9.9,0,0,1,.26-.4h5.73a2.62,2.62,0,0,1,1.6.29A10.59,10.59,0,0,1,324.92,119.55Z"/><path class="cls-54" d="M324.25,129.89h-5.71a2.67,2.67,0,0,1-1.59-.31c-.84-1.16-.49-2.22.31-3.23a13.74,13.74,0,0,1,7.28.17A11.24,11.24,0,0,1,324.25,129.89Z"/><path class="cls-55" d="M324.54,126.52h-7.31a1.2,1.2,0,0,1,.07-1.84c.14-1.27.82-1.71,2.1-1.56a13.53,13.53,0,0,0,3.18,0c1.55-.18,2.27.35,2,2C324.59,125.56,324.57,126,324.54,126.52Z"/><path class="cls-56" d="M311.92,154.37l5.59,0c.61,0,1.24-.07,1.56.64a10.72,10.72,0,0,1-1.25,3c-2.36-.35-4.77.12-7.14-.36C310.12,156.56,310.56,155.36,311.92,154.37Z"/><path class="cls-57" d="M316.7,160.24a13.78,13.78,0,0,1-1.94,3.26c-1.68-.14-3.36-.05-5-.08a4.39,4.39,0,0,1-2.51-.54,3.18,3.18,0,0,1,2-3.25c1.82.13,3.65.1,5.47.12C315.39,159.76,316.14,159.64,316.7,160.24Z"/><path class="cls-58" d="M316.62,133.26c1.78,0,3.56.06,5.34,0,1.23-.06,1.84.35,1.73,1.63a5.28,5.28,0,0,1-.33,2.42c.06-.85-.44-1-1.16-1-2,0-4,0-5.94,0A2.26,2.26,0,0,1,316.62,133.26Z"/><path class="cls-59" d="M316.7,160.24c-2.58-.2-5.2.31-7.76-.33a2.3,2.3,0,0,1,1.44-2.48l5.88,0c.59,0,1.23-.1,1.56.6A6.36,6.36,0,0,1,316.7,160.24Z"/><path class="cls-37" d="M307.08,162.66c2.08.5,4.19.24,6.29.32.5,0,1.16-.28,1.39.52a7.4,7.4,0,0,1-1.45,2.26c-1.29-.64-2.68-.21-4-.34s-2.71.3-4-.3A2.68,2.68,0,0,1,307.08,162.66Z"/><path class="cls-60" d="M321.59,146.76l-7.2,0a1.45,1.45,0,0,1,.43-2.13c.18-.17.36-.51.54-.51,2.26,0,4.54-.45,6.77.23A6.11,6.11,0,0,1,321.59,146.76Z"/><path class="cls-1" d="M599,258.45c-1.16-4.62-3.1-8.87-7-11.89a10.16,10.16,0,0,0-13.09.52,15.74,15.74,0,0,0-3.2,4.23,52.3,52.3,0,0,1-.11-5.59c0-1-.21-1.34-1.26-1.27-3.31.24-6.63.41-9.94.53-.9,0-1,.38-1.08,1.18-.1,1.25.27,1.65,1.56,1.66,3,.05,3.9,1,4,4,0,.35,0,.71,0,1.07v39.65c0,3.85-.81,4.83-4.61,5.17-1.39.13-.79,1-.89,1.63s-.08,1.17.89,1.16c5.72,0,11.44,0,17.16,0,.64,0,.88-.19.91-.87.06-1.17.09-2.14-1.58-1.92a5,5,0,0,1-2-.34c-1.38-.4-2.49-1.25-2.52-2.74-.08-4.36,0-8.73,0-13.39.51.66.83,1.1,1.16,1.52a9,9,0,0,0,5.28,3.41c5,1,10.27-1.37,13.39-6.35C600.22,273.16,600.88,265.93,599,258.45Zm-8.67,18.69a12.14,12.14,0,0,1-1.8,4.18,5,5,0,0,1-7.94.76,12.43,12.43,0,0,1-3.47-6.68,42,42,0,0,1,.63-20.71,11.84,11.84,0,0,1,2.67-4.92c2.94-3.16,7-2.6,8.86,1.26a23.69,23.69,0,0,1,1.91,8.45c.18,2,.2,4.08.28,6C591.33,269.47,591.3,273.35,590.33,277.14Z"/><path class="cls-1" d="M201.06,283.89c-.11-.83.36-1.79-1.23-1.81-2.13,0-3-1.05-3.47-3.17a21.83,21.83,0,0,1-.2-4.42q0-22.67,0-45.34c0-.93.09-1.62-1.3-1.51-3.51.29-7,.43-10.56.55-.83,0-1.07.32-1,1.09s-.23,1.49,1,1.45a7.63,7.63,0,0,1,1.82.27c1.71.37,2.63,1.22,2.66,2.88.07,5.24,0,10.49,0,16.08-2.43-3.69-5.32-5.92-9.59-5.47-5.08.53-8.48,3.55-10.88,7.79-3.23,5.69-3.8,11.88-2.93,18.24.65,4.69,2.28,9,5.72,12.41,4.92,4.9,13.71,5,17.22-2.4.06-.14.09-.43.51-.33,0,1.33.06,2.69,0,4-.06,1,.29,1.29,1.3,1.22,3.2-.23,6.42-.37,9.63-.54C200.41,284.89,201.22,285.08,201.06,283.89Zm-13.21-8.38a13.5,13.5,0,0,1-2.11,5,7,7,0,0,1-4.17,2.9c-2.6.62-4.32,0-5.76-2.28a17.92,17.92,0,0,1-2.31-7.07,63.91,63.91,0,0,1-.6-8.53c.14-3.88.22-7.91,1.46-11.8a11.79,11.79,0,0,1,1.55-3.31c2.57-3.66,7.18-3.69,9.75,0a17.27,17.27,0,0,1,2.64,7.74A49.53,49.53,0,0,1,187.85,275.51Z"/><path class="cls-1" d="M318.35,273.79c-.9,0-1.27.19-1.24,1.17a27.06,27.06,0,0,1-.21,3.36,5.84,5.84,0,0,1-.64,2.34,1.63,1.63,0,0,1-1.8.87c-.88-.14-.92-.84-.95-1.52s0-1.63,0-2.45c0-7.39,0-14.79,0-22.19,0-6-2.73-9.32-8.57-10.52-.6-.12-1.21-.2-1.81-.27-4.94-.52-9.52.16-13,4.12a8.22,8.22,0,0,0-1.95,8.11c.88,3,4,3.87,6.14,1.81,1.55-1.49,1.66-3.41,1.3-5.4a3.58,3.58,0,0,0-3.28-3.09c1.82-2.6,5.39-3.2,8.41-2.92a5.42,5.42,0,0,1,5.2,4.74c.48,2.53.08,5.1.26,7.64.08,1.09-.37,1.47-1.32,1.8a61.89,61.89,0,0,0-11.07,4.76c-2.71,1.6-5.19,3.45-6.68,6.33-2.55,4.93-.75,10.82,3.94,12.95a11.16,11.16,0,0,0,14.62-4.74c.1-.19.14-.48.48-.49.14.54.26,1.09.43,1.62a6.16,6.16,0,0,0,6.17,4.57c3.37.05,5.45-1.38,6.5-4.49a24.37,24.37,0,0,0,.91-6.18C320.28,273.77,320.28,273.82,318.35,273.79Zm-12.2-5.94a27.93,27.93,0,0,1-1.22,9,10.35,10.35,0,0,1-3,4.73c-3.38,2.89-7.6,1.49-8.44-2.85a9.9,9.9,0,0,1,2.76-9.4c2.56-2.54,5.78-3.94,9.09-5.18.67-.25.79,0,.78.61C306.13,265.81,306.15,266.83,306.15,267.85Z"/><path class="cls-1" d="M519.6,250.66c-6-8-15.42-8.31-21.92-.75-7.14,8.3-6.91,23.45.48,31.53,5.94,6.49,14.25,6.57,20.23.13a22.66,22.66,0,0,0,5.81-15.42C524.2,260.13,522.91,255.08,519.6,250.66Zm-4.37,26.17a14.57,14.57,0,0,1-1.34,3.56,6.33,6.33,0,0,1-11.09,0,20.06,20.06,0,0,1-2.09-8.38c-.43-6-.58-12,.73-18a13,13,0,0,1,1.32-3.57,6.34,6.34,0,0,1,11.16,0c1.6,3,2,6.3,2.19,9.61.12,1.78,0,3.57,0,5.35A42.75,42.75,0,0,1,515.23,276.83Z"/><path class="cls-1" d="M280.75,271.31c-1.11-.42-1.05.41-1.19,1a21.73,21.73,0,0,1-2.52,6.36c-3,5-11.52,7-15.37-.62-1.91-3.79-2.39-7.85-2.61-12-.05-1.07.62-1,1.29-1h10.26c3.53,0,7.05,0,10.57,0,.87,0,1.14-.24,1.1-1.11A25.84,25.84,0,0,0,279,251.7c-5.57-9.47-17.94-9.82-24-.69-2.79,4.18-3.74,8.89-3.79,13.81-.06,6.76,1.92,12.79,7,17.52,6.74,6.32,17.24,5.1,21.69-2.43a21.56,21.56,0,0,0,2.39-7.05C282.48,271.49,281.54,271.61,280.75,271.31Zm-19.68-20.42a6.3,6.3,0,0,1,4.61-3.64c3-.54,5.17.67,6.44,3.64a23.76,23.76,0,0,1,1.56,8.51c.11,2.73.08,2.73-2.66,2.73H260.17c-.59,0-1.15,0-1.1-.84C259.25,257.73,259.38,254.16,261.07,250.89Z"/><path class="cls-1" d="M158.91,271.27c-.87-.35-.69.44-.77.88a17.36,17.36,0,0,1-2,5.9c-1.87,3.19-4.55,5.07-8.35,5s-6.06-2.13-7.69-5.2c-2-3.7-2.46-7.73-2.55-11.85,0-.95.5-.93,1.16-.93h10.42c3.48,0,6.95,0,10.43,0,.82,0,1.16-.17,1.14-1.09a25.69,25.69,0,0,0-3-11.9c-5.35-9.7-17.57-10.35-23.95-1.28-5.46,7.75-5.52,20.16-.14,28.07,2.74,4,6.34,6.8,11.3,7.35,9.57,1,14.87-5,15.73-13.75C160.75,271.11,159.55,271.53,158.91,271.27Zm-19.35-20.09c1.24-2.41,3.07-4,6-4a5.5,5.5,0,0,1,5.14,3c1.92,3.54,2,7.44,2.05,11.32,0,.83-.63.64-1.1.64h-13c-.6,0-1.1,0-1.08-.85C137.59,257.79,137.93,254.34,139.56,251.18Z"/><path class="cls-61" d="M309.35,18.07c0,.56.1,1.11.1,1.67q0,34,0,68c0,.61-.08,1.22-.12,1.82.14,1.21,0,2.43.08,3.64a1.05,1.05,0,0,1-1.13,1.27,44.24,44.24,0,0,1-5.15,0A1,1,0,0,1,302,93.16,5.44,5.44,0,0,0,302,92a69.31,69.31,0,0,1,0-7.35c.88.47.62,1.33.62,2,0,1,.47,1.46,1.49,1.43s2,0,3.06,0c1.21,0,1.61-.53,1.6-1.66,0-2.09,0-4.18,0-6.27q-.1-3.93,0-7.84-.09-3.69,0-7.37-.1-5.52,0-11c-.09-3.72,0-7.43,0-11.14a2.5,2.5,0,0,1,.45-1.73q0-11.46.07-22.94Z"/><path class="cls-4" d="M309.21,41.05V53.92a11.26,11.26,0,0,1-7,0,118.3,118.3,0,0,1,.06-12.91Z"/><path class="cls-13" d="M302.22,41.05V53.92a2.94,2.94,0,0,1,.46,2c0,2.24,0,4.48,0,6.72,0,1.62.15,1.74,1.74,1.78,1,0,2,0,3.06,0a2.37,2.37,0,0,1,1.72.48V72.3a12.38,12.38,0,0,1-6.93.15c-.53-1.75-.06-3.55-.26-5.31,0-1.94-.07-3.87-.08-5.8l0-33.76c.47.46.27,1.05.28,1.59C302.21,33.13,302.21,37.09,302.22,41.05Z"/><path class="cls-62" d="M296.09,164a13.46,13.46,0,0,1-3.1,3.29c-.33-.71-1-.6-1.58-.6-2,0-4,0-5.94,0a3.16,3.16,0,0,1-1.76-.36q2.21-1.65,4.39-3.32a32.31,32.31,0,0,1,7.29,0C295.9,163,296.4,163.24,296.09,164Z"/><path class="cls-63" d="M302,67.14c.41,1.7,0,3.44.19,5.16.81,1.21.42,2.58.45,3.87.09,4.07-.42,3.55,3.6,3.62,1,0,2.06-.25,2.95.47,0,2.38,0,4.76.05,7.14,0,.86-.31,1.17-1.16,1.15-1.62,0-3.24,0-4.86,0-.81,0-1-.33-1.06-1.09A7.6,7.6,0,0,0,302,84.6Q301.83,75.87,302,67.14Z"/><path class="cls-19" d="M302,92a1.36,1.36,0,0,1,.17,1c-.05.77.24,1.11,1.05,1.09,1.67,0,3.35,0,5,0,.72,0,1-.29,1-1,0-1.16.05-2.32.08-3.49a61.42,61.42,0,0,1,0,8.58c0,.1.05.2.06.3.08,2.43,0,2.5-2.48,2.51-1.21,0-2.42,0-3.63,0-.83,0-1.33-.4-1.27-1.31Q302,95.78,302,92Z"/><path class="cls-64" d="M302,99.6a1.15,1.15,0,0,0,1.35.9,31.46,31.46,0,0,1,4.12,0c1.4.11,2-.34,1.77-1.77a2.11,2.11,0,0,1,.08-.6,62.37,62.37,0,0,1,0,9.47c-1-.68-2.14-.5-3.25-.56a18.15,18.15,0,0,1-4.1-.15C302,104.47,302,102,302,99.6Z"/><path class="cls-65" d="M308.91,121.62a41,41,0,0,1-.54,6.82,2.54,2.54,0,0,0-2.54-1.19,20.83,20.83,0,0,1-4.8-.13c.11-1.53.21-3.07.32-4.6.13-.47,0-1.15.7-1.2C304.35,121.17,306.66,120.69,308.91,121.62Z"/><path class="cls-66" d="M308.91,121.62c-2,0-4.05,0-6.07,0a1.32,1.32,0,0,0-1.49.92c.09-1.84.19-3.68.29-5.51.18-.91.87-1,1.62-1.07,1.43,0,2.85,0,4.28,0,1.13,0,1.73.44,1.56,1.67a9.33,9.33,0,0,1-.13,2Z"/><path class="cls-67" d="M309,119.57c-.1-3.16-.1-3.23-3.28-3.13-1.35,0-2.84-.59-4.05.57a37.45,37.45,0,0,1,.25-5.5,2.73,2.73,0,0,1,2.17-.48c1.73.14,3.54-.48,5.2.48A48.22,48.22,0,0,1,309,119.57Z"/><path class="cls-68" d="M309.26,111.51h-7.37l.05-4.61c2.2-.64,4.44-.15,6.66-.27.65,0,.62.53.69,1Z"/><path class="cls-69" d="M305,147.73a13.56,13.56,0,0,1-1.56,4.23c-1.5-.69-3.1-.41-4.67-.48-.8,0-1.65.19-2.34-.45l1.71-4.32c2-.86,4-.46,6-.3A.92.92,0,0,1,305,147.73Z"/><path class="cls-70" d="M305,147.73c-.08-.87-.67-1-1.4-1-1.82,0-3.64,0-5.46,0,.36-1.43.71-2.85,1.07-4.27a.67.67,0,0,1,.57-.44,50.73,50.73,0,0,1,5.65.08c.37,0,.84.12.78.71A20.51,20.51,0,0,1,305,147.73Z"/><path class="cls-71" d="M306.2,142.79c-.8-.68-1.75-.28-2.63-.32-1.45-.07-2.92,0-4.37,0,.2-1.33.41-2.66.61-4,.12-.22.25-.49.51-.52,2.27-.28,4.55-.67,6.78.23C306.68,139.68,306.89,141.32,306.2,142.79Z"/><path class="cls-72" d="M301,127.12c2.19-.64,4.43-.22,6.64-.25,1,0,.5,1,.7,1.57a7.21,7.21,0,0,1-.31,2.73,50,50,0,0,1-6.24.07,1.44,1.44,0,0,1-1.1-.43C300.82,129.58,300.93,128.35,301,127.12Z"/><path class="cls-73" d="M307.1,138.16h-5.66a2.7,2.7,0,0,0-1.63.29c.19-1.42.39-2.85.58-4.27,1.6-.94,3.35-.35,5-.48a2.75,2.75,0,0,1,2.29.48A13.77,13.77,0,0,1,307.1,138.16Z"/><path class="cls-74" d="M296.42,151H302c.7,0,1.34,0,1.42.94A10.29,10.29,0,0,1,302,155.1c-2,.18-4.08.06-6.12.05a1.54,1.54,0,0,1-1.26-.45Z"/><path class="cls-75" d="M307.71,134.18h-7.32a18.07,18.07,0,0,1,.33-3.37h5.94c.49,0,1-.14,1.4.36A8.29,8.29,0,0,1,307.71,134.18Z"/><path class="cls-76" d="M296.09,164c-.15-.93-.89-.64-1.45-.68-2.18-.13-4.38.29-6.54-.31l2.68-2.79a36.2,36.2,0,0,1,6.16-.07c.63,0,1.35.15,1.3,1.09A10.28,10.28,0,0,1,296.09,164Z"/><path class="cls-56" d="M294.57,154.7c2,0,3.91,0,5.87,0,.52,0,1.12-.18,1.51.39a9,9,0,0,1-1.48,2.7,13.23,13.23,0,0,1-7.83-.05Z"/><path class="cls-77" d="M292.64,157.75l7.83.05c-.86,1.06-1.19,2.46-2.23,3.4-.34-.81-1.05-.63-1.7-.68-1.92-.15-3.88.37-5.76-.34Z"/><path class="cls-30" d="M317.66,117.9a3.35,3.35,0,0,1,.14-1.88A4,4,0,0,1,317.66,117.9Z"/><path class="cls-78" d="M309.21,65c-1.89,0-3.78-.06-5.66,0-1.1,0-1.39-.38-1.37-1.42.06-3.21,0-6.42,0-9.63h7Z"/><path class="cls-11" d="M309.21,80.26c-1.89,0-3.78-.05-5.66,0-1.1,0-1.4-.37-1.37-1.41.07-2.19,0-4.38,0-6.57h7Z"/></g></g></svg>