<svg xmlns="http://www.w3.org/2000/svg" viewBox="0 0 600 194.2"><defs><style>.cls-1{fill:#00579c;}.cls-2{fill:#f7a31a;}</style></defs><g id="Ebene_2" data-name="Ebene 2"><g id="Ebene_2-2" data-name="Ebene 2"><path class="cls-1" d="M338.11,194.2c-2.25-1-4.68-.66-7-.89-13.17-1.31-26.1-3.61-38.51-8.41-1.44-.56-2.08-1.16-1.8-2.86,2.13-12.74,4.16-25.5,6.22-38.25.09-.54.26-1.06.44-1.8,3.22,1.44,6.39,2.83,9.54,4.27A97.19,97.19,0,0,0,349,154.88c6.87-.09,13.57-1.07,19.71-4.32s10.12-7.8,9.73-15.17c-.23-4.35-2.58-7.58-5.67-10.37-4.55-4.12-9.89-7.06-15.33-9.8-8.63-4.36-17.3-8.65-25.05-14.52C323.62,94,316,86.3,312.82,75.47c-4.75-16.08-1.46-31,8-44.6,8.74-12.57,21.18-20.39,35.52-25,26.07-8.45,52.09-7.49,77.92,1.4,1.78.62,2.16,1.42,1.86,3.19-2,12-4.06,24.1-5.94,36.17-.3,1.93-.88,1.86-2.33,1.17a81.83,81.83,0,0,0-25.66-7.64c-10-1.12-20-1.51-29.61,2.12A19.48,19.48,0,0,0,364.16,48c-4.08,5-4,10.65.25,15.48A40.34,40.34,0,0,0,375.8,72c7.12,3.87,14.4,7.45,21.49,11.37a76,76,0,0,1,20.92,16.35c9.54,11,12.67,23.73,10.63,37.85-3.76,26-20,41.25-43.65,50-10.1,3.75-20.65,5.42-31.36,6.15-.56,0-1.28-.31-1.65.47h-3.75c-1.64-.52-3.32-.11-5-.24-1,.11-2-.25-3,.24Z"/><path class="cls-2" d="M0,5.73C.53,3.82,1.74,3.4,3.71,3.41c24.53.09,49.05.06,73.58.06a44.54,44.54,0,0,1,8.14.78c8.88,1.63,14,7.06,15.76,15.72Q109,59.19,116.68,98.46c.11.53.12,1.08.18,1.63s.23.91-.35,1.16c-1.23-.28-1.33-1.45-1.7-2.32A137.16,137.16,0,0,0,96.26,67.7a159.32,159.32,0,0,0-40.9-36.56,16.08,16.08,0,0,1-4.14-3,152.93,152.93,0,0,0-24.4-12.08A192.61,192.61,0,0,0,2.05,7.87,3.9,3.9,0,0,0,0,7.6Z"/><path class="cls-1" d="M343.26,193.81c1.72.14,3.51-.6,5.17.39h-5.16c-.15-.08-.2-.17-.15-.26S343.21,193.81,343.26,193.81Z"/><path class="cls-1" d="M343.26,193.81c0,.13,0,.26,0,.39h-2.81C341.28,193.28,342.32,193.87,343.26,193.81Z"/><path class="cls-1" d="M51.22,28.15A148.89,148.89,0,0,1,80,49.2a145.8,145.8,0,0,1,36.41,51.93c1,.9.81,2.28,1.34,3.37q2.56,12.57,5.15,25.14c.06.28.14.56.29,1.11a4.87,4.87,0,0,0,1.2-2.31Q147.26,67,170.12,5.58c.44-1.19.69-2.16,2.44-2.16,16.18.09,32.35.05,48.53.06.3,0,.6,0,1.15.1-1.32,3.27-2.57,6.43-3.86,9.58Q182.58,101,146.8,188.82a2.91,2.91,0,0,1-3.19,2.19q-23.57-.12-47.13,0c-1.67,0-2.23-.53-2.64-2.06Q72.6,108.78,51.28,28.61A3.2,3.2,0,0,1,51.22,28.15Z"/><path class="cls-1" d="M235.62,191.24c-7.26,0-14.53,0-21.79,0-1.74,0-2.36-.13-2-2.24q9.59-58.62,19-117.28,5.37-33.18,10.72-66.35c.26-1.59.9-2,2.43-2q22.14.09,44.29,0c1.81,0,2.28.42,2,2.22Q284.91,38,279.69,70.38q-5,31-10,62c-3.06,18.89-6.15,37.78-9.15,56.68-.27,1.75-.84,2.27-2.61,2.25C250.47,191.18,243,191.24,235.62,191.24Z"/><path class="cls-2" d="M117.73,104.5a11.82,11.82,0,0,1-1.34-3.37l.47-1A13,13,0,0,1,117.73,104.5Z"/><path class="cls-1" d="M599.62,187.91q-9.78-46.71-19.54-93.43-9.33-44.55-18.64-89.1c-.25-1.2-.44-1.95-2-1.94-12.58.07-25.17,0-37.75.1-11.77.11-19.66,5.59-24.26,16.67-19.26,46.4-38.8,92.69-58.25,139-4.42,10.54-8.85,21.07-13.35,31.77a3.81,3.81,0,0,0,.71.23c16.26,0,32.51,0,48.77.05,1.34,0,1.69-.66,2.06-1.69,2.9-8,5.88-16.06,8.71-24.14.62-1.78,1.37-2.5,3.41-2.49q28.73.14,57.44,0c1.94,0,2.69.5,3,2.42,1.51,8,3.22,15.86,4.77,23.8.31,1.55.87,2.12,2.58,2.11,13.21-.09,26.42,0,39.62,0C600.35,191.24,600.32,191.25,599.62,187.91ZM539.27,124.7q-18-.09-36.08,0c-1.39,0-2.19,0-1.49-1.85q12.39-33.57,24.64-67.19a6.86,6.86,0,0,1,.62-.89c4.74,22.81,9.4,45.35,14.12,67.87C541.44,124.36,540.92,124.71,539.27,124.7Z"/></g></g></svg>