<svg xmlns="http://www.w3.org/2000/svg" viewBox="0 0 600 133.01"><defs><style>.cls-1{fill:#e02526;}</style></defs><g id="Ebene_2" data-name="Ebene 2"><g id="Ebene_2-2" data-name="Ebene 2"><path d="M446,86.88q0-21.09,0-42.17c0-1,.29-1.24,1.26-1.23q11.73.06,23.45,0c.85,0,1.11.21,1.09,1.08-.05,3.07,0,6.14,0,9.2,0,.49-.27,1.24.19,1.4s.69-.6,1-1a32.2,32.2,0,0,1,9.87-9.26A29.8,29.8,0,0,1,497.25,41a31.87,31.87,0,0,1,15.25,3,27.37,27.37,0,0,1,13.68,15.2A37,37,0,0,1,528.7,73v55.86c0,1.64.21,1.43-1.48,1.43-8,0-15.92,0-23.88,0-1,0-1.18-.3-1.18-1.23q0-25.62,0-51.26a16.36,16.36,0,0,0-2.29-8.54,11.94,11.94,0,0,0-9-5.82,14.72,14.72,0,0,0-12.93,4,18.09,18.09,0,0,0-5,10,26.83,26.83,0,0,0-.43,5q0,23.33,0,46.66c0,1-.28,1.18-1.21,1.17q-12.1,0-24.21,0c-.9,0-1.14-.19-1.14-1.12Q446,108,446,86.88Z"/><path d="M310.08,130.26c-11.94,0-23.89,0-35.83,0-1.09,0-1.3-.32-1.29-1.34q.07-8.82,0-17.63a2.77,2.77,0,0,1,.78-2q8.17-9.09,16.35-18.19,9.13-10.2,18.25-20.43c1.6-1.79,3.2-3.57,4.79-5.37.18-.21.58-.37.45-.68s-.57-.18-.87-.18H274.49c-1.5,0-1.5,0-1.5-1.48,0-6.14,0-12.27,0-18.41,0-.78.16-1.05,1-1.05q35.22,0,70.44,0c.84,0,1,.23,1,1,0,6.06-.06,12.12,0,18.18a3.4,3.4,0,0,1-1.13,2.44q-9.63,10.78-19.27,21.56t-19.29,21.69c-.2.24-.63.42-.48.78s.59.17.89.17h34.07c2.08,0,4.16,0,6.24,0,.62,0,.81.16.81.79q0,9.65,0,19.28c0,.9-.42.88-1.06.88Z"/><path d="M44.4,99.07c.73-2.39,1.45-4.78,2.18-7.16Q53.2,70.18,59.82,48.45c.41-1.36.82-2.72,1.18-4.08a1.05,1.05,0,0,1,1.22-.89q12.44,0,24.86,0c1,0,.87.3.63,1Q81,63.81,74.24,83.15l-14.6,42.08c-.5,1.44-1,2.87-1.51,4.32a.87.87,0,0,1-1,.73q-13.14,0-26.28,0a1.1,1.1,0,0,1-1.23-.9q-6.4-18.59-12.88-37.14Q8.47,68.42.16,44.61c-.38-1.09-.07-1.13.87-1.13q12.54,0,25.08,0c.9,0,1.18.28,1.44,1.13,2.87,9.61,5.81,19.19,8.73,28.78l7.59,24.9c.09.28.19.54.28.81Z"/><path d="M177.45,86.83c0-14,0-28.11,0-42.16,0-1,.27-1.2,1.21-1.19q11.56.06,23.12,0c.8,0,1,.17,1,1,0,4.09,0,8.18,0,12.27,0,.35-.29.93.21,1s.56-.51.75-.83a36.33,36.33,0,0,1,5.66-7.33A22.68,22.68,0,0,1,224.76,43a27.84,27.84,0,0,1,6.19.33c.74.14,1,.42,1,1.21q-.06,10.39,0,20.81c0,1.09-.26,1.32-1.32,1.18a29.22,29.22,0,0,0-11.48.56c-7.71,2.05-12.24,7.19-14.18,14.78a33.67,33.67,0,0,0-1,8.43q0,19.38,0,38.77c0,.88-.17,1.18-1.12,1.17q-12.15-.06-24.32,0c-.94,0-1.12-.29-1.11-1.17Q177.47,108,177.45,86.83Z"/><path d="M239.14,86.82q0-21.07,0-42.16c0-1,.25-1.19,1.2-1.19q12.16.06,24.32,0c.89,0,1.16.2,1.15,1.13q0,42.27,0,84.55c0,.94-.28,1.12-1.16,1.12q-12.21,0-24.43,0c-.85,0-1.07-.21-1.07-1.08Q239.17,108,239.14,86.82Z"/><path class="cls-1" d="M528.21,43.49c4.38,0,8.61,0,12.85,0,.59,0,.73.33.91.73l5.52,11.87c2.12,4.55,4.24,9.1,6.46,13.88.72-1.49,1.36-2.81,2-4.13q4.77-10.24,9.52-20.48,5.84-12.51,11.66-25L586.28.64a.85.85,0,0,1,.88-.64c4.23,0,8.46,0,12.84,0l-3,6.41q-10.12,21.72-20.24,43.42-7.44,16-14.92,31.93c-.72,1.55-1.45,3.09-2.15,4.65a1,1,0,0,1-1,.7c-3.14,0-6.29,0-9.43,0a1.07,1.07,0,0,1-1.14-.74q-6.35-13.66-12.72-27.3l-6.87-14.74C528.42,44.12,528.35,43.87,528.21,43.49Z"/><path d="M252.46,36.38c-4.12,0-8.25,0-12.37,0-.75,0-1-.15-1-.94q0-10.89,0-21.78c0-.73.13-1,.93-1q12.38,0,24.74,0c.73,0,1,.14,1,.94q0,10.89,0,21.78c0,.75-.17,1-.95,1C260.71,36.36,256.58,36.38,252.46,36.38Z"/><path d="M171.35,93.44c-.06-2.48-.16-5-.35-7.42-.64-8.35-2.44-16.4-6.44-23.82A38.35,38.35,0,0,0,146,44.72a46.31,46.31,0,0,0-28.56-2.78C104.07,44.65,94.2,52.21,88,64.36a48.89,48.89,0,0,0-5.06,25.26,49.37,49.37,0,0,0,4.36,18.45,40.22,40.22,0,0,0,18.5,19.51c9.83,5.07,20.3,6.13,31.09,4.66a41.43,41.43,0,0,0,23-10.75,32.51,32.51,0,0,0,10-16.1c.2-.79.09-1-.75-1q-11.84,0-23.67,0a1.25,1.25,0,0,0-1.3.86,14,14,0,0,1-3.68,4.69,16.64,16.64,0,0,1-10.19,3.63,19.93,19.93,0,0,1-12.67-3.22c-5.2-3.55-7.5-8.79-8.54-14.78-.16-.91,0-1.15,1-1.14q15.06,0,30.12,0t30.24,0C171.15,94.46,171.36,94.26,171.35,93.44ZM143.36,77c-5.59,0-11.17,0-16.75,0H110.09c-.44,0-1.14.26-.92-.7,1.1-4.91,2.93-9.43,7-12.67a17.05,17.05,0,0,1,26.71,7.45,30.11,30.11,0,0,1,1.27,5C144.32,76.94,144,77,143.36,77Z"/><path d="M440.3,85.19a47.82,47.82,0,0,0-4.22-18.59A41.63,41.63,0,0,0,417,46.45a52.3,52.3,0,0,0-41.39-1.93,41.71,41.71,0,0,0-20.25,16.62,46.32,46.32,0,0,0-7.15,22.73,50.07,50.07,0,0,0,2.22,18.53A42.32,42.32,0,0,0,368.51,126c7.86,5,16.54,7,25.75,7A50.21,50.21,0,0,0,408,131.23a42.27,42.27,0,0,0,24.67-17.57C438.37,105.05,440.64,95.48,440.3,85.19Zm-29.44,16.64c-2,4.8-5.2,8.6-10.23,10.45-6.07,2.23-14,1.43-19.07-4a22.68,22.68,0,0,1-5.43-10.88,45,45,0,0,1,.64-23.07c1.5-4.95,4.14-9.16,8.89-11.65,7-3.68,17.85-2.7,23.31,5.92a30.81,30.81,0,0,1,4.35,14.57c.09,1.3,0,2.62,0,3.93A34.08,34.08,0,0,1,410.86,101.83Z"/></g></g></svg>