<svg xmlns="http://www.w3.org/2000/svg" viewBox="0 0 600 144.98"><defs><style>.cls-1{fill:#007dc5;}.cls-2{fill:#fec120;}</style></defs><g id="Ebene_2" data-name="Ebene 2"><g id="Ebene_2-2" data-name="Ebene 2"><path class="cls-1" d="M30.9,95.29c1.27-6,2.4-11.69,3.69-17.35,3.42-15,6.94-30,10.33-45,.4-1.8,1-2.52,3-2.46,4.74.15,9.49.12,14.23,0a2.17,2.17,0,0,1,2.6,2.07c4,19.62,8.74,39.09,11.83,58.9.15,1,.4,2,.73,3.49,2-10.43,3.9-20.29,5.89-30.13C85.33,54,87.64,43.32,89.81,32.57c.33-1.62,1-2.13,2.64-2.09,4.33.09,8.68.11,13,0,2.13,0,2.76.28,2.12,2.67-6.11,22.74-12.07,45.52-18.08,68.28-1,3.6-1.92,7.2-2.81,10.81A3.1,3.1,0,0,1,83.77,115c-11.14,1.87-17.06-2-19.46-13.09-3.26-15-6.93-30-9.34-45.24a15.67,15.67,0,0,0-1.11-4.46c-.93,4.52-1.74,9.08-2.82,13.56-3.74,15.56-7.62,31.08-11.35,46.64-.39,1.65-1,2.46-2.72,2.51s-3.61.45-5.41.46c-6.9,0-10.88-2.68-13.25-9.29S14.72,92.46,13,85.63C8.71,68.34,4.61,51,.28,33.73c-.66-2.66-.28-3.45,2.59-3.29,4.43.25,8.88.14,13.31,0,1.74,0,2.46.47,2.79,2.26C22.85,53.3,27.15,73.8,30.52,94.47A5.58,5.58,0,0,0,30.9,95.29Z"/><path class="cls-1" d="M216,59.61c13.85-13.72,25.35-13.19,36.5,1.41,3.52-4.9,7.93-8.64,13.82-10.25,13.16-3.62,24.31,3.65,26.94,17.46A55.54,55.54,0,0,1,294,78.77c0,11-.06,22,.05,33,0,2.22-.5,3-2.84,2.91-3.82-.2-7.67-.19-11.5,0-2.23.11-2.9-.5-2.87-2.82.13-10.28,0-20.57.07-30.86a35,35,0,0,0-.76-8.11c-1.37-5.89-5.14-9-10.34-8.55a10.69,10.69,0,0,0-10.08,10.23c-.29,7-.18,13.92-.21,20.87,0,5.65-.06,11.3,0,16.95,0,1.69-.51,2.31-2.24,2.27-4.14-.09-8.28-.14-12.41,0-2.18.08-2.7-.7-2.68-2.76.09-10.79,0-21.59,0-32.38A23.94,23.94,0,0,0,237,70.58c-2.65-6.71-10.17-8.54-15.56-3.71a13.3,13.3,0,0,0-4.53,10.47c0,11.39-.07,22.79.07,34.19,0,2.56-.74,3.25-3.21,3.12-3.93-.21-7.87-.13-11.81,0-1.73,0-2.25-.57-2.25-2.27q.08-29.34,0-58.69c0-1.86.56-2.45,2.41-2.39,3.83.12,7.67.13,11.5,0,1.89-.07,2.5.59,2.37,2.41S216,57.29,216,59.61Z"/><path class="cls-1" d="M411.33,64.54c0-10.28.12-20.57-.08-30.86-.05-2.79.82-3.38,3.38-3.23a106.9,106.9,0,0,0,10.89,0c2.06-.09,2.82.48,2.74,2.66-.16,4.83.06,9.68-.09,14.52-.08,2.16.65,2.76,2.73,2.65,3.32-.16,6.66,0,10-.06,1.53,0,2.17.41,2.14,2q-.15,6,0,12.1c0,1.61-.51,2.08-2.07,2-3.53-.1-7.07.06-10.6-.06-1.77-.07-2.19.58-2.17,2.24.09,7.67,0,15.33.09,23,.13,8.28,3.28,11,11.39,9.66,2.55-.43,2.86.27,2.8,2.43-.08,2.82.07,5.65.23,8.47.07,1.27-.17,2.16-1.56,2.45-5.65,1.22-11.32,2.11-17.05.52-7.41-2.06-10.95-7.33-12.16-14.61-.85-5.12-.53-10.26-.57-15.39C411.29,78.26,411.33,71.4,411.33,64.54Z"/><path class="cls-1" d="M187.8,72.73c0,13-.05,26,0,39,0,2.23-.52,3-2.84,2.91-4-.18-8.07-.12-12.1,0-1.73,0-2.24-.58-2.24-2.27q.06-39.9,0-79.81c0-1.89.83-2.12,2.37-2.1,4,.07,8.07.13,12.1,0,2.12-.08,2.72.6,2.7,2.71C187.75,46.33,187.8,59.53,187.8,72.73Z"/><path class="cls-1" d="M382.72,62.67c4.12-7.91,9.66-12.91,18.88-12.7,1.89.05,2.7.55,2.63,2.6-.15,4-.12,8.07,0,12.1.05,1.74-.37,2.12-2.2,1.92-8.54-.91-14.48,2.59-16.44,9.49a25.28,25.28,0,0,0-.8,6.89c0,9.58,0,19.16.06,28.75,0,2.15-.38,3-2.78,2.93-4.13-.21-8.28-.16-12.41,0-2,.08-2.51-.62-2.5-2.57q.09-29.2,0-58.41c0-1.84.47-2.46,2.36-2.39,3.63.15,7.27.15,10.9,0,1.92-.07,2.43.63,2.36,2.44C382.63,56.68,382.72,59.68,382.72,62.67Z"/><path class="cls-2" d="M470.79,102.55c.21-2.93,1.22-5.17,4.12-6.49,10.64-4.84,21.22-9.81,31.82-14.72,3.33-1.54,6.08-.56,8.08,2.83,2.13,3.63,1.73,6.56-1.34,8.73-9.64,6.8-19.33,13.53-29,20.33a6.09,6.09,0,0,1-7.09.24C473.28,111,471.27,107.22,470.79,102.55Z"/><path class="cls-2" d="M525.75,135.45q1.53-17.16,3.08-34.31c.28-3.06,2.76-4.94,6.46-5s6.52,1.9,6.81,5c.84,9.13,1.63,18.26,2.44,27.39.24,2.81.47,5.62.67,8.43a8.82,8.82,0,0,1-.08,2.41c-.81,3.54-6.41,6.23-11.34,5.51-5.5-.81-8.27-3.52-8.09-7.91,0-.5.06-1,.09-1.51Z"/><path class="cls-2" d="M554.82,56.45c-.18-1.73.72-3.06,2.24-4.13q14.88-10.4,29.72-20.82a5.8,5.8,0,0,1,5.49-.58c4.55,1.53,8.27,7.77,7.67,12.57a6.44,6.44,0,0,1-4.13,5.45c-10.27,4.68-20.47,9.5-30.7,14.25C559.78,65.66,554.88,62.53,554.82,56.45Z"/><path class="cls-2" d="M525.7,9c-.66-4.08.46-6.58,5.78-8.35,5-1.67,11,.13,13.09,3.62a5,5,0,0,1,.67,3.19c-1,12.25-2.06,24.49-3.19,36.73-.28,2.93-3.11,4.7-6.82,4.62s-6.12-1.87-6.39-4.72C527.78,32.53,526.77,21,525.7,9Z"/><path class="cls-2" d="M470.79,42.35c.49-4.48,2.36-8.36,6.51-10.81a6.27,6.27,0,0,1,7.35.31c9.54,6.76,19.15,13.42,28.71,20.15,3.16,2.23,3.61,5.09,1.49,8.69s-4.83,4.48-8.32,2.86c-10.5-4.88-21-9.84-31.51-14.63C472.12,47.6,471,45.44,470.79,42.35Z"/><path class="cls-2" d="M599.91,102.37a12.6,12.6,0,0,1-5.8,10.69A6.47,6.47,0,0,1,586,113c-9.52-6.79-19.14-13.44-28.7-20.17-2.88-2-3.31-5-1.32-8.48s4.73-4.55,8-3c10.71,4.93,21.38,9.93,32.09,14.84A6.12,6.12,0,0,1,599.91,102.37Z"/><path class="cls-1" d="M160,112.6c-1.34-10.95-.45-21.95-.73-32.92-.08-2.92-.18-5.85-.49-8.75-1.18-11.25-8.17-18.6-19.39-20.38a49.75,49.75,0,0,0-26.4,3c-4.31,1.69-4.29,1.73-3,6.25.48,1.64,1.08,3.26,1.43,4.92s.81,2.2,2.71,1.26c6.26-3.09,12.86-4.73,19.89-3.27a8.72,8.72,0,0,1,7.42,7.7c.3,1.79,0,2.66-2,2.56a45.68,45.68,0,0,0-9,.62c-7.06,1-13.88,2.81-19.35,7.71-6.3,5.66-8.17,12.9-6,20.89,2.09,7.58,7.46,12,15.24,13.31,8.76,1.45,16.31-1,22.62-7.64,3.86,6.68,8.65,8.78,15.26,7.14C159.75,114.66,160.23,114.11,160,112.6Zm-29.67-9.23c-4,0-6.74-1.62-8-4.78a9.09,9.09,0,0,1,2.12-10c4.77-4.13,10.72-4.17,16.57-4.47.95,0,1.14.65,1.14,1.42,0,1.31,0,2.62,0,3.93C142.23,98.28,137.93,103.32,130.37,103.37Z"/><path class="cls-1" d="M356.61,112.72a102.88,102.88,0,0,1-.86-14.78c0-8.28.13-16.55-.16-24.82-.38-10.76-5.87-18.62-15.18-21.43-11.51-3.47-22.71-1.79-33.56,3.08-1.37.61-1.37,1.36-1,2.6.8,2.38,1.5,4.81,2.07,7.26.44,1.89,1,2.26,2.93,1.31,6.18-3,12.69-4.62,19.63-3.23,3.13.64,5.62,2.22,6.9,5.28,1.65,3.91,1,4.84-3.12,5-8.85.37-17.52,1.63-25,7-7.25,5.21-9.53,12.58-8,21.08,1.42,7.77,7.47,13.21,15.87,14.53a23.68,23.68,0,0,0,22.28-7.76c3.93,6.83,8.82,8.94,15.55,7.13C356.44,114.59,356.83,114.14,356.61,112.72ZM327,103.37c-4,0-6.86-1.62-8.05-4.63a9.21,9.21,0,0,1,2.18-10.26c4.78-4.06,10.71-4.1,16.53-4.41,1,0,1,.72,1,1.44,0,1.31,0,2.61,0,3.92C338.71,98.34,334.56,103.28,327,103.37Z"/></g></g></svg>